<svg width="119" height="109" viewBox="0 0 119 109" fill="none" xmlns="http://www.w3.org/2000/svg">
<path d="M55.577 79.3583L14.0984 21.1338H107.425C113.619 21.8783 115.495 23.9017 116.758 29.6028C116.758 29.6028 113.647 64.5375 112.61 71.9479C111.573 79.3583 107.425 79.3583 107.425 79.3583H55.577Z" stroke="white" stroke-width="4.03774"/>
<path d="M86.068 28.5443V9.48901C84.6176 3.58833 82.6219 1.55684 74.6614 2.07862C74.6614 2.07862 63.2548 2.07862 57.033 2.07862C50.8112 2.07862 50.8112 9.48901 50.8112 9.48901V28.5443M23.8502 40.1892H6.22178M32.1459 49.7169H0M36.2937 58.1859H15.5545M41.4786 66.6549H10.3696" stroke="black" stroke-width="3.0283"/>
<ellipse cx="63.8726" cy="98.4139" rx="10.3696" ry="10.5863" fill="url(#paint0_linear_209_4263)"/>
<ellipse cx="97.0557" cy="98.4139" rx="10.3696" ry="10.5863" fill="url(#paint1_linear_209_4263)"/>
<path d="M65.1092 61.8933C64.4145 61.8933 63.9169 61.7481 63.6165 61.4578C63.3161 61.1493 63.1659 60.5777 63.1659 59.743C63.1659 59.1805 63.2222 58.4638 63.3349 57.5928C63.4663 56.7037 63.6728 55.4879 63.9545 53.9456C64.4426 51.0968 64.8275 48.629 65.1092 46.5423C65.2782 45.2358 65.3627 44.1471 65.3627 43.2761C65.3627 42.4596 65.0529 42.0513 64.4333 42.0513C63.9451 42.0513 63.3537 42.2963 62.659 42.7862C61.983 43.258 61.232 44.0201 60.4059 45.0725C60.143 45.4173 59.852 45.5896 59.5328 45.5896C59.27 45.5896 59.0353 45.4717 58.8288 45.2358C58.641 44.9818 58.5471 44.7005 58.5471 44.3921C58.5471 44.1017 58.6034 43.8114 58.7161 43.5211C58.8475 43.2126 59.0541 42.8678 59.3357 42.4868C60.2369 41.2711 61.2414 40.3366 62.3492 39.6833C63.4569 39.012 64.5647 38.6763 65.6724 38.6763C66.7051 38.6763 67.4937 38.9938 68.0382 39.6289C68.6014 40.264 68.8831 41.1894 68.8831 42.4051C68.8831 42.8951 68.8361 43.4757 68.7423 44.1471C68.6484 44.8003 68.5639 45.3356 68.4888 45.753C68.4137 46.1703 68.3574 46.4606 68.3198 46.6239C69.39 43.6662 70.5916 41.6067 71.9247 40.4454C73.2578 39.266 74.7223 38.6763 76.3182 38.6763C77.5386 38.6763 78.4962 39.0936 79.1909 39.9283C79.9043 40.763 80.2611 41.9424 80.2611 43.4666C80.2611 44.0654 80.1766 44.8094 80.0076 45.6985C80.9464 43.1945 82.0447 41.3981 83.3027 40.3094C84.5607 39.2206 86.0064 38.6763 87.6399 38.6763C88.9542 38.6763 89.9586 39.0845 90.6533 39.9011C91.3668 40.7176 91.7235 41.8608 91.7235 43.3306C91.7235 44.1289 91.6015 45.0997 91.3574 46.2429L89.6395 54.0272C89.4517 54.9345 89.3578 55.7148 89.3578 56.368C89.3578 57.1301 89.5362 57.7017 89.8929 58.0827C90.2684 58.4638 90.7848 58.6543 91.4419 58.6543C92.0615 58.6543 92.6623 58.4547 93.2444 58.0555C93.8452 57.6563 94.5493 56.994 95.3566 56.0686C95.5819 55.8146 95.8354 55.6875 96.117 55.6875C96.3611 55.6875 96.5489 55.7964 96.6803 56.0142C96.8305 56.2319 96.9056 56.5313 96.9056 56.9123C96.9056 57.62 96.7272 58.1825 96.3705 58.5999C95.3942 59.743 94.4272 60.5777 93.4697 61.1039C92.5121 61.6301 91.5076 61.8933 90.4562 61.8933C88.8603 61.8933 87.6117 61.4396 86.7105 60.5323C85.8092 59.6069 85.3586 58.3731 85.3586 56.8307C85.3586 55.7601 85.5839 54.2087 86.0346 52.1764L87.1611 47.1955C87.1986 47.0322 87.2644 46.7419 87.3582 46.3245C87.4521 45.9072 87.5272 45.5171 87.5835 45.1542C87.6399 44.7731 87.668 44.4011 87.668 44.0382C87.668 43.4031 87.5366 42.9314 87.2737 42.6229C87.0297 42.2963 86.6729 42.133 86.2035 42.133C85.3211 42.133 84.3917 42.6864 83.4154 43.7933C82.4578 44.882 81.5378 46.6965 80.6554 49.2369C79.7917 51.7772 79.0876 55.0797 78.5431 59.1442C78.4117 60.233 78.177 60.9678 77.839 61.3489C77.5198 61.7118 76.9941 61.8933 76.2619 61.8933C75.6235 61.8933 75.1541 61.7481 74.8537 61.4578C74.5721 61.1674 74.4313 60.6231 74.4313 59.8247C74.4313 59.0807 74.5345 58.1099 74.741 56.9123C74.9476 55.6966 75.2104 54.2722 75.5296 52.6391C76.3933 48.2479 76.8251 45.4173 76.8251 44.1471C76.8251 43.4576 76.6843 42.9495 76.4027 42.6229C76.1398 42.2963 75.7362 42.133 75.1917 42.133C74.2717 42.133 73.3235 42.641 72.3472 43.6572C71.3708 44.6552 70.4133 46.4425 69.4745 49.0191C68.5545 51.5776 67.7847 55.0434 67.1651 59.4164C67.0337 60.3418 66.8365 60.986 66.5737 61.3489C66.3296 61.7118 65.8414 61.8933 65.1092 61.8933Z" fill="url(#paint2_linear_209_4263)"/>
<path d="M65.1092 61.8933C64.4145 61.8933 63.9169 61.7481 63.6165 61.4578C63.3161 61.1493 63.1659 60.5777 63.1659 59.743C63.1659 59.1805 63.2222 58.4638 63.3349 57.5928C63.4663 56.7037 63.6728 55.4879 63.9545 53.9456C64.4426 51.0968 64.8275 48.629 65.1092 46.5423C65.2782 45.2358 65.3627 44.1471 65.3627 43.2761C65.3627 42.4596 65.0529 42.0513 64.4333 42.0513C63.9451 42.0513 63.3537 42.2963 62.659 42.7862C61.983 43.258 61.232 44.0201 60.4059 45.0725C60.143 45.4173 59.852 45.5896 59.5328 45.5896C59.27 45.5896 59.0353 45.4717 58.8288 45.2358C58.641 44.9818 58.5471 44.7005 58.5471 44.3921C58.5471 44.1017 58.6034 43.8114 58.7161 43.5211C58.8475 43.2126 59.0541 42.8678 59.3357 42.4868C60.2369 41.2711 61.2414 40.3366 62.3492 39.6833C63.4569 39.012 64.5647 38.6763 65.6724 38.6763C66.7051 38.6763 67.4937 38.9938 68.0382 39.6289C68.6014 40.264 68.8831 41.1894 68.8831 42.4051C68.8831 42.8951 68.8361 43.4757 68.7423 44.1471C68.6484 44.8003 68.5639 45.3356 68.4888 45.753C68.4137 46.1703 68.3574 46.4606 68.3198 46.6239C69.39 43.6662 70.5916 41.6067 71.9247 40.4454C73.2578 39.266 74.7223 38.6763 76.3182 38.6763C77.5386 38.6763 78.4962 39.0936 79.1909 39.9283C79.9043 40.763 80.2611 41.9424 80.2611 43.4666C80.2611 44.0654 80.1766 44.8094 80.0076 45.6985C80.9464 43.1945 82.0447 41.3981 83.3027 40.3094C84.5607 39.2206 86.0064 38.6763 87.6399 38.6763C88.9542 38.6763 89.9586 39.0845 90.6533 39.9011C91.3668 40.7176 91.7235 41.8608 91.7235 43.3306C91.7235 44.1289 91.6015 45.0997 91.3574 46.2429L89.6395 54.0272C89.4517 54.9345 89.3578 55.7148 89.3578 56.368C89.3578 57.1301 89.5362 57.7017 89.8929 58.0827C90.2684 58.4638 90.7848 58.6543 91.4419 58.6543C92.0615 58.6543 92.6623 58.4547 93.2444 58.0555C93.8452 57.6563 94.5493 56.994 95.3566 56.0686C95.5819 55.8146 95.8354 55.6875 96.117 55.6875C96.3611 55.6875 96.5489 55.7964 96.6803 56.0142C96.8305 56.2319 96.9056 56.5313 96.9056 56.9123C96.9056 57.62 96.7272 58.1825 96.3705 58.5999C95.3942 59.743 94.4272 60.5777 93.4697 61.1039C92.5121 61.6301 91.5076 61.8933 90.4562 61.8933C88.8603 61.8933 87.6117 61.4396 86.7105 60.5323C85.8092 59.6069 85.3586 58.3731 85.3586 56.8307C85.3586 55.7601 85.5839 54.2087 86.0346 52.1764L87.1611 47.1955C87.1986 47.0322 87.2644 46.7419 87.3582 46.3245C87.4521 45.9072 87.5272 45.5171 87.5835 45.1542C87.6399 44.7731 87.668 44.4011 87.668 44.0382C87.668 43.4031 87.5366 42.9314 87.2737 42.6229C87.0297 42.2963 86.6729 42.133 86.2035 42.133C85.3211 42.133 84.3917 42.6864 83.4154 43.7933C82.4578 44.882 81.5378 46.6965 80.6554 49.2369C79.7917 51.7772 79.0876 55.0797 78.5431 59.1442C78.4117 60.233 78.177 60.9678 77.839 61.3489C77.5198 61.7118 76.9941 61.8933 76.2619 61.8933C75.6235 61.8933 75.1541 61.7481 74.8537 61.4578C74.5721 61.1674 74.4313 60.6231 74.4313 59.8247C74.4313 59.0807 74.5345 58.1099 74.741 56.9123C74.9476 55.6966 75.2104 54.2722 75.5296 52.6391C76.3933 48.2479 76.8251 45.4173 76.8251 44.1471C76.8251 43.4576 76.6843 42.9495 76.4027 42.6229C76.1398 42.2963 75.7362 42.133 75.1917 42.133C74.2717 42.133 73.3235 42.641 72.3472 43.6572C71.3708 44.6552 70.4133 46.4425 69.4745 49.0191C68.5545 51.5776 67.7847 55.0434 67.1651 59.4164C67.0337 60.3418 66.8365 60.986 66.5737 61.3489C66.3296 61.7118 65.8414 61.8933 65.1092 61.8933Z" stroke="url(#paint3_linear_209_4263)"/>
<defs>
<linearGradient id="paint0_linear_209_4263" x1="53.5029" y1="98.6064" x2="74.2422" y2="98.591" gradientUnits="userSpaceOnUse">
<stop stop-color="#FFAC27"/>
<stop offset="1" stop-color="#FFC108"/>
</linearGradient>
<linearGradient id="paint1_linear_209_4263" x1="86.686" y1="98.6064" x2="107.425" y2="98.591" gradientUnits="userSpaceOnUse">
<stop stop-color="#FFAC27"/>
<stop offset="1" stop-color="#FFC108"/>
</linearGradient>
<linearGradient id="paint2_linear_209_4263" x1="58.5471" y1="50.4958" x2="96.9055" y2="50.4478" gradientUnits="userSpaceOnUse">
<stop stop-color="#FFAC27"/>
<stop offset="1" stop-color="#FFC108"/>
</linearGradient>
<linearGradient id="paint3_linear_209_4263" x1="58.5471" y1="50.4958" x2="96.9055" y2="50.4478" gradientUnits="userSpaceOnUse">
<stop stop-color="#FFAC27"/>
<stop offset="1" stop-color="#FFC108"/>
</linearGradient>
</defs>
</svg>
