<svg width="596" height="359" viewBox="0 0 596 359" fill="none" xmlns="http://www.w3.org/2000/svg">
<path d="M210.567 24.9972H129.411C125.15 24.9972 121.696 28.4496 121.696 32.7083V137.006C121.696 141.265 125.15 144.717 129.411 144.717H210.567C214.828 144.717 218.283 141.265 218.283 137.006V32.7083C218.283 28.4496 214.828 24.9972 210.567 24.9972Z" fill="#EFAF00" stroke="#2D2D2D" stroke-width="2" stroke-linecap="round" stroke-linejoin="round"/>
<path d="M188.105 24.9972H178.717V144.827H188.105V24.9972Z" fill="#3F3F3F"/>
<path d="M473.962 200.654H555.117C559.378 200.654 562.833 197.202 562.833 192.943V113.985C562.833 109.727 559.378 106.274 555.117 106.274L473.962 106.274C469.7 106.274 466.246 109.727 466.246 113.985V192.943C466.246 197.202 469.7 200.654 473.962 200.654Z" fill="#C5DCDD" stroke="#2D2D2D" stroke-width="2" stroke-linecap="round" stroke-linejoin="round"/>
<path d="M496.423 200.741H505.811V106.274H496.423V200.741Z" fill="#3F3F3F"/>
<path d="M551.779 291.109C560.948 296.581 596.635 192.964 594.942 186.588C594.948 186.588 535.584 281.442 551.779 291.109Z" fill="#FFE7C8" stroke="#545454" stroke-width="2" stroke-linecap="round" stroke-linejoin="round"/>
<path d="M544.647 320.937C544.647 320.937 554.796 253.047 594.467 188.378" stroke="#545454" stroke-width="2" stroke-linecap="round" stroke-linejoin="round"/>
<path d="M582.94 267.561C582.94 267.561 563.873 317.459 552.981 312.014C542.29 306.669 582.94 267.561 582.94 267.561Z" fill="#FFE7C8" stroke="#545454" stroke-width="2" stroke-linecap="round" stroke-linejoin="round"/>
<path d="M547.276 320.937C547.276 320.937 570.935 283.676 582.944 267.733" stroke="#545454" stroke-width="2" stroke-linecap="round" stroke-linejoin="round"/>
<path d="M555.317 151.248C555.317 151.248 558.508 263.837 544.647 263.837C528.398 263.837 555.317 151.248 555.317 151.248Z" fill="#FFE7C8" stroke="#545454" stroke-width="2" stroke-linecap="round" stroke-linejoin="round"/>
<path d="M542.077 320.937C542.077 320.937 543.451 220.923 555.317 152.015" stroke="#545454" stroke-width="2" stroke-linecap="round" stroke-linejoin="round"/>
<path d="M508.387 212.795C508.387 212.795 516.718 291.045 530.585 288.636C544.647 286.194 508.387 212.795 508.387 212.795Z" fill="#FFE7C8" stroke="#545454" stroke-width="2" stroke-linecap="round" stroke-linejoin="round"/>
<path d="M508.8 213.603L540.079 321.351" stroke="#545454" stroke-width="2" stroke-linecap="round" stroke-linejoin="round"/>
<path d="M543.451 357.24C538.38 357.24 533.518 355.226 529.933 351.643C526.347 348.059 524.333 343.199 524.333 338.132V333.085C524.333 331.908 524.594 330.747 525.096 329.683C525.599 328.619 526.33 327.68 527.239 326.932L532.317 322.752C533.745 321.579 535.537 320.937 537.386 320.937H549.512C551.361 320.937 553.152 321.579 554.581 322.752L559.659 326.932C560.567 327.68 561.299 328.619 561.802 329.683C562.304 330.747 562.565 331.908 562.565 333.085V338.132C562.565 343.199 560.551 348.058 556.967 351.641C553.382 355.225 548.521 357.239 543.451 357.24Z" fill="#FFE7C8" stroke="#545454" stroke-width="2" stroke-linecap="round" stroke-linejoin="round"/>
<path d="M546.808 223.961L554.815 216.575" stroke="#545454" stroke-width="2" stroke-linecap="round" stroke-linejoin="round"/>
<path d="M546.627 227.741L554.634 220.353" stroke="#545454" stroke-width="2" stroke-linecap="round" stroke-linejoin="round"/>
<path d="M546.627 192.216L549.086 198.892" stroke="#545454" stroke-width="2" stroke-linecap="round" stroke-linejoin="round"/>
<path d="M562.852 254.848H573.099" stroke="#545454" stroke-width="2" stroke-linecap="round" stroke-linejoin="round"/>
<path d="M563.573 252.329H573.82" stroke="#545454" stroke-width="2" stroke-linecap="round" stroke-linejoin="round"/>
<path d="M579.285 215.942H587.475" stroke="#545454" stroke-width="2" stroke-linecap="round" stroke-linejoin="round"/>
<path d="M517.603 266.209L525.386 270.741" stroke="#545454" stroke-width="2" stroke-linecap="round" stroke-linejoin="round"/>
<path d="M518.322 269.63L526.288 274.34" stroke="#545454" stroke-width="2" stroke-linecap="round" stroke-linejoin="round"/>
<path d="M558.71 303.212H565.743" stroke="#545454" stroke-width="2" stroke-linecap="round" stroke-linejoin="round"/>
<path d="M488.155 1.39435H195.699C191.338 1.39435 187.803 4.9276 187.803 9.28608V212.919C187.803 217.278 191.338 220.811 195.699 220.811H488.155C492.516 220.811 496.051 217.278 496.051 212.919V9.28608C496.051 4.9276 492.516 1.39435 488.155 1.39435Z" fill="#FFE7C8" stroke="#545454" stroke-width="2" stroke-linecap="round" stroke-linejoin="round"/>
<path d="M187.803 19.6546H496.051" stroke="#545454" stroke-width="2" stroke-linecap="round" stroke-linejoin="round"/>
<path d="M233.686 8.91402H232.125C230.892 8.91402 229.893 9.9123 229.893 11.1437V12.7039C229.893 13.9354 230.892 14.9336 232.125 14.9336H233.686C234.919 14.9336 235.918 13.9354 235.918 12.7039V11.1437C235.918 9.9123 234.919 8.91402 233.686 8.91402Z" fill="#FFEFF0"/>
<path d="M223.409 8.91402H221.848C220.615 8.91402 219.616 9.9123 219.616 11.1437V12.7039C219.616 13.9354 220.615 14.9336 221.848 14.9336H223.409C224.642 14.9336 225.641 13.9354 225.641 12.7039V11.1437C225.641 9.9123 224.642 8.91402 223.409 8.91402Z" fill="#FFEFF0"/>
<path d="M213.13 8.91402H211.569C210.336 8.91402 209.337 9.9123 209.337 11.1437V12.7039C209.337 13.9354 210.336 14.9336 211.569 14.9336H213.13C214.363 14.9336 215.362 13.9354 215.362 12.7039V11.1437C215.362 9.9123 214.363 8.91402 213.13 8.91402Z" fill="#FFEFF0"/>
<path d="M232.444 7.81063H230.882C229.65 7.81063 228.651 8.80891 228.651 10.0404V11.6005C228.651 12.832 229.65 13.8303 230.882 13.8303H232.444C233.676 13.8303 234.675 12.832 234.675 11.6005V10.0404C234.675 8.80891 233.676 7.81063 232.444 7.81063Z" fill="#C5DCDD" stroke="#2D2D2D" stroke-width="2" stroke-linecap="round" stroke-linejoin="round"/>
<path d="M222.165 7.81063H220.603C219.371 7.81063 218.372 8.80891 218.372 10.0404V11.6005C218.372 12.832 219.371 13.8303 220.603 13.8303H222.165C223.397 13.8303 224.396 12.832 224.396 11.6005V10.0404C224.396 8.80891 223.397 7.81063 222.165 7.81063Z" fill="#EFAF00" stroke="#2D2D2D" stroke-width="2" stroke-linecap="round" stroke-linejoin="round"/>
<path d="M211.888 7.81063H210.327C209.094 7.81063 208.095 8.80891 208.095 10.0404V11.6005C208.095 12.832 209.094 13.8303 210.327 13.8303H211.888C213.12 13.8303 214.119 12.832 214.119 11.6005V10.0404C214.119 8.80891 213.12 7.81063 211.888 7.81063Z" fill="#F46F40" stroke="#2D2D2D" stroke-width="2" stroke-linecap="round" stroke-linejoin="round"/>
<path d="M440.982 156.427H246.518C244.449 156.427 242.772 158.103 242.772 160.171V192.877C242.772 194.945 244.449 196.621 246.518 196.621H440.982C443.051 196.621 444.729 194.945 444.729 192.877V160.171C444.729 158.103 443.051 156.427 440.982 156.427Z" stroke="#545454" stroke-width="2" stroke-linecap="round" stroke-linejoin="round"/>
<path d="M409.854 167.597H386.543V185.591H409.854V167.597Z" fill="#EFAF00" stroke="#2D2D2D" stroke-width="2" stroke-linecap="round" stroke-linejoin="round"/>
<path d="M419.725 185.591H409.854V172.093H414.789L419.725 179.241V185.591Z" fill="#FFE7C8" stroke="#545454" stroke-width="2" stroke-linecap="round" stroke-linejoin="round"/>
<path d="M411.641 174.594H414.16L416.68 178.239H411.641V174.594Z" fill="#FFE7C8" stroke="#545454" stroke-width="2" stroke-linecap="round" stroke-linejoin="round"/>
<path d="M393.419 188.297C394.817 188.297 395.95 187.164 395.95 185.767C395.95 184.37 394.817 183.238 393.419 183.238C392.021 183.238 390.887 184.37 390.887 185.767C390.887 187.164 392.021 188.297 393.419 188.297Z" fill="#FFE7C8" stroke="#545454" stroke-width="2" stroke-linecap="round" stroke-linejoin="round"/>
<path d="M414.755 188.297C416.153 188.297 417.287 187.164 417.287 185.767C417.287 184.37 416.153 183.238 414.755 183.238C413.357 183.238 412.224 184.37 412.224 185.767C412.224 187.164 413.357 188.297 414.755 188.297Z" fill="#FFE7C8" stroke="#545454" stroke-width="2" stroke-linecap="round" stroke-linejoin="round"/>
<path d="M405.174 172.093H397.739" stroke="#545454" stroke-width="2" stroke-linecap="round" stroke-linejoin="round"/>
<path d="M402.492 175.168H395.059" stroke="#545454" stroke-width="2" stroke-linecap="round" stroke-linejoin="round"/>
<path d="M405.174 178.24H397.739" stroke="#545454" stroke-width="2" stroke-linecap="round" stroke-linejoin="round"/>
<path d="M364.969 188.264C370.751 188.264 375.439 183.579 375.439 177.8C375.439 172.02 370.751 167.335 364.969 167.335C359.186 167.335 354.498 172.02 354.498 177.8C354.498 183.579 359.186 188.264 364.969 188.264Z" fill="#FFE7C8" stroke="#545454" stroke-width="2" stroke-linecap="round" stroke-linejoin="round"/>
<path d="M365.013 167.367V188.296" stroke="#545454" stroke-width="2" stroke-linecap="round" stroke-linejoin="round"/>
<path d="M366.864 167.427C366.864 167.427 373.844 175.521 366.864 188.228V167.427Z" fill="#FFE7C8"/>
<path d="M366.864 167.427C366.864 167.427 373.844 175.521 366.864 188.228" stroke="#545454" stroke-width="2" stroke-linecap="round" stroke-linejoin="round"/>
<path d="M363.16 167.427C363.16 167.427 356.181 175.521 363.16 188.228" stroke="#545454" stroke-width="2" stroke-linecap="round" stroke-linejoin="round"/>
<path d="M354.543 177.831H375.482" stroke="#545454" stroke-width="2" stroke-linecap="round" stroke-linejoin="round"/>
<path d="M358.491 186.018C358.491 186.018 364.826 182.214 371.393 186.018" stroke="#545454" stroke-width="2" stroke-linecap="round" stroke-linejoin="round"/>
<path d="M358.491 169.693C358.491 169.693 364.826 173.498 371.393 169.693" stroke="#545454" stroke-width="2" stroke-linecap="round" stroke-linejoin="round"/>
<path d="M334.642 182.942C338.881 182.942 342.317 179.677 342.317 175.65C342.317 171.623 338.881 168.358 334.642 168.358C330.403 168.358 326.967 171.623 326.967 175.65C326.967 179.677 330.403 182.942 334.642 182.942Z" fill="#FFEFF0"/>
<path d="M333.194 182.362C337.557 182.362 341.094 179.002 341.094 174.857C341.094 170.712 337.557 167.352 333.194 167.352C328.83 167.352 325.293 170.712 325.293 174.857C325.293 179.002 328.83 182.362 333.194 182.362Z" fill="#EFAF00" stroke="#2D2D2D" stroke-width="2" stroke-linecap="round" stroke-linejoin="round"/>
<path d="M337.144 171.105C337.66 171.584 338.072 172.165 338.354 172.81C338.635 173.456 338.781 174.153 338.781 174.857C338.781 175.562 338.635 176.258 338.354 176.904C338.072 177.55 337.66 178.13 337.144 178.61" stroke="#545454" stroke-width="2" stroke-linecap="round" stroke-linejoin="round"/>
<path d="M338.771 182.794L343.664 187.936C343.874 188.152 344.158 188.28 344.459 188.295C344.76 188.31 345.055 188.21 345.285 188.015C345.396 187.922 345.486 187.807 345.55 187.677C345.615 187.548 345.652 187.406 345.66 187.262C345.668 187.117 345.647 186.973 345.597 186.837C345.547 186.701 345.47 186.577 345.37 186.472L340.477 181.329C340.267 181.113 339.983 180.985 339.682 180.97C339.381 180.956 339.086 181.056 338.856 181.25C338.746 181.344 338.655 181.459 338.591 181.588C338.526 181.718 338.489 181.859 338.481 182.004C338.473 182.148 338.495 182.293 338.544 182.429C338.594 182.564 338.672 182.689 338.771 182.794Z" fill="#EFAF00" stroke="#2D2D2D" stroke-width="2" stroke-linecap="round" stroke-linejoin="round"/>
<path d="M313.157 170.476H298.33C297.55 170.476 296.917 171.108 296.917 171.887V186.705C296.917 187.485 297.55 188.117 298.33 188.117H313.157C313.937 188.117 314.569 187.485 314.569 186.705V171.887C314.569 171.108 313.937 170.476 313.157 170.476Z" fill="#C5DCDD" stroke="#2D2D2D" stroke-width="2" stroke-linecap="round" stroke-linejoin="round"/>
<path d="M309.053 170.476H295.549C294.769 170.476 294.137 171.108 294.137 171.887V186.705C294.137 187.485 294.769 188.117 295.549 188.117H309.053C309.833 188.117 310.466 187.485 310.466 186.705V171.887C310.466 171.108 309.833 170.476 309.053 170.476Z" fill="#C5DCDD" stroke="#2D2D2D" stroke-width="2" stroke-linecap="round" stroke-linejoin="round"/>
<path d="M302.567 189.074V169.366" stroke="#545454" stroke-width="2" stroke-linecap="round" stroke-linejoin="round"/>
<path d="M293.269 179.254H315.35" stroke="#545454" stroke-width="2" stroke-linecap="round" stroke-linejoin="round"/>
<path d="M305.214 164.814H306.511C307.212 164.814 307.885 165.092 308.381 165.588C308.877 166.083 309.155 166.755 309.155 167.456V167.83C309.155 168.531 308.877 169.203 308.381 169.698C307.885 170.194 307.212 170.472 306.511 170.472H302.569V167.454C302.569 166.753 302.848 166.081 303.344 165.586C303.84 165.09 304.512 164.812 305.214 164.812V164.814Z" stroke="#545454" stroke-width="2" stroke-linecap="round" stroke-linejoin="round"/>
<path d="M302.537 170.476H298.936C298.382 170.476 297.851 170.256 297.459 169.864C297.067 169.473 296.847 168.942 296.847 168.388V168.093C296.847 167.539 297.067 167.008 297.459 166.617C297.851 166.225 298.382 166.005 298.936 166.005H300.448C301.002 166.005 301.534 166.225 301.926 166.617C302.317 167.008 302.537 167.539 302.537 168.093V170.476V170.476Z" stroke="#545454" stroke-width="2" stroke-linecap="round" stroke-linejoin="round"/>
<path d="M305.86 174.087L302.535 170.476L300.504 172.508" stroke="#545454" stroke-width="2" stroke-linecap="round" stroke-linejoin="round"/>
<path d="M271.862 164.648H272.19C272.803 164.648 273.391 164.892 273.825 165.325C274.258 165.758 274.502 166.346 274.502 166.959V170.113H269.55V166.959C269.55 166.346 269.793 165.758 270.227 165.325C270.661 164.892 271.249 164.648 271.862 164.648V164.648Z" stroke="#545454" stroke-width="2" stroke-linecap="round" stroke-linejoin="round"/>
<path d="M270.114 164.648H270.441C271.054 164.648 271.643 164.892 272.076 165.325C272.51 165.758 272.754 166.346 272.754 166.959V170.113H267.801V166.959C267.801 166.346 268.045 165.758 268.478 165.325C268.912 164.892 269.5 164.648 270.114 164.648V164.648Z" stroke="#545454" stroke-width="2" stroke-linecap="round" stroke-linejoin="round"/>
<path d="M279.62 188.296H274.272L276.502 170.106H277.391L279.62 188.296Z" fill="#3F3F3F"/>
<path d="M276.502 170.106L274.272 188.296H261.573L263.8 170.106H276.502Z" fill="#EFAF00" stroke="#2D2D2D" stroke-width="2" stroke-linecap="round" stroke-linejoin="round"/>
<path d="M379.37 82.3632H336.421C334.352 82.3632 332.674 84.0394 332.674 86.1071V129.031C332.674 131.099 334.352 132.775 336.421 132.775H379.37C381.439 132.775 383.116 131.099 383.116 129.031V86.1071C383.116 84.0394 381.439 82.3632 379.37 82.3632Z" fill="#3F3F3F"/>
<path d="M377.273 80.2415H334.323C332.254 80.2415 330.577 81.9177 330.577 83.9854V126.909C330.577 128.977 332.254 130.653 334.323 130.653H377.273C379.342 130.653 381.019 128.977 381.019 126.909V83.9854C381.019 81.9177 379.342 80.2415 377.273 80.2415Z" fill="#FFE7C8" stroke="#545454" stroke-width="2" stroke-linecap="round" stroke-linejoin="round"/>
<path d="M364.73 125.162H350.376C349.019 125.163 347.679 124.858 346.457 124.269C345.235 123.68 344.161 122.824 343.316 121.762C342.472 120.701 341.878 119.463 341.579 118.14C341.28 116.818 341.284 115.445 341.59 114.124L344.483 103.893C344.583 103.461 344.827 103.075 345.175 102.799C345.522 102.522 345.953 102.372 346.398 102.371H368.696C369.14 102.371 369.571 102.522 369.919 102.798C370.266 103.075 370.51 103.461 370.61 103.893L373.505 114.124C373.811 115.444 373.814 116.816 373.515 118.137C373.216 119.459 372.623 120.696 371.78 121.757C370.937 122.817 369.865 123.674 368.644 124.264C367.424 124.854 366.086 125.16 364.73 125.162Z" fill="#EFAF00"/>
<path d="M362.997 123.603H348.642C347.285 123.603 345.946 123.298 344.724 122.708C343.502 122.119 342.429 121.262 341.585 120.201C340.741 119.14 340.147 117.902 339.848 116.579C339.549 115.257 339.553 113.884 339.858 112.563L342.753 102.335C342.853 101.902 343.097 101.515 343.444 101.239C343.792 100.962 344.223 100.811 344.668 100.811H366.968C367.413 100.811 367.844 100.962 368.192 101.239C368.539 101.516 368.783 101.902 368.883 102.335L371.776 112.563C372.082 113.884 372.086 115.256 371.787 116.579C371.489 117.901 370.895 119.139 370.051 120.2C369.207 121.261 368.135 122.118 366.913 122.708C365.692 123.297 364.353 123.603 362.997 123.603V123.603Z" stroke="#545454" stroke-width="2" stroke-linecap="round" stroke-linejoin="round"/>
<path d="M364.509 98.9992C364.51 99.6057 364.463 100.211 364.371 100.811H347.268C347.175 100.211 347.129 99.6057 347.129 98.9992C347.129 93.3972 351.018 88.8582 355.817 88.8582C360.616 88.8582 364.509 93.3972 364.509 98.9992Z" stroke="#545454" stroke-width="2" stroke-linecap="round" stroke-linejoin="round"/>
<path d="M368.404 101.431C368.111 108.107 362.469 113.433 355.817 113.433C349.344 113.433 343.528 108.118 343.234 101.434C343.418 101.237 343.64 101.08 343.886 100.973C344.133 100.866 344.399 100.811 344.668 100.811H366.966C367.236 100.811 367.502 100.866 367.749 100.973C367.997 101.079 368.219 101.236 368.404 101.431Z" stroke="#545454" stroke-width="2" stroke-linecap="round" stroke-linejoin="round"/>
<path d="M356.685 111.475H354.951V115.554H356.685V111.475Z" stroke="#545454" stroke-width="2" stroke-linecap="round" stroke-linejoin="round"/>
<path d="M371.023 86.4324C374.102 86.4324 376.598 83.9376 376.598 80.8602C376.598 77.7827 374.102 75.2879 371.023 75.2879C367.944 75.2879 365.447 77.7827 365.447 80.8602C365.447 83.9376 367.944 86.4324 371.023 86.4324Z" fill="#C5DCDD" stroke="#2D2D2D" stroke-width="2" stroke-linecap="round" stroke-linejoin="round"/>
<path d="M368.97 80.6981L370.799 83.2807L373.078 78.4386" stroke="#545454" stroke-width="2" stroke-linecap="round" stroke-linejoin="round"/>
<path d="M442.163 48.7447H333.662C331.958 48.7447 330.577 50.1249 330.577 51.8274V67.883C330.577 69.5856 331.958 70.9657 333.662 70.9657H442.163C443.867 70.9657 445.248 69.5856 445.248 67.883V51.8274C445.248 50.1249 443.867 48.7447 442.163 48.7447Z" stroke="#545454" stroke-width="2" stroke-linecap="round" stroke-linejoin="round"/>
<path d="M364.277 67.2027H348.499C348.499 67.2027 344.183 60.2762 342.709 60.2762C341.858 60.2762 341.509 67.2048 341.509 67.2048H340.526C340.526 67.2048 338.229 53.0541 340.775 52.2441C342.434 51.7169 346.927 53.12 348.161 58.6753C349.203 63.3525 355.196 64.1923 355.862 61.1053C355.862 61.1032 363.996 63.4992 364.277 67.2027Z" fill="#FFE7C8" stroke="#545454" stroke-width="2" stroke-linecap="round" stroke-linejoin="round"/>
<path d="M404.753 63.8053C404.725 64.1349 404.132 65.7039 404.132 65.7039L373.801 64.677V62.9762C373.835 60.7794 374.337 58.6151 375.275 56.628C376.064 54.9846 377.156 55.3949 377.156 55.3949C377.156 55.3949 380.121 58.2926 383.448 58.2926C383.738 58.2898 384.023 58.2115 384.274 58.0653C384.524 57.9192 384.732 57.7103 384.878 57.4592C385.073 57.1528 385.226 56.8208 385.331 56.4727C385.471 56.0193 385.568 55.5538 385.622 55.0823C385.648 54.8834 385.721 54.6934 385.835 54.5285C385.949 54.3637 386.102 54.2287 386.279 54.1351C386.457 54.0415 386.654 53.992 386.855 53.9907C387.056 53.9894 387.254 54.0364 387.433 54.1278C388.739 54.7996 390.324 56.3005 394.57 58.5924C394.782 58.7072 394.995 58.8262 395.229 58.9453C400.394 61.6645 404.698 60.6546 404.753 63.8053Z" fill="#FFE7C8" stroke="#545454" stroke-width="2" stroke-linecap="round" stroke-linejoin="round"/>
<path d="M401.343 67.2019C402.221 67.2019 403.291 66.8044 403.868 66.1625C404.225 65.7437 404.482 65.2489 404.619 64.7159C404.756 64.1828 404.769 63.6256 404.657 63.0867H404.634C404.511 63.7277 404.173 64.3075 403.675 64.7295C403.177 65.1514 402.549 65.3901 401.896 65.4058L375.601 64.6342C375.197 64.6215 374.807 64.4841 374.485 64.2409C374.162 63.9976 373.924 63.6605 373.801 63.2759V65.0401C373.801 66.2347 374.669 67.2019 375.737 67.2019H401.343Z" fill="#EFAF00" stroke="#2D2D2D" stroke-width="2" stroke-linecap="round" stroke-linejoin="round"/>
<path d="M395.725 59.2121C389.156 56.9675 385.869 55.9515 385.331 56.4914C385.471 56.038 385.568 55.5727 385.622 55.1013C385.648 54.9023 385.721 54.7124 385.835 54.5476C385.949 54.3827 386.102 54.2478 386.279 54.1542C386.457 54.0606 386.654 54.0111 386.855 54.0098C387.056 54.0085 387.254 54.0555 387.433 54.1469C388.739 54.8079 390.923 56.8017 395.725 59.2121Z" fill="#EFAF00" stroke="#2D2D2D" stroke-width="2" stroke-linecap="round" stroke-linejoin="round"/>
<path d="M388.556 56.2491L389.747 54.4381C389.817 54.3322 389.907 54.2415 390.013 54.1716C390.118 54.1017 390.237 54.054 390.362 54.0313C390.487 54.0087 390.615 54.0115 390.738 54.0398C390.862 54.0681 390.978 54.1211 391.081 54.1958V54.1958C391.264 54.3298 391.392 54.5256 391.441 54.7469C391.491 54.9682 391.458 55.1999 391.349 55.3988L391.189 55.69" stroke="#545454" stroke-width="2" stroke-linecap="round" stroke-linejoin="round"/>
<path d="M391.619 57.1868L392.491 55.8838C392.554 55.7928 392.635 55.7156 392.729 55.6567C392.823 55.5978 392.927 55.5586 393.037 55.5413C393.146 55.524 393.258 55.5291 393.365 55.5561C393.472 55.5832 393.573 55.6318 393.661 55.6989C393.82 55.8196 393.93 55.9943 393.969 56.19C394.008 56.3858 393.974 56.589 393.874 56.7616L393.559 57.3313" stroke="#545454" stroke-width="2" stroke-linecap="round" stroke-linejoin="round"/>
<path d="M396.016 58.5751C396.365 58.1011 396.28 57.5569 395.931 57.2997C395.837 57.2298 395.73 57.1798 395.616 57.1526C395.502 57.1254 395.384 57.1216 395.269 57.1415C395.153 57.1613 395.043 57.2045 394.945 57.2682C394.847 57.332 394.762 57.415 394.697 57.5123L394.163 58.3859" stroke="#545454" stroke-width="2" stroke-linecap="round" stroke-linejoin="round"/>
<path d="M435.198 53.5112C437.832 53.5112 439.968 51.3772 439.968 48.7447C439.968 46.1123 437.832 43.9782 435.198 43.9782C432.564 43.9782 430.429 46.1123 430.429 48.7447C430.429 51.3772 432.564 53.5112 435.198 53.5112Z" fill="#F46F40" stroke="#2D2D2D" stroke-width="2" stroke-linecap="round" stroke-linejoin="round"/>
<path d="M433.631 50.3705L436.766 47.1183" stroke="#545454" stroke-width="2" stroke-linecap="round" stroke-linejoin="round"/>
<path d="M436.766 50.3705L433.631 47.1183" stroke="#545454" stroke-width="2" stroke-linecap="round" stroke-linejoin="round"/>
<path d="M413.879 59.6022C413.879 59.6022 410.475 67.2027 415.419 67.2027H438.368C438.368 67.2027 439.291 63.4801 433.331 62.5255C432.501 62.3916 430.14 61.9387 430.14 61.9387C430.14 61.9387 430.876 64.9151 425.63 64.6791C420.384 64.4432 418.012 59.9764 413.879 59.6022Z" fill="#FFE7C8" stroke="#545454" stroke-width="2" stroke-linecap="round" stroke-linejoin="round"/>
<path d="M323.061 52.14H249.873C247.804 52.14 246.126 53.8162 246.126 55.8839V129.029C246.126 131.097 247.804 132.773 249.873 132.773H323.061C325.13 132.773 326.807 131.097 326.807 129.029V55.8839C326.807 53.8162 325.13 52.14 323.061 52.14Z" fill="#3F3F3F"/>
<path d="M319.707 48.7447H246.518C244.449 48.7447 242.772 50.4209 242.772 52.4886V125.634C242.772 127.702 244.449 129.378 246.518 129.378H319.707C321.776 129.378 323.453 127.702 323.453 125.634V52.4886C323.453 50.4209 321.776 48.7447 319.707 48.7447Z" fill="#EFAF00" stroke="#2D2D2D" stroke-width="2" stroke-linecap="round" stroke-linejoin="round"/>
<path d="M313.125 81.3236L302.414 90.391V114.685H266.752V90.3995L256.044 81.3236L264.261 71.1188C266.752 68.9524 270.545 68.6123 273.3 68.6123H296.875C302.406 68.6123 303.807 69.6519 305.243 70.7829L313.125 81.3236Z" fill="#3F3F3F"/>
<path d="M312.234 79.676L301.329 88.905V113.639H265.008V88.905L254.106 79.676L262.47 69.2585C265.008 67.0518 268.871 66.7073 271.675 66.7073H295.677C301.308 66.7073 302.733 67.7703 304.186 68.9163L312.234 79.676Z" fill="#FFE7C8" stroke="#545454" stroke-width="2" stroke-linecap="round" stroke-linejoin="round"/>
<path d="M265.012 88.905V80.1586" stroke="#545454" stroke-width="2" stroke-linecap="round" stroke-linejoin="round"/>
<path d="M301.312 88.9879V80.2415" stroke="#545454" stroke-width="2" stroke-linecap="round" stroke-linejoin="round"/>
<path d="M283.166 74.7692V113.633" stroke="#545454" stroke-width="2" stroke-linecap="round" stroke-linejoin="round"/>
<path d="M294.443 66.7159H286.268C286.191 66.7152 286.116 66.7387 286.054 66.783C285.991 66.8272 285.944 66.89 285.919 66.9625L283.166 74.7692L280.269 67.0263C280.235 66.935 280.174 66.8563 280.093 66.8008C280.013 66.7454 279.918 66.7157 279.82 66.7159H271.762L275.678 63.3844C276.554 62.6382 277.667 62.2282 278.818 62.2279H287.387C288.539 62.228 289.652 62.638 290.529 63.3844L294.443 66.7159Z" fill="#FFE7C8" stroke="#545454" stroke-width="2" stroke-linecap="round" stroke-linejoin="round"/>
<path d="M277.363 63.4078L280.152 66.7158L276.961 71.2676L271.758 66.7158L275.834 63.2781C275.943 63.1859 276.069 63.1161 276.204 63.0727C276.34 63.0293 276.483 63.0132 276.625 63.0253C276.768 63.0373 276.906 63.0773 277.033 63.143C277.159 63.2086 277.272 63.2986 277.363 63.4078Z" fill="#FFE7C8" stroke="#545454" stroke-width="2" stroke-linecap="round" stroke-linejoin="round"/>
<path d="M288.844 63.4078L286.053 66.7159L289.244 71.2676L294.447 66.7159L290.372 63.2781C290.263 63.1863 290.137 63.1167 290.001 63.0735C289.866 63.0303 289.723 63.0143 289.581 63.0263C289.439 63.0384 289.301 63.0783 289.175 63.1437C289.048 63.2092 288.936 63.2989 288.844 63.4078Z" fill="#FFE7C8" stroke="#545454" stroke-width="2" stroke-linecap="round" stroke-linejoin="round"/>
<path d="M288.621 80.8602H295.854V87.7165C295.854 88.0734 295.712 88.4157 295.459 88.6681C295.207 88.9205 294.864 89.0623 294.507 89.0623H289.967C289.61 89.0623 289.268 88.9205 289.015 88.6681C288.763 88.4157 288.621 88.0734 288.621 87.7165V80.8602Z" fill="#FFE7C8" stroke="#545454" stroke-width="2" stroke-linecap="round" stroke-linejoin="round"/>
<path d="M280.946 78.4978C281.431 78.4978 281.824 78.1048 281.824 77.62C281.824 77.1351 281.431 76.7421 280.946 76.7421C280.46 76.7421 280.067 77.1351 280.067 77.62C280.067 78.1048 280.46 78.4978 280.946 78.4978Z" fill="#3F3F3F"/>
<path d="M280.946 85.2181C281.431 85.2181 281.824 84.8251 281.824 84.3403C281.824 83.8554 281.431 83.4624 280.946 83.4624C280.46 83.4624 280.067 83.8554 280.067 84.3403C280.067 84.8251 280.46 85.2181 280.946 85.2181Z" fill="#3F3F3F"/>
<path d="M280.946 91.9384C281.431 91.9384 281.824 91.5454 281.824 91.0606C281.824 90.5757 281.431 90.1827 280.946 90.1827C280.46 90.1827 280.067 90.5757 280.067 91.0606C280.067 91.5454 280.46 91.9384 280.946 91.9384Z" fill="#3F3F3F"/>
<path d="M280.946 98.6587C281.431 98.6587 281.824 98.2657 281.824 97.7809C281.824 97.296 281.431 96.903 280.946 96.903C280.46 96.903 280.067 97.296 280.067 97.7809C280.067 98.2657 280.46 98.6587 280.946 98.6587Z" fill="#3F3F3F"/>
<path d="M280.946 105.379C281.431 105.379 281.824 104.986 281.824 104.501C281.824 104.016 281.431 103.623 280.946 103.623C280.46 103.623 280.067 104.016 280.067 104.501C280.067 104.986 280.46 105.379 280.946 105.379Z" fill="#3F3F3F"/>
<path d="M308.834 59.1451C313.663 59.1451 317.577 55.2331 317.577 50.4073C317.577 45.5815 313.663 41.6694 308.834 41.6694C304.005 41.6694 300.091 45.5815 300.091 50.4073C300.091 55.2331 304.005 59.1451 308.834 59.1451Z" fill="#FFE7C8" stroke="#545454" stroke-width="2" stroke-linecap="round" stroke-linejoin="round"/>
<path d="M306.581 46.4997C305.46 46.4997 304.705 47.3669 304.705 48.655C304.705 50.026 305.394 50.8465 306.547 50.8465C307.7 50.8465 308.407 49.9962 308.407 48.6104C308.404 47.3074 307.709 46.4997 306.581 46.4997ZM306.567 50.0302C305.796 50.0302 305.682 49.1609 305.682 48.6423C305.682 47.792 305.996 47.3159 306.567 47.3159C307.292 47.3159 307.443 48.0258 307.443 48.6231C307.443 49.5584 307.147 50.0302 306.567 50.0302Z" fill="#3F3F3F"/>
<path d="M311.355 49.5973C310.253 49.5973 309.481 50.4836 309.481 51.7505C309.481 53.1023 310.187 53.9419 311.323 53.9419C312.459 53.9419 313.182 53.0917 313.182 51.7058C313.182 50.405 312.482 49.5973 311.355 49.5973ZM311.342 53.1257C310.572 53.1257 310.457 52.2585 310.457 51.7398C310.457 50.8896 310.778 50.4114 311.342 50.4114C312.065 50.4114 312.217 51.1234 312.217 51.7186C312.217 52.622 311.897 53.1257 311.342 53.1257Z" fill="#3F3F3F"/>
<path d="M311.878 46.5975L306.994 53.8642H306.02L310.9 46.5975H311.878Z" fill="#3F3F3F"/>
<path d="M442.48 82.3633H399.53C397.461 82.3633 395.784 84.0395 395.784 86.1071V129.031C395.784 131.099 397.461 132.775 399.53 132.775H442.48C444.549 132.775 446.226 131.099 446.226 129.031V86.1071C446.226 84.0395 444.549 82.3633 442.48 82.3633Z" fill="#3F3F3F"/>
<path d="M440.383 80.2415H397.433C395.364 80.2415 393.687 81.9177 393.687 83.9854V126.909C393.687 128.977 395.364 130.653 397.433 130.653H440.383C442.451 130.653 444.129 128.977 444.129 126.909V83.9854C444.129 81.9177 442.451 80.2415 440.383 80.2415Z" fill="#C5DCDD" stroke="#2D2D2D" stroke-width="2" stroke-linecap="round" stroke-linejoin="round"/>
<path d="M432.75 99.6264H409.75C408.97 99.6264 408.337 100.258 408.337 101.038V121.037C408.337 121.817 408.97 122.449 409.75 122.449H432.75C433.53 122.449 434.162 121.817 434.162 121.037V101.038C434.162 100.258 433.53 99.6264 432.75 99.6264Z" fill="white"/>
<path d="M434.19 100.147V120.079C434.19 120.39 434.129 120.698 434.01 120.985C433.891 121.273 433.717 121.534 433.497 121.754C433.276 121.974 433.015 122.148 432.727 122.267C432.44 122.386 432.132 122.447 431.82 122.447H426.077C426.705 122.447 427.308 122.197 427.752 121.753C428.197 121.309 428.446 120.707 428.446 120.079V100.147C428.447 99.836 428.386 99.5277 428.267 99.24C428.148 98.9523 427.973 98.6908 427.753 98.4705C427.533 98.2501 427.272 98.0753 426.984 97.9559C426.697 97.8365 426.388 97.7749 426.077 97.7746H431.82C432.132 97.7749 432.44 97.8365 432.728 97.9559C433.015 98.0753 433.277 98.2501 433.497 98.4705C433.717 98.6908 433.891 98.9523 434.01 99.24C434.129 99.5277 434.19 99.836 434.19 100.147Z" stroke="#545454" stroke-width="2" stroke-linecap="round" stroke-linejoin="round"/>
<path d="M428.453 100.147V120.079C428.453 120.707 428.203 121.309 427.759 121.753C427.314 122.197 426.712 122.447 426.083 122.447H408.001C407.689 122.448 407.38 122.388 407.091 122.27C406.802 122.151 406.54 121.977 406.319 121.757C406.097 121.537 405.922 121.275 405.802 120.987C405.682 120.699 405.621 120.39 405.621 120.079V100.147C405.621 99.5184 405.871 98.9152 406.315 98.4703C406.76 98.0254 407.363 97.7752 407.993 97.7746H426.074C426.387 97.7738 426.696 97.8346 426.985 97.9535C427.273 98.0723 427.536 98.247 427.757 98.4674C427.978 98.6879 428.153 98.9497 428.272 99.238C428.392 99.5262 428.453 99.8352 428.453 100.147Z" stroke="#545454" stroke-width="2" stroke-linecap="round" stroke-linejoin="round"/>
<path d="M417.406 123.555V95.9931" stroke="#545454" stroke-width="2" stroke-linecap="round" stroke-linejoin="round"/>
<path d="M404.634 110.052H435.052" stroke="#545454" stroke-width="2" stroke-linecap="round" stroke-linejoin="round"/>
<path d="M421.103 89.8595H422.918C423.899 89.8595 424.84 90.249 425.533 90.9424C426.227 91.6357 426.617 92.5761 426.617 93.5566V94.0796C426.617 95.0602 426.227 96.0006 425.533 96.6939C424.84 97.3873 423.899 97.7768 422.918 97.7768H417.406V93.5545C417.406 92.5747 417.796 91.6352 418.489 90.9424C419.183 90.2496 420.123 89.8601 421.103 89.8595V89.8595Z" stroke="#545454" stroke-width="2" stroke-linecap="round" stroke-linejoin="round"/>
<path d="M417.363 97.7725H412.328C411.553 97.7725 410.811 97.465 410.263 96.9177C409.715 96.3704 409.407 95.6281 409.407 94.8541V94.4396C409.407 93.6656 409.715 92.9233 410.263 92.376C410.811 91.8287 411.553 91.5212 412.328 91.5212H414.443C415.217 91.5212 415.96 91.8287 416.508 92.376C417.056 92.9233 417.363 93.6656 417.363 94.4396V97.7725V97.7725Z" stroke="#545454" stroke-width="2" stroke-linecap="round" stroke-linejoin="round"/>
<path d="M422.011 102.827L417.363 97.7768L414.519 100.619" stroke="#545454" stroke-width="2" stroke-linecap="round" stroke-linejoin="round"/>
<path d="M53.1955 90.5675C57.7293 90.5675 61.4047 86.8943 61.4047 82.3632C61.4047 77.8322 57.7293 74.159 53.1955 74.159C48.6617 74.159 44.9864 77.8322 44.9864 82.3632C44.9864 86.8943 48.6617 90.5675 53.1955 90.5675Z" stroke="#545454" stroke-width="2" stroke-linecap="round" stroke-linejoin="round"/>
<path d="M73.6408 49.7174C75.0776 49.7174 76.2424 48.5535 76.2424 47.1178C76.2424 45.6821 75.0776 44.5182 73.6408 44.5182C72.2039 44.5182 71.0391 45.6821 71.0391 47.1178C71.0391 48.5535 72.2039 49.7174 73.6408 49.7174Z" stroke="#545454" stroke-width="2" stroke-linecap="round" stroke-linejoin="round"/>
<path d="M355.251 266.737H356.251C358.118 266.737 359.909 267.478 361.23 268.798C362.55 270.118 363.292 271.907 363.292 273.774V280.577H348.212V273.774C348.212 271.908 348.954 270.118 350.274 268.799C351.594 267.479 353.384 266.737 355.251 266.737V266.737Z" stroke="#545454" stroke-width="2" stroke-linecap="round" stroke-linejoin="round"/>
<path d="M360.338 266.737H361.337C363.205 266.737 364.996 267.478 366.316 268.798C367.637 270.118 368.379 271.907 368.379 273.774V280.577H353.29V273.774C353.29 272.849 353.472 271.934 353.826 271.079C354.181 270.225 354.7 269.449 355.354 268.796C356.009 268.142 356.786 267.624 357.641 267.271C358.496 266.917 359.412 266.736 360.338 266.737Z" stroke="#545454" stroke-width="2" stroke-linecap="round" stroke-linejoin="round"/>
<path d="M391.04 353.278H370.842L379.404 280.564H382.478L391.04 353.278Z" fill="#3F3F3F"/>
<path d="M379.404 280.564L370.842 353.278H323.904L332.468 280.564H379.404Z" stroke="#545454" stroke-width="2" stroke-linecap="round" stroke-linejoin="round"/>
<path d="M373.414 302.764H366.539L367.415 292.757C367.51 291.827 367.943 290.964 368.632 290.331C369.321 289.698 370.217 289.339 371.153 289.321C371.593 289.313 372.03 289.399 372.434 289.573C372.839 289.747 373.202 290.005 373.499 290.33C373.796 290.655 374.02 291.04 374.156 291.458C374.293 291.877 374.338 292.319 374.29 292.757L373.414 302.764Z" fill="white"/>
<path d="M372.81 302.16H365.934L366.811 292.153C366.906 291.223 367.338 290.359 368.027 289.726C368.716 289.092 369.613 288.733 370.548 288.715V288.715C370.989 288.708 371.426 288.794 371.83 288.968C372.235 289.142 372.598 289.4 372.895 289.726C373.191 290.051 373.416 290.436 373.552 290.854C373.689 291.273 373.734 291.716 373.686 292.153L372.81 302.16Z" stroke="#545454" stroke-width="2" stroke-linecap="round" stroke-linejoin="round"/>
<path d="M370.796 292.004C371.105 291.708 371.135 291.239 370.864 290.956C370.593 290.673 370.122 290.683 369.813 290.978C369.505 291.274 369.474 291.743 369.746 292.026C370.017 292.309 370.487 292.299 370.796 292.004Z" stroke="#545454" stroke-width="2" stroke-linecap="round" stroke-linejoin="round"/>
<path d="M370.329 291.407L371.308 280.048C371.341 279.668 371.515 279.315 371.796 279.058C372.076 278.8 372.444 278.657 372.825 278.657V278.657C373.229 278.657 373.616 278.818 373.902 279.103C374.187 279.389 374.348 279.776 374.348 280.179" stroke="#545454" stroke-width="2" stroke-linecap="round" stroke-linejoin="round"/>
<path d="M369.883 298.543C370.058 298.516 370.221 298.435 370.348 298.311C370.459 298.204 370.527 298.061 370.54 297.908C370.551 297.839 370.546 297.768 370.526 297.701C370.505 297.635 370.469 297.574 370.421 297.523C370.297 297.417 370.152 297.338 369.995 297.293L369.642 297.189C369.428 297.132 369.221 297.052 369.023 296.953C368.862 296.869 368.729 296.741 368.638 296.583C368.54 296.394 368.504 296.178 368.534 295.967C368.552 295.659 368.69 295.37 368.917 295.161C369.179 294.938 369.509 294.81 369.853 294.798H370.214C370.391 294.811 370.564 294.853 370.727 294.923C370.869 294.986 370.992 295.084 371.084 295.208C371.157 295.299 371.215 295.4 371.257 295.508C371.291 295.598 371.306 295.694 371.301 295.791C371.291 295.886 371.245 295.974 371.174 296.039C371.103 296.103 371.01 296.14 370.914 296.141C370.872 296.144 370.83 296.138 370.791 296.124C370.751 296.11 370.715 296.088 370.684 296.06C370.652 296.032 370.627 295.998 370.609 295.96C370.591 295.922 370.58 295.881 370.578 295.839C370.563 295.729 370.515 295.625 370.442 295.541C370.369 295.457 370.273 295.396 370.165 295.365L369.804 295.353C369.662 295.39 369.529 295.454 369.412 295.542C369.362 295.586 369.322 295.641 369.293 295.701C369.265 295.762 369.249 295.828 369.247 295.895C369.236 295.955 369.239 296.017 369.256 296.077C369.272 296.136 369.302 296.191 369.342 296.237C369.449 296.331 369.573 296.403 369.708 296.449L370.061 296.554C370.291 296.62 370.474 296.677 370.61 296.73C370.743 296.783 370.864 296.861 370.965 296.962C371.074 297.066 371.155 297.195 371.204 297.338C371.256 297.492 371.275 297.655 371.259 297.816C371.238 298.033 371.165 298.242 371.046 298.424C370.924 298.617 370.755 298.776 370.555 298.888C370.333 299.012 370.085 299.084 369.832 299.1H369.468C369.27 299.08 369.077 299.027 368.898 298.943C368.749 298.87 368.616 298.769 368.506 298.645C368.412 298.536 368.339 298.41 368.294 298.273C368.252 298.152 368.236 298.023 368.247 297.895C368.255 297.799 368.301 297.711 368.374 297.648C368.449 297.577 368.548 297.537 368.651 297.538C368.727 297.535 368.801 297.557 368.864 297.599C368.92 297.639 368.958 297.7 368.97 297.767C368.998 297.888 369.033 298.008 369.074 298.124C369.106 298.211 369.159 298.289 369.227 298.352C369.311 298.428 369.412 298.482 369.521 298.509L369.883 298.543Z" fill="#545454"/>
<path d="M369.61 299.529H369.595C369.576 299.528 369.556 299.522 369.539 299.513C369.521 299.504 369.506 299.491 369.493 299.476C369.48 299.461 369.471 299.443 369.465 299.424C369.459 299.405 369.457 299.385 369.459 299.366L369.885 294.422C369.888 294.382 369.908 294.345 369.938 294.32C369.969 294.294 370.008 294.282 370.048 294.286C370.088 294.289 370.125 294.309 370.151 294.339C370.177 294.37 370.189 294.409 370.186 294.449L369.761 299.391C369.758 299.429 369.741 299.464 369.713 299.49C369.685 299.515 369.648 299.529 369.61 299.529Z" fill="#545454"/>
<path d="M338.212 290.605H338.937C340.291 290.605 341.59 291.143 342.547 292.1C343.505 293.057 344.043 294.355 344.043 295.708V300.636H333.102V295.71C333.102 295.039 333.234 294.375 333.49 293.756C333.747 293.136 334.124 292.573 334.598 292.099C335.073 291.625 335.636 291.249 336.256 290.993C336.876 290.737 337.541 290.605 338.212 290.605V290.605Z" stroke="#545454" stroke-width="2" stroke-linecap="round" stroke-linejoin="round"/>
<path d="M341.903 290.605H342.628C343.982 290.605 345.281 291.143 346.238 292.1C347.196 293.057 347.733 294.355 347.733 295.708V300.636H336.791V295.71C336.791 294.357 337.329 293.059 338.286 292.102C339.244 291.145 340.542 290.608 341.896 290.608L341.903 290.605Z" stroke="#545454" stroke-width="2" stroke-linecap="round" stroke-linejoin="round"/>
<path d="M364.179 353.399H349.525L355.738 300.64H357.968L364.179 353.399Z" fill="#FFE7C8" stroke="#545454" stroke-width="2" stroke-linecap="round" stroke-linejoin="round"/>
<path d="M355.738 300.64L349.525 353.399H315.467L321.681 300.64H355.738Z" fill="#FFE7C8" stroke="#545454" stroke-width="2" stroke-linecap="round" stroke-linejoin="round"/>
<path d="M124.65 182.498H64.3974C61.7763 182.498 59.6515 184.622 59.6515 187.241V255.003C59.6515 257.623 61.7763 259.746 64.3974 259.746H124.65C127.271 259.746 129.396 257.623 129.396 255.003V187.241C129.396 184.622 127.271 182.498 124.65 182.498Z" fill="#C5DCDD" stroke="#2D2D2D" stroke-width="2" stroke-linecap="round" stroke-linejoin="round"/>
<path d="M118.307 189.805C117.545 189.045 116.576 188.527 115.52 188.317C114.464 188.107 113.37 188.215 112.376 188.627C111.381 189.038 110.531 189.735 109.933 190.63C109.335 191.524 109.015 192.575 109.015 193.651V209.496H119.9V193.651C119.901 192.937 119.761 192.229 119.487 191.569C119.214 190.909 118.813 190.31 118.307 189.805V189.805ZM114.459 193.813C114.226 193.813 113.999 193.744 113.806 193.615C113.613 193.486 113.463 193.303 113.374 193.088C113.285 192.874 113.262 192.638 113.307 192.41C113.352 192.183 113.464 191.973 113.628 191.809C113.792 191.645 114.002 191.533 114.229 191.488C114.457 191.443 114.693 191.466 114.908 191.555C115.122 191.644 115.306 191.794 115.435 191.987C115.564 192.18 115.633 192.407 115.633 192.639C115.632 192.949 115.509 193.246 115.29 193.466C115.072 193.686 114.775 193.81 114.465 193.813H114.459Z" stroke="#545454" stroke-width="2" stroke-linecap="round" stroke-linejoin="round"/>
<path d="M117.575 188.793C116.814 188.032 115.844 187.513 114.788 187.303C113.732 187.092 112.637 187.2 111.642 187.612C110.648 188.023 109.797 188.721 109.199 189.616C108.601 190.511 108.282 191.563 108.283 192.639V208.484H119.17V192.639C119.171 191.925 119.031 191.217 118.757 190.557C118.483 189.897 118.082 189.297 117.575 188.793ZM113.727 192.801C113.494 192.801 113.266 192.732 113.073 192.604C112.879 192.475 112.728 192.291 112.638 192.076C112.549 191.862 112.525 191.625 112.571 191.397C112.616 191.169 112.728 190.959 112.892 190.794C113.056 190.63 113.266 190.518 113.494 190.472C113.723 190.427 113.959 190.45 114.174 190.539C114.389 190.628 114.573 190.778 114.703 190.972C114.832 191.165 114.901 191.392 114.901 191.625C114.901 191.936 114.777 192.235 114.557 192.456C114.337 192.676 114.038 192.8 113.727 192.801Z" fill="#FFE7C8" stroke="#545454" stroke-width="2" stroke-linecap="round" stroke-linejoin="round"/>
<path d="M113.727 191.183V181.733C113.727 181.011 114.013 180.32 114.524 179.81C115.034 179.3 115.726 179.013 116.447 179.013C116.805 179.013 117.159 179.083 117.489 179.22C117.82 179.356 118.12 179.556 118.373 179.809C118.626 180.062 118.826 180.361 118.963 180.691C119.1 181.021 119.17 181.375 119.17 181.733V182.005" stroke="#545454" stroke-width="2" stroke-linecap="round" stroke-linejoin="round"/>
<path d="M115.939 200.845C115.843 200.618 115.698 200.415 115.514 200.25C115.341 200.092 115.139 199.968 114.92 199.885C114.699 199.801 114.401 199.707 114.027 199.604H114.001V197.731H114.027C114.203 197.78 114.362 197.876 114.489 198.008C114.615 198.14 114.704 198.303 114.746 198.481C114.766 198.618 114.836 198.742 114.942 198.83C115.048 198.918 115.182 198.964 115.32 198.96C115.394 198.961 115.468 198.947 115.537 198.919C115.606 198.891 115.668 198.849 115.72 198.796C115.773 198.746 115.815 198.685 115.844 198.618C115.872 198.55 115.886 198.478 115.886 198.405C115.88 198.249 115.843 198.097 115.775 197.956C115.694 197.784 115.588 197.624 115.46 197.482C115.296 197.287 115.09 197.133 114.856 197.031C114.591 196.923 114.312 196.856 114.027 196.832H114.001V196.26C114.001 196.186 113.972 196.116 113.92 196.064C113.868 196.012 113.798 195.983 113.725 195.983C113.651 195.983 113.581 196.012 113.529 196.064C113.477 196.116 113.448 196.186 113.448 196.26V196.834C112.919 196.848 112.413 197.053 112.023 197.41C111.751 197.712 111.581 198.092 111.538 198.496C111.494 198.901 111.579 199.308 111.78 199.661C111.944 199.911 112.172 200.113 112.44 200.246C112.763 200.402 113.101 200.526 113.448 200.618V202.719C113.271 202.673 113.107 202.589 112.967 202.472C112.852 202.372 112.759 202.25 112.693 202.113C112.633 201.981 112.563 201.792 112.48 201.545C112.449 201.436 112.38 201.342 112.287 201.279C112.184 201.213 112.064 201.18 111.942 201.184C111.863 201.181 111.784 201.195 111.71 201.225C111.637 201.255 111.571 201.3 111.516 201.358C111.463 201.408 111.421 201.469 111.392 201.536C111.363 201.603 111.347 201.676 111.346 201.749C111.349 201.954 111.391 202.157 111.472 202.346C111.566 202.565 111.699 202.764 111.863 202.935C112.053 203.131 112.276 203.291 112.523 203.407C112.814 203.539 113.125 203.622 113.444 203.654V204.079C113.444 204.152 113.473 204.223 113.525 204.275C113.577 204.326 113.647 204.356 113.72 204.356C113.794 204.356 113.864 204.326 113.916 204.275C113.968 204.223 113.997 204.152 113.997 204.079V203.637H114.022C114.416 203.612 114.798 203.496 115.139 203.299C115.439 203.123 115.686 202.869 115.852 202.563C116.012 202.268 116.095 201.936 116.092 201.6C116.094 201.341 116.042 201.084 115.939 200.845ZM112.84 199.104C112.709 198.95 112.639 198.754 112.642 198.552C112.645 198.35 112.72 198.156 112.855 198.005C113.027 197.866 113.227 197.764 113.442 197.708V199.436C113.221 199.366 113.017 199.253 112.84 199.104ZM114.727 202.391C114.538 202.587 114.29 202.717 114.02 202.759H113.995V200.773H114.02C114.28 200.845 114.522 200.969 114.733 201.137C114.815 201.214 114.88 201.309 114.922 201.414C114.964 201.519 114.982 201.632 114.975 201.745C114.98 201.984 114.89 202.216 114.727 202.391Z" fill="#545454"/>
<path d="M53.1697 208.542H43.7799C43.7799 208.542 34.7603 200.558 30.8184 195.849C30.2802 195.201 29.7876 194.516 29.3442 193.8C28.9295 193.126 28.7015 192.354 28.6834 191.563C28.6654 190.772 28.8579 189.99 29.2414 189.298C29.6249 188.606 30.1856 188.028 30.866 187.624C31.5464 187.219 32.3221 187.003 33.1138 186.997H33.2159C42.746 186.986 53.1761 204.249 53.1697 208.542Z" fill="#3F3F3F"/>
<path d="M58.3495 208.542H51.7422C51.7422 208.542 45.3966 202.925 42.6226 199.612C42.2441 199.157 41.898 198.675 41.5866 198.171C41.2934 197.697 41.1319 197.153 41.1185 196.596C41.1052 196.039 41.2405 195.489 41.5106 195.001C41.7807 194.514 42.1759 194.107 42.6555 193.822C43.135 193.538 43.6817 193.386 44.2393 193.383H44.3095C51.0147 193.383 58.3516 205.523 58.3495 208.542Z" fill="#FFE7C8"/>
<path d="M38.7084 177.98C54.5141 177.814 60.011 200.386 59.6685 208.542H53.1696C53.1696 204.249 42.746 186.995 33.2158 186.995C29.8356 186.995 27.8423 190.005 28.8613 192.735C28.8613 192.726 22.3114 178.153 38.7084 177.98Z" fill="#EFAF00" stroke="#2D2D2D" stroke-width="2" stroke-linecap="round" stroke-linejoin="round"/>
<path d="M87.0358 205.34C88.1505 202.674 86.6508 199.6 83.8747 198.764C71.0026 194.884 57.8411 208.544 57.8411 208.544H54.6204C54.6204 208.544 61.3745 188.646 81.2837 191.604C85.6424 192.25 91.3648 196.445 87.0358 205.34Z" fill="#EFAF00" stroke="#2D2D2D" stroke-width="2" stroke-linecap="round" stroke-linejoin="round"/>
<path d="M87.0359 205.385C86.4381 206.783 85.7063 208.091 85.1851 208.542H77.8673C77.8673 208.542 79.6181 207.948 81.3114 205.385C83.3684 202.27 82.4154 198.418 79.5989 198.156C81.0513 198.17 82.4954 198.376 83.8939 198.768C86.6763 199.606 88.1761 202.719 87.0359 205.385Z" fill="#3F3F3F"/>
<path d="M89.8523 207.87H42.027C36.2267 207.87 31.5247 212.569 31.5247 218.366V274.403C31.5247 280.2 36.2267 284.899 42.027 284.899H89.8523C95.6526 284.899 100.355 280.2 100.355 274.403V218.366C100.355 212.569 95.6526 207.87 89.8523 207.87Z" fill="#3F3F3F"/>
<path d="M76.9866 207.87H31.1609C25.3606 207.87 20.6586 212.569 20.6586 218.366V274.403C20.6586 280.2 25.3606 284.899 31.1609 284.899H76.9866C82.7869 284.899 87.489 280.2 87.489 274.403V218.366C87.489 212.569 82.7869 207.87 76.9866 207.87Z" fill="#FFE7C8" stroke="#545454" stroke-width="2" stroke-linecap="round" stroke-linejoin="round"/>
<path d="M177.721 193.745H164.083C160.754 193.743 157.512 194.808 154.832 196.782C152.152 198.757 150.176 201.538 149.193 204.717L127.282 275.558C125.927 279.937 123.205 283.767 119.514 286.487C115.823 289.208 111.357 290.676 106.771 290.676H30.9269C27.9019 290.675 24.9641 291.688 22.5829 293.553C20.2017 295.417 18.5145 298.026 17.791 300.961L15.0255 315.652C14.6279 317.264 14.6025 318.946 14.9514 320.569C15.3002 322.192 16.0141 323.715 17.0389 325.022C18.0638 326.329 19.3727 327.386 20.8667 328.112C22.3606 328.839 24.0004 329.216 25.6619 329.216H118.128" stroke="#545454" stroke-width="2" stroke-linecap="round" stroke-linejoin="round"/>
<path d="M106.839 290.676H36.4897C31.9045 290.674 27.4402 289.206 23.7504 286.486C20.0606 283.765 17.3393 279.936 15.9849 275.558L1.92578 218.904H144.815L127.371 275.534C126.019 279.921 123.295 283.758 119.599 286.484C115.904 289.209 111.431 290.678 106.839 290.676Z" stroke="#545454" stroke-width="2" stroke-linecap="round" stroke-linejoin="round"/>
<path d="M60.079 290.676L37.8746 218.904" stroke="#545454" stroke-width="2" stroke-linecap="round" stroke-linejoin="round"/>
<path d="M78.8267 290.676L101.031 218.904" stroke="#545454" stroke-width="2" stroke-linecap="round" stroke-linejoin="round"/>
<path d="M134.429 252.452H10.5646" stroke="#545454" stroke-width="2" stroke-linecap="round" stroke-linejoin="round"/>
<path d="M107.73 357.628C113.721 357.628 118.577 352.774 118.577 346.787C118.577 340.8 113.721 335.947 107.73 335.947C101.739 335.947 96.883 340.8 96.883 346.787C96.883 352.774 101.739 357.628 107.73 357.628Z" fill="#C5DCDD"/>
<path d="M34.0859 357.628C40.0765 357.628 44.9328 352.774 44.9328 346.787C44.9328 340.8 40.0765 335.947 34.0859 335.947C28.0952 335.947 23.2389 340.8 23.2389 346.787C23.2389 352.774 28.0952 357.628 34.0859 357.628Z" fill="#C5DCDD"/>
<path d="M105.477 355.721C111.468 355.721 116.324 350.867 116.324 344.88C116.324 338.893 111.468 334.04 105.477 334.04C99.4865 334.04 94.6302 338.893 94.6302 344.88C94.6302 350.867 99.4865 355.721 105.477 355.721Z" stroke="#545454" stroke-width="2" stroke-linecap="round" stroke-linejoin="round"/>
<path d="M31.831 355.721C37.8216 355.721 42.6779 350.867 42.6779 344.88C42.6779 338.893 37.8216 334.04 31.831 334.04C25.8404 334.04 20.984 338.893 20.984 344.88C20.984 350.867 25.8404 355.721 31.831 355.721Z" stroke="#545454" stroke-width="2" stroke-linecap="round" stroke-linejoin="round"/>
<path d="M116.479 263.129H105.552C103.849 263.129 102.469 264.508 102.469 266.209V281.816C102.469 283.518 103.849 284.897 105.552 284.897H116.479C118.182 284.897 119.562 283.518 119.562 281.816V266.209C119.562 264.508 118.182 263.129 116.479 263.129Z" fill="#F46F40" stroke="#2D2D2D" stroke-width="2" stroke-linecap="round" stroke-linejoin="round"/>
<path d="M466.246 160.651H431.269V168.358H466.246V160.651Z" fill="#3F3F3F"/>
<path d="M461.647 347.364C462.844 350.487 463.84 355.132 459.645 355.132H436.962C436.962 355.132 436.896 351.677 442.193 351.216C451.159 350.436 453.98 343.333 454.105 339.972C454.363 321.862 447.298 266.605 446.122 255.918C453.767 255.682 461.377 254.777 468.864 253.211C465.021 266.22 473.296 276.893 473.94 289.972C474.578 303.015 464.178 331.927 461.166 341.817C460.917 343.582 461.108 345.954 461.647 347.364Z" fill="#FCBE9F" stroke="#545454" stroke-width="2" stroke-linecap="round" stroke-linejoin="round"/>
<path d="M461.647 347.364C461.647 347.364 465.116 355.132 460.072 355.132H436.615C436.615 355.132 435.673 352.194 441.763 351.216C442.614 351.082 445.035 350.616 445.035 350.616C445.035 350.616 444.282 352.789 449.645 352.553C455.007 352.317 457.422 347.753 461.647 347.364Z" fill="#F46F40" stroke="#2D2D2D" stroke-width="2" stroke-linecap="round" stroke-linejoin="round"/>
<path d="M468.209 255.979C461.137 257.958 453.89 259.247 446.569 259.83L446.115 255.917C453.76 255.682 461.37 254.776 468.856 253.211L468.209 255.979Z" fill="#3F3F3F"/>
<path d="M400.664 248.468C408.209 251.395 416.058 253.469 424.064 254.653L417.129 265.982C417.129 268.225 427.004 278.611 429.721 287.88C433.001 299.097 429.893 330.328 430.929 335.333C431.578 338.46 428.325 344.968 425.145 347.98C423.23 349.789 420.801 349.115 420.801 349.115C420.801 349.115 425.943 338.84 423.505 330.847C414.519 301.355 396.914 267.704 396.914 263.027C396.914 260.501 398.209 255.718 400.137 250.005L400.664 248.468Z" fill="#FCBE9F" stroke="#545454" stroke-width="2" stroke-linecap="round" stroke-linejoin="round"/>
<path d="M430.574 335.866C431.901 335.15 436.443 339.162 436.211 341.394L425.228 354.968H413.97C413.97 354.968 412.813 350.291 420.792 349.139C428.772 347.987 425.432 338.647 430.574 335.866Z" fill="#F46F40" stroke="#2D2D2D" stroke-width="2" stroke-linecap="round" stroke-linejoin="round"/>
<path d="M400.664 248.468C408.209 251.395 416.058 253.469 424.064 254.653L421.488 258.886C414.313 257.368 407.057 254.223 400.132 250.033L400.664 248.468Z" fill="#3F3F3F"/>
<path d="M477.522 250.975C477.522 250.975 438.859 264.088 399.152 247.871C399.152 247.871 428.157 183.338 430.571 178.508C432.986 173.678 432.82 165.913 432.82 165.913C432.82 165.913 431.607 153.498 427.983 149.356C424.358 145.215 422.288 140.557 424.185 134.687C426.083 128.817 428.323 117.253 428.323 117.253L436.27 114.664L464.295 114.145C464.295 114.145 467.763 118.185 467.016 125.777C466.378 132.367 458.103 150.931 465.276 165.907C468.554 171.254 480.099 180.891 481.494 197.746C483.3 219.495 477.522 250.975 477.522 250.975Z" fill="#F46F40" stroke="#2D2D2D" stroke-width="2" stroke-linecap="round" stroke-linejoin="round"/>
<path d="M434.077 123.672C433.926 117.766 429.308 114.258 424.638 120.096C421.333 124.225 412.807 138.792 407.931 148.114C403.132 140.841 392.485 128.238 386.562 122.692C386.762 120.243 385.58 113.469 384.861 112.963C384.067 112.404 380.325 106.934 380.325 106.934C380.325 106.934 378.947 107.674 380.223 109.938C381.712 112.566 381.383 113.399 381.383 113.399C381.383 113.399 379.71 113.673 379.508 114.777C379.306 115.88 378.002 115.104 377.405 116.779C377.056 117.759 376.258 118.14 376.481 119.118C376.694 120.034 381.24 123.855 383.582 124.516C386.822 134.221 396.895 156.44 406.367 162.32C408.412 163.26 411.83 162.208 416.21 157.005C434.471 135.335 434.207 128.659 434.077 123.672Z" fill="#FCBE9F" stroke="#545454" stroke-width="2" stroke-linecap="round" stroke-linejoin="round"/>
<path d="M455.416 92.3919C455.244 96.8778 454.584 103.823 465.263 115.859C470.99 122.311 453.563 124.176 444.231 119.299C437.813 115.948 436.273 114.67 436.273 114.67C436.273 114.67 442.305 114.132 444.654 108.08C446.275 103.902 444.665 99.1504 443.852 92.3876L455.416 92.3919Z" fill="#FCBE9F" stroke="#545454" stroke-width="2" stroke-linecap="round" stroke-linejoin="round"/>
<path d="M452.667 93.2698C452.729 93.8438 451.546 104.248 445.254 106.155C445.862 102.839 444.363 97.2262 444.026 93.2634L452.667 93.2698Z" fill="#3F3F3F"/>
<path d="M461.476 93.8376C462.915 100.745 483.347 98.8549 484.715 115.812" stroke="#545454" stroke-width="2" stroke-linecap="round" stroke-linejoin="round"/>
<path d="M462.961 128.221C455.399 124.76 444.852 114.458 455.269 98.653C454.076 98.2086 452.818 97.3774 452.429 95.8615C451.629 92.7129 440.833 89.0094 440.34 82.406C440.174 80.1929 441.846 74.8524 453.189 75.4668C464.48 76.0812 465.506 89.6472 461.91 93.7334C461.904 93.7387 461.898 93.7452 461.893 93.7525C463.482 101.455 485.127 101.498 482.028 120.483C481.164 125.785 473.055 132.839 462.961 128.221Z" fill="#3F3F3F"/>
<path d="M451.948 95.8084C451.921 96.3803 450.846 100.109 443.248 101.891C441.869 102.216 438.234 102.316 438.142 101.466C438.04 100.466 437.428 96.5206 437.37 94.4095C437.353 93.7589 435.211 92.3005 435.602 91.8285C436.804 90.3786 438.93 88.7139 438.976 88.1165C439.332 83.6264 441.016 81.1241 442.669 81.2133C443.614 81.2644 442.414 89.5941 451.951 92.3175C451.951 92.3175 454.661 90.9122 455.065 92.3961C455.469 93.8801 451.948 95.8084 451.948 95.8084Z" fill="#FCBE9F" stroke="#545454" stroke-width="2" stroke-linecap="round" stroke-linejoin="round"/>
<path d="M228.934 345.858C228.934 345.858 225.411 353.178 227.83 355.825H258.901C258.901 355.825 258.729 350.699 251.243 349.892C244.527 349.167 240.436 345.852 240.436 345.852L228.934 345.858Z" fill="#3F3F3F"/>
<path d="M259.254 355.825H227.351C227.117 355.825 226.928 356.015 226.928 356.248V357.243C226.928 357.477 227.117 357.666 227.351 357.666H259.254C259.487 357.666 259.677 357.477 259.677 357.243V356.248C259.677 356.015 259.487 355.825 259.254 355.825Z" fill="#3F3F3F"/>
<path d="M242.459 349.646L243.503 347.293C243.564 347.155 243.652 347.031 243.762 346.929C243.872 346.826 244.002 346.747 244.143 346.696C244.285 346.645 244.436 346.623 244.586 346.632C244.737 346.642 244.884 346.681 245.018 346.749V346.749C245.259 346.871 245.447 347.075 245.548 347.325C245.649 347.575 245.656 347.853 245.567 348.107L245.422 348.505" stroke="#545454" stroke-width="2" stroke-linecap="round" stroke-linejoin="round"/>
<path d="M245.529 350.741L246.539 348.329C246.592 348.208 246.669 348.1 246.766 348.01C246.862 347.921 246.976 347.852 247.1 347.807C247.224 347.763 247.355 347.744 247.487 347.752C247.618 347.761 247.747 347.795 247.864 347.855C248.075 347.961 248.239 348.14 248.327 348.358C248.415 348.576 248.421 348.819 248.343 349.041L248.256 349.375" stroke="#545454" stroke-width="2" stroke-linecap="round" stroke-linejoin="round"/>
<path d="M248.641 351.723L249.304 349.285C249.342 349.16 249.405 349.043 249.489 348.942C249.573 348.841 249.676 348.759 249.793 348.699C249.91 348.639 250.038 348.604 250.169 348.595C250.3 348.586 250.431 348.604 250.555 348.648V348.648C251.015 348.809 251.317 349.251 251.247 349.898" stroke="#545454" stroke-width="2" stroke-linecap="round" stroke-linejoin="round"/>
<path d="M173.606 345.859C173.606 345.859 170.083 353.178 172.502 355.825H201.839C201.839 355.825 201.664 350.699 194.181 349.892C187.463 349.167 183.374 345.852 183.374 345.852L173.606 345.859Z" fill="#3F3F3F"/>
<path d="M202.19 355.825H172.023C171.789 355.825 171.599 356.015 171.599 356.248V357.243C171.599 357.477 171.789 357.666 172.023 357.666H202.19C202.423 357.666 202.613 357.477 202.613 357.243V356.248C202.613 356.015 202.423 355.825 202.19 355.825Z" fill="#3F3F3F"/>
<path d="M185.386 349.646L186.431 347.293C186.492 347.156 186.58 347.032 186.69 346.929C186.801 346.826 186.931 346.747 187.072 346.696C187.214 346.645 187.365 346.624 187.515 346.633C187.666 346.642 187.813 346.682 187.947 346.749V346.749C188.188 346.871 188.376 347.075 188.477 347.325C188.577 347.575 188.584 347.853 188.494 348.107L188.35 348.505" stroke="#545454" stroke-width="2" stroke-linecap="round" stroke-linejoin="round"/>
<path d="M188.467 350.741L189.477 348.329C189.53 348.208 189.607 348.1 189.704 348.01C189.8 347.921 189.914 347.852 190.038 347.807C190.162 347.763 190.293 347.744 190.425 347.752C190.556 347.761 190.685 347.795 190.802 347.855V347.855C191.012 347.961 191.176 348.14 191.265 348.358C191.353 348.576 191.358 348.819 191.281 349.041L191.194 349.375" stroke="#545454" stroke-width="2" stroke-linecap="round" stroke-linejoin="round"/>
<path d="M191.577 351.723L192.242 349.285C192.28 349.16 192.343 349.043 192.427 348.942C192.511 348.841 192.614 348.759 192.731 348.699C192.848 348.639 192.976 348.604 193.107 348.595C193.238 348.586 193.369 348.604 193.493 348.648V348.648C193.953 348.809 194.255 349.251 194.185 349.898" stroke="#545454" stroke-width="2" stroke-linecap="round" stroke-linejoin="round"/>
<path d="M237.598 187.722C239.938 196.439 240.742 225.737 241.499 268.912C242.05 300.239 244.773 344.836 244.773 344.836C244.773 344.836 237.613 347.944 224.956 345.529C224.956 345.529 212.83 305.603 217.151 276.517C217.84 271.856 211.286 244.255 211.286 244.255C211.286 244.255 185.193 338.398 185.193 346.103C185.193 346.103 175.022 348.057 168.981 346.103C168.981 346.103 159.855 303.215 174.333 278.237C182.129 264.785 180.343 215.59 180.555 211.625C181.272 197.64 188.12 187.108 188.12 187.108L237.598 187.722Z" fill="#C5DCDD" stroke="#2D2D2D" stroke-width="2" stroke-linecap="round" stroke-linejoin="round"/>
<path d="M211.286 244.601C210.422 240.804 205.923 213.349 204.715 212.305C203.506 211.261 201.434 209.89 200.054 208.508" stroke="#545454" stroke-width="2" stroke-linecap="round" stroke-linejoin="round"/>
<path d="M238.417 191.978C220.31 201.622 192.819 196.902 186.265 190.454C186.824 189.308 187.442 188.191 188.116 187.108L237.602 187.722C237.956 189.124 238.228 190.545 238.417 191.978Z" fill="#3F3F3F"/>
<path d="M189.205 171.188C189.062 172.121 188.859 173.044 188.598 173.952C181.457 173.837 175.143 172.793 172.112 169.885C163.292 161.423 169.921 140.735 170.336 139.483C173.423 141.535 177.862 143.826 184.189 145.948C187.041 157.441 189.649 168.129 189.205 171.188Z" fill="#FCBE9F" stroke="#545454" stroke-width="2" stroke-linecap="round" stroke-linejoin="round"/>
<path d="M170.344 139.479C173.431 141.53 177.871 143.822 184.197 145.944C184.854 148.595 185.499 151.199 186.097 153.68C177.588 149.881 173.274 145.351 169.551 142.253L170.344 139.479Z" fill="#3F3F3F"/>
<path d="M301.384 101.502C300.959 100.947 300.24 100.834 300.095 100.605C299.951 100.375 300 99.7968 299.574 99.4247C299.149 99.0527 298.525 99.1101 298.259 98.8932C297.993 98.6764 298.174 98.0428 297.668 97.5007C297.162 96.9586 296.438 97.0266 296.277 96.8629C296.115 96.6992 298.938 91.786 297.864 91.1503C296.789 90.5146 291.29 97.4815 290.206 99.1143C287.972 102.48 287.951 106.704 287.653 108.218C287.63 108.234 287.608 108.253 287.589 108.273C286.727 109.309 266.35 129.497 262.725 136.228L259.498 131.338L240.97 144.453C240.97 144.453 254.438 164.013 266.348 159.873C277.623 155.955 290.444 117.883 292.809 112.642C296.698 111.875 299.951 107.557 301.01 105.588C302.386 103.05 301.81 102.055 301.384 101.502Z" fill="#FCBE9F" stroke="#545454" stroke-width="2" stroke-linecap="round" stroke-linejoin="round"/>
<path d="M260.398 132.714C257.297 139.864 251.991 145.837 245.254 149.762C243.723 148.077 242.294 146.302 240.974 144.447L259.496 131.342L260.398 132.714Z" fill="#3F3F3F"/>
<path d="M184.189 145.944C187.041 157.441 189.649 168.129 189.205 171.188C188.273 177.606 183.112 185.513 185.531 187.346C192.311 192.514 214.194 197.882 239.362 189.046C239.362 189.046 236.139 182.975 239.623 158.723C240.138 155.139 240.817 150.149 241.506 144.662H241.521C252.827 140.69 261.589 128.891 261.589 128.891C261.589 128.891 256.093 114.302 250.026 109.387C246.197 106.283 226.36 100.722 224.739 99.7776L201.2 99.4651C199.631 99.5969 182.817 104.923 175.905 110.01C169.615 114.641 163.718 133.12 163.718 133.12C163.718 133.12 166.966 140.161 184.189 145.944Z" fill="#FFE7C8" stroke="#545454" stroke-width="2" stroke-linecap="round" stroke-linejoin="round"/>
<path d="M200.496 99.6097C202.375 98.7359 208.933 91.9943 207.899 83.8539L222.486 85.5121C222.486 85.5121 223.943 95.6277 226.36 100.734C221.24 102.027 215.975 102.651 210.694 102.59C201.992 102.48 200.496 99.6097 200.496 99.6097Z" fill="#FCBE9F" stroke="#545454" stroke-width="2" stroke-linecap="round" stroke-linejoin="round"/>
<path d="M224.524 95.6552C223.058 95.4851 219.933 94.8452 218.276 93.3166C215.577 90.8292 211.788 85.3313 211.752 84.3257L222.486 85.512C222.486 85.512 223.388 90.5847 224.524 95.6552Z" fill="#3F3F3F"/>
<path d="M215.274 84.4024C215.274 84.4024 217.57 88.4907 219.923 89.0796C222.275 89.6685 227.668 89.2093 229.308 88.2292C230.321 87.6254 230.014 82.6101 229.821 80.7881C229.782 80.4374 232.552 79.2659 232.374 78.1965C232.184 77.0613 229.044 74.3697 228.768 72.8624C227.955 68.4382 226.853 64.2606 226.492 64.1054C225.904 63.8481 216.67 64.4349 215.579 66.9542C214.487 69.4735 215.862 77.2739 215.862 77.2739C215.862 77.2739 212.883 75.5327 211.99 77.8585C210.667 81.2665 215.274 84.4024 215.274 84.4024Z" fill="#FCBE9F" stroke="#545454" stroke-width="2" stroke-linecap="round" stroke-linejoin="round"/>
<path d="M232.537 61.2884C235.745 63.8779 230.923 74.5802 221.144 66.9819" stroke="#2D2D2D" stroke-width="2" stroke-linecap="round" stroke-linejoin="round"/>
<path d="M197.573 69.5519C199.458 66.1913 203.164 69.0013 203.164 69.0013" stroke="#2D2D2D" stroke-width="2" stroke-linecap="round" stroke-linejoin="round"/>
<path d="M229.565 80.2014C229.565 80.2014 225.949 83.1416 223.909 83.3904C221.869 83.6391 220.176 77.512 219.546 74.8034C218.134 68.5147 218.299 66.0018 224.147 68.1469C231.861 70.9766 233.405 61.4415 230.429 59.8364C228.534 58.8159 227.615 59.1327 224.943 60.4742C221.965 61.9794 215.657 56.996 208.157 59.1986C201.113 61.265 202.187 68.3702 202.187 68.3702C202.187 68.3702 199.409 67.8663 198.905 71.9248C198.507 75.1351 202.964 80.8222 206.399 87.1832C207.363 88.9669 212.035 87.9018 213.185 86.1032C213.185 86.1032 214.726 83.4775 212.798 80.2907C211.218 77.6799 213.939 75.573 216.649 77.85C216.251 79.6762 215.389 84.6086 217.021 87.1534C219.461 90.9589 232.037 91.5266 232.35 89.4112C232.663 87.2958 229.565 80.2014 229.565 80.2014Z" fill="#3F3F3F"/>
<path d="M452.163 95.367C453.884 95.367 455.28 93.9728 455.28 92.253C455.28 90.5333 453.884 89.1391 452.163 89.1391C450.442 89.1391 449.047 90.5333 449.047 92.253C449.047 93.9728 450.442 95.367 452.163 95.367Z" fill="#FCBE9F"/>
<path d="M450.978 94.1535C450.978 94.1535 450.619 92.9271 450.951 91.8154C451.064 91.4126 451.286 91.0487 451.593 90.7637C451.899 90.4787 452.278 90.2837 452.689 90.2" stroke="#545454" stroke-width="2" stroke-linecap="round" stroke-linejoin="round"/>
<path d="M452.689 92.6256L450.951 91.82" stroke="#545454" stroke-width="2" stroke-linecap="round" stroke-linejoin="round"/>
<path d="M454.478 97.1918C455.278 97.1918 455.926 96.5438 455.926 95.7443C455.926 94.9449 455.278 94.2968 454.478 94.2968C453.678 94.2968 453.029 94.9449 453.029 95.7443C453.029 96.5438 453.678 97.1918 454.478 97.1918Z" fill="#F7F3EF" stroke="#545454" stroke-width="2" stroke-linecap="round" stroke-linejoin="round"/>
<path d="M440.655 89.4299C441.046 89.4299 441.363 88.9655 441.363 88.3927C441.363 87.8198 441.046 87.3554 440.655 87.3554C440.263 87.3554 439.946 87.8198 439.946 88.3927C439.946 88.9655 440.263 89.4299 440.655 89.4299Z" fill="#3F3F3F"/>
<path d="M438.155 95.7444C438.155 95.7444 439.759 95.8868 440.655 94.8028" stroke="#545454" stroke-width="2" stroke-linecap="round" stroke-linejoin="round"/>
<path d="M218.365 84.1281C216.955 84.5191 215.447 84.3342 214.173 83.6139C212.899 82.8937 211.963 81.6971 211.572 80.2875C211.181 78.8779 211.366 77.3706 212.086 76.0974C212.807 74.8241 214.004 73.8891 215.415 73.4981" fill="#FCBE9F"/>
<path d="M218.365 84.1281C216.955 84.5191 215.447 84.3342 214.173 83.6139C212.899 82.8937 211.963 81.6971 211.572 80.2875C211.181 78.8779 211.366 77.3706 212.086 76.0974C212.807 74.8241 214.004 73.8891 215.415 73.4981" stroke="#545454" stroke-width="2" stroke-linecap="round" stroke-linejoin="round"/>
<path d="M213.528 78.1752C213.528 78.1752 215.73 76.7447 217.38 79.2741L213.528 78.1752Z" fill="#FCBE9F"/>
<path d="M213.528 78.1752C213.528 78.1752 215.73 76.7447 217.38 79.2741" stroke="#545454" stroke-width="2" stroke-linecap="round" stroke-linejoin="round"/>
<path d="M216.001 77.9903L214.868 80.2009" stroke="#545454" stroke-width="2" stroke-linecap="round" stroke-linejoin="round"/>
<path d="M226.273 75.6835C226.748 75.5908 227.02 74.9356 226.88 74.2201C226.74 73.5046 226.242 72.9998 225.767 73.0925C225.292 73.1852 225.02 73.8404 225.16 74.5559C225.3 75.2714 225.798 75.7762 226.273 75.6835Z" fill="#3F3F3F"/>
<path d="M225.026 70.1829L223.003 71.2753C222.629 71.4773 222.489 71.9442 222.691 72.3181C222.893 72.692 223.361 72.8313 223.735 72.6293L225.758 71.537C226.132 71.3349 226.271 70.8681 226.069 70.4942C225.867 70.1203 225.4 69.9809 225.026 70.1829Z" fill="#3F3F3F"/>
<path d="M178.405 124.074L184.189 145.944" stroke="#545454" stroke-width="2" stroke-linecap="round" stroke-linejoin="round"/>
<path d="M249.609 111.254C249.609 111.254 237.251 112.006 235.367 125.392" stroke="#545454" stroke-width="2" stroke-linecap="round" stroke-linejoin="round"/>
</svg>
