<svg width="18" height="18" viewBox="0 0 18 18" fill="none" xmlns="http://www.w3.org/2000/svg">
<path d="M16.0313 12.3047C15.967 12.3413 15.8962 12.3649 15.8228 12.3742C15.7494 12.3834 15.6749 12.378 15.6036 12.3585C15.5323 12.3389 15.4656 12.3054 15.4072 12.26C15.3488 12.2146 15.3 12.1581 15.2635 12.0937L13.9275 9.75937C13.1508 10.2845 12.2941 10.6801 11.3907 10.9308L11.8034 13.4072C11.8156 13.4801 11.8133 13.5547 11.7966 13.6267C11.7799 13.6987 11.7492 13.7667 11.7063 13.8269C11.6633 13.887 11.6089 13.9381 11.5462 13.9772C11.4835 14.0163 11.4136 14.0427 11.3407 14.0548C11.3107 14.0597 11.2804 14.0623 11.25 14.0625C11.117 14.0623 10.9883 14.0149 10.8868 13.9288C10.7854 13.8427 10.7178 13.7234 10.696 13.5921L10.2903 11.1607C9.43469 11.2798 8.56676 11.2798 7.7112 11.1607L7.30549 13.5921C7.28366 13.7236 7.21583 13.8431 7.1141 13.9293C7.01236 14.0154 6.88334 14.0626 6.75003 14.0625C6.71893 14.0624 6.6879 14.0598 6.65721 14.0548C6.5843 14.0427 6.51449 14.0163 6.45176 13.9772C6.38904 13.9381 6.33464 13.887 6.29168 13.8269C6.24871 13.7667 6.21802 13.6987 6.20135 13.6267C6.18469 13.5547 6.18238 13.4801 6.19456 13.4072L6.6094 10.9308C5.70633 10.6793 4.85004 10.283 4.07393 9.75726L2.74221 12.0937C2.70528 12.1581 2.65603 12.2146 2.59728 12.2599C2.53853 12.3052 2.47142 12.3385 2.3998 12.3579C2.32817 12.3773 2.25343 12.3824 2.17984 12.3729C2.10625 12.3634 2.03524 12.3395 1.97088 12.3026C1.90653 12.2656 1.85007 12.2164 1.80475 12.1576C1.75942 12.0989 1.72611 12.0318 1.70672 11.9602C1.68733 11.8885 1.68224 11.8138 1.69173 11.7402C1.70123 11.6666 1.72512 11.5956 1.76206 11.5312L3.16831 9.07031C2.67436 8.64357 2.22015 8.17289 1.81128 7.66406C1.76028 7.60713 1.72143 7.5404 1.69708 7.46795C1.67274 7.3955 1.66341 7.31885 1.66968 7.24268C1.67594 7.16651 1.69766 7.09241 1.73352 7.02491C1.76937 6.95741 1.8186 6.89793 1.87821 6.85009C1.93782 6.80225 2.00655 6.76706 2.0802 6.74667C2.15386 6.72628 2.23091 6.72111 2.30663 6.73148C2.38235 6.74186 2.45517 6.76755 2.52063 6.807C2.58609 6.84645 2.64282 6.89883 2.68737 6.96093C3.85456 8.40515 5.89643 10.125 9.00003 10.125C12.1036 10.125 14.1455 8.40304 15.3127 6.96093C15.3567 6.89756 15.4133 6.84392 15.479 6.80336C15.5446 6.7628 15.6179 6.73618 15.6943 6.72517C15.7707 6.71415 15.8485 6.71897 15.923 6.73933C15.9974 6.75968 16.0669 6.79514 16.127 6.84349C16.1872 6.89185 16.2367 6.95206 16.2726 7.02039C16.3085 7.08871 16.3299 7.16369 16.3356 7.24066C16.3413 7.31763 16.331 7.39494 16.3055 7.46778C16.28 7.54062 16.2398 7.60743 16.1874 7.66406C15.7785 8.17289 15.3243 8.64357 14.8303 9.07031L16.2366 11.5312C16.2743 11.5954 16.299 11.6664 16.3091 11.7401C16.3192 11.8139 16.3146 11.8889 16.2955 11.9608C16.2764 12.0328 16.2432 12.1002 16.1978 12.1592C16.1525 12.2183 16.0959 12.2677 16.0313 12.3047Z" fill="white"/>
</svg>
