<svg width="12" height="13" viewBox="0 0 12 13" fill="none" xmlns="http://www.w3.org/2000/svg">
<path d="M7.33002 6.49996L11.8169 2.01287C11.9403 1.88935 12.0084 1.72456 12.0086 1.54884C12.0086 1.37303 11.9405 1.20804 11.8169 1.08472L11.4237 0.691621C11.3001 0.567809 11.1353 0.5 10.9594 0.5C10.7838 0.5 10.619 0.567809 10.4954 0.691621L6.00848 5.17842L1.52139 0.691621C1.39797 0.567809 1.23308 0.5 1.05726 0.5C0.881645 0.5 0.716757 0.567809 0.593335 0.691621L0.199946 1.08472C-0.0560692 1.34073 -0.0560692 1.75715 0.199946 2.01287L4.68694 6.49996L0.199946 10.9869C0.0764264 11.1106 0.0084224 11.2754 0.0084224 11.4511C0.0084224 11.6268 0.0764264 11.7916 0.199946 11.9152L0.593237 12.3083C0.716659 12.432 0.881645 12.4999 1.05717 12.4999C1.23298 12.4999 1.39787 12.432 1.52129 12.3083L6.00839 7.82141L10.4953 12.3083C10.6189 12.432 10.7837 12.4999 10.9593 12.4999H10.9595C11.1352 12.4999 11.3 12.432 11.4236 12.3083L11.8168 11.9152C11.9402 11.7917 12.0084 11.6268 12.0084 11.4511C12.0084 11.2754 11.9402 11.1106 11.8168 10.987L7.33002 6.49996Z" fill="white"/>
</svg>
