<svg width="18" height="19" viewBox="0 0 18 19" fill="none" xmlns="http://www.w3.org/2000/svg">
<path d="M5.0625 2.75C4.31658 2.75 3.60121 3.04632 3.07376 3.57376C2.54632 4.10121 2.25 4.81658 2.25 5.5625V13.4375C2.25 14.1834 2.54632 14.8988 3.07376 15.4262C3.60121 15.9537 4.31658 16.25 5.0625 16.25H12.9375C13.6834 16.25 14.3988 15.9537 14.9262 15.4262C15.4537 14.8988 15.75 14.1834 15.75 13.4375V5.5625C15.75 4.81658 15.4537 4.10121 14.9262 3.57376C14.3988 3.04632 13.6834 2.75 12.9375 2.75H5.0625ZM12.2108 8.21075L8.27325 12.1483C8.221 12.2006 8.15893 12.2422 8.09059 12.2706C8.02225 12.2989 7.94899 12.3135 7.875 12.3135C7.80101 12.3135 7.72775 12.2989 7.65941 12.2706C7.59107 12.2422 7.529 12.2006 7.47675 12.1483L5.78925 10.4608C5.73695 10.4085 5.69547 10.3464 5.66716 10.278C5.63886 10.2097 5.62429 10.1365 5.62429 10.0625C5.62429 9.98854 5.63886 9.9153 5.66716 9.84697C5.69547 9.77864 5.73695 9.71655 5.78925 9.66425C5.89487 9.55863 6.03813 9.49929 6.1875 9.49929C6.26146 9.49929 6.3347 9.51386 6.40303 9.54216C6.47136 9.57047 6.53345 9.61195 6.58575 9.66425L7.875 10.9546L11.4142 7.41425C11.5199 7.30863 11.6631 7.24929 11.8125 7.24929C11.9619 7.24929 12.1051 7.30863 12.2108 7.41425C12.3164 7.51987 12.3757 7.66313 12.3757 7.8125C12.3757 7.96187 12.3164 8.10513 12.2108 8.21075Z" fill="url(#paint0_linear_0_24)"/>
<defs>
<linearGradient id="paint0_linear_0_24" x1="9" y1="2.75" x2="9" y2="16.25" gradientUnits="userSpaceOnUse">
<stop stop-color="#FFAD26"/>
<stop offset="1" stop-color="#FFBF0C"/>
</linearGradient>
</defs>
</svg>
