<svg width="24" height="24" viewBox="0 0 24 24" fill="none" xmlns="http://www.w3.org/2000/svg">
<path d="M6 9.75C6 9.336 6.33525 9 6.75 9H11.25C11.6648 9 12 9.336 12 9.75C12 10.164 11.6648 10.5 11.25 10.5H6.75C6.33525 10.5 6 10.164 6 9.75ZM11.25 12H6.75C6.33525 12 6 12.336 6 12.75C6 13.164 6.33525 13.5 6.75 13.5H11.25C11.6648 13.5 12 13.164 12 12.75C12 12.336 11.6648 12 11.25 12ZM11.25 15H6.75C6.33525 15 6 15.336 6 15.75C6 16.164 6.33525 16.5 6.75 16.5H11.25C11.6648 16.5 12 16.164 12 15.75C12 15.336 11.6648 15 11.25 15ZM11.25 18H6.75C6.33525 18 6 18.336 6 18.75C6 19.164 6.33525 19.5 6.75 19.5H11.25C11.6648 19.5 12 19.164 12 18.75C12 18.336 11.6648 18 11.25 18ZM22.5 21.75C22.5 22.164 22.1647 22.5 21.75 22.5H2.25C1.83525 22.5 1.5 22.164 1.5 21.75C1.5 21.336 1.83525 21 2.25 21H3V7.2135C3 6.64125 3.318 6.1275 3.82875 5.87175L12.8287 1.37175C13.2982 1.13775 13.8428 1.16175 14.2882 1.437C14.7338 1.71225 14.9993 2.18925 14.9993 2.7135V8.25H19.4993C20.3265 8.25 20.9993 8.92275 20.9993 9.75V21H21.7493C22.164 21 22.5 21.336 22.5 21.75ZM15 9.75V21H19.5V9.75H15ZM4.5 21H13.5V2.7135L4.5 7.2135V21Z" fill="white"/>
</svg>
