<svg width="700" height="700" viewBox="0 0 700 700" fill="none" xmlns="http://www.w3.org/2000/svg">
<g clip-path="url(#clip0_200_1130)">
<g clip-path="url(#clip1_200_1130)">
<g clip-path="url(#clip2_200_1130)">
<g clip-path="url(#clip3_200_1130)">
<g clip-path="url(#clip4_200_1130)">
<g clip-path="url(#clip5_200_1130)">
<path d="M350 555C463.218 555 555 463.218 555 350C555 236.782 463.218 145 350 145C236.782 145 145 236.782 145 350C145 463.218 236.782 555 350 555Z" fill="black"/>
<path d="M344.673 398.439L261.329 281.446H448.854C461.301 282.942 465.07 287.008 467.607 298.463C467.607 298.463 461.356 368.659 459.272 383.549C457.189 398.439 448.854 398.439 448.854 398.439H344.673Z" stroke="url(#paint0_linear_200_1130)" stroke-width="8.11321"/>
<path d="M405.94 296.337V258.048C403.026 246.191 399.016 242.11 383.021 243.158C383.021 243.158 360.101 243.158 347.599 243.158C335.097 243.158 335.097 258.048 335.097 258.048V296.337M280.923 319.735H245.502M297.592 338.88H233M305.927 355.897H264.254M316.345 372.914H253.836" stroke="url(#paint1_linear_200_1130)" stroke-width="6.08491"/>
<ellipse cx="361.343" cy="436.729" rx="20.8362" ry="21.2715" fill="url(#paint2_linear_200_1130)"/>
<ellipse cx="428.018" cy="436.729" rx="20.8362" ry="21.2715" fill="url(#paint3_linear_200_1130)"/>
<path d="M363.827 363.346C362.431 363.346 361.431 363.055 360.828 362.471C360.224 361.851 359.922 360.703 359.922 359.026C359.922 357.895 360.036 356.455 360.262 354.705C360.526 352.919 360.941 350.476 361.507 347.377C362.488 341.652 363.261 336.694 363.827 332.501C364.167 329.876 364.336 327.688 364.336 325.938C364.336 324.297 363.714 323.477 362.469 323.477C361.488 323.477 360.3 323.969 358.904 324.954C357.546 325.902 356.037 327.433 354.377 329.548C353.848 330.24 353.264 330.587 352.622 330.587C352.094 330.587 351.622 330.35 351.208 329.876C350.83 329.365 350.642 328.8 350.642 328.18C350.642 327.597 350.755 327.014 350.981 326.43C351.245 325.81 351.66 325.118 352.226 324.352C354.037 321.909 356.055 320.031 358.281 318.719C360.507 317.37 362.733 316.695 364.959 316.695C367.034 316.695 368.618 317.333 369.712 318.609C370.844 319.886 371.41 321.745 371.41 324.188C371.41 325.172 371.316 326.339 371.127 327.688C370.939 329.001 370.769 330.076 370.618 330.915C370.467 331.753 370.354 332.337 370.278 332.665C372.429 326.722 374.843 322.584 377.522 320.25C380.2 317.88 383.143 316.695 386.35 316.695C388.802 316.695 390.726 317.534 392.122 319.211C393.556 320.888 394.272 323.258 394.272 326.321C394.272 327.524 394.103 329.019 393.763 330.805C395.649 325.774 397.856 322.164 400.384 319.977C402.912 317.789 405.817 316.695 409.099 316.695C411.74 316.695 413.758 317.516 415.154 319.156C416.588 320.797 417.305 323.094 417.305 326.047C417.305 327.652 417.059 329.602 416.569 331.899L413.117 347.541C412.74 349.364 412.551 350.932 412.551 352.244C412.551 353.775 412.909 354.924 413.626 355.69C414.381 356.455 415.418 356.838 416.739 356.838C417.984 356.838 419.191 356.437 420.36 355.635C421.568 354.833 422.982 353.502 424.605 351.643C425.057 351.132 425.567 350.877 426.133 350.877C426.623 350.877 427 351.096 427.264 351.533C427.566 351.971 427.717 352.572 427.717 353.338C427.717 354.76 427.359 355.89 426.642 356.729C424.68 359.026 422.737 360.703 420.813 361.76C418.889 362.818 416.871 363.346 414.758 363.346C411.551 363.346 409.042 362.435 407.232 360.612C405.421 358.752 404.515 356.273 404.515 353.174C404.515 351.023 404.968 347.905 405.873 343.822L408.137 333.813C408.212 333.485 408.344 332.902 408.533 332.063C408.722 331.225 408.873 330.441 408.986 329.712C409.099 328.946 409.156 328.199 409.156 327.469C409.156 326.193 408.891 325.245 408.363 324.625C407.873 323.969 407.156 323.641 406.213 323.641C404.44 323.641 402.572 324.753 400.611 326.977C398.686 329.165 396.838 332.811 395.065 337.915C393.329 343.02 391.915 349.655 390.82 357.823C390.556 360.01 390.085 361.487 389.406 362.252C388.764 362.982 387.708 363.346 386.237 363.346C384.954 363.346 384.011 363.055 383.407 362.471C382.841 361.888 382.558 360.794 382.558 359.19C382.558 357.695 382.766 355.744 383.181 353.338C383.596 350.895 384.124 348.033 384.765 344.752C386.501 335.928 387.368 330.24 387.368 327.688C387.368 326.303 387.086 325.282 386.52 324.625C385.991 323.969 385.18 323.641 384.086 323.641C382.238 323.641 380.332 324.662 378.371 326.704C376.409 328.709 374.485 332.3 372.598 337.478C370.75 342.619 369.203 349.582 367.958 358.369C367.694 360.229 367.298 361.523 366.77 362.252C366.279 362.982 365.298 363.346 363.827 363.346Z" fill="url(#paint4_linear_200_1130)"/>
<path d="M363.827 363.346C362.431 363.346 361.431 363.055 360.828 362.471C360.224 361.851 359.922 360.703 359.922 359.026C359.922 357.895 360.036 356.455 360.262 354.705C360.526 352.919 360.941 350.476 361.507 347.377C362.488 341.652 363.261 336.694 363.827 332.501C364.167 329.876 364.336 327.688 364.336 325.938C364.336 324.297 363.714 323.477 362.469 323.477C361.488 323.477 360.3 323.969 358.904 324.954C357.546 325.902 356.037 327.433 354.377 329.548C353.848 330.24 353.264 330.587 352.622 330.587C352.094 330.587 351.622 330.35 351.208 329.876C350.83 329.365 350.642 328.8 350.642 328.18C350.642 327.597 350.755 327.014 350.981 326.43C351.245 325.81 351.66 325.118 352.226 324.352C354.037 321.909 356.055 320.031 358.281 318.719C360.507 317.37 362.733 316.695 364.959 316.695C367.034 316.695 368.618 317.333 369.712 318.609C370.844 319.886 371.41 321.745 371.41 324.188C371.41 325.172 371.316 326.339 371.127 327.688C370.939 329.001 370.769 330.076 370.618 330.915C370.467 331.753 370.354 332.337 370.278 332.665C372.429 326.722 374.843 322.584 377.522 320.25C380.2 317.88 383.143 316.695 386.35 316.695C388.802 316.695 390.726 317.534 392.122 319.211C393.556 320.888 394.272 323.258 394.272 326.321C394.272 327.524 394.103 329.019 393.763 330.805C395.649 325.774 397.856 322.164 400.384 319.977C402.912 317.789 405.817 316.695 409.099 316.695C411.74 316.695 413.758 317.516 415.154 319.156C416.588 320.797 417.305 323.094 417.305 326.047C417.305 327.652 417.059 329.602 416.569 331.899L413.117 347.541C412.74 349.364 412.551 350.932 412.551 352.244C412.551 353.775 412.909 354.924 413.626 355.69C414.381 356.455 415.418 356.838 416.739 356.838C417.984 356.838 419.191 356.437 420.36 355.635C421.568 354.833 422.982 353.502 424.605 351.643C425.057 351.132 425.567 350.877 426.133 350.877C426.623 350.877 427 351.096 427.264 351.533C427.566 351.971 427.717 352.572 427.717 353.338C427.717 354.76 427.359 355.89 426.642 356.729C424.68 359.026 422.737 360.703 420.813 361.76C418.889 362.818 416.871 363.346 414.758 363.346C411.551 363.346 409.042 362.435 407.232 360.612C405.421 358.752 404.515 356.273 404.515 353.174C404.515 351.023 404.968 347.905 405.873 343.822L408.137 333.813C408.212 333.485 408.344 332.902 408.533 332.063C408.722 331.225 408.873 330.441 408.986 329.712C409.099 328.946 409.156 328.199 409.156 327.469C409.156 326.193 408.891 325.245 408.363 324.625C407.873 323.969 407.156 323.641 406.213 323.641C404.44 323.641 402.572 324.753 400.611 326.977C398.686 329.165 396.838 332.811 395.065 337.915C393.329 343.02 391.915 349.655 390.82 357.823C390.556 360.01 390.085 361.487 389.406 362.252C388.764 362.982 387.708 363.346 386.237 363.346C384.954 363.346 384.011 363.055 383.407 362.471C382.841 361.888 382.558 360.794 382.558 359.19C382.558 357.695 382.766 355.744 383.181 353.338C383.596 350.895 384.124 348.033 384.765 344.752C386.501 335.928 387.368 330.24 387.368 327.688C387.368 326.303 387.086 325.282 386.52 324.625C385.991 323.969 385.18 323.641 384.086 323.641C382.238 323.641 380.332 324.662 378.371 326.704C376.409 328.709 374.485 332.3 372.598 337.478C370.75 342.619 369.203 349.582 367.958 358.369C367.694 360.229 367.298 361.523 366.77 362.252C366.279 362.982 365.298 363.346 363.827 363.346Z" stroke="url(#paint5_linear_200_1130)"/>
<path d="M34.3524 190.875L35.9149 191.485C35.3599 193.05 35.0874 194.307 35.0999 195.257C35.1049 196.222 35.5099 197.028 36.3149 197.665C37.1049 198.3 38.4524 198.987 40.3624 199.732L78.7874 214.7C80.6499 215.425 82.1074 215.813 83.1624 215.858C84.2174 215.905 85.0474 215.593 85.6549 214.92C86.2849 214.238 86.9549 213.145 87.6674 211.642L89.2074 212.24C88.5124 213.698 87.6999 215.598 86.7674 217.945C85.8199 220.285 84.8749 222.662 83.9349 225.075C82.9074 227.71 81.9624 230.187 81.0949 232.505C80.2199 234.8 79.5549 236.695 79.0999 238.19L77.5624 237.59C78.1349 235.795 78.4374 234.385 78.4699 233.363C78.5274 232.33 78.1474 231.483 77.3349 230.82C76.5274 230.143 75.1924 229.44 73.3274 228.715L31.6599 212.485L31.8324 211.763L74.2674 250.595L73.7874 251.825L15.6499 253.803L51.5174 267.772C54.6749 269.003 57.1474 269.792 58.9374 270.145C60.7324 270.48 62.2074 270.245 63.3574 269.44C64.5074 268.632 65.6924 267.132 66.9099 264.935L68.4499 265.532C67.9574 266.467 67.3874 267.745 66.7374 269.365C66.0674 270.995 65.4524 272.527 64.8924 273.965C64.4499 275.102 64.0074 276.282 63.5674 277.51C63.1099 278.732 62.7774 279.775 62.5674 280.637L61.0274 280.037C61.3499 278.272 61.3224 276.852 60.9424 275.78C60.5624 274.705 59.6549 273.742 58.2199 272.892C56.8099 272.035 54.7549 271.08 52.0574 270.028L18.1299 256.812C16.2199 256.067 14.7624 255.655 13.7599 255.575C12.7449 255.47 11.9124 255.765 11.2624 256.455C10.6049 257.162 9.9424 258.305 9.2749 259.88L7.7124 259.272C8.0799 258.47 8.5324 257.472 9.0674 256.283C9.5874 255.085 10.0699 253.92 10.5124 252.782C11.5399 250.147 12.5024 247.605 13.3999 245.155C14.2774 242.715 15.0774 240.5 15.7974 238.51L58.8349 237.085L60.1499 240.077L27.1649 210.025C27.5449 209.048 27.9424 208.028 28.3549 206.973C28.7724 205.9 29.1724 204.872 29.5524 203.895C30.4924 201.48 31.3974 199.087 32.2674 196.717C33.1199 194.34 33.8149 192.395 34.3524 190.875Z" fill="black"/>
<path d="M62.39 148.032L116.397 161.737C118.465 162.19 120.075 162.265 121.227 161.96C122.392 161.665 123.212 161.242 123.69 160.687L125.035 161.642C123.907 163.022 122.62 164.717 121.175 166.722C119.725 168.705 118.257 170.737 116.777 172.825C115.237 174.992 113.792 177.052 112.445 179.002C111.075 180.96 110.02 182.557 109.285 183.802L107.937 182.845C109.48 180.47 110.12 178.722 109.857 177.6C109.617 176.475 108.027 175.54 105.085 174.8L66.32 164.167L65.2475 161.38L83.765 189.445C86.4075 193.36 88.655 195.955 90.51 197.232C92.3425 198.515 93.9725 198.822 95.4025 198.155C96.8225 197.502 98.225 196.305 99.6075 194.565L100.952 195.522C99.7275 197.042 98.6375 198.457 97.68 199.775C96.7 201.095 95.665 202.52 94.5775 204.052C93.93 204.962 93.29 205.892 92.66 206.835C92.0175 207.77 91.5025 208.61 91.12 209.355L89.7725 208.397C90.285 207.265 90.3675 205.807 90.0175 204.02C89.6425 202.237 88.4775 199.902 86.52 197.015L58.21 153.915C58.93 153.077 59.67 152.125 60.4225 151.062C61.1775 150 61.8325 148.99 62.39 148.032ZM79.56 184.305L93.4275 164.797L94.775 165.755L80.4225 185.945L79.56 184.305Z" fill="black"/>
<path d="M88.3722 117.232L87.2197 116.015C88.3497 115.015 89.8422 113.685 91.6972 112.022C93.5397 110.347 95.3722 108.65 97.1922 106.927C99.1597 105.065 101.045 103.247 102.845 101.477C104.632 99.6923 105.907 98.4398 106.667 97.7173C112.55 92.1523 117.767 88.8948 122.322 87.9423C126.877 86.9898 130.797 88.2498 134.08 91.7198C135.452 93.1723 136.502 94.8723 137.227 96.8198C137.952 98.7448 138.172 100.95 137.89 103.435C137.605 105.92 136.57 108.657 134.787 111.652C133.002 114.647 130.26 117.895 126.555 121.4L120.76 126.882L119.607 125.665L124.795 120.757C127.01 118.662 128.257 116.617 128.54 114.625C128.847 112.632 128.492 110.682 127.48 108.772C126.467 106.862 125.087 104.985 123.34 103.14C120.325 99.9523 117.492 97.9573 114.842 97.1523C112.18 96.3598 109.637 97.1098 107.215 99.4048C105.725 100.812 105.092 102.055 105.315 103.127C105.547 104.212 106.655 105.8 108.632 107.892L136.975 137.845C138.347 139.297 139.49 140.28 140.397 140.797C141.305 141.315 142.177 141.397 143.015 141.05C143.875 140.702 144.967 139.982 146.29 138.895L147.425 140.092C146.225 141.065 144.745 142.372 142.985 144.015C141.202 145.655 139.425 147.312 137.655 148.99C135.6 150.935 133.68 152.775 131.895 154.51C130.097 156.232 128.692 157.657 127.677 158.777L126.542 157.577C127.715 156.305 128.5 155.247 128.895 154.407C129.29 153.592 129.252 152.715 128.787 151.78C128.322 150.845 127.402 149.65 126.03 148.2L97.6897 118.245C96.2822 116.755 95.1347 115.765 94.2472 115.275C93.3497 114.77 92.4722 114.68 91.6147 115.005C90.7422 115.34 89.6622 116.082 88.3722 117.232ZM120.632 127.005L119.542 126.075C121.14 124.632 122.642 123.362 124.052 122.265C125.46 121.165 126.722 120.182 127.835 119.315C128.962 118.435 129.925 117.652 130.722 116.967C134.942 113.442 138.622 111.392 141.765 110.82C144.92 110.237 147.945 110.942 150.837 112.942L158.03 118.03C159.855 119.217 161.26 119.927 162.247 120.157C163.235 120.412 164.075 120.177 164.765 119.455C165.207 119.035 165.502 118.582 165.647 118.095C165.805 117.595 165.875 117.017 165.857 116.357L167.457 116.347C167.465 118.695 167.017 120.775 166.117 122.585C165.23 124.382 163.88 126.135 162.07 127.845C159.695 130.092 157.315 131.47 154.93 131.98C152.532 132.477 149.955 131.662 147.197 129.537L140.452 124.48C138.647 123.065 136.942 121.89 135.337 120.96C133.745 120.042 132.275 119.51 130.925 119.362C129.575 119.24 128.32 119.727 127.165 120.822L120.632 127.005Z" fill="black"/>
<path d="M191.055 37.1475L191.875 38.4925C190.552 39.835 189.292 41.595 188.1 43.77C186.902 45.97 185.98 48.8825 185.335 52.51L181.565 75.85L182.405 66.2L215.792 83.1275C217.092 83.7625 218.285 84.205 219.37 84.455C220.47 84.6975 221.742 84.735 223.19 84.5675L224.05 85.9775C222.152 86.9975 220.135 88.1475 218 89.43C215.842 90.7075 213.845 91.905 212.007 93.025C210.967 93.66 209.695 94.455 208.195 95.41C206.685 96.35 204.805 97.5775 202.552 99.0875L201.692 97.6775C203.712 96.3075 204.782 95.2975 204.905 94.6475C205.017 93.985 204.355 93.275 202.922 92.5225L182.17 81.82C180.997 81.165 180.045 80.745 179.315 80.555C178.575 80.35 177.93 80.2675 177.377 80.3075C176.812 80.355 176.16 80.5725 175.427 80.96L174.567 79.5525C176.587 78.1825 178.112 76.37 179.137 74.115C180.165 71.8625 180.997 68.755 181.637 64.7925L182.595 58.8525C183.167 55.5275 183.077 53.0225 182.327 51.3375C181.592 49.6425 180.445 48.6575 178.887 48.3775C177.315 48.1075 175.592 48.5025 173.717 49.565L172.897 48.22C174.817 47.1075 176.6 46.0925 178.24 45.17C179.872 44.235 181.872 43.0425 184.245 41.5975C187.08 39.87 189.35 38.385 191.055 37.1475ZM165.782 52.56L166.657 53.99C165.222 54.925 164.222 55.7725 163.655 56.535C163.075 57.305 162.922 58.1825 163.202 59.1625C163.475 60.1275 164.142 61.485 165.21 63.235L186.682 98.44C187.722 100.147 188.635 101.347 189.415 102.042C190.195 102.737 191.032 103 191.92 102.835C192.835 102.675 194.052 102.2 195.575 101.407L196.435 102.817C195.057 103.52 193.337 104.487 191.275 105.727C189.19 106.96 187.105 108.21 185.022 109.48C182.607 110.952 180.345 112.352 178.24 113.677C176.122 114.987 174.452 116.087 173.225 116.975L172.365 115.565C173.777 114.565 174.765 113.695 175.327 112.955C175.882 112.24 176.03 111.375 175.77 110.362C175.51 109.35 174.86 107.992 173.82 106.285L152.347 71.08C151.28 69.33 150.365 68.1225 149.602 67.4575C148.83 66.7775 147.99 66.505 147.082 66.6425C146.16 66.7875 144.947 67.29 143.445 68.145L142.572 66.715C143.885 65.9725 145.622 64.9825 147.785 63.745C149.937 62.4925 152.22 61.13 154.635 59.655C156.717 58.385 158.78 57.0975 160.822 55.7925C162.84 54.4825 164.495 53.405 165.782 52.56Z" fill="black"/>
<path d="M251.19 13.3945C251.882 15.9195 252.61 18.3395 253.372 20.6595C254.135 22.977 254.735 24.7345 255.172 25.927C255.557 26.977 255.957 27.967 256.372 28.897C256.777 29.8495 257.125 30.6495 257.417 31.2995L255.63 31.957C253.567 28.112 251.47 25.257 249.34 23.387C247.21 21.517 245.042 20.437 242.842 20.1445C240.625 19.8595 238.405 20.1245 236.177 20.942L234.055 21.722C232.607 22.2545 231.562 22.772 230.92 23.2795C230.277 23.787 229.97 24.4495 230 25.2695C230.045 26.082 230.355 27.267 230.927 28.827L246.065 70.012C246.62 71.522 247.15 72.617 247.652 73.2995C248.165 73.9595 248.832 74.2745 249.65 74.2445C250.47 74.2145 251.602 73.932 253.047 73.3995L256.245 72.227C258.28 71.4795 260.025 70.2345 261.475 68.4895C262.927 66.747 263.912 64.3195 264.43 61.2045C264.945 58.092 264.747 54.1845 263.83 49.487L265.642 48.822C266.137 50.662 266.9 52.9795 267.93 55.777C268.392 57.032 269.067 58.797 269.955 61.0695C270.845 63.342 271.882 65.6745 273.07 68.072C270.375 68.937 267.362 69.972 264.032 71.177C260.682 72.372 257.702 73.4495 255.097 74.407C253.285 75.072 250.86 75.9645 247.822 77.0795C244.77 78.202 241.557 79.3995 238.182 80.677C234.817 81.932 231.692 83.152 228.807 84.3395L228.24 82.7895C229.82 82.082 230.957 81.4195 231.65 80.8045C232.335 80.2095 232.647 79.392 232.59 78.347C232.532 77.3045 232.157 75.8445 231.467 73.9695L217.242 35.2645C216.535 33.342 215.872 31.9795 215.252 31.177C214.627 30.3595 213.855 29.9295 212.94 29.8895C212.007 29.8545 210.72 30.1095 209.08 30.657L208.502 29.0845C211.445 28.057 214.615 26.957 218.007 25.7795C221.412 24.582 224.64 23.4245 227.692 22.302C230.73 21.187 233.152 20.2945 234.965 19.6295C237.365 18.747 240.077 17.732 243.102 16.5845C246.15 15.447 248.845 14.3845 251.19 13.3945ZM235.79 49.3445L249.215 44.4095C249.215 44.4095 249.312 44.672 249.505 45.197C249.697 45.722 249.795 45.9845 249.795 45.9845L236.367 50.9195C236.367 50.9195 236.27 50.657 236.077 50.132C235.885 49.607 235.787 49.3445 235.79 49.3445ZM245.907 33.932L247.695 33.2745C248.58 36.3245 249.325 38.622 249.93 40.1695C250.517 41.722 251.052 43.1495 251.532 44.452C252.012 45.7545 252.57 47.1745 253.205 48.7095C253.825 50.2495 254.785 52.4695 256.085 55.367L254.295 56.0245C253.335 54.247 252.155 52.732 250.757 51.477C249.357 50.222 247.777 49.387 246.017 48.9695C244.272 48.5445 242.385 48.707 240.35 49.4545L239.772 47.882C241.807 47.1345 243.295 45.9545 244.237 44.3445C245.18 42.7345 245.765 40.987 245.992 39.0995C246.22 37.212 246.19 35.4895 245.907 33.932Z" fill="black"/>
<path d="M325.232 0C325.477 3.0475 325.772 5.975 326.117 8.785C326.48 11.5925 326.772 13.73 326.997 15.2025C327.182 16.4075 327.38 17.525 327.59 18.5575C327.802 19.605 327.99 20.5 328.155 21.2475L326.272 21.535C324.437 16.83 322.532 13.19 320.562 10.6125C318.587 8.02 316.54 6.285 314.417 5.41C312.292 4.52 310.11 4.245 307.865 4.59L306.887 4.74L314.082 51.68C314.427 53.9225 314.91 55.5625 315.532 56.5975C316.167 57.615 317.157 58.2 318.5 58.3525C319.845 58.5225 321.75 58.42 324.21 58.0425L324.46 59.675C322.645 59.9025 320.215 60.215 317.175 60.6125C314.12 61.03 310.952 61.49 307.67 61.9925C304.437 62.4875 301.402 62.98 298.567 63.465C295.715 63.97 293.422 64.3825 291.687 64.7L291.437 63.0675C293.897 62.69 295.755 62.2175 297.002 61.65C298.27 61.095 299.04 60.24 299.307 59.085C299.572 57.9125 299.535 56.205 299.19 53.9625L291.995 7.025L291.09 7.1625C288.797 7.515 286.777 8.4325 285.035 9.9175C283.305 11.3825 281.885 13.63 280.772 16.6625C279.677 19.6925 278.93 23.7575 278.53 28.855L276.647 29.145C276.632 28.375 276.56 27.4625 276.432 26.4C276.29 25.36 276.127 24.2375 275.942 23.0325C275.717 21.56 275.355 19.43 274.86 16.6425C274.347 13.86 273.752 10.9775 273.07 7.9975C275.64 7.655 278.477 7.28 281.585 6.8725C284.69 6.4475 287.775 6 290.84 5.53C293.92 5.0575 296.717 4.63 299.227 4.245C301.755 3.8575 304.567 3.425 307.665 2.95C310.745 2.4775 313.822 1.98 316.895 1.4575C319.947 0.92 322.727 0.435 325.232 0Z" fill="black"/>
<path d="M403.657 2.7375C407.287 3.1925 410.203 4.105 412.405 5.4725C414.608 6.83999 416.525 8.3525 418.16 10.01C419.165 10.9725 419.992 11.18 420.645 10.6275C421.312 10.0625 421.905 8.60999 422.42 6.2675L424.31 6.505C423.923 8.6425 423.508 11.27 423.068 14.3875C422.623 17.525 422.08 21.6475 421.44 26.7575L419.548 26.52C419.638 23.9025 419.575 21.6075 419.362 19.635C419.135 17.6425 418.668 15.8525 417.96 14.26C417.273 12.6725 416.177 11.195 414.675 9.8275C413.545 8.6275 412.228 7.635 410.723 6.85C409.23 6.0825 407.663 5.595 406.015 5.3875C402.99 5.0075 400.338 5.53 398.06 6.9525C395.8 8.375 393.875 10.3725 392.29 12.9375C390.705 15.505 389.442 18.42 388.505 21.68C387.567 24.9425 386.888 28.245 386.47 31.5925C386.042 35.005 385.898 38.41 386.035 41.805C386.173 45.2025 386.685 48.3225 387.575 51.165C388.48 54.0275 389.872 56.395 391.755 58.27C393.652 60.1625 396.113 61.3 399.138 61.68C400.718 61.8775 402.332 61.8 403.98 61.4425C405.612 61.085 407.125 60.4625 408.515 59.5775C411.143 58.235 413.05 56.28 414.245 53.715C415.435 51.1675 416.492 47.765 417.417 43.5125L419.31 43.75C418.64 49.095 418.125 53.4 417.767 56.665C417.407 59.9475 417.148 62.6975 416.988 64.915L415.098 64.68C415.175 62.2825 414.985 60.7475 414.523 60.075C414.078 59.405 413.202 59.38 411.895 60C409.682 61.1725 407.375 62.155 404.97 62.9475C402.55 63.7375 399.55 63.9075 395.97 63.46C389.97 62.7075 384.85 60.8625 380.607 57.9225C376.367 54.985 373.283 51.1325 371.353 46.3675C369.408 41.6 368.828 36.0825 369.613 29.8125C370.383 23.66 372.345 18.435 375.495 14.135C378.663 9.8375 382.678 6.68 387.54 4.66C392.403 2.64 397.775 2 403.657 2.7375Z" fill="black"/>
<path d="M474.123 22.23L475.482 77.9325C475.605 80.0475 475.968 81.6175 476.57 82.6425C477.168 83.685 477.798 84.3625 478.46 84.6725L477.9 86.225C476.268 85.5125 474.29 84.73 471.968 83.8775C469.668 83.015 467.315 82.15 464.907 81.285C462.405 80.385 460.032 79.55 457.79 78.78C455.537 77.9875 453.713 77.405 452.318 77.03L452.878 75.475C455.58 76.32 457.435 76.465 458.442 75.91C459.462 75.3775 459.933 73.5925 459.855 70.56L459.642 30.3625L462.04 28.5775L440.005 53.975C436.947 57.575 435.053 60.44 434.323 62.57C433.583 64.68 433.725 66.3325 434.755 67.53C435.767 68.7225 437.297 69.7475 439.342 70.6125L438.785 72.165C436.993 71.395 435.332 70.7275 433.807 70.16C432.272 69.5725 430.62 68.96 428.853 68.325C427.8 67.9475 426.735 67.5825 425.655 67.23C424.582 66.8625 423.635 66.5925 422.812 66.425L423.372 64.87C424.6 65.06 426.028 64.745 427.653 63.925C429.268 63.085 431.202 61.3325 433.457 58.6675L467.332 19.79C468.335 20.2575 469.448 20.7125 470.675 21.1525C471.903 21.5925 473.053 21.9525 474.123 22.23ZM443.82 48.5425L466.343 56.6375L465.785 58.1925L442.472 49.8125L443.82 48.5425Z" fill="black"/>
<path d="M551.15 60.3504L550.328 61.7829C548.993 61.6604 547.343 61.9429 545.385 62.6329C543.418 63.3379 540.95 64.6554 537.983 66.5854L509.488 85.3129L505.368 82.9454L506.46 42.0454C506.55 39.9879 506.395 38.4704 505.998 37.5004C505.59 36.5429 505.123 35.9129 504.593 35.6079L505.468 34.0879C506.778 35.0379 508.155 35.9754 509.595 36.9004C511.05 37.8354 512.668 38.8129 514.443 39.8354C516.748 41.1604 519.253 42.5329 521.955 43.9479C524.658 45.3654 527.135 46.6629 529.388 47.8404L528.515 49.3604C527.31 48.6679 526.18 48.1054 525.118 47.6704C524.05 47.2504 523.183 47.1454 522.52 47.3504C521.878 47.5479 521.503 48.2879 521.388 49.5704L520.27 77.4154L515.335 79.4729L529.92 69.8029C533.905 67.1904 536.6 64.8604 538.01 62.8204C539.405 60.7704 539.828 58.9604 539.28 57.3954C538.74 55.8529 537.525 54.5004 535.635 53.3379L536.46 51.9054C538.168 52.9454 539.713 53.8929 541.098 54.7479C542.488 55.6254 543.978 56.5204 545.563 57.4304C546.56 58.0054 547.563 58.5404 548.565 59.0404C549.545 59.5454 550.408 59.9829 551.15 60.3504ZM511.278 81.5354L522.465 75.8929L511.32 95.2754C510.325 97.0079 509.71 98.3829 509.475 99.4029C509.24 100.42 509.418 101.285 510.008 101.993C510.588 102.718 511.59 103.558 513.013 104.513L512.19 105.945C510.913 105.075 509.185 104.003 507.005 102.73C504.835 101.443 502.69 100.193 500.578 98.9754C498.228 97.6254 495.973 96.3479 493.81 95.1454C491.658 93.9279 489.928 93.0104 488.623 92.3954L489.445 90.9629C491.003 91.7204 492.233 92.1654 493.135 92.2929C494.045 92.4454 494.88 92.1629 495.643 91.4504C496.405 90.7354 497.285 89.5129 498.28 87.7779L506.778 72.9979L511.278 81.5354Z" fill="black"/>
<path d="M620.615 121.495L619.48 122.73C618.222 121.645 617.15 120.935 616.26 120.602C615.357 120.257 614.462 120.342 613.575 120.86C612.697 121.365 611.565 122.372 610.177 123.882L582.287 154.257C580.935 155.73 580.047 156.947 579.62 157.912C579.192 158.877 579.182 159.765 579.59 160.575C579.997 161.41 580.772 162.43 581.915 163.642L580.797 164.857C579.692 163.682 578.215 162.235 576.37 160.515C574.535 158.782 572.662 157.04 570.752 155.287C568.67 153.375 566.705 151.595 564.86 149.947C563.04 148.3 561.515 146.99 560.287 146.022L561.405 144.807C562.87 145.992 564.072 146.785 565.012 147.19C565.955 147.617 566.88 147.572 567.792 147.052C568.717 146.545 569.857 145.555 571.21 144.082L601.452 111.145L602.065 111.57L550.48 137.02L549.507 136.125L568.765 81.2321L542.73 109.585C540.44 112.08 538.805 114.097 537.827 115.637C536.862 117.19 536.547 118.647 536.88 120.012C537.215 121.377 538.182 123.025 539.787 124.96L538.672 126.175C537.98 125.377 536.995 124.382 535.72 123.19C534.445 121.972 533.24 120.845 532.105 119.802C531.207 118.977 530.265 118.137 529.282 117.28C528.31 116.41 527.46 115.722 526.732 115.212L527.847 113.995C529.375 114.937 530.707 115.425 531.85 115.462C532.99 115.497 534.215 115.002 535.525 113.975C536.837 112.972 538.472 111.405 540.432 109.27L565.057 82.4521C566.442 80.9421 567.357 79.7346 567.797 78.8271C568.262 77.9196 568.29 77.0371 567.882 76.1796C567.462 75.3096 566.637 74.2796 565.412 73.0846L566.547 71.8496C567.162 72.4821 567.927 73.2646 568.842 74.1971C569.77 75.1171 570.68 75.9896 571.577 76.8146C573.66 78.7271 575.68 80.5471 577.637 82.2746C579.592 83.9771 581.367 85.5271 582.96 86.9196L568.67 127.54L565.402 127.68L605.377 107.85C606.15 108.56 606.955 109.3 607.79 110.067C608.637 110.847 609.45 111.59 610.225 112.3C612.135 114.052 614.035 115.765 615.927 117.435C617.832 119.092 619.395 120.445 620.615 121.495Z" fill="black"/>
<path d="M650.355 163.187L617.972 208.53C616.8 210.292 616.145 211.765 616.01 212.95C615.86 214.142 615.957 215.062 616.302 215.707L614.922 216.612C614.045 215.06 612.935 213.247 611.59 211.172C610.27 209.1 608.907 206.997 607.505 204.857C606.045 202.635 604.65 200.542 603.32 198.577C601.995 196.59 600.887 195.027 599.997 193.89L601.377 192.982C603.03 195.282 604.425 196.512 605.567 196.677C606.702 196.865 608.15 195.72 609.91 193.247L633.895 160.987L636.882 161.002L604.01 168.062C599.402 169.102 596.167 170.255 594.302 171.52C592.442 172.762 591.565 174.17 591.665 175.742C591.757 177.302 592.362 179.042 593.482 180.962L592.102 181.87C591.132 180.177 590.207 178.645 589.33 177.277C588.457 175.885 587.502 174.405 586.472 172.832C585.86 171.897 585.227 170.965 584.575 170.035C583.937 169.095 583.342 168.312 582.785 167.685L584.167 166.777C585.035 167.667 586.365 168.272 588.157 168.595C589.955 168.895 592.555 168.655 595.955 167.88L646.392 157.157C646.912 158.132 647.53 159.167 648.247 160.255C648.962 161.345 649.665 162.322 650.355 163.187ZM610.322 166.012L623.462 186.017L622.082 186.925L608.482 166.217L610.322 166.012Z" fill="black"/>
<path d="M692.287 249.258L690.737 249.895C689.85 248.448 688.877 247.465 687.822 246.948C686.767 246.43 685.437 246.335 683.832 246.665C682.245 246.99 680.087 247.71 677.36 248.833L635.465 266.068C635.282 265.355 635.032 264.615 634.717 263.848C634.402 263.08 634.017 262.278 633.56 261.438L659.437 211.343L633.592 221.973C630.46 223.26 628.125 224.395 626.585 225.378C625.052 226.375 624.15 227.56 623.875 228.938C623.6 230.315 623.777 232.22 624.41 234.653L622.882 235.28C622.592 234.263 622.122 232.945 621.477 231.325C620.837 229.683 620.225 228.15 619.637 226.725C619.172 225.598 618.677 224.438 618.152 223.243C617.64 222.043 617.162 221.058 616.717 220.288L618.245 219.66C619.227 221.16 620.23 222.168 621.245 222.685C622.262 223.2 623.582 223.27 625.207 222.895C626.82 222.543 628.967 221.815 631.645 220.715L665.315 206.863C667.21 206.083 668.55 205.375 669.335 204.743C670.14 204.118 670.54 203.33 670.532 202.383C670.52 201.418 670.212 200.133 669.607 198.533L671.16 197.893C671.447 198.728 671.81 199.76 672.242 200.993C672.692 202.218 673.147 203.395 673.612 204.523C674.14 205.808 674.67 207.028 675.2 208.183C675.745 209.333 676.242 210.383 676.687 211.333L654.327 256.22L675.405 247.55C678.522 246.268 680.86 245.14 682.42 244.17C683.965 243.205 684.897 242.043 685.217 240.683C685.522 239.33 685.307 237.405 684.57 234.905L686.122 234.268C686.495 235.305 686.98 236.643 687.582 238.283C688.2 239.915 688.79 241.42 689.357 242.8C689.867 244.038 690.385 245.235 690.915 246.388C691.467 247.553 691.925 248.51 692.287 249.258Z" fill="black"/>
<path d="M103.93 499.13L102.368 499.737C101.718 498.21 101.068 497.1 100.418 496.407C99.7601 495.7 98.9176 495.382 97.8926 495.455C96.8826 495.522 95.4226 495.927 93.5126 496.672L55.0876 511.637C53.2251 512.362 51.8901 513.065 51.0826 513.742C50.2751 514.42 49.8751 515.212 49.8801 516.12C49.8776 517.047 50.1226 518.307 50.6151 519.895L49.0751 520.495C48.6026 518.952 47.9151 517.002 47.0151 514.645C46.1301 512.28 45.2176 509.892 44.2776 507.477C43.2501 504.842 42.2726 502.377 41.3451 500.085C40.4376 497.802 39.6451 495.957 38.9701 494.547L40.5076 493.947C41.3001 495.657 42.0301 496.9 42.6976 497.677C43.3551 498.475 44.2051 498.845 45.2526 498.78C46.3076 498.732 47.7651 498.347 49.6276 497.622L91.2976 481.392L91.6576 482.042L34.1376 482.142L33.6576 480.91L75.1426 440.13L39.2751 454.1C36.1176 455.33 33.7626 456.42 32.2076 457.372C30.6576 458.34 29.7326 459.51 29.4276 460.882C29.1251 462.255 29.2676 464.162 29.8576 466.602L28.3201 467.202C28.0501 466.18 27.6051 464.855 26.9876 463.222C26.3801 461.567 25.7951 460.022 25.2351 458.587C24.7926 457.45 24.3176 456.282 23.8151 455.08C23.3251 453.87 22.8651 452.877 22.4351 452.097L23.9751 451.5C24.9301 453.017 25.9126 454.045 26.9201 454.577C27.9276 455.112 29.2476 455.207 30.8751 454.865C32.4951 454.542 34.6551 453.857 37.3526 452.805L71.2801 439.59C73.1901 438.845 74.5426 438.165 75.3376 437.547C76.1551 436.937 76.5701 436.16 76.5801 435.207C76.5851 434.242 76.3026 432.952 75.7276 431.342L77.2901 430.732C77.5626 431.572 77.9026 432.61 78.3151 433.852C78.7401 435.085 79.1751 436.272 79.6176 437.407C80.6451 440.042 81.6551 442.567 82.6476 444.977C83.6501 447.367 84.5601 449.54 85.3776 451.495L54.6426 481.652L51.6501 480.337L96.2726 480.162C96.6526 481.14 97.0501 482.16 97.4601 483.217C97.8776 484.29 98.2776 485.317 98.6601 486.295C99.6001 488.71 100.553 491.085 101.515 493.417C102.495 495.745 103.3 497.647 103.933 499.13H103.93Z" fill="black"/>
<path d="M123.375 525.72L92.6851 572.225C91.5776 574.03 90.9801 575.525 90.8876 576.712C90.7826 577.91 90.9126 578.825 91.2801 579.457L89.9351 580.415C89.0001 578.897 87.8251 577.125 86.4051 575.1C85.0101 573.077 83.5701 571.025 82.0901 568.94C80.5501 566.772 79.0776 564.732 77.6751 562.82C76.2776 560.882 75.1126 559.362 74.1826 558.257L75.5301 557.3C77.2651 559.537 78.7051 560.715 79.8501 560.837C80.9926 560.982 82.3976 559.785 84.0651 557.25L106.845 524.13L109.83 524.032L77.2401 532.3C72.6751 533.507 69.4851 534.78 67.6676 536.112C65.8551 537.422 65.0276 538.86 65.1876 540.43C65.3376 541.985 66.0076 543.702 67.1976 545.58L65.8501 546.537C64.8176 544.88 63.8376 543.385 62.9101 542.05C61.9851 540.69 60.9801 539.245 59.8901 537.712C59.2426 536.802 58.5751 535.892 57.8901 534.987C57.2176 534.072 56.5951 533.31 56.0176 532.702L57.3626 531.747C58.2626 532.605 59.6151 533.16 61.4176 533.415C63.2251 533.647 65.8126 533.312 69.1851 532.415L119.193 519.837C119.748 520.792 120.403 521.802 121.16 522.867C121.915 523.93 122.655 524.882 123.375 525.72ZM83.4751 530.02L97.3401 549.525L95.9951 550.482L81.6426 530.292L83.4751 530.02Z" fill="black"/>
<path d="M137.385 548.068L138.538 546.85C139.598 547.923 141.008 549.34 142.773 551.1C144.548 552.848 146.343 554.583 148.165 556.308C150.133 558.17 152.053 559.95 153.92 561.648C155.8 563.333 157.12 564.538 157.883 565.258C163.765 570.823 167.305 575.853 168.51 580.348C169.713 584.843 168.673 588.825 165.39 592.298C164.018 593.75 162.378 594.89 160.47 595.723C158.588 596.553 156.398 596.895 153.903 596.748C151.405 596.6 148.615 595.72 145.525 594.105C142.438 592.49 139.04 589.93 135.338 586.425L129.543 580.94L130.695 579.723L135.883 584.63C138.098 586.725 140.208 587.86 142.213 588.033C144.22 588.228 146.148 587.768 147.998 586.65C149.848 585.533 151.645 584.05 153.393 582.205C156.408 579.018 158.243 576.08 158.9 573.39C159.545 570.688 158.655 568.19 156.23 565.898C154.74 564.49 153.468 563.925 152.408 564.205C151.338 564.498 149.813 565.69 147.835 567.783L119.495 597.735C118.123 599.188 117.203 600.38 116.735 601.318C116.27 602.253 116.235 603.128 116.628 603.945C117.023 604.785 117.8 605.835 118.963 607.098L117.828 608.298C116.79 607.153 115.403 605.748 113.668 604.08C111.933 602.39 110.178 600.708 108.405 599.033C106.35 597.088 104.408 595.273 102.575 593.585C100.755 591.885 99.2576 590.563 98.0801 589.613L99.2151 588.413C100.553 589.515 101.65 590.238 102.51 590.585C103.348 590.933 104.218 590.85 105.128 590.333C106.035 589.815 107.178 588.833 108.55 587.38L136.89 557.428C138.298 555.938 139.225 554.74 139.665 553.828C140.118 552.905 140.16 552.023 139.79 551.183C139.408 550.33 138.605 549.293 137.385 548.068ZM129.415 580.82L130.28 579.68C131.808 581.195 133.16 582.625 134.335 583.973C135.51 585.318 136.563 586.523 137.49 587.588C138.43 588.665 139.265 589.583 139.993 590.34C143.745 594.358 145.995 597.92 146.743 601.025C147.5 604.143 146.963 607.203 145.125 610.2L140.445 617.663C139.36 619.55 138.728 620.993 138.55 621.993C138.35 622.993 138.63 623.818 139.393 624.468C139.835 624.888 140.305 625.155 140.798 625.275C141.305 625.405 141.888 625.443 142.545 625.388L142.643 626.985C140.298 627.123 138.198 626.79 136.343 625.99C134.5 625.203 132.673 623.953 130.865 622.243C128.49 619.995 126.983 617.695 126.343 615.34C125.715 612.973 126.385 610.355 128.355 607.483L133.03 600.47C134.345 598.588 135.423 596.823 136.263 595.17C137.093 593.53 137.543 592.033 137.613 590.675C137.66 589.32 137.105 588.095 135.948 587L129.415 580.82Z" fill="black"/>
<path d="M229.935 616.208L229.112 617.553C227.312 616.99 225.172 616.678 222.692 616.613C220.19 616.553 217.177 617.068 213.657 618.155L191.182 625.488L200.145 621.82L200.38 659.25C200.41 660.698 200.562 661.96 200.835 663.04C201.122 664.128 201.672 665.278 202.485 666.488L201.625 667.898C199.85 666.675 197.905 665.41 195.787 664.098C193.665 662.763 191.685 661.535 189.847 660.418C188.807 659.783 187.517 659.018 185.982 658.118C184.455 657.205 182.505 656.095 180.127 654.788L180.987 653.378C183.132 654.548 184.52 655.035 185.152 654.845C185.792 654.64 186.12 653.73 186.135 652.11L186.15 628.76C186.195 627.418 186.135 626.38 185.967 625.643C185.81 624.893 185.587 624.28 185.302 623.808C185 623.325 184.51 622.848 183.827 622.373L184.687 620.963C186.832 622.133 189.14 622.658 191.612 622.538C194.085 622.42 197.23 621.738 201.042 620.493L206.765 618.625C209.982 617.61 212.167 616.385 213.325 614.948C214.495 613.518 214.847 612.048 214.38 610.533C213.9 609.01 212.76 607.66 210.957 606.48L211.777 605.135C213.645 606.333 215.365 607.453 216.935 608.488C218.512 609.51 220.49 610.745 222.86 612.193C225.695 613.92 228.052 615.26 229.935 616.208ZM204.662 600.798L203.79 602.228C202.302 601.38 201.09 600.88 200.155 600.725C199.202 600.56 198.355 600.828 197.612 601.525C196.877 602.208 195.977 603.425 194.91 605.175L173.44 640.38C172.4 642.088 171.75 643.445 171.487 644.458C171.227 645.47 171.375 646.333 171.93 647.05C172.49 647.79 173.47 648.655 174.87 649.645L174.01 651.055C172.755 650.15 171.107 649.065 169.062 647.8C167.012 646.51 164.945 645.23 162.862 643.96C160.447 642.488 158.167 641.118 156.025 639.85C153.89 638.568 152.147 637.585 150.8 636.9L151.66 635.49C153.197 636.288 154.422 636.768 155.337 636.93C156.227 637.095 157.065 636.833 157.845 636.138C158.625 635.443 159.537 634.243 160.575 632.535L182.047 597.33C183.115 595.58 183.77 594.215 184.012 593.23C184.262 592.233 184.12 591.363 183.582 590.618C183.03 589.865 182.03 589.015 180.58 588.073L181.452 586.64C182.712 587.468 184.387 588.56 186.48 589.915C188.58 591.255 190.837 592.66 193.252 594.135C195.335 595.405 197.422 596.65 199.517 597.865C201.607 599.06 203.322 600.038 204.662 600.798Z" fill="black"/>
<path d="M276.947 633.623C275.84 635.995 274.827 638.31 273.905 640.573C272.985 642.833 272.305 644.56 271.867 645.75C271.482 646.8 271.145 647.813 270.857 648.79C270.55 649.778 270.295 650.613 270.1 651.3L268.31 650.643C269.227 646.378 269.48 642.843 269.067 640.038C268.655 637.233 267.705 635.008 266.215 633.36C264.712 631.708 262.847 630.47 260.622 629.653L258.5 628.873C257.052 628.34 255.92 628.06 255.1 628.03C254.28 628 253.617 628.308 253.112 628.95C252.62 629.6 252.09 630.703 251.515 632.263L236.38 673.448C235.825 674.958 235.517 676.135 235.46 676.98C235.425 677.815 235.727 678.485 236.372 678.993C237.015 679.5 238.062 680.02 239.507 680.553L242.702 681.725C244.737 682.473 246.872 682.653 249.11 682.268C251.345 681.88 253.667 680.668 256.075 678.628C258.485 676.59 260.862 673.485 263.207 669.313L265.02 669.978C264.207 671.7 263.285 673.96 262.257 676.758C261.795 678.013 261.167 679.795 260.375 682.103C259.582 684.41 258.86 686.86 258.215 689.458C255.6 688.37 252.635 687.208 249.317 685.97C245.99 684.71 243.022 683.603 240.415 682.645C238.602 681.98 236.177 681.088 233.142 679.973C230.09 678.85 226.865 677.683 223.467 676.47C220.09 675.248 216.92 674.155 213.952 673.19L214.522 671.64C216.185 672.125 217.48 672.358 218.407 672.338C219.312 672.328 220.082 671.905 220.712 671.073C221.342 670.24 222.002 668.885 222.692 667.01L236.917 628.305C237.625 626.383 238.002 624.913 238.047 623.903C238.1 622.875 237.79 622.048 237.12 621.423C236.432 620.79 235.285 620.153 233.68 619.508L234.26 617.935C237.167 619.058 240.295 620.27 243.642 621.573C247.012 622.865 250.222 624.073 253.275 625.193C256.312 626.308 258.735 627.2 260.547 627.865C262.947 628.748 265.672 629.73 268.72 630.815C271.777 631.92 274.52 632.858 276.947 633.623ZM241.932 651.045L255.36 655.98C255.36 655.98 255.262 656.243 255.07 656.765C254.877 657.29 254.78 657.553 254.78 657.553L241.355 652.618C241.355 652.618 241.452 652.355 241.642 651.833C241.835 651.308 241.932 651.045 241.932 651.045ZM259.622 645.853L261.41 646.51C260.11 649.408 259.19 651.64 258.65 653.21C258.092 654.775 257.575 656.208 257.097 657.51C256.617 658.813 256.125 660.258 255.615 661.838C255.09 663.413 254.385 665.725 253.497 668.775L251.71 668.118C252.13 666.143 252.212 664.223 251.957 662.363C251.702 660.5 251.04 658.84 249.97 657.383C248.915 655.93 247.37 654.83 245.337 654.083L245.915 652.508C247.95 653.255 249.847 653.32 251.607 652.705C253.367 652.09 254.945 651.135 256.342 649.843C257.737 648.55 258.83 647.22 259.622 645.853Z" fill="black"/>
<path d="M336.55 643.297C335.87 646.277 335.275 649.16 334.762 651.942C334.267 654.727 333.905 656.857 333.68 658.332C333.495 659.537 333.347 660.662 333.237 661.707C333.125 662.77 333.037 663.682 332.972 664.442L331.09 664.155C330.75 659.115 330.022 655.072 328.915 652.022C327.807 648.957 326.375 646.69 324.61 645.22C322.85 643.732 320.847 642.817 318.605 642.475L317.627 642.322L310.43 689.262C310.085 691.505 310.055 693.215 310.337 694.387C310.64 695.547 311.407 696.402 312.642 696.952C313.875 697.517 315.722 697.99 318.182 698.367L317.932 700C316.132 699.672 313.722 699.242 310.702 698.712C307.662 698.195 304.502 697.685 301.22 697.18C297.987 696.685 294.945 696.242 292.092 695.857C289.22 695.485 286.907 695.19 285.16 694.975L285.41 693.342C287.87 693.72 289.782 693.825 291.145 693.655C292.522 693.505 293.51 692.92 294.112 691.9C294.717 690.862 295.192 689.22 295.537 686.977L302.735 640.04L301.83 639.902C299.537 639.55 297.335 639.822 295.227 640.715C293.14 641.595 291.11 643.315 289.142 645.872C287.19 648.435 285.26 652.087 283.347 656.835L281.465 656.545C281.68 655.807 281.887 654.912 282.082 653.865C282.257 652.83 282.44 651.71 282.622 650.502C282.847 649.03 283.142 646.89 283.505 644.082C283.85 641.272 284.145 638.345 284.387 635.3C286.942 635.742 289.762 636.235 292.85 636.777C295.94 637.302 299.017 637.8 302.08 638.27C305.16 638.742 307.957 639.17 310.467 639.555C312.995 639.942 315.807 640.375 318.907 640.85C321.987 641.322 325.072 641.77 328.16 642.19C331.235 642.592 334.03 642.962 336.55 643.297Z" fill="black"/>
<path d="M394.08 637.957C397.71 637.502 400.76 637.665 403.23 638.45C405.7 639.232 407.932 640.225 409.927 641.425C411.14 642.11 411.992 642.105 412.487 641.412C412.995 640.7 413.21 639.145 413.132 636.747L415.022 636.51C415.175 638.675 415.422 641.325 415.762 644.457C416.105 647.607 416.597 651.735 417.24 656.845L415.347 657.082C414.787 654.525 414.16 652.315 413.467 650.457C412.755 648.582 411.86 646.962 410.785 645.595C409.725 644.225 408.3 643.065 406.507 642.11C405.117 641.225 403.595 640.59 401.94 640.2C400.305 639.825 398.665 639.74 397.017 639.945C393.992 640.325 391.552 641.485 389.695 643.425C387.855 645.362 386.485 647.77 385.58 650.65C384.677 653.527 384.175 656.665 384.072 660.057C383.967 663.45 384.127 666.82 384.545 670.162C384.972 673.575 385.672 676.91 386.645 680.167C387.617 683.425 388.885 686.322 390.447 688.857C392.03 691.407 393.965 693.357 396.252 694.71C398.557 696.077 401.222 696.57 404.247 696.192C405.827 695.995 407.372 695.52 408.882 694.767C410.375 694.017 411.687 693.042 412.817 691.84C415.03 689.89 416.4 687.525 416.92 684.745C417.445 681.982 417.63 678.425 417.477 674.075L419.37 673.837C420.04 679.182 420.605 683.482 421.062 686.735C421.525 690.005 421.95 692.735 422.345 694.922L420.455 695.16C419.94 692.817 419.375 691.377 418.76 690.84C418.162 690.3 417.307 690.492 416.195 691.417C414.34 693.1 412.345 694.622 410.212 695.982C408.062 697.345 405.197 698.25 401.617 698.7C395.617 699.452 390.2 698.927 385.365 697.125C380.53 695.325 376.59 692.352 373.542 688.212C370.48 684.072 368.555 678.867 367.77 672.597C367 666.445 367.61 660.897 369.602 655.955C371.612 651.007 374.722 646.957 378.935 643.8C383.147 640.642 388.195 638.695 394.08 637.957Z" fill="black"/>
<path d="M448.812 624.462L485.322 666.552C486.762 668.105 488.042 669.085 489.162 669.492C490.287 669.917 491.203 670.037 491.91 669.855L492.47 671.407C490.755 671.897 488.732 672.552 486.4 673.375C484.077 674.175 481.713 675.005 479.305 675.87C476.803 676.77 474.44 677.637 472.22 678.47C469.978 679.295 468.2 680.005 466.885 680.605L466.328 679.05C468.95 677.982 470.472 676.912 470.897 675.842C471.345 674.782 470.57 673.107 468.577 670.815L442.825 639.952L443.535 637.052L442.713 670.665C442.645 675.387 443.01 678.802 443.802 680.91C444.575 683.007 445.738 684.192 447.293 684.46C448.833 684.735 450.665 684.552 452.795 683.915L453.353 685.467C451.48 686.015 449.775 686.555 448.24 687.09C446.683 687.615 445.02 688.195 443.247 688.83C442.195 689.207 441.14 689.605 440.085 690.022C439.022 690.422 438.12 690.817 437.38 691.21L436.823 689.655C437.89 689.02 438.79 687.867 439.523 686.2C440.233 684.522 440.61 681.94 440.653 678.452L442.02 626.905C443.09 626.627 444.24 626.27 445.467 625.827C446.695 625.387 447.81 624.932 448.812 624.462ZM442.197 664.045L464.72 655.95L465.277 657.505L441.965 665.882L442.197 664.045Z" fill="black"/>
<path d="M513.857 591.888L514.682 593.318C513.905 594.41 513.32 595.978 512.93 598.02C512.55 600.075 512.445 602.87 512.62 606.403L514.465 640.453L510.345 642.82L475.55 621.295C473.815 620.183 472.427 619.553 471.39 619.41C470.357 619.28 469.577 619.368 469.047 619.67L468.175 618.15C469.655 617.495 471.157 616.778 472.682 616C474.222 615.213 475.88 614.308 477.657 613.285C479.962 611.96 482.407 610.485 484.992 608.863C487.577 607.24 489.945 605.753 492.095 604.398L492.97 605.918C491.765 606.61 490.71 607.305 489.802 608.003C488.902 608.715 488.375 609.41 488.215 610.088C488.062 610.743 488.512 611.44 489.567 612.183L513.065 627.16L512.36 632.46L511.345 614.99C511.09 610.233 510.435 606.73 509.377 604.485C508.307 602.248 506.957 600.973 505.332 600.658C503.727 600.348 501.947 600.718 499.99 601.765L499.167 600.333C500.925 599.38 502.522 598.52 503.955 597.755C505.412 596.995 506.935 596.16 508.522 595.248C509.52 594.673 510.487 594.078 511.422 593.463C512.352 592.87 513.162 592.345 513.857 591.888ZM512.1 637.005L512.852 624.498L523.997 643.88C524.992 645.613 525.872 646.838 526.635 647.553C527.397 648.268 528.232 648.548 529.142 648.395C530.06 648.258 531.29 647.815 532.832 647.065L533.655 648.498C532.26 649.163 530.462 650.118 528.267 651.36C526.062 652.588 523.902 653.81 521.787 655.028C519.437 656.378 517.2 657.685 515.072 658.945C512.937 660.193 511.275 661.225 510.087 662.048L509.262 660.615C510.7 659.65 511.702 658.813 512.27 658.095C512.857 657.385 513.035 656.523 512.802 655.505C512.567 654.488 511.955 653.11 510.957 651.378L502.46 636.598L512.1 637.005Z" fill="black"/>
<path d="M570.11 540.61L571.245 541.845C570.057 543.005 569.257 544.015 568.85 544.87C568.43 545.74 568.44 546.637 568.877 547.57C569.305 548.487 570.212 549.7 571.6 551.21L599.49 581.582C600.842 583.055 601.98 584.045 602.907 584.552C603.832 585.06 604.717 585.145 605.557 584.81C606.422 584.475 607.507 583.79 608.81 582.755L609.927 583.97C608.662 584.97 607.095 586.32 605.222 588.015C603.34 589.697 601.445 591.415 599.537 593.165C597.455 595.077 595.512 596.882 593.712 598.582C591.915 600.255 590.482 601.662 589.415 602.805L588.297 601.587C589.602 600.227 590.495 599.097 590.977 598.195C591.482 597.292 591.517 596.365 591.08 595.412C590.652 594.447 589.765 593.227 588.412 591.757L558.167 558.82L558.642 558.245L579.61 611.81L578.635 612.702L525.58 588.845L551.615 617.197C553.905 619.692 555.777 621.492 557.23 622.597C558.695 623.69 560.12 624.13 561.507 623.912C562.895 623.695 564.62 622.87 566.682 621.435L567.8 622.652C566.945 623.275 565.87 624.17 564.575 625.337C563.255 626.505 562.027 627.607 560.89 628.652C559.992 629.477 559.072 630.342 558.137 631.25C557.187 632.145 556.43 632.932 555.86 633.615L554.742 632.4C555.81 630.96 556.41 629.672 556.545 628.537C556.677 627.405 556.287 626.14 555.375 624.747C554.487 623.355 553.065 621.592 551.105 619.46L526.48 592.64C525.095 591.13 523.967 590.117 523.102 589.602C522.237 589.062 521.362 588.96 520.472 589.292C519.57 589.637 518.472 590.37 517.177 591.49L516.045 590.255C516.727 589.697 517.572 589.002 518.577 588.167C519.572 587.322 520.52 586.487 521.417 585.665C523.5 583.752 525.487 581.895 527.375 580.092C529.237 578.29 530.932 576.652 532.457 575.182L571.712 592.88L571.572 596.145L555.217 554.63C555.99 553.92 556.795 553.18 557.632 552.412C558.48 551.632 559.292 550.89 560.065 550.177C561.975 548.425 563.84 546.675 565.665 544.932C567.477 543.175 568.96 541.735 570.11 540.61Z" fill="black"/>
<path d="M587.813 512.843L642.29 524.548C644.375 524.923 645.985 524.938 647.125 524.59C648.278 524.253 649.083 523.8 649.54 523.228L650.92 524.135C649.845 525.558 648.62 527.295 647.248 529.353C645.87 531.388 644.48 533.473 643.078 535.613C641.618 537.835 640.25 539.948 638.978 541.948C637.68 543.953 636.688 545.59 635.995 546.858L634.615 545.953C636.07 543.523 636.645 541.753 636.34 540.64C636.06 539.525 634.435 538.65 631.468 538.018L592.335 528.823L591.16 526.075L610.7 553.438C613.485 557.253 615.828 559.763 617.728 560.973C619.605 562.185 621.248 562.433 622.653 561.713C624.048 561.008 625.405 559.76 626.72 557.973L628.1 558.878C626.933 560.44 625.895 561.898 624.988 563.248C624.058 564.603 623.075 566.065 622.045 567.638C621.433 568.573 620.828 569.523 620.233 570.49C619.623 571.448 619.14 572.305 618.783 573.065L617.403 572.158C617.875 571.008 617.903 569.548 617.485 567.775C617.045 566.008 615.795 563.715 613.733 560.9L583.853 518.875C584.543 518.01 585.245 517.033 585.96 515.943C586.675 514.853 587.293 513.82 587.815 512.843H587.813ZM606.31 548.458L619.45 528.453L620.83 529.36L607.23 550.065L606.31 548.458Z" fill="black"/>
<path d="M623.232 439.44L624.782 440.08C624.395 441.735 624.395 443.118 624.78 444.228C625.165 445.338 626.045 446.34 627.417 447.235C628.775 448.123 630.815 449.128 633.54 450.248L675.435 467.48C675.065 468.115 674.72 468.815 674.405 469.585C674.09 470.353 673.797 471.195 673.53 472.11L619.895 489.498L645.74 500.13C648.872 501.418 651.33 502.255 653.115 502.64C654.905 503.01 656.382 502.803 657.547 502.02C658.712 501.235 659.925 499.758 661.185 497.583L662.712 498.21C662.202 499.135 661.61 500.403 660.93 502.01C660.227 503.625 659.585 505.148 658.997 506.573C658.532 507.7 658.07 508.875 657.605 510.093C657.125 511.305 656.772 512.343 656.545 513.2L655.017 512.573C655.375 510.815 655.372 509.395 655.012 508.313C654.652 507.23 653.762 506.25 652.347 505.375C650.952 504.49 648.917 503.498 646.237 502.395L612.567 488.545C610.672 487.765 609.222 487.325 608.22 487.223C607.207 487.1 606.37 487.378 605.705 488.058C605.035 488.753 604.35 489.883 603.652 491.445L602.102 490.805C602.485 490.01 602.955 489.023 603.515 487.843C604.057 486.655 604.562 485.498 605.025 484.37C605.552 483.085 606.035 481.845 606.472 480.653C606.892 479.453 607.28 478.358 607.632 477.365L655.105 461.205L634.027 452.535C630.91 451.253 628.455 450.408 626.662 450C624.885 449.6 623.405 449.768 622.222 450.51C621.055 451.258 619.852 452.778 618.615 455.07L617.065 454.433C617.53 453.433 618.127 452.14 618.852 450.553C619.562 448.958 620.202 447.473 620.77 446.093C621.28 444.855 621.752 443.64 622.187 442.445C622.615 441.228 622.962 440.228 623.232 439.44Z" fill="black"/>
<path d="M24.1826 358.552C24.1826 354.752 27.2626 351.675 31.0601 351.675C34.8601 351.675 37.9376 354.755 37.9376 358.552C37.9376 362.352 34.8576 365.43 31.0601 365.432C27.2601 365.432 24.1826 362.352 24.1826 358.552Z" fill="black"/>
<path d="M664.462 358.552C664.462 354.752 667.542 351.675 671.34 351.675C675.14 351.675 678.217 354.755 678.217 358.552C678.217 362.352 675.137 365.43 671.34 365.432C667.54 365.432 664.462 362.352 664.462 358.552Z" fill="black"/>
</g>
</g>
</g>
</g>
</g>
</g>
<defs>
<linearGradient id="paint0_linear_200_1130" x1="261.329" y1="341.006" x2="467.607" y2="340.731" gradientUnits="userSpaceOnUse">
<stop stop-color="#FFAC27"/>
<stop offset="1" stop-color="#FFC108"/>
</linearGradient>
<linearGradient id="paint1_linear_200_1130" x1="233" y1="309.138" x2="405.94" y2="308.964" gradientUnits="userSpaceOnUse">
<stop stop-color="#FFAC27"/>
<stop offset="1" stop-color="#FFC108"/>
</linearGradient>
<linearGradient id="paint2_linear_200_1130" x1="340.506" y1="437.115" x2="382.179" y2="437.084" gradientUnits="userSpaceOnUse">
<stop stop-color="#FFAC27"/>
<stop offset="1" stop-color="#FFC108"/>
</linearGradient>
<linearGradient id="paint3_linear_200_1130" x1="407.182" y1="437.115" x2="448.854" y2="437.084" gradientUnits="userSpaceOnUse">
<stop stop-color="#FFAC27"/>
<stop offset="1" stop-color="#FFC108"/>
</linearGradient>
<linearGradient id="paint4_linear_200_1130" x1="350.642" y1="340.445" x2="427.717" y2="340.348" gradientUnits="userSpaceOnUse">
<stop stop-color="#FFAC27"/>
<stop offset="1" stop-color="#FFC108"/>
</linearGradient>
<linearGradient id="paint5_linear_200_1130" x1="350.642" y1="340.445" x2="427.717" y2="340.348" gradientUnits="userSpaceOnUse">
<stop stop-color="#FFAC27"/>
<stop offset="1" stop-color="#FFC108"/>
</linearGradient>
<clipPath id="clip0_200_1130">
<rect width="700" height="700" fill="white"/>
</clipPath>
<clipPath id="clip1_200_1130">
<rect width="700" height="700" fill="white"/>
</clipPath>
<clipPath id="clip2_200_1130">
<rect width="700" height="700" fill="white"/>
</clipPath>
<clipPath id="clip3_200_1130">
<rect width="700" height="700" fill="white"/>
</clipPath>
<clipPath id="clip4_200_1130">
<rect width="700" height="700" fill="white"/>
</clipPath>
<clipPath id="clip5_200_1130">
<rect width="700" height="700" fill="white"/>
</clipPath>
</defs>
</svg>
