<svg width="33" height="32" viewBox="0 0 33 32" fill="none" xmlns="http://www.w3.org/2000/svg">
<path d="M25.8978 6.59862C24.8723 5.57493 23.4825 5 22.0336 5C20.5846 5 19.1949 5.57493 18.1693 6.59862L16.1114 8.65681L6.85136 17.9187C6.68303 18.0869 6.5739 18.3052 6.54041 18.5407L5.51108 25.7441C5.48876 25.9002 5.50024 26.0592 5.54473 26.2104C5.58922 26.3616 5.66569 26.5015 5.76895 26.6206C5.87221 26.7397 5.99986 26.8352 6.14325 26.9007C6.28663 26.9661 6.44241 27 6.60003 27C6.65214 27.0001 6.70419 26.9964 6.75578 26.989L13.9586 25.9601C14.1941 25.926 14.4123 25.8167 14.5805 25.6485L25.8989 14.3294C26.4065 13.8218 26.8092 13.2192 27.0839 12.556C27.3586 11.8928 27.5 11.1819 27.5 10.464C27.5 9.74612 27.3586 9.03526 27.0839 8.37203C26.8092 7.7088 26.4054 7.10619 25.8978 6.59862ZM13.284 23.834L7.89653 24.6032L8.66648 19.2154L16.8894 10.9906L21.5078 15.6093L13.284 23.834ZM24.3421 12.7738L23.0628 14.0537L18.4443 9.4348L19.7246 8.15417C20.3468 7.56043 21.1737 7.22916 22.0336 7.22916C22.8935 7.22916 23.7204 7.56043 24.3425 8.15417C24.9549 8.76687 25.2989 9.59771 25.2989 10.464C25.2989 11.3303 24.9544 12.1611 24.3421 12.7738Z" fill="#0F0F0F"/>
</svg>
