<svg width="11" height="15" viewBox="0 0 11 15" fill="none" xmlns="http://www.w3.org/2000/svg">
<path d="M8.41333 5.14558C7.01871 4.17096 4.7803 2.60595 1.30836 0.176981C1.07428 -0.0161736 0.80496 -0.0414861 0.572266 0.0569221L6.52915 7.49979L8.41333 5.14558Z" fill="#32BBFF"/>
<path d="M0.572427 0.0548096C0.528814 0.0732666 0.486374 0.0955322 0.445786 0.122427C0.188824 0.296099 0 0.630288 0 1.05295V13.9424C0 14.3651 0.1888 14.6993 0.445786 14.8729C0.486304 14.8998 0.528721 14.9221 0.572286 14.9407L6.5293 7.49768L0.572427 0.0548096Z" fill="#32BBFF"/>
<path d="M6.52931 7.49927L0.572266 14.9423C0.805032 15.0414 1.07435 15.018 1.3085 14.8221C4.67555 12.4663 6.88874 10.9199 8.2995 9.93694C8.33877 9.90938 8.37725 9.88242 8.41528 9.85573L6.52931 7.49927Z" fill="#32BBFF"/>
<path d="M0 7.49927V13.944C0 14.3667 0.1888 14.7009 0.445786 14.8745C0.486304 14.9014 0.528721 14.9237 0.572286 14.9423L6.5293 7.49927H0Z" fill="#2C9FD9"/>
<path d="M1.30806 0.176599C1.03008 -0.0527371 0.702278 -0.0462039 0.445312 0.124187L6.43849 7.61235L8.41309 5.1452C7.01847 4.17059 4.78004 2.60557 1.30806 0.176599Z" fill="#29CC5E"/>
<path d="M6.43846 7.3866L0.445312 14.8747C0.702299 15.0451 1.03007 15.0549 1.30805 14.8223C4.67508 12.4666 6.88826 10.9201 8.29901 9.93718C8.33828 9.90962 8.37676 9.88266 8.41479 9.85597L6.43846 7.3866Z" fill="#D93F21"/>
<path d="M10.901 7.49933C10.901 7.1422 10.7568 6.78179 10.4709 6.58193C10.4709 6.58193 9.93632 6.20924 8.2977 5.06409L6.34863 7.49933L8.2996 9.93698C9.92024 8.80006 10.4709 8.41671 10.4709 8.41671C10.7568 8.21687 10.901 7.85646 10.901 7.49933Z" fill="#FFD500"/>
<path d="M10.4709 8.41667C10.7568 8.2168 10.901 7.8564 10.901 7.49927H6.34863L8.2996 9.93691C9.92026 8.80002 10.4709 8.41667 10.4709 8.41667Z" fill="#FFAA00"/>
</svg>
