<svg width="8" height="12" viewBox="0 0 8 12" fill="none" xmlns="http://www.w3.org/2000/svg">
<path d="M1.70571 1.0001C1.56814 0.996845 1.43305 1.03969 1.31922 1.12274C1.20538 1.20579 1.11846 1.32494 1.07054 1.46351C1.02261 1.60209 1.01607 1.75325 1.05181 1.896C1.08755 2.03876 1.16381 2.16595 1.26998 2.26L5.32087 5.98842L1.26998 9.71554C1.19654 9.77353 1.13503 9.84715 1.08931 9.93187C1.0436 10.0166 1.01465 10.1105 1.00429 10.2078C0.993931 10.3051 1.00238 10.4036 1.02911 10.4973C1.05584 10.5909 1.10027 10.6776 1.15962 10.7519C1.21897 10.8262 1.29197 10.8865 1.37403 10.9291C1.4561 10.9717 1.54547 10.9956 1.63654 10.9994C1.72762 11.0032 1.81844 10.9868 1.90332 10.9511C1.98819 10.9154 2.0653 10.8613 2.12981 10.7921L6.76771 6.52879C6.84054 6.46201 6.89903 6.37913 6.93913 6.28572C6.97923 6.19231 7 6.09064 7 5.98777C7 5.8849 6.97923 5.78323 6.93913 5.68982C6.89903 5.5964 6.84054 5.51344 6.76771 5.44666L2.12981 1.17926C2.01265 1.06746 1.86237 1.00389 1.70571 0.999932V1.0001Z" fill="white" stroke="white" stroke-width="0.3"/>
</svg>
