<svg width="23" height="22" viewBox="0 0 23 22" fill="none" xmlns="http://www.w3.org/2000/svg">
<path d="M20.8978 1.59862C19.8723 0.57493 18.4825 0 17.0336 0C15.5846 0 14.1949 0.57493 13.1693 1.59862L11.1114 3.65681L1.85136 12.9187C1.68303 13.0869 1.5739 13.3052 1.54041 13.5407L0.511083 20.7441C0.488765 20.9002 0.500239 21.0592 0.544729 21.2104C0.589219 21.3616 0.665686 21.5015 0.768949 21.6206C0.872212 21.7397 0.99986 21.8352 1.14325 21.9007C1.28663 21.9661 1.44241 22 1.60003 22C1.65214 22.0001 1.70419 21.9964 1.75578 21.989L8.95863 20.9601C9.19411 20.926 9.41226 20.8167 9.58054 20.6485L20.8989 9.3294C21.4065 8.82182 21.8092 8.21921 22.0839 7.55598C22.3586 6.89275 22.5 6.1819 22.5 5.46401C22.5 4.74612 22.3586 4.03526 22.0839 3.37203C21.8092 2.7088 21.4054 2.10619 20.8978 1.59862ZM8.28404 18.834L2.89653 19.6032L3.66648 14.2154L11.8894 5.99057L16.5078 10.6093L8.28404 18.834ZM19.3421 7.77385L18.0628 9.05371L13.4443 4.4348L14.7246 3.15417C15.3468 2.56043 16.1737 2.22916 17.0336 2.22916C17.8935 2.22916 18.7204 2.56043 19.3425 3.15417C19.9549 3.76687 20.2989 4.59771 20.2989 5.46401C20.2989 6.33031 19.9544 7.16115 19.3421 7.77385Z" fill="#0F0F0F"/>
</svg>
