<?xml version="1.0" standalone="no"?>
<!DOCTYPE svg PUBLIC "-//W3C//DTD SVG 1.1//EN" "http://www.w3.org/Graphics/SVG/1.1/DTD/svg11.dtd" >
<svg xmlns="http://www.w3.org/2000/svg" xmlns:xlink="http://www.w3.org/1999/xlink" version="1.1">
<metadata>
Created by FontForge 20170731 at Tue Sep 19 11:45:57 2023
 By Aleksey,,,
copyright missing
</metadata>
<defs>
<font id="Snug-LowBl" horiz-adv-x="999" >
  <font-face 
    font-family="Snug Low Bl"
    font-weight="900"
    font-stretch="condensed"
    units-per-em="2048"
    panose-1="0 0 0 0 0 0 0 0 0 0"
    ascent="1638"
    descent="-410"
    x-height="901"
    cap-height="1434"
    bbox="-135 -553 2881.59 1915"
    underline-thickness="102"
    underline-position="-358"
    unicode-range="U+0020-1F609"
  />
<missing-glyph horiz-adv-x="808" 
d="M664 1270v-1618h-514v1618h514zM270 -236h269v54h-166l114 76h52v53h-269v-53h113l-113 -76v-54zM270 -16h269v182h-269v-182zM270 264h269v182h-162v-90h55v37h53v-76h-161v129h-54v-182zM270 481h269v162h-54v-106h-215v-56zM270 573h162v115h107v53h-269v-53h107v-61
h-107v-54zM270 784h269v56h-107v112h-162v-168zM270 995h269v54h-107v59h107v53h-267v-53h105v-59h-107v-54zM324 37v76h161v-76h-161zM324 840v57h53v-57h-53z" />
    <glyph glyph-name="fi" unicode="fi" horiz-adv-x="1077" 
d="M236 -348q-38 0 -60 22t-22 60v854h-58q-38 0 -60 22t-22 60v149q0 38 22 60t60 22h58v41q0 379 428 379q100 0 100 -88v-133q0 -41 -23.5 -65.5t-68.5 -24.5q-46 0 -58 -14t-12 -66v-29h428q38 0 60 -22t22 -60v-737q0 -38 -22 -60t-60 -22h-203q-38 0 -59.5 22
t-21.5 60v506h-144v-854q0 -38 -22 -60t-60 -22h-202z" />
    <glyph glyph-name="fl" unicode="fl" horiz-adv-x="1112" 
d="M236 -348q-38 0 -60 22t-22 60v854h-58q-38 0 -60 22t-22 60v149q0 38 22 60t60 22h58v115q0 196 168 317l36 27q49 33 86 -4l154 -152q47 -47 -4 -86l-10 -8q-64 -53 -64 -139v-70h60q38 0 60 -22t22 -60v-149q0 -38 -22 -60t-60 -22h-60v-854q0 -38 -22 -60t-60 -22
h-202zM698 82v1106q0 38 22 60t60 22h203q38 0 60 -22t22 -60v-1106q0 -38 -22 -60t-60 -22h-203q-38 0 -60 22t-22 60z" />
    <glyph glyph-name="f_f" unicode="ff" horiz-adv-x="1251" 
d="M236 -348q-38 0 -60 22t-22 60v854h-58q-38 0 -60 22t-22 60v149q0 38 22 60t60 22h58v115q0 196 168 317l36 27q49 33 86 -4l154 -152q47 -47 -4 -86l-10 -8q-64 -53 -64 -139v-70h150v41q0 63 14.5 116.5t50.5 103t92.5 84t145.5 55t205 20.5q82 0 82 -82v-147
q0 -82 -82 -82q-90 0 -116 -17.5t-26 -62.5v-29h119q38 0 60 -22t22 -60v-149q0 -38 -22 -60t-60 -22h-119v-854q0 -38 -22 -60t-60 -22h-202q-38 0 -60 22t-22 60v854h-150v-854q0 -38 -22 -60t-60 -22h-202z" />
    <glyph glyph-name="f_f_i" unicode="ffi" horiz-adv-x="1593" 
d="M236 -348q-38 0 -60 22t-22 60v854h-58q-38 0 -60 22t-22 60v149q0 38 22 60t60 22h58v115q0 196 168 317l36 27q49 33 86 -4l154 -152q47 -47 -4 -86l-10 -8q-64 -53 -64 -139v-70h150v41q0 379 428 379q100 0 100 -88v-133q0 -41 -23.5 -65.5t-68.5 -24.5
q-46 0 -58 -14t-12 -66v-29h428q38 0 60 -22t22 -60v-737q0 -38 -22 -60t-60 -22h-202q-38 0 -60 22t-22 60v506h-144v-854q0 -38 -22 -60t-60 -22h-202q-38 0 -60 22t-22 60v854h-150v-854q0 -38 -22 -60t-60 -22h-202z" />
    <glyph glyph-name="f_f_l" unicode="ffl" horiz-adv-x="1628" 
d="M236 -348q-38 0 -60 22t-22 60v854h-58q-38 0 -60 22t-22 60v149q0 38 22 60t60 22h58v115q0 196 168 317l36 27q49 33 86 -4l154 -152q47 -47 -4 -86l-10 -8q-64 -53 -64 -139v-70h150v115q0 196 168 317l36 27q49 34 87 -4l153 -152q47 -47 -4 -86l-10 -8
q-64 -53 -64 -139v-70h60q38 0 60 -22t22 -60v-149q0 -38 -22 -60t-60 -22h-60v-854q0 -38 -22 -60t-60 -22h-202q-38 0 -60 22t-22 60v854h-150v-854q0 -38 -22 -60t-60 -22h-202zM1214 82v1106q0 38 22 60t60 22h203q38 0 60 -22t22 -60v-1106q0 -38 -22 -60t-60 -22h-203
q-38 0 -60 22t-22 60z" />
    <glyph glyph-name=".notdef" horiz-adv-x="808" 
d="M664 1270v-1618h-514v1618h514zM270 -236h269v54h-166l114 76h52v53h-269v-53h113l-113 -76v-54zM270 -16h269v182h-269v-182zM270 264h269v182h-162v-90h55v37h53v-76h-161v129h-54v-182zM270 481h269v162h-54v-106h-215v-56zM270 573h162v115h107v53h-269v-53h107v-61
h-107v-54zM270 784h269v56h-107v112h-162v-168zM270 995h269v54h-107v59h107v53h-267v-53h105v-59h-107v-54zM324 37v76h161v-76h-161zM324 840v57h53v-57h-53z" />
    <glyph glyph-name=".null" horiz-adv-x="0" 
 />
    <glyph glyph-name="nonmarkingreturn" horiz-adv-x="682" 
 />
    <glyph glyph-name="space" unicode=" " horiz-adv-x="327" 
 />
    <glyph glyph-name="exclam" unicode="!" horiz-adv-x="454" 
d="M123 0q-38 0 -60 22t-22 60v209q0 38 22 60t60 22h209q38 0 60 -22t22 -60v-209q0 -38 -22 -60t-60 -22h-209zM39 1372q-1 29 15 45.5t46 16.5h254q30 0 46.5 -16.5t15.5 -45.5l-41 -887q-3 -61 -62 -61h-172q-58 0 -61 61z" />
    <glyph glyph-name="quotedbl" unicode="&#x22;" horiz-adv-x="677" 
d="M123 942q-61 0 -64 59l-24 369q-3 64 59 64h164q62 0 59 -64l-24 -369q-3 -59 -64 -59h-106zM360 1370q-3 64 60 64h164q62 0 59 -64l-25 -369q-3 -59 -63 -59h-106q-61 0 -64 59z" />
    <glyph glyph-name="numbersign" unicode="#" horiz-adv-x="1228" 
d="M676 0q-64 0 -58 66l27 223h-151l-29 -232q-6 -57 -64 -57h-223q-63 0 -57 66l26 223h-53q-38 0 -60 22t-22 60v161q0 38 22 60t60 22h92l25 205h-57q-38 0 -60 22t-22 60v162q0 38 22 60t60 22h96l26 231q6 58 64 58h227q31 0 46 -17.5t12 -48.5l-27 -223h150l26 231
q6 58 64 58h227q30 0 45 -17.5t12 -48.5l-26 -223h39q38 0 60 -22t22 -60v-162q0 -38 -22 -60t-60 -22h-80l-25 -205h49q38 0 60 -22t22 -60v-161q0 -38 -22 -60t-60 -22h-88l-28 -232q-6 -57 -64 -57h-223zM532 614h152l25 205h-152z" />
    <glyph glyph-name="dollar" unicode="$" horiz-adv-x="985" 
d="M346 1454q0 38 22 60t60 22h131q38 0 60 -22t22 -60v-74q309 -62 309 -387v-12q0 -38 -22 -60t-60 -22h-213q-38 0 -60 22t-22 60v12q0 47 -18.5 67.5t-62.5 20.5t-62 -17t-18 -63v-14q0 -48 28 -69.5t125 -57.5l131 -49q134 -50 194 -129.5t60 -200.5v-55
q0 -315 -309 -375v-71q0 -38 -22 -60t-60 -22h-131q-38 0 -60 22t-22 60v71q-311 57 -311 379q0 38 22 60t60 22h213q38 0 60 -22t22 -60q0 -31 19.5 -50.5t60.5 -19.5q44 0 62.5 18t18.5 60v2q0 48 -28 69.5t-125 57.5l-131 49q-134 50 -194 129.5t-60 200.5v47
q0 327 311 387v74z" />
    <glyph glyph-name="percent" unicode="%" horiz-adv-x="1503" 
d="M592 0q-25 0 -36.5 14t-6.5 39l270 1276h-223q45 -71 45 -184v-211q0 -301 -311 -301q-312 0 -312 301v211q0 301 312 301h581q25 0 36.5 -14t6.5 -39l-286 -1350q-8 -43 -54 -43h-22zM293 920q0 -41 37 -41t37 41v239q0 41 -37 41t-37 -41v-239zM862 291v211
q0 301 312 301q311 0 311 -301v-211q0 -301 -311 -301q-312 0 -312 301zM1137 276q0 -40 37 -40q36 0 36 40v240q0 41 -36 41q-37 0 -37 -41v-240z" />
    <glyph glyph-name="ampersand" unicode="&#x26;" horiz-adv-x="1060" 
d="M934 -23q-284 0 -350 191q-76 -193 -275 -193q-145 0 -212.5 90.5t-67.5 249.5v113q0 218 217 270q-154 120 -154 332v62q0 168 119 271t319 103q219 0 326 -96.5t107 -257.5v-27q0 -142 -112 -214t-353 -78q40 -43 116 -43h328q38 0 60 -22t22 -60v-99q0 -38 -22 -60
t-60 -22h-59v-51q0 -84 17.5 -114t62.5 -43q67 -13 67 -70v-158q0 -74 -96 -74zM387 381q0 -123 88 -123t88 145v179h-37q-71 0 -105 -29.5t-34 -93.5v-78zM449 999q0 -110 24 -165q74 24 106.5 71.5t32.5 124.5v80q0 38 -18.5 66t-61.5 28q-39 0 -61 -29.5t-22 -64.5v-111z
" />
    <glyph glyph-name="quotesingle" unicode="'" horiz-adv-x="352" 
d="M123 942q-61 0 -64 59l-24 369q-3 64 59 64h164q62 0 59 -64l-24 -369q-3 -59 -64 -59h-106z" />
    <glyph glyph-name="parenleft" unicode="(" horiz-adv-x="493" 
d="M242 -348q-53 0 -68 49q-141 443 -141 842q0 413 139 839q16 52 70 52h174q34 0 47.5 -19t7.5 -47q-86 -371 -86 -825t86 -826q6 -29 -7.5 -47t-47.5 -18h-174z" />
    <glyph glyph-name="parenright" unicode=")" horiz-adv-x="493" 
d="M252 1434q52 0 67 -50q142 -446 142 -841q0 -414 -139 -840q-15 -51 -70 -51h-174q-34 0 -47.5 18.5t-7.5 46.5q86 371 86 826q0 453 -86 825q-6 29 7.5 47.5t47.5 18.5h174z" />
    <glyph glyph-name="asterisk" unicode="*" horiz-adv-x="591" 
d="M207 1362q-4 34 14.5 53t50.5 19h39q32 0 51 -19t15 -53l-19 -119l115 57q33 14 56 3t32 -41l12 -37q9 -31 -3 -55t-46 -31l-118 -19l90 -90q24 -27 19 -52.5t-32 -43.5l-30 -25q-24 -18 -51 -13.5t-44 34.5l-55 106l-57 -112q-18 -31 -45 -36t-51 15l-31 23
q-26 20 -31 45t18 51l87 88l-125 18q-34 7 -46.5 31.5t-1.5 54.5l11 37q11 31 34 42t56 -3l106 -53zM233 1126l64 -47l68 49l-27 76h-80z" />
    <glyph glyph-name="plus" unicode="+" horiz-adv-x="651" 
d="M279 358q-38 0 -60 22t-22 60v107h-97q-38 0 -60 22t-22 60v73q0 38 22 60t60 22h97v107q0 38 22 60t60 22h94q38 0 60 -22t22 -60v-107h96q38 0 60 -22t22 -60v-73q0 -38 -22 -60t-60 -22h-96v-107q0 -38 -22 -60t-60 -22h-94z" />
    <glyph glyph-name="comma" unicode="," horiz-adv-x="462" 
d="M70 -203q-32 0 -46.5 19.5t-5.5 50.5l41 131v293q0 38 22 60t60 22h209q38 0 60 -22t22 -60v-217q0 -40 -20 -76l-95 -160q-23 -41 -73 -41h-174z" />
    <glyph glyph-name="hyphen" unicode="-" horiz-adv-x="501" 
d="M121 498q-38 0 -60 22t-22 60v69q0 38 22 60t60 22h260q38 0 60 -22t22 -60v-69q0 -38 -22 -60t-60 -22h-260z" />
    <glyph glyph-name="period" unicode="." horiz-adv-x="454" 
d="M123 0q-38 0 -60 22t-22 60v209q0 38 22 60t60 22h209q38 0 60 -22t22 -60v-209q0 -38 -22 -60t-60 -22h-209z" />
    <glyph glyph-name="slash" unicode="/" horiz-adv-x="448" 
d="M68 -225q-64 0 -58 65l189 1680q6 57 63 57h119q63 0 57 -66l-188 -1679q-6 -57 -64 -57h-118z" />
    <glyph glyph-name="zero" unicode="0" horiz-adv-x="987" 
d="M494 -25q-127 0 -218 34t-142.5 98.5t-75 146.5t-23.5 188v545q0 106 23.5 188t75 146.5t142.5 98.5t218 34t218 -34t142.5 -98.5t74.5 -146t23 -188.5v-545q0 -84 -14 -152.5t-47 -128t-84.5 -100t-130.5 -63.5t-182 -23zM412 416q0 -52 18.5 -76.5t63.5 -24.5t63 23.5
t18 77.5v596q0 54 -18 78t-63 24t-63.5 -24t-18.5 -78v-596z" />
    <glyph glyph-name="one" unicode="1" horiz-adv-x="819" 
d="M123 0q-38 0 -60 22t-22 60v151q0 38 22 60t60 22h125v566h-152q-38 0 -60 22t-22 60v67q0 82 82 82q57 0 104 7t88.5 23t65 46t23.5 72v92q0 38 22 60t60 22h80q38 0 60 -22t22 -60v-1037h102q38 0 60 -22t22 -60v-151q0 -38 -22 -60t-60 -22h-600z" />
    <glyph glyph-name="two" unicode="2" horiz-adv-x="952" 
d="M129 0q-38 0 -60 22t-22 60v180q0 72 35 105l264 245q102 93 149.5 161t47.5 142v136q0 40 -21.5 59.5t-58.5 19.5q-47 0 -65.5 -19t-18.5 -64v-168q0 -38 -22 -60t-60 -22h-193q-38 0 -59.5 22t-21.5 60v168q0 196 115 298.5t317 102.5q247 0 356 -98.5t109 -302.5v-134
q0 -175 -156 -325l-285 -269h367q38 0 60 -21.5t22 -59.5v-156q0 -38 -22 -60t-60 -22h-717z" />
    <glyph glyph-name="three" unicode="3" horiz-adv-x="954" 
d="M475 -25q-459 0 -459 447v53q0 38 22 60t60 22h213q38 0 60 -22t22 -60v-80q0 -53 18.5 -76.5t63.5 -23.5t63.5 24t18.5 76v191q0 46 -18 64t-64 18h-133q-47 0 -64 28.5t5 69.5l174 328h-328q-38 0 -60 22t-22 60v176q0 38 22 60t60 22h670q38 0 60 -22t22 -60v-170
q0 -44 -31 -101l-129 -225q105 -20 159 -90.5t54 -179.5v-164q0 -447 -459 -447z" />
    <glyph glyph-name="four" unicode="4" horiz-adv-x="1146" 
d="M662 0q-38 0 -60 22t-22 60v240h-486q-46 0 -67 26t-13 70l168 942q12 74 88 74h211q42 0 61.5 -23t12.5 -65l-119 -670h158l41 319q10 82 84 82h143q38 0 60 -22t22 -60v-319h105q38 0 59.5 -22t21.5 -60v-191q0 -38 -21.5 -59.5t-59.5 -21.5h-97v-240q0 -38 -22 -60
t-60 -22h-208z" />
    <glyph glyph-name="five" unicode="5" horiz-adv-x="974" 
d="M487 -23q-458 0 -458 414v53q0 38 22 60t60 22h213q38 0 60 -22t22 -60v-53q0 -56 18.5 -79t62.5 -23q43 0 61.5 23.5t18.5 78.5v252q0 64 -16 91.5t-51 27.5q-28 0 -42 -15t-32 -59q-21 -49 -46.5 -70.5t-78.5 -21.5h-192q-40 0 -62.5 21.5t-19.5 60.5l41 674
q6 82 82 82h692q38 0 60 -22t22 -60v-176q0 -38 -22 -60t-60 -22h-447l-28 -330h26q10 58 29 103.5t52 83t84.5 57.5t119.5 20q124 0 195 -75t71 -232v-330q0 -414 -457 -414z" />
    <glyph glyph-name="six" unicode="6" horiz-adv-x="944" 
d="M473 -23q-126 0 -215 33t-140.5 98.5t-74.5 152t-23 202.5v102q0 226 103 402l235 401q22 37 41 51.5t52 14.5h227q45 0 66 -28.5t-1 -66.5l-200 -342q18 2 53 2q163 0 245.5 -108.5t82.5 -308.5v-119q0 -117 -22.5 -203t-73.5 -151.5t-140 -98.5t-215 -33zM393 397
q0 -51 18.5 -76.5t61.5 -25.5q42 0 60 25.5t18 76.5v199q0 98 -78 98q-80 0 -80 -102v-195z" />
    <glyph glyph-name="seven" unicode="7" horiz-adv-x="847" 
d="M170 0q-43 0 -62.5 25.5t-7.5 66.5l279 1002h-279q-38 0 -60 22t-22 60v176q0 38 22 60t60 22h662q43 0 63.5 -26t8.5 -67l-357 -1271q-18 -70 -90 -70h-217z" />
    <glyph glyph-name="eight" unicode="8" horiz-adv-x="966" 
d="M483 -16q-120 0 -210.5 30.5t-143.5 84.5t-78.5 121t-25.5 147v98q0 91 35 156t122 108q-83 48 -115 114t-32 156v84q0 171 108 271t340 100q119 0 207 -27.5t140 -78.5t77 -117t25 -148v-84q0 -90 -32 -156t-116 -114q87 -43 122.5 -108t35.5 -156v-98q0 -80 -25.5 -147
t-78.5 -121t-144 -84.5t-211 -30.5zM401 393q0 -56 20.5 -79t61.5 -23t61.5 23t20.5 79v119q0 55 -19 79.5t-63 24.5t-63 -24.5t-19 -79.5v-119zM408 971q0 -46 19.5 -71.5t55.5 -25.5q37 0 56.5 25.5t19.5 71.5v96q0 35 -19 57.5t-57 22.5t-56.5 -22.5t-18.5 -57.5v-96z
" />
    <glyph glyph-name="nine" unicode="9" horiz-adv-x="944" 
d="M471 1456q127 0 215.5 -33t140 -98t74.5 -151.5t23 -202.5v-103q0 -225 -103 -401l-235 -401q-22 -37 -40.5 -51.5t-51.5 -14.5h-228q-45 0 -66 28t1 66l200 342q-18 -2 -53 -2q-163 0 -245.5 109t-82.5 309v119q0 117 22.5 203t73.5 151t140 98t215 33zM393 838
q0 -99 78 -99q80 0 80 103v194q0 51 -18.5 77t-61.5 26q-78 0 -78 -103v-198z" />
    <glyph glyph-name="colon" unicode=":" horiz-adv-x="450" 
d="M121 0q-38 0 -60 22t-22 60v209q0 38 22 60t60 22h209q38 0 60 -22t22 -60v-209q0 -38 -22 -60t-60 -22h-209zM39 815v209q0 38 22 60t60 22h209q38 0 60 -22t22 -60v-209q0 -38 -22 -60t-60 -22h-209q-38 0 -60 22t-22 60z" />
    <glyph glyph-name="semicolon" unicode=";" horiz-adv-x="473" 
d="M70 -203q-32 0 -46.5 19.5t-5.5 50.5l41 131v293q0 38 22 60t60 22h209q38 0 60 -22t22 -60v-217q0 -40 -20 -76l-95 -160q-23 -41 -73 -41h-174zM59 815v209q0 38 22 60t60 22h209q38 0 60 -22t22 -60v-209q0 -38 -22 -60t-60 -22h-209q-38 0 -60 22t-22 60z" />
    <glyph glyph-name="less" unicode="&#x3c;" horiz-adv-x="651" 
d="M512 975q41 16 68.5 -1t27.5 -63v-90q0 -73 -63 -94l-191 -61l191 -62q63 -21 63 -94v-94q0 -45 -26 -62t-70 0l-426 162q-61 23 -61 96v107q0 73 61 96z" />
    <glyph glyph-name="equal" unicode="=" horiz-adv-x="651" 
d="M100 725q-38 0 -60 22t-22 60v74q0 38 22 60t60 22h451q38 0 60 -22t22 -60v-74q0 -38 -22 -60t-60 -22h-451zM18 451v73q0 38 22 60t60 22h451q38 0 60 -22t22 -60v-73q0 -38 -22 -60t-60 -22h-451q-38 0 -60 22t-22 60z" />
    <glyph glyph-name="greater" unicode="&#x3e;" horiz-adv-x="651" 
d="M139 354q-41 -16 -68.5 1t-27.5 63v90q0 73 63 94l191 62l-191 61q-63 21 -63 94v94q0 45 26 62t70 0l426 -162q62 -23 62 -96v-107q0 -73 -62 -96z" />
    <glyph glyph-name="question" unicode="?" horiz-adv-x="937" 
d="M293 0q-38 0 -60 22t-22 60v209q0 38 22 60t60 22h209q38 0 60 -22t22 -60v-209q0 -38 -22 -60t-60 -22h-209zM20 989v51q0 88 25.5 161.5t77.5 131t137.5 89.5t198.5 32q125 0 217 -31t142.5 -85t73.5 -117.5t23 -139.5v-51q0 -64 -18 -116t-46.5 -86t-62.5 -61.5
t-68.5 -49.5t-63 -43.5t-46.5 -50.5t-18 -64v-31q0 -38 -22 -60t-60 -22h-213q-38 0 -60 22t-22 60v31q0 57 24 105.5t60 81t78 66t78 60t60 63t24 75.5v30q0 55 -19.5 79t-62.5 24q-44 0 -63 -23.5t-19 -79.5v-51q0 -38 -22 -60t-60 -22h-191q-38 0 -60 22t-22 60z" />
    <glyph glyph-name="at" unicode="@" horiz-adv-x="1091" 
d="M532 -500q-110 0 -194.5 22t-139 60.5t-89 95t-48.5 120.5t-14 143v854q0 243 122.5 373t371.5 130q98 0 177 -16.5t134 -47t94.5 -70.5t62 -91.5t32.5 -104.5t10 -114v-678q0 -31 -16.5 -51.5t-45.5 -20.5h-145q-64 0 -64 70v258h-8q0 -91 -25 -160.5t-66.5 -109.5
t-90 -60t-101.5 -20q-56 0 -97.5 11t-77 39t-54 82.5t-18.5 133.5v135q0 48 13 80t45.5 53t69 33t103.5 27l264 57v185q0 41 -6.5 77t-24.5 72.5t-47 62.5t-76.5 42t-109.5 16q-71 0 -127 -22.5t-91 -59t-58 -88.5t-32 -106.5t-9 -116.5v-854q0 -41 2.5 -72t12 -67.5t25 -63
t44 -52t67.5 -41.5t96 -26t129 -10q115 0 188.5 20.5t111 66t50.5 101.5t13 144q0 30 8.5 45.5t34.5 15.5h29q45 0 45 -61q0 -82 -14 -147t-48 -121t-88.5 -93.5t-137.5 -58.5t-192 -21zM553 410q0 -49 20 -71t64 -22q100 0 100 154v139l-184 -45v-155z" />
    <glyph glyph-name="A" unicode="A" horiz-adv-x="974" 
d="M14 88l140 1002q-34 3 -53 24.5t-19 56.5v181q0 38 22 60t60 22h543q71 0 81 -82l170 -1264q6 -41 -14 -64.5t-61 -23.5h-221q-81 0 -87 80l-12 194h-162l-12 -194q-6 -80 -84 -80h-215q-41 0 -61.5 23.5t-14.5 64.5zM422 594h119l-33 496h-53z" />
    <glyph glyph-name="B" unicode="B" horiz-adv-x="991" 
d="M131 0q-38 0 -60 22t-22 60v1270q0 38 22 60t60 22h367q127 0 218.5 -29.5t142.5 -82.5t74 -117t23 -142v-59q0 -118 -63.5 -197.5t-194.5 -79.5h-16v-12h16q62 0 110.5 -15t78 -39.5t48.5 -58t26.5 -66.5t7.5 -69v-80q0 -61 -14 -115t-48 -104.5t-85.5 -87t-131.5 -58.5
t-182 -22h-377zM426 340h82q45 0 63.5 23.5t18.5 76.5v49q0 47 -18 70t-80 23h-66v-242zM426 862h55q57 0 78 19.5t21 72.5v60q0 80 -82 80h-72v-232z" />
    <glyph glyph-name="C" unicode="C" horiz-adv-x="983" 
d="M494 -25q-127 0 -218 34t-142.5 98.5t-75 146.5t-23.5 188v545q0 106 23.5 188t75 146.5t142.5 98.5t218 34t218 -34t142.5 -98.5t74.5 -146t23 -188.5v-147q0 -38 -22 -60t-60 -22h-213q-38 0 -60 22t-22 60v172q0 54 -18 78t-63 24t-63.5 -24t-18.5 -78v-596
q0 -52 18.5 -76.5t63.5 -24.5t63 23.5t18 77.5v174q0 38 22 60t60 22h213q38 0 60 -22t22 -60v-148q0 -84 -14 -152.5t-47 -128t-84.5 -100t-130.5 -63.5t-182 -23z" />
    <glyph glyph-name="D" unicode="D" horiz-adv-x="1003" 
d="M131 0q-38 0 -60 22t-22 60v1270q0 38 22 60t60 22h379q103 0 182 -23t131.5 -63t86 -99.5t47.5 -128t14 -153.5v-500q0 -85 -14 -153.5t-47.5 -128t-86 -99.5t-131.5 -63t-182 -23h-379zM426 340h84q45 0 64.5 23.5t19.5 76.5v553q0 53 -19.5 77t-64.5 24h-84v-754z" />
    <glyph glyph-name="E" unicode="E" horiz-adv-x="706" 
d="M131 0q-38 0 -60 22t-22 60v1270q0 38 22 60t60 22h467q38 0 60 -22t22 -60v-176q0 -38 -22 -60t-60 -22h-172v-207h137q38 0 60 -22t22 -60v-176q0 -38 -22 -60t-60 -22h-137v-207h172q38 0 60 -22t22 -60v-176q0 -38 -22 -60t-60 -22h-467z" />
    <glyph glyph-name="F" unicode="F" horiz-adv-x="696" 
d="M131 0q-38 0 -60 22t-22 60v1270q0 38 22 60t60 22h467q38 0 60 -22t22 -60v-176q0 -38 -22 -60t-60 -22h-172v-234h137q38 0 60 -22t22 -60v-176q0 -38 -22 -60t-60 -22h-137v-438q0 -38 -22 -60t-60 -22h-213z" />
    <glyph glyph-name="G" unicode="G" horiz-adv-x="989" 
d="M299 143q-129 0 -197.5 91.5t-68.5 257.5v548q0 414 456 414q127 0 218.5 -32t143 -90t74.5 -130t23 -162v-53q0 -38 -22 -60t-60 -22h-213q-38 0 -60 22t-22 60v53q0 56 -19 79.5t-63 23.5q-43 0 -61 -23.5t-18 -79.5v-430q0 -65 17.5 -91.5t59.5 -26.5q47 0 66.5 30.5
t19.5 104.5v135q0 38 22 60t60 22h213q38 0 60 -22t22 -60v-725q0 -87 -23 -157t-74 -127.5t-142.5 -89.5t-218.5 -32q-99 0 -178 20.5t-129 54t-83.5 78.5t-47 90.5t-13.5 92.5v43q0 38 22 60t60 22h207q38 0 60 -22t22 -60v-2q0 -84 80 -84q81 0 81 84v359h-20
q-29 -224 -254 -224z" />
    <glyph glyph-name="H" unicode="H" horiz-adv-x="1015" 
d="M426 82q0 -38 -22 -60t-60 -22h-213q-38 0 -60 22t-22 60v1270q0 38 22 60t60 22h213q38 0 60 -22t22 -60v-445h164v445q0 38 22 60t60 22h213q38 0 60 -22t22 -60v-1270q0 -38 -22 -60t-60 -22h-213q-38 0 -60 22t-22 60v510h-164v-510z" />
    <glyph glyph-name="I" unicode="I" horiz-adv-x="475" 
d="M131 0q-38 0 -60 22t-22 60v1270q0 38 22 60t60 22h213q38 0 60 -22t22 -60v-1270q0 -38 -22 -60t-60 -22h-213z" />
    <glyph glyph-name="J" unicode="J" horiz-adv-x="978" 
d="M479 -25q-127 0 -218 34t-142.5 98.5t-75 146.5t-23.5 188v220q0 38 22 59.5t60 21.5h213q38 0 60 -21.5t22 -59.5v-246q0 -52 18.5 -76.5t63.5 -24.5t63.5 23.5t18.5 77.5v678h-233q-38 0 -60 22t-22 60v176q0 38 22 60t60 22h528q38 0 60 -22t22 -60v-910
q0 -84 -14 -152.5t-47 -128t-85 -100t-131 -63.5t-182 -23z" />
    <glyph glyph-name="K" unicode="K" horiz-adv-x="1009" 
d="M131 0q-38 0 -60 22t-22 60v1270q0 38 22 60t60 22h213q38 0 60 -22t22 -60v-473l164 79v394q0 38 22 60t60 22h213q38 0 60 -22t22 -60v-455q0 -78 -56 -109l-129 -71l133 -127q54 -51 54 -109v-399q0 -38 -22 -60t-60 -22h-213q-38 0 -60 22t-22 60v348l-123 141h-43
v-489q0 -38 -22 -60t-60 -22h-213z" />
    <glyph glyph-name="L" unicode="L" horiz-adv-x="655" 
d="M131 0q-38 0 -60 22t-22 60v1270q0 38 22 60t60 22h213q38 0 60 -22t22 -60v-1012h131q38 0 60 -22t22 -60v-176q0 -38 -22 -60t-60 -22h-426z" />
    <glyph glyph-name="M" unicode="M" horiz-adv-x="1431" 
d="M1112 0q-40 0 -63.5 22.5t-22.5 67.5l31 977h-49l-72 -817q-6 -88 -94 -88h-250q-84 0 -92 88l-80 817h-51l39 -977q2 -41 -20.5 -65.5t-65.5 -24.5h-209q-41 0 -65 23.5t-23 66.5l53 1258q3 86 92 86h362q24 0 50 -11q36 -22 39 -75l96 -910l71 910q6 86 91 86h370
q84 0 90 -86l72 -1256q3 -43 -21.5 -67.5t-68.5 -24.5h-209z" />
    <glyph glyph-name="N" unicode="N" horiz-adv-x="1095" 
d="M676 1352q-6 37 17.5 59.5t62.5 22.5h209q38 0 60 -22t22 -60v-1270q0 -38 -22 -60t-60 -22h-291q-36 0 -55 20.5t-31 61.5l-248 942h-33l119 -934q6 -39 -13 -64.5t-57 -25.5h-225q-38 0 -60 22t-22 60v1270q0 38 22 60t60 22h287q36 0 54 -20.5t30 -61.5l268 -942h37z
" />
    <glyph glyph-name="O" unicode="O" horiz-adv-x="987" 
d="M494 -25q-127 0 -218 34t-142.5 98.5t-75 146.5t-23.5 188v545q0 106 23.5 188t75 146.5t142.5 98.5t218 34t218 -34t142.5 -98.5t74.5 -146t23 -188.5v-545q0 -84 -14 -152.5t-47 -128t-84.5 -100t-130.5 -63.5t-182 -23zM412 416q0 -52 18.5 -76.5t63.5 -24.5t63 23.5
t18 77.5v596q0 54 -18 78t-63 24t-63.5 -24t-18.5 -78v-596z" />
    <glyph glyph-name="P" unicode="P" horiz-adv-x="987" 
d="M131 0q-38 0 -60 22t-22 60v1270q0 38 22 60t60 22h375q127 0 218 -33t143.5 -95.5t76 -143t23.5 -185.5v-107q0 -104 -23.5 -182.5t-76 -138.5t-143 -90.5t-218.5 -30.5h-80v-346q0 -38 -22 -60t-60 -22h-213zM426 766h80q45 0 64.5 24t19.5 78v111q0 62 -19 88.5
t-65 26.5h-80v-328z" />
    <glyph glyph-name="Q" unicode="Q" horiz-adv-x="987" 
d="M203 -348q-38 0 -60 22t-22 60v162q0 69 65 92l392 137l-11 22q-104 -49 -219 -49q-89 0 -151.5 31.5t-97 90.5t-49.5 132t-15 168v467q0 106 23.5 188t75 146.5t142.5 98.5t218 34t218 -34t142.5 -98.5t74.5 -146t23 -188.5v-467q0 -159 -83 -286.5t-248 -186.5
l-228 -82h410q38 0 60 -22t22 -60v-149q0 -38 -22 -60t-60 -22h-600zM412 465q0 -54 18.5 -78.5t61.5 -24.5q44 0 63.5 24.5t19.5 78.5v547q0 54 -18 78t-63 24t-63.5 -24t-18.5 -78v-547z" />
    <glyph glyph-name="R" unicode="R" horiz-adv-x="997" 
d="M131 0q-38 0 -60 22t-22 60v1270q0 38 22 60t60 22h367q127 0 218.5 -29.5t142.5 -82.5t74 -117t23 -142v-111q0 -55 -14.5 -103t-44 -87.5t-80.5 -62.5t-119 -23v-31q62 0 110.5 -15t78 -39.5t48.5 -58t26.5 -66.5t7.5 -69v-315q0 -38 -22 -60t-60 -22h-215
q-38 0 -60 22t-22 60v346q0 47 -18 69.5t-80 22.5h-66v-438q0 -38 -22 -60t-60 -22h-213zM426 801h55q57 0 78 19.5t21 72.5v121q0 80 -82 80h-72v-293z" />
    <glyph glyph-name="S" unicode="S" horiz-adv-x="966" 
d="M481 -25q-456 0 -456 406v47q0 38 21.5 60t59.5 22h213q38 0 60 -22t22 -60v-39q0 -55 18.5 -78.5t61.5 -23.5q44 0 63 23.5t19 78.5v29q0 57 -29.5 83.5t-123.5 63.5l-131 51q-135 53 -194.5 136t-59.5 209v79q0 414 456 414q127 0 218.5 -32t143 -90t74.5 -130t23 -162
v-51q0 -38 -22 -60t-60 -22h-213q-38 0 -60 22t-22 60v51q0 56 -19 79.5t-63 23.5q-43 0 -61.5 -24t-18.5 -79v-26q0 -57 30 -84t124 -64l131 -51q135 -53 194.5 -135.5t59.5 -208.5v-94q0 -86 -23 -155.5t-74.5 -126.5t-143 -88.5t-218.5 -31.5z" />
    <glyph glyph-name="T" unicode="T" horiz-adv-x="759" 
d="M272 0q-38 0 -60 22t-22 60v1012h-92q-38 0 -60 22t-22 60v176q0 38 22 60t60 22h564q38 0 59.5 -22t21.5 -60v-176q0 -38 -21.5 -60t-59.5 -22h-95v-1012q0 -38 -22 -60t-60 -22h-213z" />
    <glyph glyph-name="U" unicode="U" 
d="M500 -25q-127 0 -218 34t-142.5 98.5t-75 146.5t-23.5 188v910q0 38 22 60t60 22h213q38 0 60 -22t22 -60v-936q0 -52 18.5 -76.5t63.5 -24.5t63.5 23.5t18.5 77.5v936q0 38 22 60t60 22h213q38 0 59.5 -22t21.5 -60v-910q0 -84 -14 -152.5t-47 -128t-84.5 -100
t-130.5 -63.5t-182 -23z" />
    <glyph glyph-name="V" unicode="V" horiz-adv-x="940" 
d="M262 0q-79 0 -88 76l-160 1272q-4 41 16.5 63.5t61.5 22.5h225q38 0 59 -21t23 -59l29 -1030h94l29 1030q2 38 23 59t59 21h217q41 0 61 -23t15 -63l-144 -1270q-10 -78 -86 -78h-434z" />
    <glyph glyph-name="W" unicode="W" horiz-adv-x="1472" 
d="M283 0q-37 0 -59.5 19.5t-26.5 56.5l-183 1270q-6 41 14.5 64.5t61.5 23.5h225q78 0 84 -80l64 -1041h26l80 1043q6 78 84 78h160q78 0 84 -78l80 -1043h33l63 1041q6 80 84 80h225q41 0 61.5 -23.5t14.5 -64.5l-182 -1270q-4 -37 -26.5 -56.5t-59.5 -19.5h-313
q-80 0 -86 78l-58 778l-57 -778q-6 -78 -86 -78h-307z" />
    <glyph glyph-name="X" unicode="X" horiz-adv-x="976" 
d="M84 0q-43 0 -62.5 25.5t-9.5 66.5l172 666l-161 583q-12 41 7 67t62 26h223q76 0 88 -74l86 -510l86 510q12 74 89 74h223q43 0 62 -26t7 -67l-163 -573l172 -678q10 -41 -9.5 -65.5t-62.5 -24.5h-227q-76 0 -88 74l-89 544l-90 -544q-12 -74 -88 -74h-227z" />
    <glyph glyph-name="Y" unicode="Y" 
d="M500 -16q-122 0 -211 27t-141 77.5t-76.5 115t-24.5 146.5v29q0 38 22 60t60 22h207q38 0 60 -22t22 -60v-2q0 -47 19.5 -66.5t62.5 -19.5q45 0 63.5 23.5t18.5 76.5v389h-19q-19 -129 -87 -199.5t-181 -70.5q-125 0 -193.5 74.5t-68.5 230.5v537q0 38 22 60t60 22h213
q38 0 60 -22t22 -60v-406q0 -36 16.5 -59t52.5 -23q45 0 74 36t29 104v348q0 38 22 60t60 22h213q38 0 59.5 -22t21.5 -60v-918q0 -107 -23 -186.5t-74.5 -140.5t-142 -92t-218.5 -31z" />
    <glyph glyph-name="Z" unicode="Z" horiz-adv-x="716" 
d="M98 0q-42 0 -61 24t-10 66l229 1004h-156q-38 0 -60 22t-22 60v176q0 38 22 60t60 22h488q42 0 61 -24.5t10 -66.5l-227 -1003h186q38 0 60 -22t22 -60v-176q0 -38 -22 -60t-60 -22h-520z" />
    <glyph glyph-name="bracketleft" unicode="[" horiz-adv-x="557" 
d="M141 -348q-38 0 -60 22t-22 60v1618q0 38 22 60t60 22h305q38 0 60 -22t22 -60v-152q0 -38 -22 -60t-60 -22h-22v-1151h22q38 0 60 -22t22 -60v-151q0 -38 -22 -60t-60 -22h-305z" />
    <glyph glyph-name="backslash" unicode="\" horiz-adv-x="448" 
d="M262 -225q-57 0 -63 57l-189 1679q-6 66 58 66h118q58 0 64 -57l188 -1680q6 -65 -57 -65h-119z" />
    <glyph glyph-name="bracketright" unicode="]" horiz-adv-x="557" 
d="M416 1434q38 0 60 -22t22 -60v-1618q0 -38 -22 -60t-60 -22h-305q-38 0 -60 22t-22 60v151q0 38 22 60t60 22h22v1151h-22q-38 0 -60 22t-22 60v152q0 38 22 60t60 22h305z" />
    <glyph glyph-name="asciicircum" unicode="^" horiz-adv-x="1024" 
d="M270 887q-55 0 -78 32t-6 85l115 346q27 84 117 84h192q88 0 115 -84l113 -346q17 -52 -6.5 -84.5t-79.5 -32.5h-82q-94 0 -115 88l-47 186l-49 -186q-25 -88 -113 -88h-76z" />
    <glyph glyph-name="underscore" unicode="_" horiz-adv-x="669" 
d="M123 -326q-38 0 -60 22t-22 60v111q0 38 22 60t60 22h424q38 0 60 -22t22 -60v-111q0 -38 -22 -60t-60 -22h-424z" />
    <glyph glyph-name="grave" unicode="`" horiz-adv-x="598" 
d="M293 1188q-44 0 -74 43l-125 184q-20 29 -6.5 51.5t49.5 22.5h187q43 0 71 -45l111 -184q18 -31 4.5 -51.5t-49.5 -20.5h-168z" />
    <glyph glyph-name="a" unicode="a" horiz-adv-x="946" 
d="M293 -25q-45 0 -84 7.5t-74.5 26t-60.5 47t-39.5 72.5t-14.5 101v7q0 107 60 157t186 70l271 41v102q0 80 -76 80q-39 0 -57.5 -20.5t-18.5 -49.5v-4q0 -38 -22 -60t-60 -22h-184q-38 0 -60 22t-22 60v4q0 53 25 103.5t74.5 95.5t137 72.5t199.5 27.5q210 0 320 -93.5
t110 -262.5v-133l19 -342q3 -84 -80 -84h-176q-38 0 -60 22t-22 60v123h-9q-12 -106 -87.5 -168t-194.5 -62zM385 285q0 -78 68 -78q46 0 65 26.5t19 83.5v70l-152 -27v-75z" />
    <glyph glyph-name="b" unicode="b" horiz-adv-x="993" 
d="M113 0q-83 0 -80 84l18 342v762q0 38 22 60t60 22h203q38 0 60 -22t22 -60v-12q0 -202 -35 -541h8q27 137 107 210t196 73q119 0 190.5 -76.5t71.5 -229.5v-323q0 -153 -71.5 -229t-190.5 -76q-139 0 -224 103.5t-91 295.5h-8v-301q0 -38 -22 -60t-60 -22h-176zM418 436
q0 -67 28.5 -102t73.5 -35q70 0 70 82v139q0 82 -70 82q-45 0 -73.5 -35t-28.5 -102v-29z" />
    <glyph glyph-name="c" unicode="c" horiz-adv-x="946" 
d="M477 -25q-89 0 -167 20t-142 60.5t-101.5 109.5t-37.5 159v243q0 90 37.5 159.5t102 110t142.5 61t166 20.5t165.5 -20.5t141.5 -61t101 -110t37 -159.5v-4q0 -38 -22 -60t-60 -22h-199q-38 0 -60 22t-22 60v2q0 53 -19 77t-63 24t-63 -24t-19 -77v-237q0 -53 19 -77
t63 -24t63 24t19 77q0 38 22 60t60 22h199q38 0 60 -22t22 -60v-4q0 -90 -37 -159t-100.5 -109.5t-141 -60.5t-166.5 -20z" />
    <glyph glyph-name="d" unicode="d" horiz-adv-x="993" 
d="M705 0q-38 0 -60 22t-22 60v301h-9q-6 -192 -91 -295.5t-224 -103.5q-119 0 -190.5 76t-71.5 229v323q0 153 71.5 229.5t190.5 76.5q116 0 196 -73t107 -210h8q-35 339 -35 541v12q0 38 22 60t60 22h203q38 0 60 -22t22 -60v-762l19 -342q3 -84 -80 -84h-176zM403 381
q0 -82 70 -82q45 0 73.5 35t28.5 102v29q0 67 -28.5 102t-73.5 35q-70 0 -70 -82v-139z" />
    <glyph glyph-name="e" unicode="e" horiz-adv-x="944" 
d="M475 -25q-90 0 -166 18.5t-141 59.5t-102 115.5t-37 177.5v207q0 83 25 148t66.5 105.5t100.5 66.5t121 36.5t133 10.5q72 0 134.5 -10.5t121 -37t99.5 -67t65.5 -105t24.5 -147.5v-31q0 -38 -21.5 -62.5t-60.5 -27.5l-445 -29v-124q0 -31 20.5 -51.5t61.5 -20.5
q82 0 82 72q0 38 22 59.5t60 21.5h199q38 0 60 -21.5t22 -59.5v-15q0 -74 -37 -131t-101 -90.5t-141.5 -50.5t-165.5 -17zM393 535l164 12v53q0 45 -19.5 67.5t-62.5 22.5q-82 0 -82 -90v-65z" />
    <glyph glyph-name="f" unicode="f" horiz-adv-x="735" 
d="M236 -348q-38 0 -60 22t-22 60v854h-58q-38 0 -60 22t-22 60v149q0 38 22 60t60 22h58v41q0 63 14.5 116.5t50.5 103t92.5 84t145.5 55t205 20.5q81 0 81 -82v-147q0 -82 -81 -82q-90 0 -116 -17.5t-26 -62.5v-29h119q38 0 60 -22t22 -60v-149q0 -38 -22 -60t-60 -22
h-119v-854q0 -38 -22 -60t-60 -22h-202z" />
    <glyph glyph-name="g" unicode="g" horiz-adv-x="991" 
d="M467 254h-27q-70 0 -94 -7t-24 -28v-6q0 -21 22 -27t80 -6h287q272 0 272 -258v-2q0 -68 -22.5 -118.5t-63.5 -83t-106.5 -52t-142.5 -27.5t-181 -8q-99 0 -171.5 7t-135.5 25t-102 49t-61 79t-22 115v20q0 38 22 60t60 22h54q-35 43 -35 113q0 130 100 180
q-156 71 -156 264v4q0 88 33.5 153.5t92.5 103.5t132 56.5t160 18.5h455q38 0 60 -22t22 -60v-51q0 -38 -22 -60t-60 -22h-135v-8q87 -13 120 -50.5t33 -115.5v-6q0 -73 -31 -123t-91.5 -78t-138 -39.5t-183.5 -11.5zM293 -115q0 -45 65 -45h250q31 0 43.5 10.5t12.5 34.5v4
q0 23 -11 32t-45 9h-295h-20v-4v-41zM387 549q0 -53 19 -75.5t61 -22.5q41 0 59.5 22.5t18.5 75.5v39q0 54 -18.5 77t-59.5 23q-42 0 -61 -22t-19 -78v-39z" />
    <glyph glyph-name="h" unicode="h" horiz-adv-x="993" 
d="M129 0q-38 0 -60 22t-22 60v1106q0 38 22 60t60 22h203q38 0 60 -22t22 -60v-12q0 -202 -35 -541h8q27 137 107 210t196 73q119 0 190.5 -76.5t71.5 -229.5v-530q0 -38 -22 -60t-60 -22h-202q-38 0 -60 22t-22 60v438q0 82 -70 82q-45 0 -73.5 -35t-28.5 -102v-383
q0 -38 -22 -60t-60 -22h-203z" />
    <glyph glyph-name="i" unicode="i" horiz-adv-x="460" 
d="M129 0q-38 0 -60 22t-22 60v737q0 38 22 60t60 22h203q38 0 60 -22t22 -60v-737q0 -38 -22 -60t-60 -22h-203zM55 1065v141q0 38 22 60t60 22h189q38 0 60 -22t22 -60v-141q0 -38 -22 -60t-60 -22h-189q-38 0 -60 22t-22 60z" />
    <glyph glyph-name="j" unicode="j" horiz-adv-x="460" 
d="M-53 -348q-82 0 -82 82v147q0 82 82 82q61 0 80.5 18t19.5 62v776q0 38 22 60t60 22h203q38 0 60 -22t22 -60v-788q0 -80 -23.5 -145t-75.5 -119t-145.5 -84.5t-222.5 -30.5zM45 1065v141q0 38 22 60t60 22h188q38 0 60 -22t22 -60v-141q0 -38 -22 -60t-60 -22h-188
q-38 0 -60 22t-22 60z" />
    <glyph glyph-name="k" unicode="k" horiz-adv-x="970" 
d="M129 0q-38 0 -60 22t-22 60v1106q0 38 22 60t60 22h203q38 0 60 -22t22 -60v-660l159 181v110q0 38 22 60t60 22h203q38 0 60 -22t22 -60v-61q0 -64 -39 -103l-158 -157l166 -195q33 -38 33 -102v-119q0 -38 -22 -60t-60 -22h-203q-38 0 -60 22t-22 60v100l-77 107
l-84 -88v-119q0 -38 -22 -60t-60 -22h-203z" />
    <glyph glyph-name="l" unicode="l" horiz-adv-x="460" 
d="M129 0q-38 0 -60 22t-22 60v1106q0 38 22 60t60 22h203q38 0 60 -22t22 -60v-1106q0 -38 -22 -60t-60 -22h-203z" />
    <glyph glyph-name="m" unicode="m" horiz-adv-x="1536" 
d="M133 0q-38 0 -60 22t-22 60v393l-18 342q-3 84 80 84h176q38 0 60 -22t22 -60v-301h8q6 192 91.5 296t223.5 104q100 0 167 -53.5t87 -162.5q36 105 111 160.5t174 55.5q119 0 190.5 -76.5t71.5 -229.5v-530q0 -38 -22 -60t-60 -22h-203q-38 0 -60 22t-22 60v438
q0 82 -69 82q-45 0 -74 -35t-29 -102v-383q0 -38 -22 -60t-60 -22h-202q-38 0 -60 22t-22 60v438q0 82 -70 82q-45 0 -73.5 -35t-28.5 -102v-383q0 -38 -22 -60t-60 -22h-203z" />
    <glyph glyph-name="n" unicode="n" horiz-adv-x="997" 
d="M133 0q-38 0 -60 22t-22 60v393l-18 342q-3 84 80 84h176q38 0 60 -22t22 -60v-301h8q6 192 91.5 296t223.5 104q119 0 190.5 -76.5t71.5 -229.5v-530q0 -38 -22 -60t-60 -22h-202q-38 0 -60 22t-22 60v438q0 82 -70 82q-45 0 -73.5 -35t-28.5 -102v-383q0 -38 -22 -60
t-60 -22h-203z" />
    <glyph glyph-name="o" unicode="o" horiz-adv-x="954" 
d="M477 -25q-72 0 -135 12.5t-121.5 43t-100 76.5t-66.5 117t-25 161v123q0 111 37.5 193.5t102.5 128t141.5 67t166.5 21.5q71 0 134 -12.5t122 -43t101 -76.5t67 -117t25 -161v-123q0 -90 -25 -161t-67 -117t-100.5 -76.5t-121.5 -43t-135 -12.5zM395 369q0 -53 19 -77
t63 -24t63 24t19 77v153q0 53 -19 78t-63 25t-63 -25t-19 -78v-153z" />
    <glyph glyph-name="p" unicode="p" horiz-adv-x="993" 
d="M133 -348q-38 0 -60 22t-22 60v741l-18 342q-3 84 80 84h176q38 0 60 -22t22 -60v-301h8q6 192 91.5 296t223.5 104q119 0 190.5 -76.5t71.5 -229.5v-323q0 -153 -71.5 -229t-190.5 -76q-116 0 -196 72.5t-107 209.5h-8q35 -333 35 -534q0 -37 -22 -58.5t-60 -21.5h-203z
M418 -274v8v-2v-6zM418 436q0 -67 28.5 -102t73.5 -35q70 0 70 82v139q0 82 -70 82q-45 0 -73.5 -35t-28.5 -102v-29z" />
    <glyph glyph-name="q" unicode="q" horiz-adv-x="993" 
d="M860 -348h-203q-38 0 -60 21.5t-22 58.5q0 201 35 534h-8q-27 -137 -107 -209.5t-196 -72.5q-119 0 -190.5 76t-71.5 229v323q0 153 71.5 229.5t190.5 76.5q138 0 223.5 -104t91.5 -296h9v301q0 38 22 60t60 22h176q83 0 80 -84l-19 -342v-741q0 -38 -22 -60t-60 -22z
M403 381q0 -82 70 -82q45 0 73.5 35t28.5 102v29q0 67 -28.5 102t-73.5 35q-70 0 -70 -82v-139zM575 -274v6v2v-8z" />
    <glyph glyph-name="r" unicode="r" horiz-adv-x="692" 
d="M133 0q-38 0 -60 22t-22 60v393l-18 342q-3 84 80 84h182q38 0 60 -22t22 -60v-194h8q10 112 78 194t145 82q31 0 49.5 -18t18.5 -49v-175q0 -38 -22 -59.5t-60 -21.5h-176v-496q0 -38 -22 -60t-60 -22h-203z" />
    <glyph glyph-name="s" unicode="s" horiz-adv-x="913" 
d="M455 -18q-212 0 -321 65t-109 174v19q0 38 21.5 60t59.5 22h177q38 0 60 -22t22 -60q0 -19 20.5 -31t60.5 -12q80 0 80 59v14q0 23 -16 38.5t-59 23.5l-164 35q-70 15 -114 31.5t-80.5 44.5t-53 70.5t-16.5 104.5v19q0 127 121.5 204t312.5 77q201 0 311.5 -71
t110.5 -179v-31q0 -38 -22 -60t-60 -22h-176q-38 0 -60 22t-22 60q0 31 -21 48t-61 17q-80 0 -80 -65v-21q0 -54 76 -69l163 -35q142 -31 209.5 -78.5t67.5 -144.5v-19q0 -43 -14.5 -83t-48 -77.5t-83 -65.5t-125 -45t-167.5 -17z" />
    <glyph glyph-name="t" unicode="t" horiz-adv-x="894" 
d="M518 -16q-191 0 -274.5 97.5t-83.5 324.5v182h-60q-38 0 -60 22t-22 60v149q0 38 22 60t60 22q52 0 78.5 5t49.5 30t36 63t33 117q13 50 37.5 74t71.5 24h38q38 0 60 -21.5t22 -59.5v-232h250q38 0 60 -22t22 -60v-149q0 -38 -22 -60t-60 -22h-250v-219q0 -72 54 -72
q57 0 57 70v67q0 38 22 60t60 22h59q38 0 60 -22t22 -60v-45q0 -213 -81.5 -309t-260.5 -96z" />
    <glyph glyph-name="u" unicode="u" horiz-adv-x="997" 
d="M864 901q38 0 60 -22t22 -60v-393l19 -342q3 -84 -80 -84h-176q-38 0 -60 22t-22 60v301h-9q-6 -192 -91 -295.5t-224 -103.5q-119 0 -190.5 76t-71.5 229v530q0 38 22 60t60 22h203q38 0 60 -22t22 -60v-438q0 -82 69 -82q45 0 74 35t29 102v383q0 38 22 60t60 22h202z
" />
    <glyph glyph-name="v" unicode="v" horiz-adv-x="972" 
d="M270 0q-72 0 -92 86l-164 723q-10 45 15 68.5t71 23.5h199q82 0 94 -90l72 -498h51l68 498q12 90 94 90h199q47 0 71 -25t15 -67l-162 -723q-20 -86 -94 -86h-437z" />
    <glyph glyph-name="w" unicode="w" horiz-adv-x="1427" 
d="M856 0q-74 0 -86 78l-61 434l-54 -434q-9 -78 -86 -78h-286q-67 0 -86 76l-183 737q-10 40 12 64t64 24h201q79 0 88 -76l63 -512h35l72 498q6 45 27 67.5t63 22.5h147q43 0 64 -22.5t27 -67.5l71 -498h41l64 512q9 76 88 76h200q42 0 64 -24t12 -64l-182 -737
q-19 -76 -86 -76h-293z" />
    <glyph glyph-name="x" unicode="x" horiz-adv-x="1015" 
d="M98 0q-49 0 -73 30t-5 68l183 367l-170 336q-20 38 3.5 69t74.5 31h208q40 0 61.5 -22t33.5 -62l96 -303l96 303q26 84 96 84h209q46 0 73 -29t5 -71l-172 -326l182 -377q20 -41 -3.5 -69.5t-73.5 -28.5h-213q-70 0 -95 82l-104 342l-104 -342q-25 -82 -95 -82h-213z" />
    <glyph glyph-name="y" unicode="y" horiz-adv-x="987" 
d="M379 -360q-175 0 -270 86.5t-95 234.5v41q0 39 23.5 63.5t66.5 24.5h134q43 0 65.5 -23.5t22.5 -66.5v-35q0 -37 11 -56.5t42 -19.5q36 0 49.5 27t24.5 109l16 116h-199q-73 0 -96 86l-156 582q-11 44 14 68t72 24h207q77 0 92 -90l68 -356h61l64 356q9 47 30.5 68.5
t61.5 21.5h203q44 0 69 -23t15 -69l-170 -735q-16 -68 -29.5 -115.5t-33 -96.5t-41 -80.5t-52 -61t-69 -45.5t-88.5 -25.5t-113 -9.5z" />
    <glyph glyph-name="z" unicode="z" horiz-adv-x="782" 
d="M90 0q-48 0 -64.5 28.5t7.5 69.5l274 482h-207q-38 0 -60 22t-22 60v157q0 38 22 60t60 22h590q47 0 64 -28.5t-6 -69.5l-275 -490h209q38 0 60 -22t22 -60v-149q0 -38 -22 -60t-60 -22h-592z" />
    <glyph glyph-name="braceleft" unicode="{" horiz-adv-x="700" 
d="M410 -330q-75 0 -135.5 23t-103 70t-57 118t2.5 168l41 227q16 85 7 123.5t-48 38.5h-15q-38 0 -60 22t-22 60v82q0 38 22 60t60 22h15q39 0 47.5 40t-6.5 120l-41 227q-33 181 50 280t243 99h180q38 0 60 -22t22 -60v-123q0 -38 -22 -60t-60 -22h-98q-43 0 -35 -43
l41 -217q14 -62 9 -119t-23.5 -101t-62 -72.5t-106.5 -32.5v-33q121 -9 165 -99.5t18 -228.5l-41 -217q-8 -41 35 -41h98q38 0 60 -22t22 -60v-125q0 -38 -22 -60t-60 -22h-180z" />
    <glyph glyph-name="bar" unicode="|" horiz-adv-x="466" 
d="M143 -410q-38 0 -60 22t-22 60v1884q0 38 22 60t60 22h181q38 0 60 -22t22 -60v-1884q0 -38 -22 -60t-60 -22h-181z" />
    <glyph glyph-name="braceright" unicode="}" horiz-adv-x="700" 
d="M291 1454q75 0 135.5 -23t103 -70t57 -118t-2.5 -168l-41 -227q-16 -85 -7 -123.5t48 -38.5h14q38 0 60 -22t22 -60v-82q0 -38 -22 -60t-60 -22h-14q-27 0 -39 -18.5t-12 -51.5t10 -89l41 -228q33 -181 -50 -280t-243 -99h-180q-38 0 -60 22t-22 60v123q0 38 22 60t60 22
h98q43 0 35 43l-41 217q-14 62 -9 119t23.5 101.5t61.5 73t106 32.5v33q-121 9 -164.5 99t-17.5 228l41 217q8 41 -35 41h-98q-38 0 -60 22t-22 60v125q0 38 22 60t60 22h180z" />
    <glyph glyph-name="asciitilde" unicode="~" horiz-adv-x="651" 
d="M457 500q-43 0 -81.5 21.5t-71.5 43t-60 21.5q-19 0 -27 -8t-8 -27v-4q0 -51 -62 -51h-49q-61 0 -61 51v86q0 84 41.5 141t116.5 57q42 0 80.5 -21.5t71.5 -43t61 -21.5q19 0 26.5 8t7.5 27v4q0 52 62 52h49q61 0 61 -52v-86q0 -84 -41 -141t-116 -57z" />
    <glyph glyph-name="uni00A0" unicode="&#xa0;" horiz-adv-x="327" 
 />
    <glyph glyph-name="exclamdown" unicode="&#xa1;" horiz-adv-x="454" 
d="M123 901h209q38 0 60 -22t22 -60v-209q0 -38 -22 -60t-60 -22h-209q-38 0 -60 22t-22 60v209q0 38 22 60t60 22zM39 -471l41 887q3 61 61 61h172q59 0 62 -61l41 -887q1 -29 -15.5 -45t-46.5 -16h-254q-30 0 -46 16t-15 45z" />
    <glyph glyph-name="cent" unicode="&#xa2;" horiz-adv-x="960" 
d="M391 1346q0 29 16.5 45t45.5 16h59q61 0 61 -61v-86q74 -10 136 -36t112.5 -71t78.5 -116.5t28 -162.5v-24q0 -38 -22 -60t-60 -22h-199q-38 0 -60 22t-22 60v20q0 80 -82 80q-44 0 -63 -23.5t-19 -76.5v-217q0 -53 19 -77t63 -24q82 0 82 80v21q0 38 22 60t60 22h199
q38 0 60 -22t22 -60v-25q0 -91 -28 -161.5t-78 -115t-112 -70.5t-137 -36v-90q0 -61 -61 -61h-59q-29 0 -45.5 16t-16.5 45v90q-76 10 -137.5 36.5t-112 73.5t-78.5 122t-28 172v225q0 97 28.5 172.5t79 122.5t112 74t136.5 37v86z" />
    <glyph glyph-name="sterling" unicode="&#xa3;" horiz-adv-x="1046" 
d="M111 0q-38 0 -60 22t-22 60v158q0 38 22 60t60 22h63q92 0 129.5 50.5t34.5 129.5h-201q-38 0 -60 22t-22 60v149q0 38 22 60t60 22h101l-41 107q-32 85 -34.5 166t24.5 149t78 119.5t132.5 80.5t182.5 29q415 0 415 -393v-39q0 -38 -22 -60t-60 -22h-172q-38 0 -60 22
t-22 60v39q0 50 -18 73t-57 23q-48 0 -66 -37.5t6 -117.5l70 -199h270q38 0 60 -22t22 -60v-149q0 -38 -22 -60t-60 -22h-198q-10 -108 -82 -185h352q38 0 60 -21.5t22 -59.5v-154q0 -38 -22 -60t-60 -22h-825z" />
    <glyph glyph-name="currency" unicode="&#xa4;" horiz-adv-x="794" 
d="M397 319q-11 0 -69 5l-9 -29q-22 -70 -92 -70h-108q-44 0 -63 26.5t-5 67.5l41 123q-59 81 -59 207v33q0 126 59 207l-41 123q-14 41 5 67.5t63 26.5h108q70 0 92 -70l9 -28q46 4 69 4q24 0 70 -4l8 28q22 70 92 70h109q44 0 62.5 -26t4.5 -68l-41 -123q60 -83 60 -207
v-33q0 -124 -60 -207l41 -123q14 -42 -4.5 -68t-62.5 -26h-109q-70 0 -92 70l-8 29q-57 -5 -70 -5zM330 645q0 -90 67 -90q66 0 66 90v41q0 90 -66 90q-67 0 -67 -90v-41z" />
    <glyph glyph-name="yen" unicode="&#xa5;" horiz-adv-x="1009" 
d="M137 410q-82 0 -82 82v112q0 82 82 82h21l-127 655q-9 45 16 69t70 24h198q41 0 66 -23.5t29 -67.5l71 -620h51l68 620q9 91 94 91h199q47 0 71 -25t15 -68l-125 -655h20q82 0 82 -82v-112q0 -82 -82 -82h-172v-62h172q82 0 82 -82v-112q0 -82 -82 -82h-172
q-3 -34 -24.5 -53t-56.5 -19h-213q-35 0 -57 19t-25 53h-189q-82 0 -82 82v112q0 82 82 82h189v62h-189z" />
    <glyph glyph-name="brokenbar" unicode="&#xa6;" horiz-adv-x="450" 
d="M135 782q-38 0 -60 22t-22 60v692q0 38 22 60t60 22h180q38 0 60 -22t22 -60v-692q0 -38 -22 -60t-60 -22h-180zM53 -328v701q0 38 22 60t60 22h180q38 0 60 -22t22 -60v-701q0 -38 -22 -60t-60 -22h-180q-38 0 -60 22t-22 60z" />
    <glyph glyph-name="section" unicode="&#xa7;" horiz-adv-x="958" 
d="M35 487v84q0 142 80 228q-62 74 -62 215v65q0 174 116.5 267.5t301.5 93.5q218 0 328 -82t110 -234v-108q0 -38 -22 -60t-60 -22h-176q-38 0 -60 22t-22 60v28q0 55 -20 78t-60 23q-44 0 -62.5 -20.5t-18.5 -71.5v-27q0 -73 67 -94l154 -49q149 -48 222 -125.5t73 -212.5
v-84q0 -142 -80 -228q61 -73 61 -215v-65q0 -174 -116.5 -267.5t-301.5 -93.5q-218 0 -328 82t-110 234v108q0 38 22 60t60 22h176q38 0 60 -22t22 -60v-28q0 -55 20 -78t60 -23q44 0 63 21t19 72v26q0 73 -68 94l-153 50q-150 49 -222.5 125.5t-72.5 211.5zM401 516
q0 -68 64 -94l35 -14q57 6 57 51v57q0 69 -63 94l-35 15q-58 -6 -58 -52v-57z" />
    <glyph glyph-name="dieresis" unicode="&#xa8;" horiz-adv-x="843" 
d="M164 1188q-82 0 -82 82v129q0 82 82 82h129q82 0 82 -82v-129q0 -82 -82 -82h-129zM469 1270v129q0 82 82 82h129q82 0 82 -82v-129q0 -82 -82 -82h-129q-82 0 -82 82z" />
    <glyph glyph-name="copyright" unicode="&#xa9;" horiz-adv-x="1376" 
d="M688 -8q-307 0 -479 159.5t-172 450.5v229q0 291 172 451t479 160t479 -160t172 -451v-229q0 -291 -172 -450.5t-479 -159.5zM127 602q0 -252 148.5 -390t412.5 -138t412.5 138t148.5 390v229q0 252 -148.5 390.5t-412.5 138.5t-412.5 -138.5t-148.5 -390.5v-229z
M242 553v326q0 90 37.5 159.5t102 110t142.5 60.5t166 20q70 0 133.5 -12t121 -39.5t99.5 -67t66.5 -99t24.5 -132.5v-45q0 -38 -22 -60t-60 -22h-199q-38 0 -60 22t-22 60v43q0 53 -19 76.5t-63 23.5t-63 -23.5t-19 -76.5v-320q0 -53 19 -76.5t63 -23.5t63 23.5t19 76.5v41
q0 38 22 60t60 22h199q38 0 60 -22t22 -60v-45q0 -90 -37 -158.5t-100.5 -109t-141 -60.5t-166.5 -20t-167 20t-142 60.5t-101.5 109t-37.5 158.5z" />
    <glyph glyph-name="guillemotleft" unicode="&#xab;" horiz-adv-x="1212" 
d="M373 78q-46 0 -72 45l-268 424q-13 23 -13 41t13 41l268 424q26 45 72 45h211q35 0 50.5 -20t-1.5 -52l-262 -438l262 -438q17 -32 1.5 -52t-50.5 -20h-211zM584 547q-14 23 -14 41t14 41l268 424q26 45 72 45h211q35 0 50.5 -20t-1.5 -52l-262 -438l262 -438
q17 -32 1.5 -52t-50.5 -20h-211q-46 0 -72 45z" />
    <glyph glyph-name="logicalnot" unicode="&#xac;" horiz-adv-x="651" 
d="M115 584q-38 0 -60 22t-22 60v73q0 38 22 60t60 22h413q38 0 60 -22t22 -60v-239q0 -38 -22 -60t-60 -22h-94q-38 0 -60 22t-22 60v84h-237z" />
    <glyph glyph-name="uni00AD" unicode="&#xad;" horiz-adv-x="501" 
d="M121 498q-38 0 -60 22t-22 60v69q0 38 22 60t60 22h260q38 0 60 -22t22 -60v-69q0 -38 -22 -60t-60 -22h-260z" />
    <glyph glyph-name="registered" unicode="&#xae;" horiz-adv-x="847" 
d="M424 524q-181 0 -283 97t-102 268v127q0 171 102 267.5t283 96.5t283 -96.5t102 -267.5v-127q0 -171 -102 -268t-283 -97zM129 889q0 -132 78.5 -207.5t216.5 -75.5t216.5 75.5t78.5 207.5v127q0 132 -78.5 207t-216.5 75t-216.5 -75t-78.5 -207v-127zM238 748v409
q0 39 38 39h144q98 0 141 -40.5t43 -106.5v-2q0 -47 -25 -79t-79 -32v-12q60 0 85 -29.5t25 -69.5v-77q0 -39 -39 -39h-79q-39 0 -39 39v90q0 18 -6.5 26t-30.5 8h-25v-124q0 -39 -39 -39h-76q-38 0 -38 39zM391 987h21q22 0 30.5 7.5t8.5 27.5v6q0 31 -31 31h-29v-72z" />
    <glyph glyph-name="macron" unicode="&#xaf;" horiz-adv-x="759" 
d="M164 1188q-38 0 -60 22t-22 60v71q0 38 22 60t60 22h432q38 0 60 -22t22 -60v-71q0 -38 -22 -60t-60 -22h-432z" />
    <glyph glyph-name="degree" unicode="&#xb0;" horiz-adv-x="677" 
d="M340 897q-62 0 -114.5 15t-96 46.5t-68 86.5t-24.5 129t24.5 129t68 86t96 46t114.5 15q61 0 113 -15t95.5 -46t68 -86t24.5 -129q0 -75 -24.5 -130t-68 -86.5t-95.5 -46t-113 -14.5zM37 1171v3v-3zM276 1163q0 -76 64 -76q63 0 63 76v17q0 77 -63 77q-34 0 -49 -18.5
t-15 -58.5v-17zM641 1171v3v-3z" />
    <glyph glyph-name="plusminus" unicode="&#xb1;" horiz-adv-x="651" 
d="M100 137q-38 0 -60 22t-22 60v74q0 38 22 60t60 22h451q38 0 60 -22t22 -60v-74q0 -38 -22 -60t-60 -22h-451zM18 684v74q0 38 22 60t60 22h97v86q0 38 22 60t60 22h94q38 0 60 -22t22 -60v-86h96q38 0 60 -22t22 -60v-74q0 -38 -22 -60t-60 -22h-96v-86q0 -38 -22 -60
t-60 -22h-94q-38 0 -60 22t-22 60v86h-97q-38 0 -60 22t-22 60z" />
    <glyph glyph-name="acute" unicode="&#xb4;" horiz-adv-x="598" 
d="M137 1188q-36 0 -49.5 20.5t4.5 51.5l111 184q28 45 71 45h187q36 0 49.5 -22.5t-6.5 -51.5l-125 -184q-30 -43 -74 -43h-168z" />
    <glyph glyph-name="uni00B5" unicode="&#xb5;" horiz-adv-x="987" 
d="M129 -410q-38 0 -60 22t-22 60v1147q0 38 22 60t60 22h203q38 0 60 -22t22 -60v-438q0 -82 69 -82q45 0 74 35t29 102v383q0 38 22 60t60 22h202q38 0 60 -22t22 -60v-737q0 -38 -22 -60t-60 -22h-143q-38 0 -60 22t-22 60v301h-20q-4 -155 -59.5 -256.5t-151.5 -132.5
v-322q0 -38 -22 -60t-60 -22h-203z" />
    <glyph glyph-name="paragraph" unicode="&#xb6;" horiz-adv-x="1347" 
d="M991 -348q-38 0 -60 22t-22 60v1403h-164v-1403q0 -38 -21.5 -60t-59.5 -22h-213q-38 0 -60 22t-22 60v485h-68q-132 0 -196 66.5t-64 169.5v678q0 140 62.5 220.5t197.5 80.5h903q38 0 60 -22t22 -60v-1618q0 -38 -22 -60t-60 -22h-213z" />
    <glyph glyph-name="periodcentered" unicode="&#xb7;" horiz-adv-x="458" 
d="M125 541q-38 0 -60 22t-22 60v208q0 38 22 60t60 22h209q38 0 60 -22t22 -60v-208q0 -38 -22 -60t-60 -22h-209z" />
    <glyph glyph-name="cedilla" unicode="&#xb8;" horiz-adv-x="489" 
d="M242 -410q-160 0 -160 105v4q0 28 15 39.5t46 11.5h21q61 0 61 -37v-6q0 -16 21 -16q18 0 18 18v96q0 33 -22 33q-20 0 -29 -26q-11 -25 -41 -25h-43q-47 0 -39 55l43 254h129l-37 -205h11q30 50 96 50q39 0 57.5 -24.5t18.5 -57.5v-146q0 -58 -41.5 -90.5t-124.5 -32.5z
" />
    <glyph glyph-name="guillemotright" unicode="&#xbb;" horiz-adv-x="1212" 
d="M78 78q-35 0 -50.5 20t1.5 52l262 438l-262 438q-17 32 -1.5 52t50.5 20h211q45 0 71 -45l269 -424q13 -23 13 -41t-13 -41l-269 -424q-26 -45 -71 -45h-211zM580 150l262 438l-262 438q-17 32 -1.5 52t50.5 20h211q45 0 71 -45l269 -424q14 -23 14 -41t-14 -41
l-269 -424q-26 -45 -71 -45h-211q-35 0 -50.5 20t1.5 52z" />
    <glyph glyph-name="onequarter" unicode="&#xbc;" horiz-adv-x="1320" 
d="M174 647q-29 0 -45 16.5t-16 45.5v448h-39q-29 0 -45.5 16.5t-16.5 45.5v28q0 30 16 47t46 17q65 0 103 19.5t38 58.5v14q0 61 61 61h46q61 0 61 -61v-694q0 -29 -16 -45.5t-45 -16.5h-148zM313 53l287 1350q8 43 53 43h23q25 0 36.5 -14t6.5 -39l-287 -1350
q-8 -43 -53 -43h-23q-25 0 -36.5 14t-6.5 39zM584 219l102 520q11 56 68 56h151q31 0 46.5 -17t9.5 -49l-74 -354h59l21 102q12 55 67 55h105q61 0 61 -61v-96h45q29 0 45.5 -16.5t16.5 -45.5v-98q0 -29 -16.5 -45t-45.5 -16h-39v-93q0 -61 -61 -61h-148q-61 0 -61 61v93
h-297q-31 0 -46 16.5t-9 48.5z" />
    <glyph glyph-name="onehalf" unicode="&#xbd;" horiz-adv-x="1234" 
d="M174 647q-29 0 -45 16.5t-16 45.5v448h-39q-29 0 -45.5 16.5t-16.5 45.5v28q0 30 16 47t46 17q65 0 103 19.5t38 58.5v14q0 61 61 61h46q61 0 61 -61v-694q0 -29 -16 -45.5t-45 -16.5h-148zM313 53l287 1350q8 43 53 43h23q25 0 36.5 -14t6.5 -39l-287 -1350
q-8 -43 -53 -43h-23q-25 0 -36.5 14t-6.5 39zM621 514v68q0 107 79 168t215 61q285 0 285 -229v-54q0 -149 -182 -307l-19 -16h152q29 0 45 -16.5t16 -45.5v-82q0 -61 -61 -61h-449q-61 0 -61 61v27q0 30 12 53t41 52l86 90q95 99 123.5 142.5t28.5 88.5v66q0 26 -27 26
q-14 0 -20 -5.5t-6 -20.5v-66q0 -29 -16.5 -45t-45.5 -16h-135q-61 0 -61 61z" />
    <glyph glyph-name="threequarters" unicode="&#xbe;" horiz-adv-x="1515" 
d="M305 633q-55 0 -103.5 11.5t-90.5 35.5t-66.5 67t-24.5 101v39q0 29 16.5 45t45.5 16h135q29 0 45.5 -16t16.5 -45v-35q0 -35 26 -35q27 0 27 35v102q0 23 -13.5 38.5t-37.5 15.5h-74q-39 0 -50 22t13 53l127 154h-199q-61 0 -61 61v82q0 29 16 45.5t45 16.5h428
q29 0 45.5 -16.5t16.5 -45.5v-82q0 -23 -8 -52.5t-21 -45.5l-67 -78q108 -36 108 -174v-100q0 -57 -26 -100.5t-70 -67.5t-94 -35.5t-105 -11.5zM508 53l287 1350q8 43 53 43h22q25 0 36.5 -14t6.5 -39l-286 -1350q-8 -43 -54 -43h-22q-25 0 -36.5 14t-6.5 39zM778 219
l103 520q11 56 67 56h152q31 0 46 -17t9 -49l-74 -354h60l20 102q12 55 68 55h104q29 0 45.5 -16t16.5 -45v-96h45q29 0 45 -16.5t16 -45.5v-98q0 -61 -61 -61h-39v-93q0 -29 -16.5 -45t-45.5 -16h-147q-29 0 -45.5 16t-16.5 45v93h-296q-32 0 -47 16.5t-9 48.5z" />
    <glyph glyph-name="questiondown" unicode="&#xbf;" horiz-adv-x="937" 
d="M645 901q38 0 60 -22t22 -60v-209q0 -38 -22 -60t-60 -22h-209q-38 0 -60 22t-22 60v209q0 38 22 60t60 22h209zM23 -180v51q0 64 18 116t46.5 86t62.5 61.5t68.5 49.5t63 43.5t46.5 50.5t18 64v31q0 38 22 60t60 22h213q38 0 60 -22t22 -60v-31q0 -57 -24 -105.5
t-60 -81t-78 -66t-78 -60t-60 -63t-24 -75.5v-30q0 -55 19.5 -79t62.5 -24q44 0 63 23.5t19 79.5v51q0 38 22 60t60 22h191q38 0 60 -22t22 -60v-51q0 -88 -25.5 -161.5t-77.5 -131t-137.5 -89.5t-198.5 -32q-125 0 -217 31t-142.5 85t-73.5 117.5t-23 139.5z" />
    <glyph glyph-name="Agrave" unicode="&#xc0;" horiz-adv-x="974" 
d="M14 88l140 1002q-34 3 -53 24.5t-19 56.5v181q0 38 22 60t60 22h543q71 0 81 -82l170 -1264q6 -41 -14 -64.5t-61 -23.5h-221q-81 0 -87 80l-12 194h-162l-12 -194q-6 -80 -84 -80h-215q-41 0 -61.5 23.5t-14.5 64.5zM168 1743q-20 29 -6.5 51.5t49.5 22.5h186
q44 0 72 -45l111 -185q18 -31 4.5 -51t-49.5 -20h-168q-44 0 -74 43zM422 594h119l-33 496h-53z" />
    <glyph glyph-name="Aacute" unicode="&#xc1;" horiz-adv-x="974" 
d="M14 88l140 1002q-34 3 -53 24.5t-19 56.5v181q0 38 22 60t60 22h543q71 0 81 -82l170 -1264q6 -41 -14 -64.5t-61 -23.5h-221q-81 0 -87 80l-12 194h-162l-12 -194q-6 -80 -84 -80h-215q-41 0 -61.5 23.5t-14.5 64.5zM346 1587l111 185q28 45 71 45h187q36 0 49.5 -22.5
t-6.5 -51.5l-125 -184q-30 -43 -74 -43h-168q-36 0 -49.5 20t4.5 51zM422 594h119l-33 496h-53z" />
    <glyph glyph-name="Acircumflex" unicode="&#xc2;" horiz-adv-x="974" 
d="M14 88l140 1002q-34 3 -53 24.5t-19 56.5v181q0 38 22 60t60 22h543q71 0 81 -82l170 -1264q6 -41 -14 -64.5t-61 -23.5h-221q-81 0 -87 80l-12 194h-162l-12 -194q-6 -80 -84 -80h-215q-41 0 -61.5 23.5t-14.5 64.5zM172 1585l86 174q24 49 70 49h301q45 0 69 -49
l86 -174q14 -28 -0.5 -48.5t-48.5 -20.5h-149q-46 0 -66 55l-41 121l-43 -121q-9 -24 -33.5 -39.5t-52.5 -15.5h-129q-34 0 -48.5 20.5t-0.5 48.5zM422 594h119l-33 496h-53z" />
    <glyph glyph-name="Atilde" unicode="&#xc3;" horiz-adv-x="974" 
d="M14 88l140 1002q-34 3 -53 24.5t-19 56.5v181q0 38 22 60t60 22h543q71 0 81 -82l170 -1264q6 -41 -14 -64.5t-61 -23.5h-221q-81 0 -87 80l-12 194h-162l-12 -194q-6 -80 -84 -80h-215q-41 0 -61.5 23.5t-14.5 64.5zM150 1546v66q0 85 48.5 141.5t139.5 56.5
q50 0 106.5 -21t103.5 -42t73 -21q36 0 36 29v10q0 52 62 52h49q61 0 61 -52v-65q0 -85 -48.5 -142t-139.5 -57q-50 0 -106.5 21t-103.5 42t-73 21q-36 0 -36 -29v-10q0 -51 -62 -51h-49q-61 0 -61 51zM422 594h119l-33 496h-53z" />
    <glyph glyph-name="Adieresis" unicode="&#xc4;" horiz-adv-x="974" 
d="M14 88l140 1002q-34 3 -53 24.5t-19 56.5v181q0 38 22 60t60 22h543q71 0 81 -82l170 -1264q6 -41 -14 -64.5t-61 -23.5h-221q-81 0 -87 80l-12 194h-162l-12 -194q-6 -80 -84 -80h-215q-41 0 -61.5 23.5t-14.5 64.5zM139 1597v129q0 82 82 82h129q82 0 82 -82v-129
q0 -81 -82 -81h-129q-82 0 -82 81zM422 594h119l-33 496h-53zM526 1597v129q0 82 82 82h129q82 0 82 -82v-129q0 -81 -82 -81h-129q-82 0 -82 81z" />
    <glyph glyph-name="Aring" unicode="&#xc5;" horiz-adv-x="974" 
d="M14 88l140 1002q-34 3 -53 24.5t-19 56.5v181q0 38 22 60t60 22h543q71 0 81 -82l170 -1264q6 -41 -14 -64.5t-61 -23.5h-221q-81 0 -87 80l-12 194h-162l-12 -194q-6 -80 -84 -80h-215q-41 0 -61.5 23.5t-14.5 64.5zM254 1704q0 93 60.5 152t164.5 59t165 -59t61 -152
t-61 -152t-165 -59t-164.5 59t-60.5 152zM416 1704q0 -28 16.5 -45t46.5 -17t47 17.5t17 44.5q0 28 -17 45.5t-47 17.5t-46.5 -16.5t-16.5 -46.5zM422 594h119l-33 496h-53z" />
    <glyph glyph-name="AE" unicode="&#xc6;" horiz-adv-x="1271" 
d="M14 88l140 1002q-34 3 -53 24.5t-19 56.5v181q0 38 22 60t60 22h999q38 0 60 -22t22 -60v-176q0 -38 -22 -60t-60 -22h-340l29 -207h276q38 0 60 -22t22 -60v-176q0 -38 -22 -60t-60 -22h-231l27 -207h239q38 0 60 -22t22 -60v-176q0 -38 -22 -60t-60 -22h-501
q-81 0 -87 80l-12 194h-162l-12 -194q-6 -80 -84 -80h-215q-41 0 -61.5 23.5t-14.5 64.5zM422 594h119l-33 496h-53z" />
    <glyph glyph-name="Ccedilla" unicode="&#xc7;" horiz-adv-x="983" 
d="M494 -25h-2l-15 -84h10q30 50 97 50q39 0 57 -24.5t18 -57.5v-146q0 -59 -41 -91t-124 -32q-160 0 -160 105v4q0 28 15 39.5t46 11.5h21q61 0 61 -37v-6q0 -16 21 -16q18 0 18 18v96q0 33 -22 33q-20 0 -29 -26q-11 -25 -41 -25h-43q-47 0 -39 55l25 144
q-332 58 -332 456v545q0 106 23.5 188t75 146.5t142.5 98.5t218 34t218 -34t142.5 -98.5t74.5 -146t23 -188.5v-147q0 -38 -22 -60t-60 -22h-213q-38 0 -60 22t-22 60v172q0 54 -18 78t-63 24t-63.5 -24t-18.5 -78v-596q0 -52 18.5 -76.5t63.5 -24.5t63 23.5t18 77.5v174
q0 38 22 60t60 22h213q38 0 60 -22t22 -60v-148q0 -84 -14 -152.5t-47 -128t-84.5 -100t-130.5 -63.5t-182 -23z" />
    <glyph glyph-name="Egrave" unicode="&#xc8;" horiz-adv-x="706" 
d="M131 0q-38 0 -60 22t-22 60v1270q0 38 22 60t60 22h467q38 0 60 -22t22 -60v-176q0 -38 -22 -60t-60 -22h-172v-207h137q38 0 60 -22t22 -60v-176q0 -38 -22 -60t-60 -22h-137v-207h172q38 0 60 -22t22 -60v-176q0 -38 -22 -60t-60 -22h-467zM27 1743q-20 29 -6.5 51.5
t49.5 22.5h186q44 0 72 -45l110 -185q18 -31 4.5 -51t-49.5 -20h-168q-43 0 -73 43z" />
    <glyph glyph-name="Eacute" unicode="&#xc9;" horiz-adv-x="706" 
d="M131 0q-38 0 -60 22t-22 60v1270q0 38 22 60t60 22h467q38 0 60 -22t22 -60v-176q0 -38 -22 -60t-60 -22h-172v-207h137q38 0 60 -22t22 -60v-176q0 -38 -22 -60t-60 -22h-137v-207h172q38 0 60 -22t22 -60v-176q0 -38 -22 -60t-60 -22h-467zM205 1587l110 185
q28 45 72 45h186q36 0 49.5 -22.5t-6.5 -51.5l-124 -184q-30 -43 -74 -43h-168q-36 0 -49.5 20t4.5 51z" />
    <glyph glyph-name="Ecircumflex" unicode="&#xca;" horiz-adv-x="706" 
d="M131 0q-38 0 -60 22t-22 60v1270q0 38 22 60t60 22h467q38 0 60 -22t22 -60v-176q0 -38 -22 -60t-60 -22h-172v-207h137q38 0 60 -22t22 -60v-176q0 -38 -22 -60t-60 -22h-137v-207h172q38 0 60 -22t22 -60v-176q0 -38 -22 -60t-60 -22h-467zM31 1585l86 174q24 49 69 49
h301q46 0 70 -49l86 -174q14 -28 -0.5 -48.5t-48.5 -20.5h-150q-45 0 -65 55l-41 121l-43 -121q-9 -24 -33.5 -39.5t-52.5 -15.5h-129q-34 0 -48.5 20.5t-0.5 48.5z" />
    <glyph glyph-name="Edieresis" unicode="&#xcb;" horiz-adv-x="706" 
d="M131 0q-38 0 -60 22t-22 60v1270q0 38 22 60t60 22h467q38 0 60 -22t22 -60v-176q0 -38 -22 -60t-60 -22h-172v-207h137q38 0 60 -22t22 -60v-176q0 -38 -22 -60t-60 -22h-137v-207h172q38 0 60 -22t22 -60v-176q0 -38 -22 -60t-60 -22h-467zM-2 1597v129q0 82 82 82h129
q82 0 82 -82v-129q0 -81 -82 -81h-129q-82 0 -82 81zM385 1597v129q0 82 82 82h129q82 0 82 -82v-129q0 -81 -82 -81h-129q-82 0 -82 81z" />
    <glyph glyph-name="Igrave" unicode="&#xcc;" horiz-adv-x="475" 
d="M131 0q-38 0 -60 22t-22 60v1270q0 38 22 60t60 22h213q38 0 60 -22t22 -60v-1270q0 -38 -22 -60t-60 -22h-213zM-74 1743q-20 29 -6.5 51.5t49.5 22.5h187q43 0 71 -45l111 -185q18 -31 4.5 -51t-49.5 -20h-168q-44 0 -74 43z" />
    <glyph glyph-name="Iacute" unicode="&#xcd;" horiz-adv-x="475" 
d="M131 0q-38 0 -60 22t-22 60v1270q0 38 22 60t60 22h213q38 0 60 -22t22 -60v-1270q0 -38 -22 -60t-60 -22h-213zM104 1587l111 185q28 45 72 45h186q36 0 49.5 -22.5t-6.5 -51.5l-125 -184q-30 -43 -74 -43h-167q-36 0 -50 20t4 51z" />
    <glyph glyph-name="Icircumflex" unicode="&#xce;" horiz-adv-x="475" 
d="M131 0q-38 0 -60 22t-22 60v1270q0 38 22 60t60 22h213q38 0 60 -22t22 -60v-1270q0 -38 -22 -60t-60 -22h-213zM-70 1585l86 174q24 49 70 49h301q46 0 70 -49l86 -174q14 -28 -0.5 -48.5t-48.5 -20.5h-150q-45 0 -65 55l-41 121l-43 -121q-9 -24 -33.5 -39.5
t-52.5 -15.5h-129q-34 0 -49 20.5t-1 48.5z" />
    <glyph glyph-name="Idieresis" unicode="&#xcf;" horiz-adv-x="475" 
d="M131 0q-38 0 -60 22t-22 60v1270q0 38 22 60t60 22h213q38 0 60 -22t22 -60v-1270q0 -38 -22 -60t-60 -22h-213zM-102 1597v129q0 82 82 82h129q81 0 81 -82v-129q0 -81 -81 -81h-129q-82 0 -82 81zM285 1597v129q0 82 82 82h129q82 0 82 -82v-129q0 -81 -82 -81h-129
q-82 0 -82 81z" />
    <glyph glyph-name="Eth" unicode="&#xd0;" horiz-adv-x="1003" 
d="M131 0q-38 0 -60 22t-22 60v543h-18q-29 0 -45.5 16t-16.5 45v62q0 29 16.5 45t45.5 16h18v543q0 38 22 60t60 22h379q103 0 182 -23t131.5 -63t86 -99.5t47.5 -128t14 -153.5v-500q0 -85 -14 -153.5t-47.5 -128t-86 -99.5t-131.5 -63t-182 -23h-379zM426 340h84
q45 0 64.5 23.5t19.5 76.5v553q0 53 -19.5 77t-64.5 24h-84v-285h23q61 0 61 -61v-62q0 -61 -61 -61h-23v-285z" />
    <glyph glyph-name="Ntilde" unicode="&#xd1;" horiz-adv-x="1095" 
d="M676 1352q-6 37 17.5 59.5t62.5 22.5h209q38 0 60 -22t22 -60v-1270q0 -38 -22 -60t-60 -22h-291q-36 0 -55 20.5t-31 61.5l-248 942h-33l119 -934q6 -39 -13 -64.5t-57 -25.5h-225q-38 0 -60 22t-22 60v1270q0 38 22 60t60 22h287q36 0 54 -20.5t30 -61.5l268 -942h37z
M219 1546v66q0 85 49 141.5t140 56.5q50 0 106.5 -21t103 -42t72.5 -21q37 0 37 29v10q0 52 61 52h50q61 0 61 -52v-65q0 -85 -48.5 -142t-139.5 -57q-50 0 -106.5 21t-103.5 42t-73 21q-37 0 -37 -29v-10q0 -51 -61 -51h-49q-62 0 -62 51z" />
    <glyph glyph-name="Ograve" unicode="&#xd2;" horiz-adv-x="987" 
d="M494 -25q-127 0 -218 34t-142.5 98.5t-75 146.5t-23.5 188v545q0 106 23.5 188t75 146.5t142.5 98.5t218 34t218 -34t142.5 -98.5t74.5 -146t23 -188.5v-545q0 -84 -14 -152.5t-47 -128t-84.5 -100t-130.5 -63.5t-182 -23zM182 1743q-20 29 -6.5 51.5t49.5 22.5h187
q43 0 71 -45l111 -185q18 -31 4.5 -51t-49.5 -20h-168q-44 0 -74 43zM412 416q0 -52 18.5 -76.5t63.5 -24.5t63 23.5t18 77.5v596q0 54 -18 78t-63 24t-63.5 -24t-18.5 -78v-596z" />
    <glyph glyph-name="Oacute" unicode="&#xd3;" horiz-adv-x="987" 
d="M494 -25q-127 0 -218 34t-142.5 98.5t-75 146.5t-23.5 188v545q0 106 23.5 188t75 146.5t142.5 98.5t218 34t218 -34t142.5 -98.5t74.5 -146t23 -188.5v-545q0 -84 -14 -152.5t-47 -128t-84.5 -100t-130.5 -63.5t-182 -23zM360 1587l111 185q28 45 72 45h186
q36 0 49.5 -22.5t-6.5 -51.5l-125 -184q-30 -43 -74 -43h-167q-36 0 -50 20t4 51zM412 416q0 -52 18.5 -76.5t63.5 -24.5t63 23.5t18 77.5v596q0 54 -18 78t-63 24t-63.5 -24t-18.5 -78v-596z" />
    <glyph glyph-name="Ocircumflex" unicode="&#xd4;" horiz-adv-x="987" 
d="M494 -25q-127 0 -218 34t-142.5 98.5t-75 146.5t-23.5 188v545q0 106 23.5 188t75 146.5t142.5 98.5t218 34t218 -34t142.5 -98.5t74.5 -146t23 -188.5v-545q0 -84 -14 -152.5t-47 -128t-84.5 -100t-130.5 -63.5t-182 -23zM186 1585l86 174q24 49 70 49h301q46 0 70 -49
l86 -174q14 -28 -0.5 -48.5t-48.5 -20.5h-150q-45 0 -65 55l-41 121l-43 -121q-9 -24 -33.5 -39.5t-52.5 -15.5h-129q-34 0 -49 20.5t-1 48.5zM412 416q0 -52 18.5 -76.5t63.5 -24.5t63 23.5t18 77.5v596q0 54 -18 78t-63 24t-63.5 -24t-18.5 -78v-596z" />
    <glyph glyph-name="Otilde" unicode="&#xd5;" horiz-adv-x="987" 
d="M494 -25q-127 0 -218 34t-142.5 98.5t-75 146.5t-23.5 188v545q0 106 23.5 188t75 146.5t142.5 98.5t218 34t218 -34t142.5 -98.5t74.5 -146t23 -188.5v-545q0 -84 -14 -152.5t-47 -128t-84.5 -100t-130.5 -63.5t-182 -23zM164 1546v66q0 85 48.5 141.5t139.5 56.5
q50 0 106.5 -21t103.5 -42t73 -21q37 0 37 29v10q0 52 61 52h49q62 0 62 -52v-65q0 -85 -49 -142t-140 -57q-50 0 -106.5 21t-103 42t-72.5 21q-37 0 -37 -29v-10q0 -51 -62 -51h-49q-61 0 -61 51zM412 416q0 -52 18.5 -76.5t63.5 -24.5t63 23.5t18 77.5v596q0 54 -18 78
t-63 24t-63.5 -24t-18.5 -78v-596z" />
    <glyph glyph-name="Odieresis" unicode="&#xd6;" horiz-adv-x="987" 
d="M494 -25q-127 0 -218 34t-142.5 98.5t-75 146.5t-23.5 188v545q0 106 23.5 188t75 146.5t142.5 98.5t218 34t218 -34t142.5 -98.5t74.5 -146t23 -188.5v-545q0 -84 -14 -152.5t-47 -128t-84.5 -100t-130.5 -63.5t-182 -23zM154 1597v129q0 82 82 82h129q81 0 81 -82v-129
q0 -81 -81 -81h-129q-82 0 -82 81zM412 416q0 -52 18.5 -76.5t63.5 -24.5t63 23.5t18 77.5v596q0 54 -18 78t-63 24t-63.5 -24t-18.5 -78v-596zM541 1597v129q0 82 82 82h129q82 0 82 -82v-129q0 -81 -82 -81h-129q-82 0 -82 81z" />
    <glyph glyph-name="multiply" unicode="&#xd7;" horiz-adv-x="651" 
d="M238 410q-25 -25 -55 -23.5t-56 27.5l-53 53q-26 26 -27.5 56t23.5 55l88 88l-84 84q-26 26 -26 57t26 57l53 54q26 26 57.5 26t57.5 -26l84 -84l88 88q25 25 54.5 23.5t55.5 -27.5l54 -54q26 -26 27.5 -55.5t-23.5 -54.5l-88 -88l84 -84q26 -26 26 -57.5t-26 -57.5
l-54 -53q-26 -26 -57 -26t-57 26l-84 84z" />
    <glyph glyph-name="Oslash" unicode="&#xd8;" horiz-adv-x="987" 
d="M494 -25q-132 0 -222 35l-4 -8q-9 -25 -37 -25h-69q-37 0 -25 35l27 66q-129 113 -129 364v545q0 106 23.5 188t75 146.5t142.5 98.5t218 34q116 0 213 -33l10 29q9 25 37 25h69q37 0 25 -35l-33 -80q137 -112 137 -373v-545q0 -84 -14 -152.5t-47 -128t-84.5 -100
t-130.5 -63.5t-182 -23zM412 596l143 496q-19 22 -61 22q-45 0 -63.5 -24t-18.5 -78v-416zM426 346q19 -31 68 -31q45 0 63 23.5t18 77.5v448z" />
    <glyph glyph-name="Ugrave" unicode="&#xd9;" 
d="M500 -25q-127 0 -218 34t-142.5 98.5t-75 146.5t-23.5 188v910q0 38 22 60t60 22h213q38 0 60 -22t22 -60v-936q0 -52 18.5 -76.5t63.5 -24.5t63.5 23.5t18.5 77.5v936q0 38 22 60t60 22h213q38 0 59.5 -22t21.5 -60v-910q0 -84 -14 -152.5t-47 -128t-84.5 -100
t-130.5 -63.5t-182 -23zM188 1743q-20 29 -6.5 51.5t49.5 22.5h187q43 0 71 -45l111 -185q18 -31 4.5 -51t-49.5 -20h-168q-44 0 -74 43z" />
    <glyph glyph-name="Uacute" unicode="&#xda;" 
d="M500 -25q-127 0 -218 34t-142.5 98.5t-75 146.5t-23.5 188v910q0 38 22 60t60 22h213q38 0 60 -22t22 -60v-936q0 -52 18.5 -76.5t63.5 -24.5t63.5 23.5t18.5 77.5v936q0 38 22 60t60 22h213q38 0 59.5 -22t21.5 -60v-910q0 -84 -14 -152.5t-47 -128t-84.5 -100
t-130.5 -63.5t-182 -23zM367 1587l110 185q28 45 72 45h186q36 0 49.5 -22.5t-6.5 -51.5l-125 -184q-30 -43 -73 -43h-168q-36 0 -49.5 20t4.5 51z" />
    <glyph glyph-name="Ucircumflex" unicode="&#xdb;" 
d="M500 -25q-127 0 -218 34t-142.5 98.5t-75 146.5t-23.5 188v910q0 38 22 60t60 22h213q38 0 60 -22t22 -60v-936q0 -52 18.5 -76.5t63.5 -24.5t63.5 23.5t18.5 77.5v936q0 38 22 60t60 22h213q38 0 59.5 -22t21.5 -60v-910q0 -84 -14 -152.5t-47 -128t-84.5 -100
t-130.5 -63.5t-182 -23zM193 1585l86 174q24 49 69 49h301q46 0 70 -49l86 -174q14 -28 -0.5 -48.5t-48.5 -20.5h-150q-45 0 -65 55l-41 121l-43 -121q-9 -24 -33.5 -39.5t-52.5 -15.5h-129q-34 0 -48.5 20.5t-0.5 48.5z" />
    <glyph glyph-name="Udieresis" unicode="&#xdc;" 
d="M500 -25q-127 0 -218 34t-142.5 98.5t-75 146.5t-23.5 188v910q0 38 22 60t60 22h213q38 0 60 -22t22 -60v-936q0 -52 18.5 -76.5t63.5 -24.5t63.5 23.5t18.5 77.5v936q0 38 22 60t60 22h213q38 0 59.5 -22t21.5 -60v-910q0 -84 -14 -152.5t-47 -128t-84.5 -100
t-130.5 -63.5t-182 -23zM160 1597v129q0 82 82 82h129q82 0 82 -82v-129q0 -81 -82 -81h-129q-82 0 -82 81zM547 1597v129q0 82 82 82h129q82 0 82 -82v-129q0 -81 -82 -81h-129q-82 0 -82 81z" />
    <glyph glyph-name="Yacute" unicode="&#xdd;" 
d="M500 -16q-122 0 -211 27t-141 77.5t-76.5 115t-24.5 146.5v29q0 38 22 60t60 22h207q38 0 60 -22t22 -60v-2q0 -47 19.5 -66.5t62.5 -19.5q45 0 63.5 23.5t18.5 76.5v389h-19q-19 -129 -87 -199.5t-181 -70.5q-125 0 -193.5 74.5t-68.5 230.5v537q0 38 22 60t60 22h213
q38 0 60 -22t22 -60v-406q0 -36 16.5 -59t52.5 -23q45 0 74 36t29 104v348q0 38 22 60t60 22h213q38 0 59.5 -22t21.5 -60v-918q0 -107 -23 -186.5t-74.5 -140.5t-142 -92t-218.5 -31zM367 1587l110 185q28 45 72 45h186q36 0 49.5 -22.5t-6.5 -51.5l-125 -184
q-30 -43 -73 -43h-168q-36 0 -49.5 20t4.5 51z" />
    <glyph glyph-name="Thorn" unicode="&#xde;" horiz-adv-x="987" 
d="M131 0q-38 0 -60 22t-22 60v1270q0 38 22 60t60 22h213q38 0 60 -22t22 -60v-131h80q127 0 218 -33t143.5 -95.5t76 -143t23.5 -185.5v-107q0 -104 -23.5 -182.5t-76 -138.5t-143 -90.5t-218.5 -30.5h-80v-133q0 -38 -22 -60t-60 -22h-213zM426 553h80q45 0 64.5 24
t19.5 78v111q0 62 -19 88.5t-65 26.5h-80v-328z" />
    <glyph glyph-name="germandbls" unicode="&#xdf;" horiz-adv-x="983" 
d="M129 -348q-38 0 -60 22t-22 60v1120q0 101 23 177.5t73.5 135t138.5 89t212 30.5q218 0 329 -94.5t111 -253.5v-16q0 -113 -60 -177.5t-182 -64.5v-8q68 0 118.5 -19.5t78.5 -49.5t45 -74.5t22 -85t5 -91.5v-20q0 -159 -75.5 -245.5t-195.5 -86.5h-143q-38 0 -60 22
t-22 60v102q0 38 22 60t60 22h47v115q0 39 -11 55.5t-40 16.5h-78v237h110v209q0 63 -18.5 90t-62.5 27q-43 0 -61.5 -26.5t-18.5 -90.5v-1165q0 -38 -22 -60t-60 -22h-203z" />
    <glyph glyph-name="agrave" unicode="&#xe0;" horiz-adv-x="946" 
d="M293 -25q-45 0 -84 7.5t-74.5 26t-60.5 47t-39.5 72.5t-14.5 101v7q0 107 60 157t186 70l271 41v102q0 80 -76 80q-39 0 -57.5 -20.5t-18.5 -49.5v-4q0 -38 -22 -60t-60 -22h-184q-38 0 -60 22t-22 60v4q0 53 25 103.5t74.5 95.5t137 72.5t199.5 27.5q210 0 320 -93.5
t110 -262.5v-133l19 -342q3 -84 -80 -84h-176q-38 0 -60 22t-22 60v123h-9q-12 -106 -87.5 -168t-194.5 -62zM188 1210q-20 29 -6.5 51.5t49.5 22.5h187q43 0 71 -45l111 -184q18 -31 4.5 -51.5t-49.5 -20.5h-168q-44 0 -74 43zM385 285q0 -78 68 -78q46 0 65 26.5t19 83.5
v70l-152 -27v-75z" />
    <glyph glyph-name="aacute" unicode="&#xe1;" horiz-adv-x="946" 
d="M293 -25q-45 0 -84 7.5t-74.5 26t-60.5 47t-39.5 72.5t-14.5 101v7q0 107 60 157t186 70l271 41v102q0 80 -76 80q-39 0 -57.5 -20.5t-18.5 -49.5v-4q0 -38 -22 -60t-60 -22h-184q-38 0 -60 22t-22 60v4q0 53 25 103.5t74.5 95.5t137 72.5t199.5 27.5q210 0 320 -93.5
t110 -262.5v-133l19 -342q3 -84 -80 -84h-176q-38 0 -60 22t-22 60v123h-9q-12 -106 -87.5 -168t-194.5 -62zM340 1055l111 184q28 45 71 45h187q36 0 49.5 -22.5t-6.5 -51.5l-125 -184q-30 -43 -74 -43h-168q-36 0 -49.5 20.5t4.5 51.5zM385 285q0 -78 68 -78q46 0 65 26.5
t19 83.5v70l-152 -27v-75z" />
    <glyph glyph-name="acircumflex" unicode="&#xe2;" horiz-adv-x="946" 
d="M293 -25q-45 0 -84 7.5t-74.5 26t-60.5 47t-39.5 72.5t-14.5 101v7q0 107 60 157t186 70l271 41v102q0 80 -76 80q-39 0 -57.5 -20.5t-18.5 -49.5v-4q0 -38 -22 -60t-60 -22h-184q-38 0 -60 22t-22 60v4q0 53 25 103.5t74.5 95.5t137 72.5t199.5 27.5q210 0 320 -93.5
t110 -262.5v-133l19 -342q3 -84 -80 -84h-176q-38 0 -60 22t-22 60v123h-9q-12 -106 -87.5 -168t-194.5 -62zM168 1053l86 174q24 49 70 49h301q45 0 69 -49l86 -174q14 -28 -0.5 -49t-48.5 -21h-149q-46 0 -66 55l-41 121l-43 -121q-9 -24 -33.5 -39.5t-52.5 -15.5h-129
q-34 0 -48.5 21t-0.5 49zM385 285q0 -78 68 -78q46 0 65 26.5t19 83.5v70l-152 -27v-75z" />
    <glyph glyph-name="atilde" unicode="&#xe3;" horiz-adv-x="946" 
d="M293 -25q-45 0 -84 7.5t-74.5 26t-60.5 47t-39.5 72.5t-14.5 101v7q0 107 60 157t186 70l271 41v102q0 80 -76 80q-39 0 -57.5 -20.5t-18.5 -49.5v-4q0 -38 -22 -60t-60 -22h-184q-38 0 -60 22t-22 60v4q0 53 25 103.5t74.5 95.5t137 72.5t199.5 27.5q210 0 320 -93.5
t110 -262.5v-133l19 -342q3 -84 -80 -84h-176q-38 0 -60 22t-22 60v123h-9q-12 -106 -87.5 -168t-194.5 -62zM135 1028v66q0 85 49 141.5t140 56.5q50 0 106.5 -21t103 -42t72.5 -21q37 0 37 29v10q0 51 62 51h49q61 0 61 -51v-65q0 -85 -48.5 -142t-139.5 -57
q-50 0 -106.5 21t-103.5 42t-73 21q-37 0 -37 -29v-10q0 -51 -61 -51h-49q-62 0 -62 51zM385 285q0 -78 68 -78q46 0 65 26.5t19 83.5v70l-152 -27v-75z" />
    <glyph glyph-name="adieresis" unicode="&#xe4;" horiz-adv-x="946" 
d="M293 -25q-45 0 -84 7.5t-74.5 26t-60.5 47t-39.5 72.5t-14.5 101v7q0 107 60 157t186 70l271 41v102q0 80 -76 80q-39 0 -57.5 -20.5t-18.5 -49.5v-4q0 -38 -22 -60t-60 -22h-184q-38 0 -60 22t-22 60v4q0 53 25 103.5t74.5 95.5t137 72.5t199.5 27.5q210 0 320 -93.5
t110 -262.5v-133l19 -342q3 -84 -80 -84h-176q-38 0 -60 22t-22 60v123h-9q-12 -106 -87.5 -168t-194.5 -62zM135 1065v129q0 82 82 82h129q82 0 82 -82v-129q0 -82 -82 -82h-129q-82 0 -82 82zM385 285q0 -78 68 -78q46 0 65 26.5t19 83.5v70l-152 -27v-75zM522 1065v129
q0 82 82 82h129q82 0 82 -82v-129q0 -82 -82 -82h-129q-82 0 -82 82z" />
    <glyph glyph-name="aring" unicode="&#xe5;" horiz-adv-x="946" 
d="M293 -25q-45 0 -84 7.5t-74.5 26t-60.5 47t-39.5 72.5t-14.5 101v7q0 107 60 157t186 70l271 41v102q0 80 -76 80q-39 0 -57.5 -20.5t-18.5 -49.5v-4q0 -38 -22 -60t-60 -22h-184q-38 0 -60 22t-22 60v4q0 53 25 103.5t74.5 95.5t137 72.5t199.5 27.5q210 0 320 -93.5
t110 -262.5v-133l19 -342q3 -84 -80 -84h-176q-38 0 -60 22t-22 60v123h-9q-12 -106 -87.5 -168t-194.5 -62zM250 1184q0 93 60.5 152t164.5 59t164.5 -59t60.5 -152t-60.5 -152t-164.5 -59t-164.5 59t-60.5 152zM385 285q0 -78 68 -78q46 0 65 26.5t19 83.5v70l-152 -27
v-75zM412 1184q0 -30 16.5 -47t46.5 -17t47 17t17 47t-16.5 46.5t-47.5 16.5q-30 0 -46.5 -16.5t-16.5 -46.5z" />
    <glyph glyph-name="ae" unicode="&#xe6;" horiz-adv-x="1454" 
d="M985 -25q-93 0 -170 18.5t-144 65t-100 119.5q-20 -95 -93.5 -149t-184.5 -54q-45 0 -84 7.5t-74.5 26t-60.5 47t-39.5 72.5t-14.5 101v7q0 109 61.5 164t184.5 67l271 29v110q0 80 -78 80q-39 0 -56.5 -20.5t-17.5 -49.5v-4q0 -38 -22 -60t-60 -22h-184q-38 0 -59 21.5
t-23 58.5q1 56 26 108t75 97t136.5 72.5t198.5 27.5q148 0 248 -47q107 52 264 52q72 0 134.5 -10.5t121 -37t99.5 -67t65.5 -105t24.5 -147.5v-10q0 -38 -21.5 -62.5t-60.5 -27.5l-445 -39v-135q0 -31 20.5 -51.5t61.5 -20.5q82 0 82 72q0 38 22 59.5t60 21.5h199
q38 0 60 -21.5t22 -59.5v-15q0 -74 -37 -131t-101 -90.5t-141.5 -50.5t-165.5 -17zM37 606v4v2v-6zM385 272q0 -65 68 -65q84 0 84 119v71l-152 -16v-109zM903 520l164 17v63q0 45 -19.5 67.5t-62.5 22.5q-82 0 -82 -90v-80z" />
    <glyph glyph-name="ccedilla" unicode="&#xe7;" horiz-adv-x="946" 
d="M481 -410q-159 0 -159 105v4q0 28 15 39.5t46 11.5h20q62 0 62 -37v-6q0 -10 4.5 -13t15.5 -3q19 0 19 18v96q0 33 -23 33q-19 0 -28 -26q-11 -25 -41 -25h-43q-47 0 -39 55l24 144q-93 16 -164 55.5t-116 112.5t-45 170v243q0 90 37.5 159.5t102 110t142.5 61t166 20.5
t165.5 -20.5t141.5 -61t101 -110t37 -159.5v-4q0 -38 -22 -60t-60 -22h-199q-38 0 -60 22t-22 60v2q0 53 -19 77t-63 24t-63 -24t-19 -77v-237q0 -53 19 -77t63 -24t63 24t19 77q0 38 22 60t60 22h199q38 0 60 -22t22 -60v-4q0 -90 -36.5 -158.5t-99.5 -109.5t-140.5 -61
t-166.5 -20l-14 -84h10q30 50 96 50q39 0 57.5 -24.5t18.5 -57.5v-146q0 -58 -41.5 -90.5t-124.5 -32.5z" />
    <glyph glyph-name="egrave" unicode="&#xe8;" horiz-adv-x="944" 
d="M475 -25q-90 0 -166 18.5t-141 59.5t-102 115.5t-37 177.5v207q0 83 25 148t66.5 105.5t100.5 66.5t121 36.5t133 10.5q72 0 134.5 -10.5t121 -37t99.5 -67t65.5 -105t24.5 -147.5v-31q0 -38 -21.5 -62.5t-60.5 -27.5l-445 -29v-124q0 -31 20.5 -51.5t61.5 -20.5
q82 0 82 72q0 38 22 59.5t60 21.5h199q38 0 60 -21.5t22 -59.5v-15q0 -74 -37 -131t-101 -90.5t-141.5 -50.5t-165.5 -17zM186 1210q-20 29 -6.5 51.5t49.5 22.5h187q43 0 71 -45l111 -184q18 -31 4.5 -51.5t-49.5 -20.5h-168q-44 0 -74 43zM393 535l164 12v53
q0 45 -19.5 67.5t-62.5 22.5q-82 0 -82 -90v-65z" />
    <glyph glyph-name="eacute" unicode="&#xe9;" horiz-adv-x="944" 
d="M475 -25q-90 0 -166 18.5t-141 59.5t-102 115.5t-37 177.5v207q0 83 25 148t66.5 105.5t100.5 66.5t121 36.5t133 10.5q72 0 134.5 -10.5t121 -37t99.5 -67t65.5 -105t24.5 -147.5v-31q0 -38 -21.5 -62.5t-60.5 -27.5l-445 -29v-124q0 -31 20.5 -51.5t61.5 -20.5
q82 0 82 72q0 38 22 59.5t60 21.5h199q38 0 60 -21.5t22 -59.5v-15q0 -74 -37 -131t-101 -90.5t-141.5 -50.5t-165.5 -17zM338 1055l111 184q28 45 71 45h187q36 0 49.5 -22.5t-6.5 -51.5l-125 -184q-30 -43 -74 -43h-168q-36 0 -49.5 20.5t4.5 51.5zM393 535l164 12v53
q0 45 -19.5 67.5t-62.5 22.5q-82 0 -82 -90v-65z" />
    <glyph glyph-name="ecircumflex" unicode="&#xea;" horiz-adv-x="944" 
d="M475 -25q-90 0 -166 18.5t-141 59.5t-102 115.5t-37 177.5v207q0 83 25 148t66.5 105.5t100.5 66.5t121 36.5t133 10.5q72 0 134.5 -10.5t121 -37t99.5 -67t65.5 -105t24.5 -147.5v-31q0 -38 -21.5 -62.5t-60.5 -27.5l-445 -29v-124q0 -31 20.5 -51.5t61.5 -20.5
q82 0 82 72q0 38 22 59.5t60 21.5h199q38 0 60 -21.5t22 -59.5v-15q0 -74 -37 -131t-101 -90.5t-141.5 -50.5t-165.5 -17zM166 1053l86 174q24 49 70 49h301q45 0 69 -49l86 -174q14 -28 -0.5 -49t-48.5 -21h-149q-46 0 -66 55l-41 121l-43 -121q-9 -24 -33.5 -39.5
t-52.5 -15.5h-129q-34 0 -48.5 21t-0.5 49zM393 535l164 12v53q0 45 -19.5 67.5t-62.5 22.5q-82 0 -82 -90v-65z" />
    <glyph glyph-name="edieresis" unicode="&#xeb;" horiz-adv-x="944" 
d="M475 -25q-90 0 -166 18.5t-141 59.5t-102 115.5t-37 177.5v207q0 83 25 148t66.5 105.5t100.5 66.5t121 36.5t133 10.5q72 0 134.5 -10.5t121 -37t99.5 -67t65.5 -105t24.5 -147.5v-31q0 -38 -21.5 -62.5t-60.5 -27.5l-445 -29v-124q0 -31 20.5 -51.5t61.5 -20.5
q82 0 82 72q0 38 22 59.5t60 21.5h199q38 0 60 -21.5t22 -59.5v-15q0 -74 -37 -131t-101 -90.5t-141.5 -50.5t-165.5 -17zM133 1065v129q0 82 82 82h129q82 0 82 -82v-129q0 -82 -82 -82h-129q-82 0 -82 82zM393 535l164 12v53q0 45 -19.5 67.5t-62.5 22.5q-82 0 -82 -90
v-65zM520 1065v129q0 82 82 82h129q82 0 82 -82v-129q0 -82 -82 -82h-129q-82 0 -82 82z" />
    <glyph glyph-name="igrave" unicode="&#xec;" horiz-adv-x="460" 
d="M129 0q-38 0 -60 22t-22 60v737q0 38 22 60t60 22h203q38 0 60 -22t22 -60v-737q0 -38 -22 -60t-60 -22h-203zM-55 1210q-20 29 -6.5 51.5t49.5 22.5h186q44 0 72 -45l110 -184q18 -31 4.5 -51.5t-49.5 -20.5h-168q-43 0 -73 43z" />
    <glyph glyph-name="iacute" unicode="&#xed;" horiz-adv-x="460" 
d="M129 0q-38 0 -60 22t-22 60v737q0 38 22 60t60 22h203q38 0 60 -22t22 -60v-737q0 -38 -22 -60t-60 -22h-203zM96 1055l111 184q28 45 72 45h186q36 0 49.5 -22.5t-6.5 -51.5l-125 -184q-30 -43 -74 -43h-168q-36 0 -49.5 20.5t4.5 51.5z" />
    <glyph glyph-name="icircumflex" unicode="&#xee;" horiz-adv-x="460" 
d="M129 0q-38 0 -60 22t-22 60v737q0 38 22 60t60 22h203q38 0 60 -22t22 -60v-737q0 -38 -22 -60t-60 -22h-203zM-76 1053l86 174q24 49 70 49h301q46 0 70 -49l86 -174q14 -28 -1 -49t-49 -21h-149q-46 0 -66 55l-41 121l-43 -121q-9 -24 -33.5 -39.5t-52.5 -15.5h-129
q-34 0 -48.5 21t-0.5 49z" />
    <glyph glyph-name="idieresis" unicode="&#xef;" horiz-adv-x="460" 
d="M129 0q-38 0 -60 22t-22 60v737q0 38 22 60t60 22h203q38 0 60 -22t22 -60v-737q0 -38 -22 -60t-60 -22h-203zM-53 1065v129q0 82 82 82h67q82 0 82 -82v-129q0 -82 -82 -82h-67q-82 0 -82 82zM272 1065v129q0 82 82 82h68q82 0 82 -82v-129q0 -82 -82 -82h-68
q-82 0 -82 82z" />
    <glyph glyph-name="eth" unicode="&#xf0;" horiz-adv-x="946" 
d="M469 -25q-74 0 -135 8.5t-121.5 31.5t-101 61t-66 101t-25.5 147v75q0 176 102 266.5t269 90.5q74 0 129 -27l-67 127l-172 -68q-26 -12 -45 -5t-19 32v146q0 36 6 49.5t31 23.5l82 33l-57 104q-23 41 -6.5 70t63.5 29h235q66 0 99 -58l4 -8l137 56q63 24 63 -27v-154
q0 -22 -1.5 -33t-9.5 -22t-25 -18l-41 -17l6 -12q54 -94 84.5 -239t30.5 -287v-25q0 -102 -25 -181t-66.5 -129t-100.5 -82.5t-122 -45.5t-135 -13zM387 334q0 -67 18.5 -94t63.5 -27t63.5 27t18.5 94v47q0 76 -17.5 106.5t-62.5 30.5q-46 0 -65 -30.5t-19 -106.5v-47z" />
    <glyph glyph-name="ntilde" unicode="&#xf1;" horiz-adv-x="997" 
d="M133 0q-38 0 -60 22t-22 60v393l-18 342q-3 84 80 84h176q38 0 60 -22t22 -60v-301h8q6 192 91.5 296t223.5 104q119 0 190.5 -76.5t71.5 -229.5v-530q0 -38 -22 -60t-60 -22h-202q-38 0 -60 22t-22 60v438q0 82 -70 82q-45 0 -73.5 -35t-28.5 -102v-383q0 -38 -22 -60
t-60 -22h-203zM160 1028v66q0 85 48.5 141.5t139.5 56.5q50 0 106.5 -21t103.5 -42t73 -21q37 0 37 29v10q0 51 61 51h49q62 0 62 -51v-65q0 -85 -49 -142t-140 -57q-50 0 -106.5 21t-103 42t-72.5 21q-37 0 -37 -29v-10q0 -51 -62 -51h-49q-61 0 -61 51z" />
    <glyph glyph-name="ograve" unicode="&#xf2;" horiz-adv-x="954" 
d="M477 -25q-72 0 -135 12.5t-121.5 43t-100 76.5t-66.5 117t-25 161v123q0 111 37.5 193.5t102.5 128t141.5 67t166.5 21.5q71 0 134 -12.5t122 -43t101 -76.5t67 -117t25 -161v-123q0 -90 -25 -161t-67 -117t-100.5 -76.5t-121.5 -43t-135 -12.5zM190 1210
q-20 29 -6.5 51.5t49.5 22.5h187q44 0 72 -45l110 -184q18 -31 4.5 -51.5t-49.5 -20.5h-168q-44 0 -74 43zM395 369q0 -53 19 -77t63 -24t63 24t19 77v153q0 53 -19 78t-63 25t-63 -25t-19 -78v-153z" />
    <glyph glyph-name="oacute" unicode="&#xf3;" horiz-adv-x="954" 
d="M477 -25q-72 0 -135 12.5t-121.5 43t-100 76.5t-66.5 117t-25 161v123q0 111 37.5 193.5t102.5 128t141.5 67t166.5 21.5q71 0 134 -12.5t122 -43t101 -76.5t67 -117t25 -161v-123q0 -90 -25 -161t-67 -117t-100.5 -76.5t-121.5 -43t-135 -12.5zM342 1055l111 184
q28 45 71 45h187q36 0 49.5 -22.5t-6.5 -51.5l-125 -184q-30 -43 -74 -43h-168q-36 0 -49.5 20.5t4.5 51.5zM395 369q0 -53 19 -77t63 -24t63 24t19 77v153q0 53 -19 78t-63 25t-63 -25t-19 -78v-153z" />
    <glyph glyph-name="ocircumflex" unicode="&#xf4;" horiz-adv-x="954" 
d="M477 -25q-72 0 -135 12.5t-121.5 43t-100 76.5t-66.5 117t-25 161v123q0 111 37.5 193.5t102.5 128t141.5 67t166.5 21.5q71 0 134 -12.5t122 -43t101 -76.5t67 -117t25 -161v-123q0 -90 -25 -161t-67 -117t-100.5 -76.5t-121.5 -43t-135 -12.5zM170 1053l86 174
q24 49 70 49h301q45 0 69 -49l86 -174q14 -28 -0.5 -49t-48.5 -21h-149q-46 0 -66 55l-41 121l-43 -121q-9 -24 -33.5 -39.5t-52.5 -15.5h-129q-34 0 -48.5 21t-0.5 49zM395 369q0 -53 19 -77t63 -24t63 24t19 77v153q0 53 -19 78t-63 25t-63 -25t-19 -78v-153z" />
    <glyph glyph-name="otilde" unicode="&#xf5;" horiz-adv-x="954" 
d="M477 -25q-72 0 -135 12.5t-121.5 43t-100 76.5t-66.5 117t-25 161v123q0 111 37.5 193.5t102.5 128t141.5 67t166.5 21.5q71 0 134 -12.5t122 -43t101 -76.5t67 -117t25 -161v-123q0 -90 -25 -161t-67 -117t-100.5 -76.5t-121.5 -43t-135 -12.5zM137 1028v66
q0 85 49 141.5t140 56.5q50 0 106.5 -21t103 -42t72.5 -21q37 0 37 29v10q0 51 62 51h49q61 0 61 -51v-65q0 -85 -48.5 -142t-139.5 -57q-50 0 -106.5 21t-103.5 42t-73 21q-37 0 -37 -29v-10q0 -51 -61 -51h-49q-62 0 -62 51zM395 369q0 -53 19 -77t63 -24t63 24t19 77v153
q0 53 -19 78t-63 25t-63 -25t-19 -78v-153z" />
    <glyph glyph-name="odieresis" unicode="&#xf6;" horiz-adv-x="954" 
d="M477 -25q-72 0 -135 12.5t-121.5 43t-100 76.5t-66.5 117t-25 161v123q0 111 37.5 193.5t102.5 128t141.5 67t166.5 21.5q71 0 134 -12.5t122 -43t101 -76.5t67 -117t25 -161v-123q0 -90 -25 -161t-67 -117t-100.5 -76.5t-121.5 -43t-135 -12.5zM137 1065v129q0 82 82 82
h129q82 0 82 -82v-129q0 -82 -82 -82h-129q-82 0 -82 82zM395 369q0 -53 19 -77t63 -24t63 24t19 77v153q0 53 -19 78t-63 25t-63 -25t-19 -78v-153zM524 1065v129q0 82 82 82h129q82 0 82 -82v-129q0 -82 -82 -82h-129q-82 0 -82 82z" />
    <glyph glyph-name="divide" unicode="&#xf7;" horiz-adv-x="651" 
d="M100 547q-38 0 -60 22t-22 60v73q0 38 22 60t60 22h451q38 0 60 -22t22 -60v-73q0 -38 -22 -60t-60 -22h-451zM197 360v48q0 38 22 59.5t60 21.5h94q38 0 60 -21.5t22 -59.5v-48q0 -38 -22 -59.5t-60 -21.5h-94q-38 0 -60 21.5t-22 59.5zM197 924v47q0 38 22 60t60 22h94
q38 0 60 -22t22 -60v-47q0 -38 -22 -60t-60 -22h-94q-38 0 -60 22t-22 60z" />
    <glyph glyph-name="oslash" unicode="&#xf8;" horiz-adv-x="954" 
d="M477 -25h-12l-39 -118q-18 -58 -76 -39l-147 49q-57 19 -39 78l33 98q-168 102 -168 342v123q0 111 37.5 193.5t102.5 128t141.5 67t166.5 21.5h10l41 124q18 58 76 39l148 -49q28 -9 39 -29.5t2 -48.5l-35 -104q168 -102 168 -342v-123q0 -90 -25 -161t-67 -117
t-100.5 -76.5t-121.5 -43t-135 -12.5zM395 369q0 -53 19 -77t63 -24t63 24t19 77v153q0 53 -19 78t-63 25t-63 -25t-19 -78v-153z" />
    <glyph glyph-name="ugrave" unicode="&#xf9;" horiz-adv-x="997" 
d="M864 901q38 0 60 -22t22 -60v-393l19 -342q3 -84 -80 -84h-176q-38 0 -60 22t-22 60v301h-9q-6 -192 -91 -295.5t-224 -103.5q-119 0 -190.5 76t-71.5 229v530q0 38 22 60t60 22h203q38 0 60 -22t22 -60v-438q0 -82 69 -82q45 0 74 35t29 102v383q0 38 22 60t60 22h202z
M188 1210q-20 29 -6.5 51.5t49.5 22.5h187q43 0 71 -45l111 -184q18 -31 4.5 -51.5t-49.5 -20.5h-168q-44 0 -74 43z" />
    <glyph glyph-name="uacute" unicode="&#xfa;" horiz-adv-x="997" 
d="M864 901q38 0 60 -22t22 -60v-393l19 -342q3 -84 -80 -84h-176q-38 0 -60 22t-22 60v301h-9q-6 -192 -91 -295.5t-224 -103.5q-119 0 -190.5 76t-71.5 229v530q0 38 22 60t60 22h203q38 0 60 -22t22 -60v-438q0 -82 69 -82q45 0 74 35t29 102v383q0 38 22 60t60 22h202z
M340 1055l111 184q28 45 71 45h187q36 0 49.5 -22.5t-6.5 -51.5l-125 -184q-30 -43 -74 -43h-168q-36 0 -49.5 20.5t4.5 51.5z" />
    <glyph glyph-name="ucircumflex" unicode="&#xfb;" horiz-adv-x="997" 
d="M864 901q38 0 60 -22t22 -60v-393l19 -342q3 -84 -80 -84h-176q-38 0 -60 22t-22 60v301h-9q-6 -192 -91 -295.5t-224 -103.5q-119 0 -190.5 76t-71.5 229v530q0 38 22 60t60 22h203q38 0 60 -22t22 -60v-438q0 -82 69 -82q45 0 74 35t29 102v383q0 38 22 60t60 22h202z
M168 1053l86 174q24 49 70 49h301q45 0 69 -49l86 -174q14 -28 -0.5 -49t-48.5 -21h-149q-46 0 -66 55l-41 121l-43 -121q-9 -24 -33.5 -39.5t-52.5 -15.5h-129q-34 0 -48.5 21t-0.5 49z" />
    <glyph glyph-name="udieresis" unicode="&#xfc;" horiz-adv-x="997" 
d="M864 901q38 0 60 -22t22 -60v-393l19 -342q3 -84 -80 -84h-176q-38 0 -60 22t-22 60v301h-9q-6 -192 -91 -295.5t-224 -103.5q-119 0 -190.5 76t-71.5 229v530q0 38 22 60t60 22h203q38 0 60 -22t22 -60v-438q0 -82 69 -82q45 0 74 35t29 102v383q0 38 22 60t60 22h202z
M135 1065v129q0 82 82 82h129q82 0 82 -82v-129q0 -82 -82 -82h-129q-82 0 -82 82zM522 1065v129q0 82 82 82h129q82 0 82 -82v-129q0 -82 -82 -82h-129q-82 0 -82 82z" />
    <glyph glyph-name="yacute" unicode="&#xfd;" horiz-adv-x="987" 
d="M379 -360q-175 0 -270 86.5t-95 234.5v41q0 39 23.5 63.5t66.5 24.5h134q43 0 65.5 -23.5t22.5 -66.5v-35q0 -37 11 -56.5t42 -19.5q36 0 49.5 27t24.5 109l16 116h-199q-73 0 -96 86l-156 582q-11 44 14 68t72 24h207q77 0 92 -90l68 -356h61l64 356q9 47 30.5 68.5
t61.5 21.5h203q44 0 69 -23t15 -69l-170 -735q-16 -68 -29.5 -115.5t-33 -96.5t-41 -80.5t-52 -61t-69 -45.5t-88.5 -25.5t-113 -9.5zM340 1055l111 184q28 45 71 45h187q36 0 49.5 -22.5t-6.5 -51.5l-125 -184q-30 -43 -74 -43h-168q-36 0 -49.5 20.5t4.5 51.5z" />
    <glyph glyph-name="thorn" unicode="&#xfe;" horiz-adv-x="991" 
d="M131 -348q-38 0 -60 22t-22 60v1454q0 38 22 60t60 22h203q38 0 60 -22t22 -60v-12q0 -202 -35 -541h8q27 137 107 210t196 73q119 0 190.5 -76.5t71.5 -229.5v-323q0 -153 -71.5 -229t-190.5 -76q-116 0 -196 72.5t-107 209.5h-8q35 -333 35 -534q0 -37 -22 -58.5
t-60 -21.5h-203zM416 -274v8v-2v-6zM416 436q0 -67 28.5 -102t73.5 -35q70 0 70 82v139q0 82 -70 82q-45 0 -73.5 -35t-28.5 -102v-29z" />
    <glyph glyph-name="ydieresis" unicode="&#xff;" horiz-adv-x="987" 
d="M379 -360q-175 0 -270 86.5t-95 234.5v41q0 39 23.5 63.5t66.5 24.5h134q43 0 65.5 -23.5t22.5 -66.5v-35q0 -37 11 -56.5t42 -19.5q36 0 49.5 27t24.5 109l16 116h-199q-73 0 -96 86l-156 582q-11 44 14 68t72 24h207q77 0 92 -90l68 -356h61l64 356q9 47 30.5 68.5
t61.5 21.5h203q44 0 69 -23t15 -69l-170 -735q-16 -68 -29.5 -115.5t-33 -96.5t-41 -80.5t-52 -61t-69 -45.5t-88.5 -25.5t-113 -9.5zM135 1065v129q0 82 82 82h129q82 0 82 -82v-129q0 -82 -82 -82h-129q-82 0 -82 82zM522 1065v129q0 82 82 82h129q82 0 82 -82v-129
q0 -82 -82 -82h-129q-82 0 -82 82z" />
    <glyph glyph-name="Amacron" unicode="&#x100;" horiz-adv-x="974" 
d="M14 88l140 1002q-34 3 -53 24.5t-19 56.5v181q0 38 22 60t60 22h543q71 0 81 -82l170 -1264q6 -41 -14 -64.5t-61 -23.5h-221q-81 0 -87 80l-12 194h-162l-12 -194q-6 -80 -84 -80h-215q-41 0 -61.5 23.5t-14.5 64.5zM180 1577v113q0 29 16.5 45t45.5 16h473q61 0 61 -61
v-113q0 -61 -61 -61h-473q-29 0 -45.5 16t-16.5 45zM422 594h119l-33 496h-53z" />
    <glyph glyph-name="amacron" unicode="&#x101;" horiz-adv-x="946" 
d="M293 -25q-45 0 -84 7.5t-74.5 26t-60.5 47t-39.5 72.5t-14.5 101v7q0 107 60 157t186 70l271 41v102q0 80 -76 80q-39 0 -57.5 -20.5t-18.5 -49.5v-4q0 -38 -22 -60t-60 -22h-184q-38 0 -60 22t-22 60v4q0 53 25 103.5t74.5 95.5t137 72.5t199.5 27.5q210 0 320 -93.5
t110 -262.5v-133l19 -342q3 -84 -80 -84h-176q-38 0 -60 22t-22 60v123h-9q-12 -106 -87.5 -168t-194.5 -62zM176 1065v72q0 38 22 60t60 22h432q38 0 60 -22t22 -60v-72q0 -38 -22 -60t-60 -22h-432q-38 0 -60 22t-22 60zM385 285q0 -78 68 -78q46 0 65 26.5t19 83.5v70
l-152 -27v-75z" />
    <glyph glyph-name="Abreve" unicode="&#x102;" horiz-adv-x="974" 
d="M14 88l140 1002q-34 3 -53 24.5t-19 56.5v181q0 38 22 60t60 22h543q71 0 81 -82l170 -1264q6 -41 -14 -64.5t-61 -23.5h-221q-81 0 -87 80l-12 194h-162l-12 -194q-6 -80 -84 -80h-215q-41 0 -61.5 23.5t-14.5 64.5zM207 1712v19q0 57 72 57h59q74 0 74 -57v-19
q0 -51 67 -51q68 0 68 51v19q0 57 74 57h59q72 0 72 -57v-19q0 -112 -72.5 -157.5t-200.5 -45.5t-200 45.5t-72 157.5zM422 594h119l-33 496h-53z" />
    <glyph glyph-name="abreve" unicode="&#x103;" horiz-adv-x="946" 
d="M293 -25q-45 0 -84 7.5t-74.5 26t-60.5 47t-39.5 72.5t-14.5 101v7q0 107 60 157t186 70l271 41v102q0 80 -76 80q-39 0 -57.5 -20.5t-18.5 -49.5v-4q0 -38 -22 -60t-60 -22h-184q-38 0 -60 22t-22 60v4q0 53 25 103.5t74.5 95.5t137 72.5t199.5 27.5q210 0 320 -93.5
t110 -262.5v-133l19 -342q3 -84 -80 -84h-176q-38 0 -60 22t-22 60v123h-9q-12 -106 -87.5 -168t-194.5 -62zM205 1178v18q0 57 71 57h60q74 0 74 -57v-18q0 -52 67 -52q68 0 68 52v18q0 57 73 57h60q72 0 72 -57v-18q0 -112 -72.5 -157.5t-200.5 -45.5t-200 45.5t-72 157.5
zM385 285q0 -78 68 -78q46 0 65 26.5t19 83.5v70l-152 -27v-75z" />
    <glyph glyph-name="Aogonek" unicode="&#x104;" horiz-adv-x="974" 
d="M14 88l140 1002q-34 3 -53 24.5t-19 56.5v181q0 38 22 60t60 22h543q71 0 81 -82l170 -1264q6 -41 -14 -64.5t-61 -23.5h-11q-47 0 -47 -74v-18q0 -38 11.5 -53t35.5 -15h9q45 0 45 -47v-72q0 -55 -119 -55q-88 0 -138.5 43t-50.5 127q0 67 28 107.5t97 56.5h-81
q-81 0 -87 80l-12 194h-162l-12 -194q-6 -80 -84 -80h-215q-41 0 -61.5 23.5t-14.5 64.5zM422 594h119l-33 496h-53z" />
    <glyph glyph-name="aogonek" unicode="&#x105;" horiz-adv-x="946" 
d="M293 -25q-45 0 -84 7.5t-74.5 26t-60.5 47t-39.5 72.5t-14.5 101v7q0 107 60 157t186 70l271 41v102q0 80 -76 80q-39 0 -57.5 -20.5t-18.5 -49.5v-4q0 -38 -22 -60t-60 -22h-184q-38 0 -60 22t-22 60v4q0 53 25 103.5t74.5 95.5t137 72.5t199.5 27.5q210 0 320 -93.5
t110 -262.5v-133l19 -342q3 -84 -80 -84h-8q-48 0 -48 -74v-18q0 -38 11.5 -53t36.5 -15h8q45 0 45 -47v-72q0 -55 -119 -55q-87 0 -137.5 43t-50.5 127q0 67 28 107.5t97 56.5h-39q-38 0 -60 22t-22 60v123h-9q-12 -106 -87.5 -168t-194.5 -62zM385 285q0 -78 68 -78
q46 0 65 26.5t19 83.5v70l-152 -27v-75z" />
    <glyph glyph-name="Cacute" unicode="&#x106;" horiz-adv-x="983" 
d="M494 -25q-127 0 -218 34t-142.5 98.5t-75 146.5t-23.5 188v545q0 106 23.5 188t75 146.5t142.5 98.5t218 34t218 -34t142.5 -98.5t74.5 -146t23 -188.5v-147q0 -38 -22 -60t-60 -22h-213q-38 0 -60 22t-22 60v172q0 54 -18 78t-63 24t-63.5 -24t-18.5 -78v-596
q0 -52 18.5 -76.5t63.5 -24.5t63 23.5t18 77.5v174q0 38 22 60t60 22h213q38 0 60 -22t22 -60v-148q0 -84 -14 -152.5t-47 -128t-84.5 -100t-130.5 -63.5t-182 -23zM352 1587l111 185q28 45 72 45h186q36 0 49.5 -22.5t-6.5 -51.5l-125 -184q-30 -43 -74 -43h-168
q-36 0 -49.5 20t4.5 51z" />
    <glyph glyph-name="cacute" unicode="&#x107;" horiz-adv-x="946" 
d="M477 -25q-89 0 -167 20t-142 60.5t-101.5 109.5t-37.5 159v243q0 90 37.5 159.5t102 110t142.5 61t166 20.5t165.5 -20.5t141.5 -61t101 -110t37 -159.5v-4q0 -38 -22 -60t-60 -22h-199q-38 0 -60 22t-22 60v2q0 53 -19 77t-63 24t-63 -24t-19 -77v-237q0 -53 19 -77
t63 -24t63 24t19 77q0 38 22 60t60 22h199q38 0 60 -22t22 -60v-4q0 -90 -37 -159t-100.5 -109.5t-141 -60.5t-166.5 -20zM338 1055l111 184q28 45 71 45h187q36 0 49.5 -22.5t-6.5 -51.5l-125 -184q-30 -43 -74 -43h-168q-36 0 -49.5 20.5t4.5 51.5z" />
    <glyph glyph-name="Ccircumflex" unicode="&#x108;" horiz-adv-x="983" 
d="M494 -25q-127 0 -218 34t-142.5 98.5t-75 146.5t-23.5 188v545q0 106 23.5 188t75 146.5t142.5 98.5t218 34t218 -34t142.5 -98.5t74.5 -146t23 -188.5v-147q0 -38 -22 -60t-60 -22h-213q-38 0 -60 22t-22 60v172q0 54 -18 78t-63 24t-63.5 -24t-18.5 -78v-596
q0 -52 18.5 -76.5t63.5 -24.5t63 23.5t18 77.5v174q0 38 22 60t60 22h213q38 0 60 -22t22 -60v-148q0 -84 -14 -152.5t-47 -128t-84.5 -100t-130.5 -63.5t-182 -23zM178 1585l86 174q24 49 70 49h301q46 0 70 -49l86 -174q14 -28 -1 -48.5t-49 -20.5h-149q-46 0 -66 55
l-41 121l-43 -121q-9 -24 -33.5 -39.5t-52.5 -15.5h-129q-34 0 -48.5 20.5t-0.5 48.5z" />
    <glyph glyph-name="ccircumflex" unicode="&#x109;" horiz-adv-x="946" 
d="M477 -25q-89 0 -167 20t-142 60.5t-101.5 109.5t-37.5 159v243q0 90 37.5 159.5t102 110t142.5 61t166 20.5t165.5 -20.5t141.5 -61t101 -110t37 -159.5v-4q0 -38 -22 -60t-60 -22h-199q-38 0 -60 22t-22 60v2q0 53 -19 77t-63 24t-63 -24t-19 -77v-237q0 -53 19 -77
t63 -24t63 24t19 77q0 38 22 60t60 22h199q38 0 60 -22t22 -60v-4q0 -90 -37 -159t-100.5 -109.5t-141 -60.5t-166.5 -20zM166 1053l86 174q24 49 70 49h301q45 0 69 -49l86 -174q14 -28 -0.5 -49t-48.5 -21h-149q-46 0 -66 55l-41 121l-43 -121q-9 -24 -33.5 -39.5
t-52.5 -15.5h-129q-34 0 -48.5 21t-0.5 49z" />
    <glyph glyph-name="Cdotaccent" unicode="&#x10a;" horiz-adv-x="983" 
d="M494 -25q-127 0 -218 34t-142.5 98.5t-75 146.5t-23.5 188v545q0 106 23.5 188t75 146.5t142.5 98.5t218 34t218 -34t142.5 -98.5t74.5 -146t23 -188.5v-147q0 -38 -22 -60t-60 -22h-213q-38 0 -60 22t-22 60v172q0 54 -18 78t-63 24t-63.5 -24t-18.5 -78v-596
q0 -52 18.5 -76.5t63.5 -24.5t63 23.5t18 77.5v174q0 38 22 60t60 22h213q38 0 60 -22t22 -60v-148q0 -84 -14 -152.5t-47 -128t-84.5 -100t-130.5 -63.5t-182 -23zM354 1577v100q0 29 16.5 45.5t45.5 16.5h147q29 0 45.5 -16.5t16.5 -45.5v-100q0 -29 -16.5 -45t-45.5 -16
h-147q-29 0 -45.5 16t-16.5 45z" />
    <glyph glyph-name="cdotaccent" unicode="&#x10b;" horiz-adv-x="946" 
d="M477 -25q-89 0 -167 20t-142 60.5t-101.5 109.5t-37.5 159v243q0 90 37.5 159.5t102 110t142.5 61t166 20.5t165.5 -20.5t141.5 -61t101 -110t37 -159.5v-4q0 -38 -22 -60t-60 -22h-199q-38 0 -60 22t-22 60v2q0 53 -19 77t-63 24t-63 -24t-19 -77v-237q0 -53 19 -77
t63 -24t63 24t19 77q0 38 22 60t60 22h199q38 0 60 -22t22 -60v-4q0 -90 -37 -159t-100.5 -109.5t-141 -60.5t-166.5 -20zM297 1065v141q0 38 22 60t60 22h188q38 0 60 -22t22 -60v-141q0 -38 -22 -60t-60 -22h-188q-38 0 -60 22t-22 60z" />
    <glyph glyph-name="Ccaron" unicode="&#x10c;" horiz-adv-x="983" 
d="M494 -25q-127 0 -218 34t-142.5 98.5t-75 146.5t-23.5 188v545q0 106 23.5 188t75 146.5t142.5 98.5t218 34t218 -34t142.5 -98.5t74.5 -146t23 -188.5v-147q0 -38 -22 -60t-60 -22h-213q-38 0 -60 22t-22 60v172q0 54 -18 78t-63 24t-63.5 -24t-18.5 -78v-596
q0 -52 18.5 -76.5t63.5 -24.5t63 23.5t18 77.5v174q0 38 22 60t60 22h213q38 0 60 -22t22 -60v-148q0 -84 -14 -152.5t-47 -128t-84.5 -100t-130.5 -63.5t-182 -23zM176 1757q-14 28 0.5 49t48.5 21h150q45 0 65 -55l43 -121l41 121q9 24 33.5 39.5t52.5 15.5h129
q34 0 48.5 -21t0.5 -49l-86 -174q-24 -49 -69 -49h-301q-46 0 -70 49z" />
    <glyph glyph-name="ccaron" unicode="&#x10d;" horiz-adv-x="946" 
d="M477 -25q-89 0 -167 20t-142 60.5t-101.5 109.5t-37.5 159v243q0 90 37.5 159.5t102 110t142.5 61t166 20.5t165.5 -20.5t141.5 -61t101 -110t37 -159.5v-4q0 -38 -22 -60t-60 -22h-199q-38 0 -60 22t-22 60v2q0 53 -19 77t-63 24t-63 -24t-19 -77v-237q0 -53 19 -77
t63 -24t63 24t19 77q0 38 22 60t60 22h199q38 0 60 -22t22 -60v-4q0 -90 -37 -159t-100.5 -109.5t-141 -60.5t-166.5 -20zM166 1206q-14 28 0.5 49t48.5 21h150q45 0 65 -55l43 -121l41 121q9 24 33.5 39.5t52.5 15.5h129q34 0 48.5 -21t0.5 -49l-86 -174q-24 -49 -69 -49
h-301q-46 0 -70 49z" />
    <glyph glyph-name="Dcaron" unicode="&#x10e;" horiz-adv-x="1003" 
d="M131 0q-38 0 -60 22t-22 60v1270q0 38 22 60t60 22h379q103 0 182 -23t131.5 -63t86 -99.5t47.5 -128t14 -153.5v-500q0 -85 -14 -153.5t-47.5 -128t-86 -99.5t-131.5 -63t-182 -23h-379zM197 1757q-14 28 0.5 49t48.5 21h149q46 0 66 -55l43 -121l41 121q9 24 33.5 39.5
t52.5 15.5h129q34 0 48.5 -21t0.5 -49l-86 -174q-24 -49 -70 -49h-301q-45 0 -69 49zM426 340h84q45 0 64.5 23.5t19.5 76.5v553q0 53 -19.5 77t-64.5 24h-84v-754z" />
    <glyph glyph-name="dcaron" unicode="&#x10f;" horiz-adv-x="993" 
d="M705 0q-38 0 -60 22t-22 60v301h-9q-6 -192 -91 -295.5t-224 -103.5q-119 0 -190.5 76t-71.5 229v323q0 153 71.5 229.5t190.5 76.5q116 0 196 -73t107 -210h8q-35 339 -35 541v12q0 38 22 60t60 22h203q38 0 60 -22t22 -60v-762l19 -342q3 -84 -80 -84h-176zM403 381
q0 -82 70 -82q45 0 73.5 35t28.5 102v29q0 67 -28.5 102t-73.5 35q-70 0 -70 -82v-139zM1006 967l34 245q9 58 66 58h113q33 0 48.5 -19t6.5 -49l-72 -246q-16 -55 -65 -55h-76q-64 0 -55 66z" />
    <glyph glyph-name="Dcroat" unicode="&#x110;" horiz-adv-x="1003" 
d="M131 0q-38 0 -60 22t-22 60v543h-18q-29 0 -45.5 16t-16.5 45v62q0 29 16.5 45t45.5 16h18v543q0 38 22 60t60 22h379q103 0 182 -23t131.5 -63t86 -99.5t47.5 -128t14 -153.5v-500q0 -85 -14 -153.5t-47.5 -128t-86 -99.5t-131.5 -63t-182 -23h-379zM426 340h84
q45 0 64.5 23.5t19.5 76.5v553q0 53 -19.5 77t-64.5 24h-84v-285h23q61 0 61 -61v-62q0 -61 -61 -61h-23v-285z" />
    <glyph glyph-name="dcroat" unicode="&#x111;" horiz-adv-x="993" 
d="M705 0q-38 0 -60 22t-22 60v301h-9q-6 -192 -91 -295.5t-224 -103.5q-119 0 -190.5 76t-71.5 229v323q0 153 71.5 229.5t190.5 76.5q116 0 196 -73t107 -210h8q-14 143 -26 336h-97q-61 0 -61 61v12q0 29 16 45.5t45 16.5h91q-3 40 -3 70v12q0 38 22 60t60 22h203
q38 0 60 -22t22 -60v-82h62q29 0 45 -16.5t16 -45.5v-12q0 -61 -61 -61h-62v-545l19 -342q3 -84 -80 -84h-176zM403 381q0 -82 70 -82q45 0 73.5 35t28.5 102v29q0 67 -28.5 102t-73.5 35q-70 0 -70 -82v-139z" />
    <glyph glyph-name="Emacron" unicode="&#x112;" horiz-adv-x="706" 
d="M131 0q-38 0 -60 22t-22 60v1270q0 38 22 60t60 22h467q38 0 60 -22t22 -60v-176q0 -38 -22 -60t-60 -22h-172v-207h137q38 0 60 -22t22 -60v-176q0 -38 -22 -60t-60 -22h-137v-207h172q38 0 60 -22t22 -60v-176q0 -38 -22 -60t-60 -22h-467zM39 1577v113q0 61 61 61h473
q29 0 45.5 -16t16.5 -45v-113q0 -29 -16.5 -45t-45.5 -16h-473q-61 0 -61 61z" />
    <glyph glyph-name="emacron" unicode="&#x113;" horiz-adv-x="944" 
d="M475 -25q-90 0 -166 18.5t-141 59.5t-102 115.5t-37 177.5v207q0 83 25 148t66.5 105.5t100.5 66.5t121 36.5t133 10.5q72 0 134.5 -10.5t121 -37t99.5 -67t65.5 -105t24.5 -147.5v-31q0 -38 -21.5 -62.5t-60.5 -27.5l-445 -29v-124q0 -31 20.5 -51.5t61.5 -20.5
q82 0 82 72q0 38 22 59.5t60 21.5h199q38 0 60 -21.5t22 -59.5v-15q0 -74 -37 -131t-101 -90.5t-141.5 -50.5t-165.5 -17zM174 1065v72q0 38 22 60t60 22h432q38 0 60 -22t22 -60v-72q0 -38 -22 -60t-60 -22h-432q-38 0 -60 22t-22 60zM393 535l164 12v53q0 45 -19.5 67.5
t-62.5 22.5q-82 0 -82 -90v-65z" />
    <glyph glyph-name="Edotaccent" unicode="&#x116;" horiz-adv-x="706" 
d="M131 0q-38 0 -60 22t-22 60v1270q0 38 22 60t60 22h467q38 0 60 -22t22 -60v-176q0 -38 -22 -60t-60 -22h-172v-207h137q38 0 60 -22t22 -60v-176q0 -38 -22 -60t-60 -22h-137v-207h172q38 0 60 -22t22 -60v-176q0 -38 -22 -60t-60 -22h-467zM207 1577v100q0 29 16 45.5
t45 16.5h148q29 0 45 -16.5t16 -45.5v-100q0 -61 -61 -61h-148q-61 0 -61 61z" />
    <glyph glyph-name="edotaccent" unicode="&#x117;" horiz-adv-x="944" 
d="M475 -25q-90 0 -166 18.5t-141 59.5t-102 115.5t-37 177.5v207q0 83 25 148t66.5 105.5t100.5 66.5t121 36.5t133 10.5q72 0 134.5 -10.5t121 -37t99.5 -67t65.5 -105t24.5 -147.5v-31q0 -38 -21.5 -62.5t-60.5 -27.5l-445 -29v-124q0 -31 20.5 -51.5t61.5 -20.5
q82 0 82 72q0 38 22 59.5t60 21.5h199q38 0 60 -21.5t22 -59.5v-15q0 -74 -37 -131t-101 -90.5t-141.5 -50.5t-165.5 -17zM297 1065v141q0 38 22 60t60 22h188q38 0 60 -22t22 -60v-141q0 -38 -22 -60t-60 -22h-188q-38 0 -60 22t-22 60zM393 535l164 12v53q0 45 -19.5 67.5
t-62.5 22.5q-82 0 -82 -90v-65z" />
    <glyph glyph-name="Eogonek" unicode="&#x118;" horiz-adv-x="706" 
d="M131 0q-38 0 -60 22t-22 60v1270q0 38 22 60t60 22h467q38 0 60 -22t22 -60v-176q0 -38 -22 -60t-60 -22h-172v-207h137q38 0 60 -22t22 -60v-176q0 -38 -22 -60t-60 -22h-137v-207h172q38 0 60 -22t22 -60v-176q0 -38 -22 -60t-60 -22q-47 0 -47 -74v-18q0 -38 11.5 -53
t35.5 -15h8q45 0 45 -47v-72q0 -55 -119 -55q-87 0 -137.5 43t-50.5 127q0 67 28 107.5t97 56.5h-338z" />
    <glyph glyph-name="eogonek" unicode="&#x119;" horiz-adv-x="944" 
d="M475 -25q-90 0 -166 18.5t-141 59.5t-102 115.5t-37 177.5v207q0 83 25 148t66.5 105.5t100.5 66.5t121 36.5t133 10.5q72 0 134.5 -10.5t121 -37t99.5 -67t65.5 -105t24.5 -147.5v-31q0 -38 -21.5 -62.5t-60.5 -27.5l-445 -29v-124q0 -31 20.5 -51.5t61.5 -20.5
q82 0 82 72q0 38 22 59.5t60 21.5h199q38 0 60 -21.5t22 -59.5v-15q0 -107 -73.5 -174.5t-195.5 -95.5q-24 -15 -24 -68v-18q0 -38 11.5 -53t35.5 -15h8q45 0 45 -47v-72q0 -55 -119 -55q-87 0 -137.5 43t-50.5 127q0 100 63 139h-8zM393 535l164 12v53q0 45 -19.5 67.5
t-62.5 22.5q-82 0 -82 -90v-65z" />
    <glyph glyph-name="Ecaron" unicode="&#x11a;" horiz-adv-x="706" 
d="M131 0q-38 0 -60 22t-22 60v1270q0 38 22 60t60 22h467q38 0 60 -22t22 -60v-176q0 -38 -22 -60t-60 -22h-172v-207h137q38 0 60 -22t22 -60v-176q0 -38 -22 -60t-60 -22h-137v-207h172q38 0 60 -22t22 -60v-176q0 -38 -22 -60t-60 -22h-467zM29 1757q-14 28 0.5 49
t48.5 21h149q46 0 66 -55l43 -121l41 121q9 24 33.5 39.5t52.5 15.5h129q34 0 48.5 -21t0.5 -49l-86 -174q-24 -49 -70 -49h-301q-45 0 -69 49z" />
    <glyph glyph-name="ecaron" unicode="&#x11b;" horiz-adv-x="944" 
d="M475 -25q-90 0 -166 18.5t-141 59.5t-102 115.5t-37 177.5v207q0 83 25 148t66.5 105.5t100.5 66.5t121 36.5t133 10.5q72 0 134.5 -10.5t121 -37t99.5 -67t65.5 -105t24.5 -147.5v-31q0 -38 -21.5 -62.5t-60.5 -27.5l-445 -29v-124q0 -31 20.5 -51.5t61.5 -20.5
q82 0 82 72q0 38 22 59.5t60 21.5h199q38 0 60 -21.5t22 -59.5v-15q0 -74 -37 -131t-101 -90.5t-141.5 -50.5t-165.5 -17zM166 1206q-14 28 0.5 49t48.5 21h150q45 0 65 -55l43 -121l41 121q9 24 33.5 39.5t52.5 15.5h129q34 0 48.5 -21t0.5 -49l-86 -174q-24 -49 -69 -49
h-301q-46 0 -70 49zM393 535l164 12v53q0 45 -19.5 67.5t-62.5 22.5q-82 0 -82 -90v-65z" />
    <glyph glyph-name="Gcircumflex" unicode="&#x11c;" horiz-adv-x="989" 
d="M299 143q-129 0 -197.5 91.5t-68.5 257.5v548q0 414 456 414q127 0 218.5 -32t143 -90t74.5 -130t23 -162v-53q0 -38 -22 -60t-60 -22h-213q-38 0 -60 22t-22 60v53q0 56 -19 79.5t-63 23.5q-43 0 -61 -23.5t-18 -79.5v-430q0 -65 17.5 -91.5t59.5 -26.5q47 0 66.5 30.5
t19.5 104.5v135q0 38 22 60t60 22h213q38 0 60 -22t22 -60v-725q0 -87 -23 -157t-74 -127.5t-142.5 -89.5t-218.5 -32q-99 0 -178 20.5t-129 54t-83.5 78.5t-47 90.5t-13.5 92.5v43q0 38 22 60t60 22h207q38 0 60 -22t22 -60v-2q0 -84 80 -84q81 0 81 84v359h-20
q-29 -224 -254 -224zM188 1585l86 174q24 49 70 49h301q46 0 70 -49l86 -174q14 -28 -0.5 -48.5t-48.5 -20.5h-150q-45 0 -65 55l-41 121l-43 -121q-9 -24 -33.5 -39.5t-52.5 -15.5h-129q-34 0 -49 20.5t-1 48.5z" />
    <glyph glyph-name="gcircumflex" unicode="&#x11d;" horiz-adv-x="991" 
d="M467 254h-27q-70 0 -94 -7t-24 -28v-6q0 -21 22 -27t80 -6h287q272 0 272 -258v-2q0 -68 -22.5 -118.5t-63.5 -83t-106.5 -52t-142.5 -27.5t-181 -8q-99 0 -171.5 7t-135.5 25t-102 49t-61 79t-22 115v20q0 38 22 60t60 22h54q-35 43 -35 113q0 130 100 180
q-156 71 -156 264v4q0 88 33.5 153.5t92.5 103.5t132 56.5t160 18.5h455q38 0 60 -22t22 -60v-51q0 -38 -22 -60t-60 -22h-135v-8q87 -13 120 -50.5t33 -115.5v-6q0 -73 -31 -123t-91.5 -78t-138 -39.5t-183.5 -11.5zM188 1053l86 174q24 49 70 49h301q46 0 70 -49l86 -174
q14 -28 -0.5 -49t-48.5 -21h-150q-45 0 -65 55l-41 121l-43 -121q-9 -24 -33.5 -39.5t-52.5 -15.5h-129q-34 0 -49 21t-1 49zM293 -115q0 -45 65 -45h250q31 0 43.5 10.5t12.5 34.5v4q0 23 -11 32t-45 9h-295h-20v-4v-41zM387 549q0 -53 19 -75.5t61 -22.5q41 0 59.5 22.5
t18.5 75.5v39q0 54 -18.5 77t-59.5 23q-42 0 -61 -22t-19 -78v-39z" />
    <glyph glyph-name="Gbreve" unicode="&#x11e;" horiz-adv-x="989" 
d="M299 143q-129 0 -197.5 91.5t-68.5 257.5v548q0 414 456 414q127 0 218.5 -32t143 -90t74.5 -130t23 -162v-53q0 -38 -22 -60t-60 -22h-213q-38 0 -60 22t-22 60v53q0 56 -19 79.5t-63 23.5q-43 0 -61 -23.5t-18 -79.5v-430q0 -65 17.5 -91.5t59.5 -26.5q47 0 66.5 30.5
t19.5 104.5v135q0 38 22 60t60 22h213q38 0 60 -22t22 -60v-725q0 -87 -23 -157t-74 -127.5t-142.5 -89.5t-218.5 -32q-99 0 -178 20.5t-129 54t-83.5 78.5t-47 90.5t-13.5 92.5v43q0 38 22 60t60 22h207q38 0 60 -22t22 -60v-2q0 -84 80 -84q81 0 81 84v359h-20
q-29 -224 -254 -224zM223 1712v19q0 57 72 57h59q74 0 74 -57v-19q0 -51 68 -51q67 0 67 51v19q0 57 74 57h59q72 0 72 -57v-19q0 -112 -72 -157.5t-200 -45.5t-200.5 45.5t-72.5 157.5z" />
    <glyph glyph-name="gbreve" unicode="&#x11f;" horiz-adv-x="991" 
d="M467 254h-27q-70 0 -94 -7t-24 -28v-6q0 -21 22 -27t80 -6h287q272 0 272 -258v-2q0 -68 -22.5 -118.5t-63.5 -83t-106.5 -52t-142.5 -27.5t-181 -8q-99 0 -171.5 7t-135.5 25t-102 49t-61 79t-22 115v20q0 38 22 60t60 22h54q-35 43 -35 113q0 130 100 180
q-156 71 -156 264v4q0 88 33.5 153.5t92.5 103.5t132 56.5t160 18.5h455q38 0 60 -22t22 -60v-51q0 -38 -22 -60t-60 -22h-135v-8q87 -13 120 -50.5t33 -115.5v-6q0 -73 -31 -123t-91.5 -78t-138 -39.5t-183.5 -11.5zM225 1178v18q0 57 72 57h59q74 0 74 -57v-18
q0 -52 68 -52q67 0 67 52v18q0 57 74 57h59q72 0 72 -57v-18q0 -112 -72 -157.5t-200 -45.5t-200.5 45.5t-72.5 157.5zM293 -115q0 -45 65 -45h250q31 0 43.5 10.5t12.5 34.5v4q0 23 -11 32t-45 9h-295h-20v-4v-41zM387 549q0 -53 19 -75.5t61 -22.5q41 0 59.5 22.5
t18.5 75.5v39q0 54 -18.5 77t-59.5 23q-42 0 -61 -22t-19 -78v-39z" />
    <glyph glyph-name="Gdotaccent" unicode="&#x120;" horiz-adv-x="989" 
d="M299 143q-129 0 -197.5 91.5t-68.5 257.5v548q0 414 456 414q127 0 218.5 -32t143 -90t74.5 -130t23 -162v-53q0 -38 -22 -60t-60 -22h-213q-38 0 -60 22t-22 60v53q0 56 -19 79.5t-63 23.5q-43 0 -61 -23.5t-18 -79.5v-430q0 -65 17.5 -91.5t59.5 -26.5q47 0 66.5 30.5
t19.5 104.5v135q0 38 22 60t60 22h213q38 0 60 -22t22 -60v-725q0 -87 -23 -157t-74 -127.5t-142.5 -89.5t-218.5 -32q-99 0 -178 20.5t-129 54t-83.5 78.5t-47 90.5t-13.5 92.5v43q0 38 22 60t60 22h207q38 0 60 -22t22 -60v-2q0 -84 80 -84q81 0 81 84v359h-20
q-29 -224 -254 -224zM365 1577v100q0 29 16 45.5t45 16.5h147q29 0 45.5 -16.5t16.5 -45.5v-100q0 -29 -16.5 -45t-45.5 -16h-147q-61 0 -61 61z" />
    <glyph glyph-name="gdotaccent" unicode="&#x121;" horiz-adv-x="991" 
d="M467 254h-27q-70 0 -94 -7t-24 -28v-6q0 -21 22 -27t80 -6h287q272 0 272 -258v-2q0 -68 -22.5 -118.5t-63.5 -83t-106.5 -52t-142.5 -27.5t-181 -8q-99 0 -171.5 7t-135.5 25t-102 49t-61 79t-22 115v20q0 38 22 60t60 22h54q-35 43 -35 113q0 130 100 180
q-156 71 -156 264v4q0 88 33.5 153.5t92.5 103.5t132 56.5t160 18.5h455q38 0 60 -22t22 -60v-51q0 -38 -22 -60t-60 -22h-135v-8q87 -13 120 -50.5t33 -115.5v-6q0 -73 -31 -123t-91.5 -78t-138 -39.5t-183.5 -11.5zM293 -115q0 -45 65 -45h250q31 0 43.5 10.5t12.5 34.5v4
q0 23 -11 32t-45 9h-295h-20v-4v-41zM319 1065v141q0 38 22 60t60 22h189q38 0 60 -22t22 -60v-141q0 -38 -22 -60t-60 -22h-189q-38 0 -60 22t-22 60zM387 549q0 -53 19 -75.5t61 -22.5q41 0 59.5 22.5t18.5 75.5v39q0 54 -18.5 77t-59.5 23q-42 0 -61 -22t-19 -78v-39z
" />
    <glyph glyph-name="uni0122" unicode="&#x122;" horiz-adv-x="974" 
d="M291 442q-129 0 -197.5 91.5t-68.5 257.5v249q0 414 456 414q127 0 218.5 -32t143 -90t74.5 -130t23 -162v-12q0 -38 -22 -60t-60 -22h-213q-38 0 -60 22t-22 60v12q0 56 -19 79.5t-63 23.5q-43 0 -61.5 -24t-18.5 -79v-217q0 -65 18 -91.5t60 -26.5q47 0 66.5 26
t19.5 92q0 38 22 60t60 22h213q38 0 60 -22t22 -60v-446q0 -86 -23 -155.5t-74.5 -126.5t-143 -88.5t-218.5 -31.5q-90 0 -161 16.5t-118 45t-78 69t-44.5 85.5t-13.5 96v22q0 38 22 60t60 22h172q38 0 59.5 -22t21.5 -60v-2q0 -84 80 -84q82 0 82 84v318h-16
q-22 -86 -90 -134.5t-168 -48.5zM272 -444l41 131v147q0 29 16.5 45.5t45.5 16.5h215q29 0 45 -16.5t16 -45.5v-72q0 -39 -20 -75l-94 -160q-23 -41 -74 -41h-139q-32 0 -46.5 19.5t-5.5 50.5z" />
    <glyph glyph-name="uni0123" unicode="&#x123;" horiz-adv-x="991" 
d="M467 254h-27q-70 0 -94 -7t-24 -28v-6q0 -21 22 -27t80 -6h287q272 0 272 -258v-2q0 -68 -22.5 -118.5t-63.5 -83t-106.5 -52t-142.5 -27.5t-181 -8q-99 0 -171.5 7t-135.5 25t-102 49t-61 79t-22 115v20q0 38 22 60t60 22h54q-35 43 -35 113q0 130 100 180
q-156 71 -156 264v4q0 88 33.5 153.5t92.5 103.5t132 56.5t160 18.5h455q38 0 60 -22t22 -60v-51q0 -38 -22 -60t-60 -22h-135v-8q87 -13 120 -50.5t33 -115.5v-6q0 -73 -31 -123t-91.5 -78t-138 -39.5t-183.5 -11.5zM293 -115q0 -45 65 -45h250q31 0 43.5 10.5t12.5 34.5v4
q0 23 -11 32t-45 9h-295h-20v-4v-41zM305 1042v72q0 38 21 76l94 160q23 41 74 41h139q32 0 46 -19.5t5 -50.5l-41 -131v-148q0 -61 -61 -61h-215q-29 0 -45.5 16t-16.5 45zM387 549q0 -53 19 -75.5t61 -22.5q41 0 59.5 22.5t18.5 75.5v39q0 54 -18.5 77t-59.5 23
q-42 0 -61 -22t-19 -78v-39z" />
    <glyph glyph-name="Hcircumflex" unicode="&#x124;" horiz-adv-x="1015" 
d="M426 82q0 -38 -22 -60t-60 -22h-213q-38 0 -60 22t-22 60v1270q0 38 22 60t60 22h213q38 0 60 -22t22 -60v-445h164v445q0 38 22 60t60 22h213q38 0 60 -22t22 -60v-1270q0 -38 -22 -60t-60 -22h-213q-38 0 -60 22t-22 60v510h-164v-510zM201 1585l86 174q24 49 69 49
h301q46 0 70 -49l86 -174q14 -28 -0.5 -48.5t-48.5 -20.5h-150q-45 0 -65 55l-41 121l-43 -121q-9 -24 -33.5 -39.5t-52.5 -15.5h-129q-34 0 -48.5 20.5t-0.5 48.5z" />
    <glyph glyph-name="hcircumflex" unicode="&#x125;" horiz-adv-x="993" 
d="M129 0q-38 0 -60 22t-22 60v1106q0 38 22 60t60 22h203q38 0 60 -22t22 -60v-12q0 -202 -35 -541h8q27 137 107 210t196 73q119 0 190.5 -76.5t71.5 -229.5v-530q0 -38 -22 -60t-60 -22h-202q-38 0 -60 22t-22 60v438q0 82 -70 82q-45 0 -73.5 -35t-28.5 -102v-383
q0 -38 -22 -60t-60 -22h-203zM190 1421l86 174q24 50 70 50h301q46 0 70 -50l86 -174q14 -28 -0.5 -48.5t-48.5 -20.5h-150q-45 0 -65 55l-41 121l-43 -121q-9 -24 -33.5 -39.5t-52.5 -15.5h-129q-34 0 -49 20.5t-1 48.5z" />
    <glyph glyph-name="Hbar" unicode="&#x126;" horiz-adv-x="1015" 
d="M426 82q0 -38 -22 -60t-60 -22h-213q-38 0 -60 22t-22 60v962h-31q-29 0 -45 16.5t-16 45.5v102q0 29 16 45.5t45 16.5h31v82q0 38 22 60t60 22h213q38 0 60 -22t22 -60v-82h164v82q0 38 22 60t60 22h213q38 0 60 -22t22 -60v-82h28q29 0 45.5 -16.5t16.5 -45.5v-102
q0 -29 -16.5 -45.5t-45.5 -16.5h-28v-962q0 -38 -22 -60t-60 -22h-213q-38 0 -60 22t-22 60v510h-164v-510zM426 907h164v137h-164v-137z" />
    <glyph glyph-name="hbar" unicode="&#x127;" horiz-adv-x="993" 
d="M129 0q-38 0 -60 22t-22 60v860h-67q-29 0 -45.5 16.5t-16.5 45.5v12q0 29 16.5 45t45.5 16h67v111q0 38 22 60t60 22h203q38 0 60 -22t22 -60v-12q0 -62 -2 -99h84q61 0 61 -61v-12q0 -29 -16 -45.5t-45 -16.5h-93q-4 -86 -24 -307h8q27 137 107 210t196 73
q119 0 190.5 -76.5t71.5 -229.5v-530q0 -38 -22 -60t-60 -22h-202q-38 0 -60 22t-22 60v438q0 82 -70 82q-45 0 -73.5 -35t-28.5 -102v-383q0 -38 -22 -60t-60 -22h-203z" />
    <glyph glyph-name="Itilde" unicode="&#x128;" horiz-adv-x="475" 
d="M131 0q-38 0 -60 22t-22 60v1270q0 38 22 60t60 22h213q38 0 60 -22t22 -60v-1270q0 -38 -22 -60t-60 -22h-213zM-92 1546v66q0 85 48.5 141.5t139.5 56.5q50 0 106.5 -21t103.5 -42t73 -21q37 0 37 29v10q0 52 61 52h49q62 0 62 -52v-65q0 -85 -49 -142t-140 -57
q-50 0 -106.5 21t-103 42t-72.5 21q-37 0 -37 -29v-10q0 -51 -62 -51h-49q-61 0 -61 51z" />
    <glyph glyph-name="itilde" unicode="&#x129;" horiz-adv-x="460" 
d="M129 0q-38 0 -60 22t-22 60v737q0 38 22 60t60 22h203q38 0 60 -22t22 -60v-737q0 -38 -22 -60t-60 -22h-203zM-109 1028v66q0 85 49 141.5t140 56.5q50 0 106.5 -21t103 -42t72.5 -21q37 0 37 29v10q0 51 62 51h49q61 0 61 -51v-65q0 -85 -48.5 -142t-139.5 -57
q-50 0 -106.5 21t-103.5 42t-73 21q-37 0 -37 -29v-10q0 -51 -61 -51h-49q-62 0 -62 51z" />
    <glyph glyph-name="Imacron" unicode="&#x12a;" horiz-adv-x="475" 
d="M131 0q-38 0 -60 22t-22 60v1270q0 38 22 60t60 22h213q38 0 60 -22t22 -60v-1270q0 -38 -22 -60t-60 -22h-213zM-61 1577v113q0 61 61 61h473q29 0 45.5 -16t16.5 -45v-113q0 -29 -16.5 -45t-45.5 -16h-473q-61 0 -61 61z" />
    <glyph glyph-name="imacron" unicode="&#x12b;" horiz-adv-x="460" 
d="M129 0q-38 0 -60 22t-22 60v737q0 38 22 60t60 22h203q38 0 60 -22t22 -60v-737q0 -38 -22 -60t-60 -22h-203zM-68 1065v72q0 38 22 60t60 22h432q38 0 60 -22t22 -60v-72q0 -38 -22 -60t-60 -22h-432q-38 0 -60 22t-22 60z" />
    <glyph glyph-name="Iogonek" unicode="&#x12e;" horiz-adv-x="475" 
d="M131 0q-38 0 -60 22t-22 60v1270q0 38 22 60t60 22h213q38 0 60 -22t22 -60v-1270q0 -38 -22 -60t-60 -22q-47 0 -47 -74v-18q0 -38 11.5 -53t35.5 -15h8q45 0 45 -47v-72q0 -55 -118 -55q-88 0 -138.5 43t-50.5 127q0 67 28 107.5t97 56.5h-84z" />
    <glyph glyph-name="iogonek" unicode="&#x12f;" horiz-adv-x="460" 
d="M129 0q-38 0 -60 22t-22 60v737q0 38 22 60t60 22h203q38 0 60 -22t22 -60v-737q0 -38 -22 -60t-60 -22h-8q-48 0 -48 -74v-18q0 -38 11.5 -53t36.5 -15h8q45 0 45 -47v-72q0 -55 -119 -55q-87 0 -137.5 43t-50.5 127q0 67 28 107.5t97 56.5h-66zM55 1065v141q0 38 22 60
t60 22h189q38 0 60 -22t22 -60v-141q0 -38 -22 -60t-60 -22h-189q-38 0 -60 22t-22 60z" />
    <glyph glyph-name="Idotaccent" unicode="&#x130;" horiz-adv-x="475" 
d="M131 0q-38 0 -60 22t-22 60v1270q0 38 22 60t60 22h213q38 0 60 -22t22 -60v-1270q0 -38 -22 -60t-60 -22h-213zM106 1577v100q0 29 16.5 45.5t45.5 16.5h147q29 0 45.5 -16.5t16.5 -45.5v-100q0 -29 -16.5 -45t-45.5 -16h-147q-29 0 -45.5 16t-16.5 45z" />
    <glyph glyph-name="dotlessi" unicode="&#x131;" horiz-adv-x="460" 
d="M129 0q-38 0 -60 22t-22 60v737q0 38 22 60t60 22h203q38 0 60 -22t22 -60v-737q0 -38 -22 -60t-60 -22h-203z" />
    <glyph glyph-name="IJ" unicode="&#x132;" horiz-adv-x="1454" 
d="M131 0q-38 0 -60 22t-22 60v1270q0 38 22 60t60 22h213q38 0 60 -22t22 -60v-1270q0 -38 -22 -60t-60 -22h-213zM496 442v220q0 38 22 59.5t60 21.5h213q38 0 59.5 -21.5t21.5 -59.5v-246q0 -52 18.5 -76.5t63.5 -24.5t63.5 23.5t18.5 77.5v678h-233q-38 0 -60 22t-22 60
v176q0 38 22 60t60 22h528q38 0 60 -22t22 -60v-910q0 -84 -14 -152.5t-47 -128t-85 -100t-131 -63.5t-182 -23q-127 0 -218 34t-142.5 98.5t-74.5 146t-23 188.5z" />
    <glyph glyph-name="ij" unicode="&#x133;" horiz-adv-x="921" 
d="M129 0q-38 0 -60 22t-22 60v737q0 38 22 60t60 22h203q38 0 60 -22t22 -60v-737q0 -38 -22 -60t-60 -22h-203zM55 1065v141q0 38 22 60t60 22h189q38 0 60 -22t22 -60v-141q0 -38 -22 -60t-60 -22h-189q-38 0 -60 22t-22 60zM326 -266v147q0 82 82 82q61 0 80.5 18
t19.5 62v776q0 38 22 60t60 22h203q38 0 59.5 -22t21.5 -60v-788q0 -63 -14 -117t-48 -103t-86 -83.5t-133 -55t-185 -20.5q-82 0 -82 82zM506 1065v141q0 38 22 60t60 22h188q38 0 60 -22t22 -60v-141q0 -38 -22 -60t-60 -22h-188q-38 0 -60 22t-22 60z" />
    <glyph glyph-name="Jcircumflex" unicode="&#x134;" horiz-adv-x="978" 
d="M479 -25q-127 0 -218 34t-142.5 98.5t-75 146.5t-23.5 188v220q0 38 22 59.5t60 21.5h213q38 0 60 -21.5t22 -59.5v-246q0 -52 18.5 -76.5t63.5 -24.5t63.5 23.5t18.5 77.5v678h-233q-38 0 -60 22t-22 60v176q0 38 22 60t60 22h528q38 0 60 -22t22 -60v-910
q0 -84 -14 -152.5t-47 -128t-85 -100t-131 -63.5t-182 -23zM289 1585l86 174q24 49 69 49h301q46 0 70 -49l86 -174q14 -28 -0.5 -48.5t-48.5 -20.5h-150q-45 0 -65 55l-41 121l-43 -121q-9 -24 -33.5 -39.5t-52.5 -15.5h-129q-34 0 -48.5 20.5t-0.5 48.5z" />
    <glyph glyph-name="jcircumflex" unicode="&#x135;" horiz-adv-x="460" 
d="M-53 -348q-82 0 -82 82v147q0 82 82 82q61 0 80.5 18t19.5 62v776q0 38 22 60t60 22h203q38 0 60 -22t22 -60v-788q0 -80 -23.5 -145t-75.5 -119t-145.5 -84.5t-222.5 -30.5zM-86 1053l86 174q24 49 70 49h301q45 0 69 -49l86 -174q14 -28 -0.5 -49t-48.5 -21h-149
q-46 0 -66 55l-41 121l-43 -121q-9 -24 -33.5 -39.5t-52.5 -15.5h-129q-34 0 -48.5 21t-0.5 49z" />
    <glyph glyph-name="uni0136" unicode="&#x136;" horiz-adv-x="1009" 
d="M131 0q-38 0 -60 22t-22 60v1270q0 38 22 60t60 22h213q38 0 60 -22t22 -60v-473l164 79v394q0 38 22 60t60 22h213q38 0 60 -22t22 -60v-455q0 -78 -56 -109l-129 -71l133 -127q54 -51 54 -109v-399q0 -38 -22 -60t-60 -22h-213q-38 0 -60 22t-22 60v348l-123 141h-43
v-489q0 -38 -22 -60t-60 -22h-213zM293 -420l41 131v148q0 61 61 61h215q29 0 45.5 -16t16.5 -45v-72q0 -38 -21 -76l-94 -160q-22 -40 -74 -40h-139q-32 0 -46 19t-5 50z" />
    <glyph glyph-name="uni0137" unicode="&#x137;" horiz-adv-x="970" 
d="M129 0q-38 0 -60 22t-22 60v1106q0 38 22 60t60 22h203q38 0 60 -22t22 -60v-660l159 181v110q0 38 22 60t60 22h203q38 0 60 -22t22 -60v-61q0 -64 -39 -103l-158 -157l166 -195q33 -38 33 -102v-119q0 -38 -22 -60t-60 -22h-203q-38 0 -60 22t-22 60v100l-77 107
l-84 -88v-119q0 -38 -22 -60t-60 -22h-203zM274 -420l41 131v148q0 29 16.5 45t45.5 16h215q61 0 61 -61v-72q0 -40 -20 -76l-94 -160q-22 -40 -74 -40h-139q-32 0 -46.5 19t-5.5 50z" />
    <glyph glyph-name="Lacute" unicode="&#x139;" horiz-adv-x="655" 
d="M131 0q-38 0 -60 22t-22 60v1270q0 38 22 60t60 22h213q38 0 60 -22t22 -60v-1012h131q38 0 60 -22t22 -60v-176q0 -38 -22 -60t-60 -22h-426zM100 1587l111 185q28 45 72 45h186q36 0 49.5 -22.5t-6.5 -51.5l-125 -184q-30 -43 -74 -43h-168q-36 0 -49.5 20t4.5 51z" />
    <glyph glyph-name="lacute" unicode="&#x13a;" horiz-adv-x="460" 
d="M129 0q-38 0 -60 22t-22 60v1106q0 38 22 60t60 22h203q38 0 60 -22t22 -60v-1106q0 -38 -22 -60t-60 -22h-203zM98 1423l111 185q28 45 72 45h186q36 0 49.5 -22.5t-6.5 -51.5l-125 -184q-30 -43 -74 -43h-168q-36 0 -49.5 20t4.5 51z" />
    <glyph glyph-name="uni013B" unicode="&#x13b;" horiz-adv-x="655" 
d="M131 0q-38 0 -60 22t-22 60v1270q0 38 22 60t60 22h213q38 0 60 -22t22 -60v-1012h131q38 0 60 -22t22 -60v-176q0 -38 -22 -60t-60 -22h-426zM123 -420l41 131v148q0 61 61 61h215q29 0 45.5 -16t16.5 -45v-72q0 -38 -21 -76l-94 -160q-22 -40 -74 -40h-139
q-32 0 -46 19t-5 50z" />
    <glyph glyph-name="uni013C" unicode="&#x13c;" horiz-adv-x="460" 
d="M129 0q-38 0 -60 22t-22 60v1106q0 38 22 60t60 22h203q38 0 60 -22t22 -60v-1106q0 -38 -22 -60t-60 -22h-203zM20 -420l41 131v148q0 29 16.5 45t45.5 16h215q61 0 61 -61v-72q0 -40 -20 -76l-94 -160q-22 -40 -74 -40h-139q-32 0 -46.5 19t-5.5 50z" />
    <glyph glyph-name="Lcaron" unicode="&#x13d;" horiz-adv-x="655" 
d="M131 0q-38 0 -60 22t-22 60v1270q0 38 22 60t60 22h213q38 0 60 -22t22 -60v-1012h131q38 0 60 -22t22 -60v-176q0 -38 -22 -60t-60 -22h-426zM504 1130l35 246q9 58 65 58h113q33 0 48.5 -19t6.5 -49l-72 -246q-16 -55 -65 -55h-76q-64 0 -55 65z" />
    <glyph glyph-name="lcaron" unicode="&#x13e;" horiz-adv-x="460" 
d="M129 0q-38 0 -60 22t-22 60v1106q0 38 22 60t60 22h203q38 0 60 -22t22 -60v-1106q0 -38 -22 -60t-60 -22h-203zM475 967l35 245q9 58 65 58h113q33 0 48.5 -19t6.5 -49l-71 -246q-16 -55 -66 -55h-76q-64 0 -55 66z" />
    <glyph glyph-name="Lslash" unicode="&#x141;" horiz-adv-x="655" 
d="M131 0q-38 0 -60 22t-22 60v410l-26 -23q-22 -17 -43 -8t-21 35v63q0 27 6.5 40t30.5 34l53 45v674q0 38 22 60t60 22h213q38 0 60 -22t22 -60v-351l25 21q22 18 42.5 9t20.5 -36v-71q0 -27 -6.5 -40t-30.5 -34l-51 -43v-467h131q38 0 60 -22t22 -60v-176q0 -38 -22 -60
t-60 -22h-426z" />
    <glyph glyph-name="lslash" unicode="&#x142;" horiz-adv-x="686" 
d="M240 0q-38 0 -60 22t-22 60v346l-80 -31q-26 -12 -45 -5t-19 32v145v10.5v10t0.5 8.5t1 8.5l1.5 7.5t3 7t5 6t6.5 6t8.5 5t11 5l107 43v502q0 38 22 60t60 22h202q38 0 60 -22t22 -60v-354l84 34q64 24 64 -26v-154q0 -32 -6.5 -48t-30.5 -26l-111 -43v-489
q0 -38 -22 -60t-60 -22h-202z" />
    <glyph glyph-name="Nacute" unicode="&#x143;" horiz-adv-x="1095" 
d="M676 1352q-6 37 17.5 59.5t62.5 22.5h209q38 0 60 -22t22 -60v-1270q0 -38 -22 -60t-60 -22h-291q-36 0 -55 20.5t-31 61.5l-248 942h-33l119 -934q6 -39 -13 -64.5t-57 -25.5h-225q-38 0 -60 22t-22 60v1270q0 38 22 60t60 22h287q36 0 54 -20.5t30 -61.5l268 -942h37z
M416 1587l110 185q28 45 72 45h186q36 0 49.5 -22.5t-6.5 -51.5l-125 -184q-30 -43 -73 -43h-168q-36 0 -49.5 20t4.5 51z" />
    <glyph glyph-name="nacute" unicode="&#x144;" horiz-adv-x="997" 
d="M133 0q-38 0 -60 22t-22 60v393l-18 342q-3 84 80 84h176q38 0 60 -22t22 -60v-301h8q6 192 91.5 296t223.5 104q119 0 190.5 -76.5t71.5 -229.5v-530q0 -38 -22 -60t-60 -22h-202q-38 0 -60 22t-22 60v438q0 82 -70 82q-45 0 -73.5 -35t-28.5 -102v-383q0 -38 -22 -60
t-60 -22h-203zM365 1055l110 184q28 45 72 45h186q36 0 49.5 -22.5t-6.5 -51.5l-125 -184q-30 -43 -73 -43h-168q-36 0 -49.5 20.5t4.5 51.5z" />
    <glyph glyph-name="uni0145" unicode="&#x145;" horiz-adv-x="1095" 
d="M676 1352q-6 37 17.5 59.5t62.5 22.5h209q38 0 60 -22t22 -60v-1270q0 -38 -22 -60t-60 -22h-291q-36 0 -55 20.5t-31 61.5l-248 942h-33l119 -934q6 -39 -13 -64.5t-57 -25.5h-225q-38 0 -60 22t-22 60v1270q0 38 22 60t60 22h287q36 0 54 -20.5t30 -61.5l268 -942h37z
M338 -420l41 131v148q0 61 61 61h215q29 0 45.5 -16t16.5 -45v-72q0 -38 -21 -76l-94 -160q-22 -40 -74 -40h-139q-32 0 -46 19t-5 50z" />
    <glyph glyph-name="uni0146" unicode="&#x146;" horiz-adv-x="997" 
d="M133 0q-38 0 -60 22t-22 60v393l-18 342q-3 84 80 84h176q38 0 60 -22t22 -60v-301h8q6 192 91.5 296t223.5 104q119 0 190.5 -76.5t71.5 -229.5v-530q0 -38 -22 -60t-60 -22h-202q-38 0 -60 22t-22 60v438q0 82 -70 82q-45 0 -73.5 -35t-28.5 -102v-383q0 -38 -22 -60
t-60 -22h-203zM289 -420l41 131v148q0 61 61 61h215q29 0 45.5 -16t16.5 -45v-72q0 -38 -21 -76l-94 -160q-22 -40 -74 -40h-139q-32 0 -46 19t-5 50z" />
    <glyph glyph-name="Ncaron" unicode="&#x147;" horiz-adv-x="1095" 
d="M676 1352q-6 37 17.5 59.5t62.5 22.5h209q38 0 60 -22t22 -60v-1270q0 -38 -22 -60t-60 -22h-291q-36 0 -55 20.5t-31 61.5l-248 942h-33l119 -934q6 -39 -13 -64.5t-57 -25.5h-225q-38 0 -60 22t-22 60v1270q0 38 22 60t60 22h287q36 0 54 -20.5t30 -61.5l268 -942h37z
M240 1757q-14 28 0.5 49t48.5 21h149q46 0 66 -55l43 -121l41 121q9 24 33.5 39.5t52.5 15.5h129q34 0 48.5 -21t0.5 -49l-86 -174q-24 -49 -70 -49h-301q-45 0 -69 49z" />
    <glyph glyph-name="ncaron" unicode="&#x148;" horiz-adv-x="997" 
d="M133 0q-38 0 -60 22t-22 60v393l-18 342q-3 84 80 84h176q38 0 60 -22t22 -60v-301h8q6 192 91.5 296t223.5 104q119 0 190.5 -76.5t71.5 -229.5v-530q0 -38 -22 -60t-60 -22h-202q-38 0 -60 22t-22 60v438q0 82 -70 82q-45 0 -73.5 -35t-28.5 -102v-383q0 -38 -22 -60
t-60 -22h-203zM193 1206q-14 28 0.5 49t48.5 21h149q46 0 66 -55l43 -121l41 121q9 24 33.5 39.5t52.5 15.5h129q34 0 48.5 -21t0.5 -49l-86 -174q-24 -49 -70 -49h-301q-45 0 -69 49z" />
    <glyph glyph-name="Omacron" unicode="&#x14c;" horiz-adv-x="987" 
d="M494 -25q-127 0 -218 34t-142.5 98.5t-75 146.5t-23.5 188v545q0 106 23.5 188t75 146.5t142.5 98.5t218 34t218 -34t142.5 -98.5t74.5 -146t23 -188.5v-545q0 -84 -14 -152.5t-47 -128t-84.5 -100t-130.5 -63.5t-182 -23zM195 1577v113q0 61 61 61h473q29 0 45.5 -16
t16.5 -45v-113q0 -29 -16.5 -45t-45.5 -16h-473q-61 0 -61 61zM412 416q0 -52 18.5 -76.5t63.5 -24.5t63 23.5t18 77.5v596q0 54 -18 78t-63 24t-63.5 -24t-18.5 -78v-596z" />
    <glyph glyph-name="omacron" unicode="&#x14d;" horiz-adv-x="954" 
d="M477 -25q-72 0 -135 12.5t-121.5 43t-100 76.5t-66.5 117t-25 161v123q0 111 37.5 193.5t102.5 128t141.5 67t166.5 21.5q71 0 134 -12.5t122 -43t101 -76.5t67 -117t25 -161v-123q0 -90 -25 -161t-67 -117t-100.5 -76.5t-121.5 -43t-135 -12.5zM178 1065v72q0 38 22 60
t60 22h432q38 0 60 -22t22 -60v-72q0 -38 -22 -60t-60 -22h-432q-38 0 -60 22t-22 60zM395 369q0 -53 19 -77t63 -24t63 24t19 77v153q0 53 -19 78t-63 25t-63 -25t-19 -78v-153z" />
    <glyph glyph-name="Ohungarumlaut" unicode="&#x150;" horiz-adv-x="987" 
d="M494 -25q-127 0 -218 34t-142.5 98.5t-75 146.5t-23.5 188v545q0 106 23.5 188t75 146.5t142.5 98.5t218 34t218 -34t142.5 -98.5t74.5 -146t23 -188.5v-545q0 -84 -14 -152.5t-47 -128t-84.5 -100t-130.5 -63.5t-182 -23zM295 1614l51 180q14 51 68 51h67
q34 0 47.5 -18.5t3.5 -50.5l-65 -183q-17 -49 -72 -49h-49q-32 0 -46 19.5t-5 50.5zM412 416q0 -52 18.5 -76.5t63.5 -24.5t63 23.5t18 77.5v596q0 54 -18 78t-63 24t-63.5 -24t-18.5 -78v-596zM561 1614l51 180q14 51 68 51h68q34 0 47.5 -18.5t3.5 -50.5l-66 -183
q-17 -49 -71 -49h-50q-32 0 -46 19.5t-5 50.5z" />
    <glyph glyph-name="ohungarumlaut" unicode="&#x151;" horiz-adv-x="954" 
d="M477 -25q-72 0 -135 12.5t-121.5 43t-100 76.5t-66.5 117t-25 161v123q0 111 37.5 193.5t102.5 128t141.5 67t166.5 21.5q71 0 134 -12.5t122 -43t101 -76.5t67 -117t25 -161v-123q0 -90 -25 -161t-67 -117t-100.5 -76.5t-121.5 -43t-135 -12.5zM279 1053l51 180
q14 51 67 51h68q34 0 47.5 -19t3.5 -51l-65 -182q-17 -49 -72 -49h-49q-32 0 -46 19.5t-5 50.5zM395 369q0 -53 19 -77t63 -24t63 24t19 77v153q0 53 -19 78t-63 25t-63 -25t-19 -78v-153zM545 1053l51 180q14 51 68 51h67q34 0 47.5 -19t3.5 -51l-65 -182q-17 -49 -72 -49
h-49q-32 0 -46 19.5t-5 50.5z" />
    <glyph glyph-name="OE" unicode="&#x152;" horiz-adv-x="1232" 
d="M494 -25q-127 0 -218 34t-142.5 98.5t-75 146.5t-23.5 188v545q0 106 23.5 188t75 146.5t142.5 98.5t218 34q104 0 174 -20h456q38 0 60 -22t22 -60v-176q0 -38 -22 -60t-60 -22h-172v-207h138q38 0 59.5 -22t21.5 -60v-176q0 -38 -21.5 -60t-59.5 -22h-138v-207h172
q38 0 60 -22t22 -60v-176q0 -38 -22 -60t-60 -22h-442q-83 -25 -188 -25zM412 416q0 -52 18.5 -76.5t63.5 -24.5t63 23.5t18 77.5v596q0 54 -18 78t-63 24t-63.5 -24t-18.5 -78v-596z" />
    <glyph glyph-name="oe" unicode="&#x153;" horiz-adv-x="1476" 
d="M477 -25q-72 0 -135 12.5t-121.5 43t-100 76.5t-66.5 117t-25 161v123q0 111 37.5 193.5t102.5 128t141.5 67t166.5 21.5q147 0 256 -56q105 58 275 58q72 0 134.5 -10.5t120.5 -37t99 -67t65.5 -105t24.5 -147.5v-31q0 -38 -21.5 -62.5t-60.5 -27.5l-444 -29v-124
q0 -31 20.5 -51.5t61.5 -20.5q82 0 82 72q0 38 21.5 59.5t59.5 21.5h199q38 0 60 -21.5t22 -59.5v-15q0 -98 -65 -165t-162 -95.5t-217 -28.5q-159 0 -271 56q-109 -56 -260 -56zM395 369q0 -53 19 -77t63 -24t63 24t19 77v153q0 53 -19 78t-63 25t-63 -25t-19 -78v-153z
M926 535l164 12v53q0 45 -19.5 67.5t-62.5 22.5q-82 0 -82 -90v-65z" />
    <glyph glyph-name="Racute" unicode="&#x154;" horiz-adv-x="997" 
d="M131 0q-38 0 -60 22t-22 60v1270q0 38 22 60t60 22h367q127 0 218.5 -29.5t142.5 -82.5t74 -117t23 -142v-111q0 -55 -14.5 -103t-44 -87.5t-80.5 -62.5t-119 -23v-31q62 0 110.5 -15t78 -39.5t48.5 -58t26.5 -66.5t7.5 -69v-315q0 -38 -22 -60t-60 -22h-215
q-38 0 -60 22t-22 60v346q0 47 -18 69.5t-80 22.5h-66v-438q0 -38 -22 -60t-60 -22h-213zM362 1587l111 185q28 45 72 45h186q36 0 49.5 -22.5t-6.5 -51.5l-125 -184q-30 -43 -74 -43h-167q-36 0 -50 20t4 51zM426 801h55q57 0 78 19.5t21 72.5v121q0 80 -82 80h-72v-293z
" />
    <glyph glyph-name="racute" unicode="&#x155;" horiz-adv-x="692" 
d="M133 0q-38 0 -60 22t-22 60v393l-18 342q-3 84 80 84h182q38 0 60 -22t22 -60v-194h8q10 112 78 194t145 82q31 0 49.5 -18t18.5 -49v-175q0 -38 -22 -59.5t-60 -21.5h-176v-496q0 -38 -22 -60t-60 -22h-203zM211 1055l111 184q28 45 71 45h187q36 0 49.5 -22.5
t-6.5 -51.5l-125 -184q-30 -43 -74 -43h-168q-36 0 -49.5 20.5t4.5 51.5z" />
    <glyph glyph-name="uni0156" unicode="&#x156;" horiz-adv-x="997" 
d="M131 0q-38 0 -60 22t-22 60v1270q0 38 22 60t60 22h367q127 0 218.5 -29.5t142.5 -82.5t74 -117t23 -142v-111q0 -55 -14.5 -103t-44 -87.5t-80.5 -62.5t-119 -23v-31q62 0 110.5 -15t78 -39.5t48.5 -58t26.5 -66.5t7.5 -69v-315q0 -38 -22 -60t-60 -22h-215
q-38 0 -60 22t-22 60v346q0 47 -18 69.5t-80 22.5h-66v-438q0 -38 -22 -60t-60 -22h-213zM285 -420l41 131v148q0 61 61 61h215q29 0 45.5 -16t16.5 -45v-72q0 -38 -21 -76l-94 -160q-22 -40 -74 -40h-139q-32 0 -46 19t-5 50zM426 801h55q57 0 78 19.5t21 72.5v121
q0 80 -82 80h-72v-293z" />
    <glyph glyph-name="uni0157" unicode="&#x157;" horiz-adv-x="692" 
d="M133 0q-38 0 -60 22t-22 60v393l-18 342q-3 84 80 84h182q38 0 60 -22t22 -60v-194h8q10 112 78 194t145 82q31 0 49.5 -18t18.5 -49v-175q0 -38 -22 -59.5t-60 -21.5h-176v-496q0 -38 -22 -60t-60 -22h-203zM25 -420l41 131v148q0 61 61 61h215q61 0 61 -61v-72
q0 -40 -20 -76l-94 -160q-22 -40 -74 -40h-139q-32 0 -46 19t-5 50z" />
    <glyph glyph-name="Rcaron" unicode="&#x158;" horiz-adv-x="997" 
d="M131 0q-38 0 -60 22t-22 60v1270q0 38 22 60t60 22h367q127 0 218.5 -29.5t142.5 -82.5t74 -117t23 -142v-111q0 -55 -14.5 -103t-44 -87.5t-80.5 -62.5t-119 -23v-31q62 0 110.5 -15t78 -39.5t48.5 -58t26.5 -66.5t7.5 -69v-315q0 -38 -22 -60t-60 -22h-215
q-38 0 -60 22t-22 60v346q0 47 -18 69.5t-80 22.5h-66v-438q0 -38 -22 -60t-60 -22h-213zM186 1757q-14 28 1 49t49 21h149q46 0 66 -55l43 -121l41 121q9 24 33.5 39.5t52.5 15.5h129q34 0 48.5 -21t0.5 -49l-86 -174q-24 -49 -70 -49h-301q-46 0 -70 49zM426 801h55
q57 0 78 19.5t21 72.5v121q0 80 -82 80h-72v-293z" />
    <glyph glyph-name="rcaron" unicode="&#x159;" horiz-adv-x="692" 
d="M133 0q-38 0 -60 22t-22 60v393l-18 342q-3 84 80 84h182q38 0 60 -22t22 -60v-194h8q10 112 78 194t145 82q31 0 49.5 -18t18.5 -49v-175q0 -38 -22 -59.5t-60 -21.5h-176v-496q0 -38 -22 -60t-60 -22h-203zM39 1206q-14 28 0.5 49t48.5 21h150q45 0 65 -55l43 -121
l41 121q9 24 33.5 39.5t52.5 15.5h129q34 0 48.5 -21t0.5 -49l-86 -174q-24 -49 -69 -49h-301q-46 0 -70 49z" />
    <glyph glyph-name="Sacute" unicode="&#x15a;" horiz-adv-x="966" 
d="M481 -25q-456 0 -456 406v47q0 38 21.5 60t59.5 22h213q38 0 60 -22t22 -60v-39q0 -55 18.5 -78.5t61.5 -23.5q44 0 63 23.5t19 78.5v29q0 57 -29.5 83.5t-123.5 63.5l-131 51q-135 53 -194.5 136t-59.5 209v79q0 414 456 414q127 0 218.5 -32t143 -90t74.5 -130t23 -162
v-51q0 -38 -22 -60t-60 -22h-213q-38 0 -60 22t-22 60v51q0 56 -19 79.5t-63 23.5q-43 0 -61.5 -24t-18.5 -79v-26q0 -57 30 -84t124 -64l131 -51q135 -53 194.5 -135.5t59.5 -208.5v-94q0 -86 -23 -155.5t-74.5 -126.5t-143 -88.5t-218.5 -31.5zM350 1587l111 185
q28 45 71 45h187q36 0 49.5 -22.5t-6.5 -51.5l-125 -184q-30 -43 -74 -43h-168q-36 0 -49.5 20t4.5 51z" />
    <glyph glyph-name="sacute" unicode="&#x15b;" horiz-adv-x="913" 
d="M455 -18q-212 0 -321 65t-109 174v19q0 38 21.5 60t59.5 22h177q38 0 60 -22t22 -60q0 -19 20.5 -31t60.5 -12q80 0 80 59v14q0 23 -16 38.5t-59 23.5l-164 35q-70 15 -114 31.5t-80.5 44.5t-53 70.5t-16.5 104.5v19q0 127 121.5 204t312.5 77q201 0 311.5 -71
t110.5 -179v-31q0 -38 -22 -60t-60 -22h-176q-38 0 -60 22t-22 60q0 31 -21 48t-61 17q-80 0 -80 -65v-21q0 -54 76 -69l163 -35q142 -31 209.5 -78.5t67.5 -144.5v-19q0 -43 -14.5 -83t-48 -77.5t-83 -65.5t-125 -45t-167.5 -17zM322 1055l110 184q28 45 72 45h186
q36 0 49.5 -22.5t-6.5 -51.5l-125 -184q-30 -43 -73 -43h-168q-36 0 -49.5 20.5t4.5 51.5z" />
    <glyph glyph-name="Scircumflex" unicode="&#x15c;" horiz-adv-x="966" 
d="M481 -25q-456 0 -456 406v47q0 38 21.5 60t59.5 22h213q38 0 60 -22t22 -60v-39q0 -55 18.5 -78.5t61.5 -23.5q44 0 63 23.5t19 78.5v29q0 57 -29.5 83.5t-123.5 63.5l-131 51q-135 53 -194.5 136t-59.5 209v79q0 414 456 414q127 0 218.5 -32t143 -90t74.5 -130t23 -162
v-51q0 -38 -22 -60t-60 -22h-213q-38 0 -60 22t-22 60v51q0 56 -19 79.5t-63 23.5q-43 0 -61.5 -24t-18.5 -79v-26q0 -57 30 -84t124 -64l131 -51q135 -53 194.5 -135.5t59.5 -208.5v-94q0 -86 -23 -155.5t-74.5 -126.5t-143 -88.5t-218.5 -31.5zM176 1585l86 174
q24 49 70 49h301q45 0 69 -49l86 -174q14 -28 -0.5 -48.5t-48.5 -20.5h-149q-46 0 -66 55l-41 121l-43 -121q-9 -24 -33.5 -39.5t-52.5 -15.5h-129q-34 0 -48.5 20.5t-0.5 48.5z" />
    <glyph glyph-name="scircumflex" unicode="&#x15d;" horiz-adv-x="913" 
d="M455 -18q-212 0 -321 65t-109 174v19q0 38 21.5 60t59.5 22h177q38 0 60 -22t22 -60q0 -19 20.5 -31t60.5 -12q80 0 80 59v14q0 23 -16 38.5t-59 23.5l-164 35q-70 15 -114 31.5t-80.5 44.5t-53 70.5t-16.5 104.5v19q0 127 121.5 204t312.5 77q201 0 311.5 -71
t110.5 -179v-31q0 -38 -22 -60t-60 -22h-176q-38 0 -60 22t-22 60q0 31 -21 48t-61 17q-80 0 -80 -65v-21q0 -54 76 -69l163 -35q142 -31 209.5 -78.5t67.5 -144.5v-19q0 -43 -14.5 -83t-48 -77.5t-83 -65.5t-125 -45t-167.5 -17zM150 1053l86 174q24 49 69 49h301
q46 0 70 -49l86 -174q14 -28 -0.5 -49t-48.5 -21h-150q-45 0 -65 55l-41 121l-43 -121q-9 -24 -33.5 -39.5t-52.5 -15.5h-129q-34 0 -48.5 21t-0.5 49z" />
    <glyph glyph-name="Scedilla" unicode="&#x15e;" horiz-adv-x="966" 
d="M492 -410q-160 0 -160 105v4q0 28 15 39.5t46 11.5h21q61 0 61 -37v-6q0 -16 21 -16q18 0 18 18v96q0 33 -22 33q-20 0 -29 -26q-11 -25 -41 -25h-43q-47 0 -39 55l25 142q-340 49 -340 397v47q0 38 21.5 60t59.5 22h213q38 0 60 -22t22 -60v-39q0 -55 18.5 -78.5
t61.5 -23.5q44 0 63 23.5t19 78.5v29q0 57 -29.5 83.5t-123.5 63.5l-131 51q-135 53 -194.5 136t-59.5 209v79q0 414 456 414q127 0 218.5 -32t143 -90t74.5 -130t23 -162v-51q0 -38 -22 -60t-60 -22h-213q-38 0 -60 22t-22 60v51q0 56 -19 79.5t-63 23.5q-43 0 -61.5 -24
t-18.5 -79v-26q0 -57 30 -84t124 -64l131 -51q135 -53 194.5 -135.5t59.5 -208.5v-94q0 -68 -13.5 -125t-46.5 -108.5t-83.5 -88t-129 -58t-178.5 -22.5l-14 -84h10q30 50 97 50q39 0 57 -24.5t18 -57.5v-146q0 -59 -41 -91t-124 -32z" />
    <glyph glyph-name="scedilla" unicode="&#x15f;" horiz-adv-x="913" 
d="M465 -410q-160 0 -160 105v4q0 51 62 51h20q62 0 62 -37v-6q0 -10 4.5 -13t15.5 -3q18 0 18 18v96q0 33 -22 33q-20 0 -29 -26q-11 -25 -41 -25h-43q-47 0 -39 55l25 146q-155 17 -234 79t-79 154v19q0 38 21.5 60t59.5 22h177q38 0 60 -22t22 -60q0 -19 20.5 -31
t60.5 -12q80 0 80 59v14q0 23 -16 38.5t-59 23.5l-164 35q-70 15 -114 31.5t-80.5 44.5t-53 70.5t-16.5 104.5v19q0 127 121.5 204t312.5 77q201 0 311.5 -71t110.5 -179v-31q0 -38 -22 -60t-60 -22h-176q-38 0 -60 22t-22 60q0 31 -21 48t-61 17q-80 0 -80 -65v-21
q0 -54 76 -69l163 -35q142 -31 209.5 -78.5t67.5 -144.5v-19q0 -53 -24 -102t-72.5 -91t-134 -68t-197.5 -27l-16 -91h10q30 50 96 50q39 0 57.5 -24.5t18.5 -57.5v-146q0 -58 -41.5 -90.5t-124.5 -32.5z" />
    <glyph glyph-name="Scaron" unicode="&#x160;" horiz-adv-x="966" 
d="M481 -25q-456 0 -456 406v47q0 38 21.5 60t59.5 22h213q38 0 60 -22t22 -60v-39q0 -55 18.5 -78.5t61.5 -23.5q44 0 63 23.5t19 78.5v29q0 57 -29.5 83.5t-123.5 63.5l-131 51q-135 53 -194.5 136t-59.5 209v79q0 414 456 414q127 0 218.5 -32t143 -90t74.5 -130t23 -162
v-51q0 -38 -22 -60t-60 -22h-213q-38 0 -60 22t-22 60v51q0 56 -19 79.5t-63 23.5q-43 0 -61.5 -24t-18.5 -79v-26q0 -57 30 -84t124 -64l131 -51q135 -53 194.5 -135.5t59.5 -208.5v-94q0 -86 -23 -155.5t-74.5 -126.5t-143 -88.5t-218.5 -31.5zM174 1757q-14 28 0.5 49
t48.5 21h150q45 0 65 -55l43 -121l41 121q9 24 33.5 39.5t52.5 15.5h129q34 0 48.5 -21t0.5 -49l-86 -174q-24 -49 -69 -49h-301q-46 0 -70 49z" />
    <glyph glyph-name="scaron" unicode="&#x161;" horiz-adv-x="913" 
d="M455 -18q-212 0 -321 65t-109 174v19q0 38 21.5 60t59.5 22h177q38 0 60 -22t22 -60q0 -19 20.5 -31t60.5 -12q80 0 80 59v14q0 23 -16 38.5t-59 23.5l-164 35q-70 15 -114 31.5t-80.5 44.5t-53 70.5t-16.5 104.5v19q0 127 121.5 204t312.5 77q201 0 311.5 -71
t110.5 -179v-31q0 -38 -22 -60t-60 -22h-176q-38 0 -60 22t-22 60q0 31 -21 48t-61 17q-80 0 -80 -65v-21q0 -54 76 -69l163 -35q142 -31 209.5 -78.5t67.5 -144.5v-19q0 -43 -14.5 -83t-48 -77.5t-83 -65.5t-125 -45t-167.5 -17zM150 1206q-14 28 0.5 49t48.5 21h149
q46 0 66 -55l43 -121l41 121q9 24 33.5 39.5t52.5 15.5h129q34 0 48.5 -21t0.5 -49l-86 -174q-24 -49 -70 -49h-301q-45 0 -69 49z" />
    <glyph glyph-name="uni0162" unicode="&#x162;" horiz-adv-x="759" 
d="M16 1176v176q0 38 22 60t60 22h564q38 0 59.5 -22t21.5 -60v-176q0 -38 -21.5 -60t-59.5 -22h-95v-1012q0 -38 -22 -60t-60 -22h-92l-20 -109h10q30 50 96 50q39 0 57.5 -24.5t18.5 -57.5v-146q0 -58 -41.5 -90.5t-124.5 -32.5q-160 0 -160 105v4q0 51 62 51h20
q62 0 62 -37v-6q0 -10 4.5 -13t15.5 -3q19 0 19 18v96q0 33 -23 33q-20 0 -29 -26q-11 -25 -41 -25h-43q-46 0 -38 55l26 158q-35 3 -54.5 24t-19.5 58v1012h-92q-38 0 -60 22t-22 60z" />
    <glyph glyph-name="uni0163" unicode="&#x163;" horiz-adv-x="894" 
d="M518 -16h-16l-17 -93h11q30 50 96 50q39 0 57.5 -24.5t18.5 -57.5v-146q0 -58 -41.5 -90.5t-124.5 -32.5q-160 0 -160 105v4q0 28 15 39.5t46 11.5h21q61 0 61 -37v-6q0 -16 21 -16q18 0 18 18v96q0 33 -22 33q-20 0 -29 -26q-11 -25 -41 -25h-43q-47 0 -39 55l27 158
q-114 31 -165.5 128t-51.5 278v182h-60q-38 0 -60 22t-22 60v149q0 38 22 60t60 22q52 0 78.5 5t49.5 30t36 63t33 117q13 50 37.5 74t71.5 24h38q38 0 60 -21.5t22 -59.5v-232h250q38 0 60 -22t22 -60v-149q0 -38 -22 -60t-60 -22h-250v-219q0 -72 54 -72q57 0 57 70v67
q0 38 22 60t60 22h59q38 0 60 -22t22 -60v-45q0 -213 -81.5 -309t-260.5 -96z" />
    <glyph glyph-name="Tcaron" unicode="&#x164;" horiz-adv-x="759" 
d="M272 0q-38 0 -60 22t-22 60v1012h-92q-38 0 -60 22t-22 60v176q0 38 22 60t60 22h564q38 0 59.5 -22t21.5 -60v-176q0 -38 -21.5 -60t-59.5 -22h-95v-1012q0 -38 -22 -60t-60 -22h-213zM72 1757q-14 28 0.5 49t48.5 21h149q46 0 66 -55l43 -121l41 121q9 24 33.5 39.5
t52.5 15.5h129q34 0 48.5 -21t0.5 -49l-86 -174q-24 -49 -70 -49h-301q-45 0 -69 49z" />
    <glyph glyph-name="tcaron" unicode="&#x165;" horiz-adv-x="894" 
d="M518 -16q-191 0 -274.5 97.5t-83.5 324.5v182h-60q-38 0 -60 22t-22 60v149q0 38 22 60t60 22q52 0 78.5 5t49.5 30t36 63t33 117q13 50 37.5 74t71.5 24h38q38 0 60 -21.5t22 -59.5v-232h250q38 0 60 -22t22 -60v-149q0 -38 -22 -60t-60 -22h-250v-219q0 -72 54 -72
q57 0 57 70v67q0 38 22 60t60 22h59q38 0 60 -22t22 -60v-45q0 -213 -81.5 -309t-260.5 -96zM559 1272l39 233q9 56 68 56h118q32 0 47 -18.5t7 -49.5l-60 -233q-15 -54 -67 -54h-97q-31 0 -45.5 17.5t-9.5 48.5z" />
    <glyph glyph-name="Utilde" unicode="&#x168;" 
d="M500 -25q-127 0 -218 34t-142.5 98.5t-75 146.5t-23.5 188v910q0 38 22 60t60 22h213q38 0 60 -22t22 -60v-936q0 -52 18.5 -76.5t63.5 -24.5t63.5 23.5t18.5 77.5v936q0 38 22 60t60 22h213q38 0 59.5 -22t21.5 -60v-910q0 -84 -14 -152.5t-47 -128t-84.5 -100
t-130.5 -63.5t-182 -23zM170 1546v66q0 85 48.5 141.5t139.5 56.5q50 0 106.5 -21t103.5 -42t73 -21q37 0 37 29v10q0 52 61 52h49q62 0 62 -52v-65q0 -85 -48.5 -142t-139.5 -57q-50 0 -106.5 21t-103.5 42t-73 21q-37 0 -37 -29v-10q0 -51 -61 -51h-50q-61 0 -61 51z" />
    <glyph glyph-name="utilde" unicode="&#x169;" horiz-adv-x="997" 
d="M864 901q38 0 60 -22t22 -60v-393l19 -342q3 -84 -80 -84h-176q-38 0 -60 22t-22 60v301h-9q-6 -192 -91 -295.5t-224 -103.5q-119 0 -190.5 76t-71.5 229v530q0 38 22 60t60 22h203q38 0 60 -22t22 -60v-438q0 -82 69 -82q45 0 74 35t29 102v383q0 38 22 60t60 22h202z
M135 1028v66q0 85 49 141.5t140 56.5q50 0 106.5 -21t103 -42t72.5 -21q37 0 37 29v10q0 51 62 51h49q61 0 61 -51v-65q0 -85 -48.5 -142t-139.5 -57q-50 0 -106.5 21t-103.5 42t-73 21q-37 0 -37 -29v-10q0 -51 -61 -51h-49q-62 0 -62 51z" />
    <glyph glyph-name="Umacron" unicode="&#x16a;" 
d="M500 -25q-127 0 -218 34t-142.5 98.5t-75 146.5t-23.5 188v910q0 38 22 60t60 22h213q38 0 60 -22t22 -60v-936q0 -52 18.5 -76.5t63.5 -24.5t63.5 23.5t18.5 77.5v936q0 38 22 60t60 22h213q38 0 59.5 -22t21.5 -60v-910q0 -84 -14 -152.5t-47 -128t-84.5 -100
t-130.5 -63.5t-182 -23zM201 1577v113q0 61 61 61h473q29 0 45.5 -16t16.5 -45v-113q0 -29 -16.5 -45t-45.5 -16h-473q-61 0 -61 61z" />
    <glyph glyph-name="umacron" unicode="&#x16b;" horiz-adv-x="997" 
d="M864 901q38 0 60 -22t22 -60v-393l19 -342q3 -84 -80 -84h-176q-38 0 -60 22t-22 60v301h-9q-6 -192 -91 -295.5t-224 -103.5q-119 0 -190.5 76t-71.5 229v530q0 38 22 60t60 22h203q38 0 60 -22t22 -60v-438q0 -82 69 -82q45 0 74 35t29 102v383q0 38 22 60t60 22h202z
M176 1065v72q0 38 22 60t60 22h432q38 0 60 -22t22 -60v-72q0 -38 -22 -60t-60 -22h-432q-38 0 -60 22t-22 60z" />
    <glyph glyph-name="Ubreve" unicode="&#x16c;" 
d="M500 -25q-127 0 -218 34t-142.5 98.5t-75 146.5t-23.5 188v910q0 38 22 60t60 22h213q38 0 60 -22t22 -60v-936q0 -52 18.5 -76.5t63.5 -24.5t63.5 23.5t18.5 77.5v936q0 38 22 60t60 22h213q38 0 59.5 -22t21.5 -60v-910q0 -84 -14 -152.5t-47 -128t-84.5 -100
t-130.5 -63.5t-182 -23zM227 1712v19q0 57 72 57h59q74 0 74 -57v-19q0 -51 68 -51q67 0 67 51v19q0 57 74 57h59q72 0 72 -57v-19q0 -112 -72 -157.5t-200 -45.5t-200.5 45.5t-72.5 157.5z" />
    <glyph glyph-name="ubreve" unicode="&#x16d;" horiz-adv-x="997" 
d="M864 901q38 0 60 -22t22 -60v-393l19 -342q3 -84 -80 -84h-176q-38 0 -60 22t-22 60v301h-9q-6 -192 -91 -295.5t-224 -103.5q-119 0 -190.5 76t-71.5 229v530q0 38 22 60t60 22h203q38 0 60 -22t22 -60v-438q0 -82 69 -82q45 0 74 35t29 102v383q0 38 22 60t60 22h202z
M205 1178v18q0 57 71 57h60q74 0 74 -57v-18q0 -52 67 -52q68 0 68 52v18q0 57 73 57h60q72 0 72 -57v-18q0 -112 -72.5 -157.5t-200.5 -45.5t-200 45.5t-72 157.5z" />
    <glyph glyph-name="Uring" unicode="&#x16e;" 
d="M500 -25q-127 0 -218 34t-142.5 98.5t-75 146.5t-23.5 188v910q0 38 22 60t60 22h213q38 0 60 -22t22 -60v-936q0 -52 18.5 -76.5t63.5 -24.5t63.5 23.5t18.5 77.5v936q0 38 22 60t60 22h213q38 0 59.5 -22t21.5 -60v-910q0 -84 -14 -152.5t-47 -128t-84.5 -100
t-130.5 -63.5t-182 -23zM274 1704q0 93 61 152t165 59t164.5 -59t60.5 -152t-60.5 -152t-164.5 -59t-165 59t-61 152zM436 1704q0 -28 17 -45t47 -17t46.5 17.5t16.5 44.5q0 28 -16.5 45.5t-46.5 17.5t-47 -16.5t-17 -46.5z" />
    <glyph glyph-name="uring" unicode="&#x16f;" horiz-adv-x="997" 
d="M864 901q38 0 60 -22t22 -60v-393l19 -342q3 -84 -80 -84h-176q-38 0 -60 22t-22 60v301h-9q-6 -192 -91 -295.5t-224 -103.5q-119 0 -190.5 76t-71.5 229v530q0 38 22 60t60 22h203q38 0 60 -22t22 -60v-438q0 -82 69 -82q45 0 74 35t29 102v383q0 38 22 60t60 22h202z
M250 1184q0 93 60.5 152t164.5 59t164.5 -59t60.5 -152t-60.5 -152t-164.5 -59t-164.5 59t-60.5 152zM412 1184q0 -30 16.5 -47t46.5 -17t47 17t17 47t-16.5 46.5t-47.5 16.5q-30 0 -46.5 -16.5t-16.5 -46.5z" />
    <glyph glyph-name="Uhungarumlaut" unicode="&#x170;" 
d="M500 -25q-127 0 -218 34t-142.5 98.5t-75 146.5t-23.5 188v910q0 38 22 60t60 22h213q38 0 60 -22t22 -60v-936q0 -52 18.5 -76.5t63.5 -24.5t63.5 23.5t18.5 77.5v936q0 38 22 60t60 22h213q38 0 59.5 -22t21.5 -60v-910q0 -84 -14 -152.5t-47 -128t-84.5 -100
t-130.5 -63.5t-182 -23zM301 1614l51 180q14 51 68 51h67q34 0 48 -18.5t4 -50.5l-66 -183q-17 -49 -72 -49h-49q-32 0 -46 19.5t-5 50.5zM567 1614l51 180q14 51 68 51h68q34 0 47.5 -18.5t3.5 -50.5l-66 -183q-17 -49 -71 -49h-50q-32 0 -46 19.5t-5 50.5z" />
    <glyph glyph-name="uhungarumlaut" unicode="&#x171;" horiz-adv-x="997" 
d="M864 901q38 0 60 -22t22 -60v-393l19 -342q3 -84 -80 -84h-176q-38 0 -60 22t-22 60v301h-9q-6 -192 -91 -295.5t-224 -103.5q-119 0 -190.5 76t-71.5 229v530q0 38 22 60t60 22h203q38 0 60 -22t22 -60v-438q0 -82 69 -82q45 0 74 35t29 102v383q0 38 22 60t60 22h202z
M276 1053l52 180q14 51 67 51h68q34 0 47.5 -19t3.5 -51l-65 -182q-17 -49 -72 -49h-49q-32 0 -46.5 19.5t-5.5 50.5zM543 1053l51 180q14 51 68 51h67q34 0 47.5 -19t3.5 -51l-65 -182q-17 -49 -72 -49h-49q-32 0 -46 19.5t-5 50.5z" />
    <glyph glyph-name="Uogonek" unicode="&#x172;" 
d="M725 -279q0 -55 -119 -55q-87 0 -137.5 43t-50.5 127q0 100 63 139q-122 2 -209 37t-136.5 99t-72 145t-22.5 186v910q0 38 22 60t60 22h213q38 0 60 -22t22 -60v-936q0 -52 18.5 -76.5t63.5 -24.5t63.5 23.5t18.5 77.5v936q0 38 22 60t60 22h213q38 0 59.5 -22t21.5 -60
v-910q0 -89 -16 -161t-52 -132.5t-98.5 -101.5t-150.5 -59q-16 -16 -16 -62v-18q0 -38 11.5 -53t35.5 -15h8q45 0 45 -47v-72z" />
    <glyph glyph-name="uogonek" unicode="&#x173;" horiz-adv-x="997" 
d="M864 901q38 0 60 -22t22 -60v-393l19 -342q3 -84 -80 -84h-176h-4q-48 0 -48 -74v-18q0 -38 11.5 -53t36.5 -15h8q45 0 45 -47v-72q0 -55 -119 -55q-87 0 -137.5 43t-50.5 127t46 126.5t165 49.5q-35 18 -35 70v301h-9q-6 -192 -91 -295.5t-224 -103.5q-119 0 -190.5 76
t-71.5 229v530q0 38 22 60t60 22h203q38 0 60 -22t22 -60v-438q0 -82 69 -82q45 0 74 35t29 102v383q0 38 22 60t60 22h202z" />
    <glyph glyph-name="Wcircumflex" unicode="&#x174;" horiz-adv-x="1472" 
d="M283 0q-37 0 -59.5 19.5t-26.5 56.5l-183 1270q-6 41 14.5 64.5t61.5 23.5h225q78 0 84 -80l64 -1041h26l80 1043q6 78 84 78h160q78 0 84 -78l80 -1043h33l63 1041q6 80 84 80h225q41 0 61.5 -23.5t14.5 -64.5l-182 -1270q-4 -37 -26.5 -56.5t-59.5 -19.5h-313
q-80 0 -86 78l-58 778l-57 -778q-6 -78 -86 -78h-307zM430 1585l86 174q24 49 70 49h301q45 0 69 -49l86 -174q14 -28 -0.5 -48.5t-48.5 -20.5h-149q-46 0 -66 55l-41 121l-43 -121q-9 -24 -33.5 -39.5t-52.5 -15.5h-129q-34 0 -48.5 20.5t-0.5 48.5z" />
    <glyph glyph-name="wcircumflex" unicode="&#x175;" horiz-adv-x="1427" 
d="M856 0q-74 0 -86 78l-61 434l-54 -434q-9 -78 -86 -78h-286q-67 0 -86 76l-183 737q-10 40 12 64t64 24h201q79 0 88 -76l63 -512h35l72 498q6 45 27 67.5t63 22.5h147q43 0 64 -22.5t27 -67.5l71 -498h41l64 512q9 76 88 76h200q42 0 64 -24t12 -64l-182 -737
q-19 -76 -86 -76h-293zM410 1053l86 174q24 49 69 49h301q46 0 70 -49l86 -174q14 -28 -0.5 -49t-48.5 -21h-150q-45 0 -65 55l-41 121l-43 -121q-9 -24 -33.5 -39.5t-52.5 -15.5h-129q-34 0 -48.5 21t-0.5 49z" />
    <glyph glyph-name="Ycircumflex" unicode="&#x176;" 
d="M500 -16q-122 0 -211 27t-141 77.5t-76.5 115t-24.5 146.5v29q0 38 22 60t60 22h207q38 0 60 -22t22 -60v-2q0 -47 19.5 -66.5t62.5 -19.5q45 0 63.5 23.5t18.5 76.5v389h-19q-19 -129 -87 -199.5t-181 -70.5q-125 0 -193.5 74.5t-68.5 230.5v537q0 38 22 60t60 22h213
q38 0 60 -22t22 -60v-406q0 -36 16.5 -59t52.5 -23q45 0 74 36t29 104v348q0 38 22 60t60 22h213q38 0 59.5 -22t21.5 -60v-918q0 -107 -23 -186.5t-74.5 -140.5t-142 -92t-218.5 -31zM193 1585l86 174q24 49 69 49h301q46 0 70 -49l86 -174q14 -28 -0.5 -48.5t-48.5 -20.5
h-150q-45 0 -65 55l-41 121l-43 -121q-9 -24 -33.5 -39.5t-52.5 -15.5h-129q-34 0 -48.5 20.5t-0.5 48.5z" />
    <glyph glyph-name="ycircumflex" unicode="&#x177;" horiz-adv-x="987" 
d="M379 -360q-175 0 -270 86.5t-95 234.5v41q0 39 23.5 63.5t66.5 24.5h134q43 0 65.5 -23.5t22.5 -66.5v-35q0 -37 11 -56.5t42 -19.5q36 0 49.5 27t24.5 109l16 116h-199q-73 0 -96 86l-156 582q-11 44 14 68t72 24h207q77 0 92 -90l68 -356h61l64 356q9 47 30.5 68.5
t61.5 21.5h203q44 0 69 -23t15 -69l-170 -735q-16 -68 -29.5 -115.5t-33 -96.5t-41 -80.5t-52 -61t-69 -45.5t-88.5 -25.5t-113 -9.5zM168 1053l86 174q24 49 70 49h301q45 0 69 -49l86 -174q14 -28 -0.5 -49t-48.5 -21h-149q-46 0 -66 55l-41 121l-43 -121
q-9 -24 -33.5 -39.5t-52.5 -15.5h-129q-34 0 -48.5 21t-0.5 49z" />
    <glyph glyph-name="Ydieresis" unicode="&#x178;" 
d="M500 -16q-122 0 -211 27t-141 77.5t-76.5 115t-24.5 146.5v29q0 38 22 60t60 22h207q38 0 60 -22t22 -60v-2q0 -47 19.5 -66.5t62.5 -19.5q45 0 63.5 23.5t18.5 76.5v389h-19q-19 -129 -87 -199.5t-181 -70.5q-125 0 -193.5 74.5t-68.5 230.5v537q0 38 22 60t60 22h213
q38 0 60 -22t22 -60v-406q0 -36 16.5 -59t52.5 -23q45 0 74 36t29 104v348q0 38 22 60t60 22h213q38 0 59.5 -22t21.5 -60v-918q0 -107 -23 -186.5t-74.5 -140.5t-142 -92t-218.5 -31zM160 1597v129q0 82 82 82h129q82 0 82 -82v-129q0 -81 -82 -81h-129q-82 0 -82 81z
M547 1597v129q0 82 82 82h129q82 0 82 -82v-129q0 -81 -82 -81h-129q-82 0 -82 81z" />
    <glyph glyph-name="Zacute" unicode="&#x179;" horiz-adv-x="716" 
d="M98 0q-42 0 -61 24t-10 66l229 1004h-156q-38 0 -60 22t-22 60v176q0 38 22 60t60 22h488q42 0 61 -24.5t10 -66.5l-227 -1003h186q38 0 60 -22t22 -60v-176q0 -38 -22 -60t-60 -22h-520zM225 1587l111 185q28 45 72 45h186q36 0 49.5 -22.5t-6.5 -51.5l-125 -184
q-30 -43 -74 -43h-168q-36 0 -49.5 20t4.5 51z" />
    <glyph glyph-name="zacute" unicode="&#x17a;" horiz-adv-x="782" 
d="M90 0q-48 0 -64.5 28.5t7.5 69.5l274 482h-207q-38 0 -60 22t-22 60v157q0 38 22 60t60 22h590q47 0 64 -28.5t-6 -69.5l-275 -490h209q38 0 60 -22t22 -60v-149q0 -38 -22 -60t-60 -22h-592zM256 1055l111 184q28 45 71 45h187q36 0 49.5 -22.5t-6.5 -51.5l-125 -184
q-30 -43 -74 -43h-168q-36 0 -49.5 20.5t4.5 51.5z" />
    <glyph glyph-name="Zdotaccent" unicode="&#x17b;" horiz-adv-x="716" 
d="M98 0q-42 0 -61 24t-10 66l229 1004h-156q-38 0 -60 22t-22 60v176q0 38 22 60t60 22h488q42 0 61 -24.5t10 -66.5l-227 -1003h186q38 0 60 -22t22 -60v-176q0 -38 -22 -60t-60 -22h-520zM227 1577v100q0 29 16.5 45.5t45.5 16.5h147q29 0 45.5 -16.5t16.5 -45.5v-100
q0 -29 -16.5 -45t-45.5 -16h-147q-29 0 -45.5 16t-16.5 45z" />
    <glyph glyph-name="zdotaccent" unicode="&#x17c;" horiz-adv-x="782" 
d="M90 0q-48 0 -64.5 28.5t7.5 69.5l274 482h-207q-38 0 -60 22t-22 60v157q0 38 22 60t60 22h590q47 0 64 -28.5t-6 -69.5l-275 -490h209q38 0 60 -22t22 -60v-149q0 -38 -22 -60t-60 -22h-592zM215 1065v141q0 38 22 60t60 22h188q38 0 60 -22t22 -60v-141q0 -38 -22 -60
t-60 -22h-188q-38 0 -60 22t-22 60z" />
    <glyph glyph-name="Zcaron" unicode="&#x17d;" horiz-adv-x="716" 
d="M98 0q-42 0 -61 24t-10 66l229 1004h-156q-38 0 -60 22t-22 60v176q0 38 22 60t60 22h488q42 0 61 -24.5t10 -66.5l-227 -1003h186q38 0 60 -22t22 -60v-176q0 -38 -22 -60t-60 -22h-520zM49 1757q-14 28 0.5 49t48.5 21h150q45 0 65 -55l43 -121l41 121q9 24 33.5 39.5
t52.5 15.5h129q34 0 49 -21t1 -49l-87 -174q-24 -49 -69 -49h-301q-46 0 -70 49z" />
    <glyph glyph-name="zcaron" unicode="&#x17e;" horiz-adv-x="782" 
d="M90 0q-48 0 -64.5 28.5t7.5 69.5l274 482h-207q-38 0 -60 22t-22 60v157q0 38 22 60t60 22h590q47 0 64 -28.5t-6 -69.5l-275 -490h209q38 0 60 -22t22 -60v-149q0 -38 -22 -60t-60 -22h-592zM84 1206q-14 28 0.5 49t48.5 21h150q45 0 65 -55l43 -121l41 121
q9 24 33.5 39.5t52.5 15.5h129q34 0 48.5 -21t0.5 -49l-86 -174q-24 -49 -69 -49h-301q-46 0 -70 49z" />
    <glyph glyph-name="florin" unicode="&#x192;" horiz-adv-x="813" 
d="M90 -184q-82 0 -82 82v147q0 82 82 82q90 0 115.5 17.5t25.5 62.5v473h-57q-38 0 -60 22t-22 60v149q0 38 22 60t60 22h57v62q0 63 14.5 116.5t50.5 103t92.5 84t145.5 55t205 20.5q82 0 82 -82v-148q0 -82 -82 -82q-90 0 -115.5 -17.5t-25.5 -62.5v-49h119q38 0 60 -22
t22 -60v-149q0 -38 -22 -60t-60 -22h-119v-485q0 -63 -14.5 -116.5t-50.5 -103t-92.5 -84t-145.5 -55t-205 -20.5z" />
    <glyph glyph-name="uni0218" unicode="&#x218;" horiz-adv-x="966" 
d="M481 -25q-456 0 -456 406v47q0 38 21.5 60t59.5 22h213q38 0 60 -22t22 -60v-39q0 -55 18.5 -78.5t61.5 -23.5q44 0 63 23.5t19 78.5v29q0 57 -29.5 83.5t-123.5 63.5l-131 51q-135 53 -194.5 136t-59.5 209v79q0 414 456 414q127 0 218.5 -32t143 -90t74.5 -130t23 -162
v-51q0 -38 -22 -60t-60 -22h-213q-38 0 -60 22t-22 60v51q0 56 -19 79.5t-63 23.5q-43 0 -61.5 -24t-18.5 -79v-26q0 -57 30 -84t124 -64l131 -51q135 -53 194.5 -135.5t59.5 -208.5v-94q0 -86 -23 -155.5t-74.5 -126.5t-143 -88.5t-218.5 -31.5zM272 -420l41 131v148
q0 29 16.5 45t45.5 16h215q61 0 61 -61v-72q0 -40 -20 -76l-94 -160q-22 -40 -74 -40h-139q-32 0 -46.5 19t-5.5 50z" />
    <glyph glyph-name="uni0219" unicode="&#x219;" horiz-adv-x="913" 
d="M455 -18q-212 0 -321 65t-109 174v19q0 38 21.5 60t59.5 22h177q38 0 60 -22t22 -60q0 -19 20.5 -31t60.5 -12q80 0 80 59v14q0 23 -16 38.5t-59 23.5l-164 35q-70 15 -114 31.5t-80.5 44.5t-53 70.5t-16.5 104.5v19q0 127 121.5 204t312.5 77q201 0 311.5 -71
t110.5 -179v-31q0 -38 -22 -60t-60 -22h-176q-38 0 -60 22t-22 60q0 31 -21 48t-61 17q-80 0 -80 -65v-21q0 -54 76 -69l163 -35q142 -31 209.5 -78.5t67.5 -144.5v-19q0 -43 -14.5 -83t-48 -77.5t-83 -65.5t-125 -45t-167.5 -17zM246 -420l41 131v148q0 61 61 61h215
q29 0 45.5 -16t16.5 -45v-72q0 -38 -21 -76l-94 -160q-22 -40 -74 -40h-139q-32 0 -46 19t-5 50z" />
    <glyph glyph-name="uni021A" unicode="&#x21a;" horiz-adv-x="759" 
d="M272 0q-38 0 -60 22t-22 60v1012h-92q-38 0 -60 22t-22 60v176q0 38 22 60t60 22h564q38 0 59.5 -22t21.5 -60v-176q0 -38 -21.5 -60t-59.5 -22h-95v-1012q0 -38 -22 -60t-60 -22h-213zM170 -420l41 131v148q0 61 61 61h215q29 0 45.5 -16t16.5 -45v-72q0 -38 -21 -76
l-94 -160q-22 -40 -74 -40h-139q-32 0 -46 19t-5 50z" />
    <glyph glyph-name="uni021B" unicode="&#x21b;" horiz-adv-x="894" 
d="M518 -16q-191 0 -274.5 97.5t-83.5 324.5v182h-60q-38 0 -60 22t-22 60v149q0 38 22 60t60 22q52 0 78.5 5t49.5 30t36 63t33 117q13 50 37.5 74t71.5 24h38q38 0 60 -21.5t22 -59.5v-232h250q38 0 60 -22t22 -60v-149q0 -38 -22 -60t-60 -22h-250v-219q0 -72 54 -72
q57 0 57 70v67q0 38 22 60t60 22h59q38 0 60 -22t22 -60v-45q0 -213 -81.5 -309t-260.5 -96zM283 -420l41 131v148q0 61 61 61h215q29 0 45.5 -16t16.5 -45v-72q0 -38 -21 -76l-94 -160q-22 -40 -74 -40h-139q-32 0 -46 19t-5 50z" />
    <glyph glyph-name="uni0237" unicode="&#x237;" horiz-adv-x="460" 
d="M-53 -348q-82 0 -82 82v147q0 82 82 82q61 0 80.5 18t19.5 62v776q0 38 22 60t60 22h203q38 0 60 -22t22 -60v-788q0 -80 -23.5 -145t-75.5 -119t-145.5 -84.5t-222.5 -30.5z" />
    <glyph glyph-name="uni02BC" unicode="&#x2bc;" horiz-adv-x="462" 
d="M70 858q-32 0 -46.5 19.5t-5.5 50.5l41 131v293q0 38 22 60t60 22h209q38 0 60 -22t22 -60v-217q0 -40 -20 -76l-95 -160q-23 -41 -73 -41h-174z" />
    <glyph glyph-name="circumflex" unicode="&#x2c6;" horiz-adv-x="788" 
d="M502 1188q-46 0 -66 55l-41 121l-43 -121q-9 -24 -33.5 -39.5t-52.5 -15.5h-129q-34 0 -48.5 20.5t-0.5 48.5l86 175q24 49 70 49h301q45 0 69 -49l86 -175q14 -28 -0.5 -48.5t-48.5 -20.5h-149z" />
    <glyph glyph-name="caron" unicode="&#x2c7;" horiz-adv-x="788" 
d="M287 1481q45 0 65 -56l43 -120l41 120q9 25 33.5 40.5t52.5 15.5h129q34 0 48.5 -21t0.5 -49l-86 -174q-24 -49 -69 -49h-301q-46 0 -70 49l-86 174q-14 28 0.5 49t48.5 21h150z" />
    <glyph glyph-name="breve" unicode="&#x2d8;" horiz-adv-x="708" 
d="M354 1180q-128 0 -200 45t-72 157v19q0 57 72 57h59q74 0 74 -57v-19q0 -51 67 -51q68 0 68 51v19q0 57 74 57h59q72 0 72 -57v-19q0 -112 -72.5 -157t-200.5 -45z" />
    <glyph glyph-name="dotaccent" unicode="&#x2d9;" horiz-adv-x="516" 
d="M164 1188q-38 0 -60 22t-22 60v141q0 38 22 60t60 22h188q38 0 60 -22t22 -60v-141q0 -38 -22 -60t-60 -22h-188z" />
    <glyph glyph-name="ring" unicode="&#x2da;" horiz-adv-x="757" 
d="M379 1178q-104 0 -164.5 59t-60.5 152t60.5 151.5t164.5 58.5t164.5 -58.5t60.5 -151.5t-60.5 -152t-164.5 -59zM315 1389q0 -30 17 -47t47 -17t46.5 17t16.5 47t-16.5 46.5t-46.5 16.5q-31 0 -47.5 -17t-16.5 -46z" />
    <glyph glyph-name="ogonek" unicode="&#x2db;" horiz-adv-x="471" 
d="M389 -279q0 -55 -119 -55q-87 0 -137.5 43t-50.5 127q0 91 55 133.5t199 42.5v-12q-47 0 -47 -74v-18q0 -38 11.5 -53t35.5 -15h8q45 0 45 -47v-72z" />
    <glyph glyph-name="tilde" unicode="&#x2dc;" horiz-adv-x="843" 
d="M143 1182q-61 0 -61 51v65q0 85 48.5 142t139.5 57q50 0 106.5 -21t103.5 -42t73 -21q37 0 37 29v10q0 51 61 51h49q62 0 62 -51v-66q0 -85 -49 -141.5t-140 -56.5q-50 0 -106.5 21t-103 42t-72.5 21q-37 0 -37 -29v-10q0 -51 -61 -51h-50z" />
    <glyph glyph-name="hungarumlaut" unicode="&#x2dd;" horiz-adv-x="675" 
d="M137 1188q-32 0 -46 19t-5 50l51 181q14 51 68 51h67q34 0 48 -19t4 -51l-66 -182q-17 -49 -72 -49h-49zM352 1257l51 181q14 51 68 51h68q34 0 47.5 -19t3.5 -51l-66 -182q-17 -49 -71 -49h-50q-32 0 -46 19t-5 50z" />
    <glyph glyph-name="gravecomb" unicode="&#x300;" horiz-adv-x="0" 
d="M293 1188q-44 0 -74 43l-125 184q-20 29 -6.5 51.5t49.5 22.5h187q43 0 71 -45l111 -184q18 -31 4.5 -51.5t-49.5 -20.5h-168z" />
    <glyph glyph-name="acutecomb" unicode="&#x301;" horiz-adv-x="0" 
d="M137 1188q-36 0 -49.5 20.5t4.5 51.5l111 184q28 45 71 45h187q36 0 49.5 -22.5t-6.5 -51.5l-125 -184q-30 -43 -74 -43h-168z" />
    <glyph glyph-name="uni0302" unicode="&#x302;" horiz-adv-x="0" 
d="M502 1188q-46 0 -66 55l-41 121l-43 -121q-9 -24 -33.5 -39.5t-52.5 -15.5h-129q-34 0 -48.5 20.5t-0.5 48.5l86 175q24 49 70 49h301q45 0 69 -49l86 -175q14 -28 -0.5 -48.5t-48.5 -20.5h-149z" />
    <glyph glyph-name="tildecomb" unicode="&#x303;" horiz-adv-x="0" 
d="M143 1182q-61 0 -61 51v65q0 85 48.5 142t139.5 57q50 0 106.5 -21t103.5 -42t73 -21q37 0 37 29v10q0 51 61 51h49q62 0 62 -51v-66q0 -85 -49 -141.5t-140 -56.5q-50 0 -106.5 21t-103 42t-72.5 21q-37 0 -37 -29v-10q0 -51 -61 -51h-50z" />
    <glyph glyph-name="uni0304" unicode="&#x304;" horiz-adv-x="0" 
d="M164 1188q-38 0 -60 22t-22 60v71q0 38 22 60t60 22h432q38 0 60 -22t22 -60v-71q0 -38 -22 -60t-60 -22h-432z" />
    <glyph glyph-name="uni0306" unicode="&#x306;" horiz-adv-x="0" 
d="M354 1180q-128 0 -200 45t-72 157v19q0 57 72 57h59q74 0 74 -57v-19q0 -51 67 -51q68 0 68 51v19q0 57 74 57h59q72 0 72 -57v-19q0 -112 -72.5 -157t-200.5 -45z" />
    <glyph glyph-name="uni0307" unicode="&#x307;" horiz-adv-x="0" 
d="M164 1188q-38 0 -60 22t-22 60v141q0 38 22 60t60 22h188q38 0 60 -22t22 -60v-141q0 -38 -22 -60t-60 -22h-188z" />
    <glyph glyph-name="uni0308" unicode="&#x308;" horiz-adv-x="0" 
d="M164 1188q-82 0 -82 82v129q0 82 82 82h129q82 0 82 -82v-129q0 -82 -82 -82h-129zM469 1270v129q0 82 82 82h129q82 0 82 -82v-129q0 -82 -82 -82h-129q-82 0 -82 82z" />
    <glyph glyph-name="uni030A" unicode="&#x30a;" horiz-adv-x="0" 
d="M379 1178q-104 0 -164.5 59t-60.5 152t60.5 151.5t164.5 58.5t164.5 -58.5t60.5 -151.5t-60.5 -152t-164.5 -59zM315 1389q0 -30 17 -47t47 -17t46.5 17t16.5 47t-16.5 46.5t-46.5 16.5q-31 0 -47.5 -17t-16.5 -46z" />
    <glyph glyph-name="uni030B" unicode="&#x30b;" horiz-adv-x="0" 
d="M137 1188q-32 0 -46 19t-5 50l51 181q14 51 68 51h67q34 0 48 -19t4 -51l-66 -182q-17 -49 -72 -49h-49zM352 1257l51 181q14 51 68 51h68q34 0 47.5 -19t3.5 -51l-66 -182q-17 -49 -71 -49h-50q-32 0 -46 19t-5 50z" />
    <glyph glyph-name="uni030C" unicode="&#x30c;" horiz-adv-x="0" 
d="M287 1481q45 0 65 -56l43 -120l41 120q9 25 33.5 40.5t52.5 15.5h129q34 0 48.5 -21t0.5 -49l-86 -174q-24 -49 -69 -49h-301q-46 0 -70 49l-86 174q-14 28 0.5 49t48.5 21h150z" />
    <glyph glyph-name="uni0312" unicode="&#x312;" horiz-adv-x="0" 
d="M410 1595q32 0 46 -19t5 -50l-41 -131v-148q0 -29 -16.5 -45t-45.5 -16h-215q-61 0 -61 61v72q0 40 20 76l95 159q23 41 73 41h140z" />
    <glyph glyph-name="uni0326" unicode="&#x326;" horiz-adv-x="0" 
d="M137 -489q-32 0 -46 19t-5 50l41 131v148q0 61 61 61h215q29 0 45.5 -16t16.5 -45v-72q0 -38 -21 -76l-94 -160q-22 -40 -74 -40h-139z" />
    <glyph glyph-name="uni0327" unicode="&#x327;" horiz-adv-x="0" 
d="M242 -410q-160 0 -160 105v4q0 28 15 39.5t46 11.5h21q61 0 61 -37v-6q0 -16 21 -16q18 0 18 18v96q0 33 -22 33q-20 0 -29 -26q-11 -25 -41 -25h-43q-47 0 -39 55l43 254h129l-37 -205h11q30 50 96 50q39 0 57.5 -24.5t18.5 -57.5v-146q0 -58 -41.5 -90.5t-124.5 -32.5z
" />
    <glyph glyph-name="uni0328" unicode="&#x328;" horiz-adv-x="0" 
d="M389 -279q0 -55 -119 -55q-87 0 -137.5 43t-50.5 127q0 91 55 133.5t199 42.5v-12q-47 0 -47 -74v-18q0 -38 11.5 -53t35.5 -15h8q45 0 45 -47v-72z" />
    <glyph glyph-name="Wgrave" unicode="&#x1e80;" horiz-adv-x="1472" 
d="M283 0q-37 0 -59.5 19.5t-26.5 56.5l-183 1270q-6 41 14.5 64.5t61.5 23.5h225q78 0 84 -80l64 -1041h26l80 1043q6 78 84 78h160q78 0 84 -78l80 -1043h33l63 1041q6 80 84 80h225q41 0 61.5 -23.5t14.5 -64.5l-182 -1270q-4 -37 -26.5 -56.5t-59.5 -19.5h-313
q-80 0 -86 78l-58 778l-57 -778q-6 -78 -86 -78h-307zM426 1743q-20 29 -6.5 51.5t49.5 22.5h186q44 0 72 -45l111 -185q18 -31 4.5 -51t-49.5 -20h-168q-44 0 -74 43z" />
    <glyph glyph-name="wgrave" unicode="&#x1e81;" horiz-adv-x="1427" 
d="M856 0q-74 0 -86 78l-61 434l-54 -434q-9 -78 -86 -78h-286q-67 0 -86 76l-183 737q-10 40 12 64t64 24h201q79 0 88 -76l63 -512h35l72 498q6 45 27 67.5t63 22.5h147q43 0 64 -22.5t27 -67.5l71 -498h41l64 512q9 76 88 76h200q42 0 64 -24t12 -64l-182 -737
q-19 -76 -86 -76h-293zM430 1210q-20 29 -6.5 51.5t49.5 22.5h186q44 0 72 -45l111 -184q18 -31 4.5 -51.5t-49.5 -20.5h-168q-44 0 -74 43z" />
    <glyph glyph-name="Wacute" unicode="&#x1e82;" horiz-adv-x="1472" 
d="M283 0q-37 0 -59.5 19.5t-26.5 56.5l-183 1270q-6 41 14.5 64.5t61.5 23.5h225q78 0 84 -80l64 -1041h26l80 1043q6 78 84 78h160q78 0 84 -78l80 -1043h33l63 1041q6 80 84 80h225q41 0 61.5 -23.5t14.5 -64.5l-182 -1270q-4 -37 -26.5 -56.5t-59.5 -19.5h-313
q-80 0 -86 78l-58 778l-57 -778q-6 -78 -86 -78h-307zM604 1587l111 185q28 45 71 45h187q36 0 49.5 -22.5t-6.5 -51.5l-125 -184q-30 -43 -74 -43h-168q-36 0 -49.5 20t4.5 51z" />
    <glyph glyph-name="wacute" unicode="&#x1e83;" horiz-adv-x="1427" 
d="M856 0q-74 0 -86 78l-61 434l-54 -434q-9 -78 -86 -78h-286q-67 0 -86 76l-183 737q-10 40 12 64t64 24h201q79 0 88 -76l63 -512h35l72 498q6 45 27 67.5t63 22.5h147q43 0 64 -22.5t27 -67.5l71 -498h41l64 512q9 76 88 76h200q42 0 64 -24t12 -64l-182 -737
q-19 -76 -86 -76h-293zM582 1055l110 184q28 45 72 45h186q36 0 49.5 -22.5t-6.5 -51.5l-125 -184q-30 -43 -73 -43h-168q-36 0 -49.5 20.5t4.5 51.5z" />
    <glyph glyph-name="Wdieresis" unicode="&#x1e84;" horiz-adv-x="1472" 
d="M283 0q-37 0 -59.5 19.5t-26.5 56.5l-183 1270q-6 41 14.5 64.5t61.5 23.5h225q78 0 84 -80l64 -1041h26l80 1043q6 78 84 78h160q78 0 84 -78l80 -1043h33l63 1041q6 80 84 80h225q41 0 61.5 -23.5t14.5 -64.5l-182 -1270q-4 -37 -26.5 -56.5t-59.5 -19.5h-313
q-80 0 -86 78l-58 778l-57 -778q-6 -78 -86 -78h-307zM397 1597v129q0 82 82 82h129q82 0 82 -82v-129q0 -81 -82 -81h-129q-82 0 -82 81zM784 1597v129q0 82 82 82h129q82 0 82 -82v-129q0 -81 -82 -81h-129q-82 0 -82 81z" />
    <glyph glyph-name="wdieresis" unicode="&#x1e85;" horiz-adv-x="1427" 
d="M856 0q-74 0 -86 78l-61 434l-54 -434q-9 -78 -86 -78h-286q-67 0 -86 76l-183 737q-10 40 12 64t64 24h201q79 0 88 -76l63 -512h35l72 498q6 45 27 67.5t63 22.5h147q43 0 64 -22.5t27 -67.5l71 -498h41l64 512q9 76 88 76h200q42 0 64 -24t12 -64l-182 -737
q-19 -76 -86 -76h-293zM377 1065v129q0 82 82 82h129q82 0 82 -82v-129q0 -82 -82 -82h-129q-82 0 -82 82zM764 1065v129q0 82 82 82h129q82 0 82 -82v-129q0 -82 -82 -82h-129q-82 0 -82 82z" />
    <glyph glyph-name="uni1E9E" unicode="&#x1e9e;" horiz-adv-x="1019" 
d="M123 0q-38 0 -60 22t-22 60v868q0 116 22.5 202t73.5 151t138.5 98t211.5 33h334q98 0 143.5 -54.5t18.5 -148.5l-72 -248q-25 -84 -71 -122t-133 -46v-29q74 0 128 -19.5t84 -49t48 -74t23 -85t5 -91.5v-125q0 -177 -77 -259.5t-205 -82.5h-129q-38 0 -60 22t-22 60v127
q0 38 22 60t60 22h45v203q0 39 -11 55t-40 16h-119v258h94l78 273h-144q-43 0 -61 -26.5t-18 -90.5v-897q0 -38 -22 -60t-60 -22h-203z" />
    <glyph glyph-name="uni1EBC" unicode="&#x1ebc;" horiz-adv-x="706" 
d="M131 0q-38 0 -60 22t-22 60v1270q0 38 22 60t60 22h467q38 0 60 -22t22 -60v-176q0 -38 -22 -60t-60 -22h-172v-207h137q38 0 60 -22t22 -60v-176q0 -38 -22 -60t-60 -22h-137v-207h172q38 0 60 -22t22 -60v-176q0 -38 -22 -60t-60 -22h-467zM8 1546v66q0 85 49 141.5
t140 56.5q50 0 106.5 -21t103 -42t72.5 -21q37 0 37 29v10q0 52 62 52h49q61 0 61 -52v-65q0 -85 -48.5 -142t-139.5 -57q-50 0 -106.5 21t-103.5 42t-73 21q-37 0 -37 -29v-10q0 -51 -61 -51h-49q-62 0 -62 51z" />
    <glyph glyph-name="uni1EBD" unicode="&#x1ebd;" horiz-adv-x="944" 
d="M475 -25q-90 0 -166 18.5t-141 59.5t-102 115.5t-37 177.5v207q0 83 25 148t66.5 105.5t100.5 66.5t121 36.5t133 10.5q72 0 134.5 -10.5t121 -37t99.5 -67t65.5 -105t24.5 -147.5v-31q0 -38 -21.5 -62.5t-60.5 -27.5l-445 -29v-124q0 -31 20.5 -51.5t61.5 -20.5
q82 0 82 72q0 38 22 59.5t60 21.5h199q38 0 60 -21.5t22 -59.5v-15q0 -74 -37 -131t-101 -90.5t-141.5 -50.5t-165.5 -17zM133 1028v66q0 85 49 141.5t140 56.5q50 0 106.5 -21t103 -42t72.5 -21q37 0 37 29v10q0 51 61 51h50q61 0 61 -51v-65q0 -85 -48.5 -142t-139.5 -57
q-50 0 -106.5 21t-103.5 42t-73 21q-37 0 -37 -29v-10q0 -51 -61 -51h-49q-62 0 -62 51zM393 535l164 12v53q0 45 -19.5 67.5t-62.5 22.5q-82 0 -82 -90v-65z" />
    <glyph glyph-name="Ygrave" unicode="&#x1ef2;" 
d="M500 -16q-122 0 -211 27t-141 77.5t-76.5 115t-24.5 146.5v29q0 38 22 60t60 22h207q38 0 60 -22t22 -60v-2q0 -47 19.5 -66.5t62.5 -19.5q45 0 63.5 23.5t18.5 76.5v389h-19q-19 -129 -87 -199.5t-181 -70.5q-125 0 -193.5 74.5t-68.5 230.5v537q0 38 22 60t60 22h213
q38 0 60 -22t22 -60v-406q0 -36 16.5 -59t52.5 -23q45 0 74 36t29 104v348q0 38 22 60t60 22h213q38 0 59.5 -22t21.5 -60v-918q0 -107 -23 -186.5t-74.5 -140.5t-142 -92t-218.5 -31zM188 1743q-20 29 -6.5 51.5t49.5 22.5h187q43 0 71 -45l111 -185q18 -31 4.5 -51
t-49.5 -20h-168q-44 0 -74 43z" />
    <glyph glyph-name="ygrave" unicode="&#x1ef3;" horiz-adv-x="987" 
d="M379 -360q-175 0 -270 86.5t-95 234.5v41q0 39 23.5 63.5t66.5 24.5h134q43 0 65.5 -23.5t22.5 -66.5v-35q0 -37 11 -56.5t42 -19.5q36 0 49.5 27t24.5 109l16 116h-199q-73 0 -96 86l-156 582q-11 44 14 68t72 24h207q77 0 92 -90l68 -356h61l64 356q9 47 30.5 68.5
t61.5 21.5h203q44 0 69 -23t15 -69l-170 -735q-16 -68 -29.5 -115.5t-33 -96.5t-41 -80.5t-52 -61t-69 -45.5t-88.5 -25.5t-113 -9.5zM188 1210q-20 29 -6.5 51.5t49.5 22.5h187q43 0 71 -45l111 -184q18 -31 4.5 -51.5t-49.5 -20.5h-168q-44 0 -74 43z" />
    <glyph glyph-name="uni1EF8" unicode="&#x1ef8;" 
d="M500 -16q-122 0 -211 27t-141 77.5t-76.5 115t-24.5 146.5v29q0 38 22 60t60 22h207q38 0 60 -22t22 -60v-2q0 -47 19.5 -66.5t62.5 -19.5q45 0 63.5 23.5t18.5 76.5v389h-19q-19 -129 -87 -199.5t-181 -70.5q-125 0 -193.5 74.5t-68.5 230.5v537q0 38 22 60t60 22h213
q38 0 60 -22t22 -60v-406q0 -36 16.5 -59t52.5 -23q45 0 74 36t29 104v348q0 38 22 60t60 22h213q38 0 59.5 -22t21.5 -60v-918q0 -107 -23 -186.5t-74.5 -140.5t-142 -92t-218.5 -31zM170 1546v66q0 85 48.5 141.5t139.5 56.5q50 0 106.5 -21t103.5 -42t73 -21q37 0 37 29
v10q0 52 61 52h49q62 0 62 -52v-65q0 -85 -48.5 -142t-139.5 -57q-50 0 -106.5 21t-103.5 42t-73 21q-37 0 -37 -29v-10q0 -51 -61 -51h-50q-61 0 -61 51z" />
    <glyph glyph-name="uni1EF9" unicode="&#x1ef9;" horiz-adv-x="987" 
d="M379 -360q-175 0 -270 86.5t-95 234.5v41q0 39 23.5 63.5t66.5 24.5h134q43 0 65.5 -23.5t22.5 -66.5v-35q0 -37 11 -56.5t42 -19.5q36 0 49.5 27t24.5 109l16 116h-199q-73 0 -96 86l-156 582q-11 44 14 68t72 24h207q77 0 92 -90l68 -356h61l64 356q9 47 30.5 68.5
t61.5 21.5h203q44 0 69 -23t15 -69l-170 -735q-16 -68 -29.5 -115.5t-33 -96.5t-41 -80.5t-52 -61t-69 -45.5t-88.5 -25.5t-113 -9.5zM135 1028v66q0 85 49 141.5t140 56.5q50 0 106.5 -21t103 -42t72.5 -21q37 0 37 29v10q0 51 62 51h49q61 0 61 -51v-65q0 -85 -48.5 -142
t-139.5 -57q-50 0 -106.5 21t-103.5 42t-73 21q-37 0 -37 -29v-10q0 -51 -61 -51h-49q-62 0 -62 51z" />
    <glyph glyph-name="uni2000" unicode="&#x2000;" horiz-adv-x="1024" 
 />
    <glyph glyph-name="uni2001" unicode="&#x2001;" horiz-adv-x="2048" 
 />
    <glyph glyph-name="uni2002" unicode="&#x2002;" horiz-adv-x="1024" 
 />
    <glyph glyph-name="uni2003" unicode="&#x2003;" horiz-adv-x="2048" 
 />
    <glyph glyph-name="uni2004" unicode="&#x2004;" horiz-adv-x="681" 
 />
    <glyph glyph-name="uni2005" unicode="&#x2005;" horiz-adv-x="512" 
 />
    <glyph glyph-name="uni2006" unicode="&#x2006;" horiz-adv-x="339" 
 />
    <glyph glyph-name="uni2007" unicode="&#x2007;" horiz-adv-x="987" 
 />
    <glyph glyph-name="uni2008" unicode="&#x2008;" horiz-adv-x="454" 
 />
    <glyph glyph-name="uni2009" unicode="&#x2009;" horiz-adv-x="256" 
 />
    <glyph glyph-name="uni200A" unicode="&#x200a;" horiz-adv-x="143" 
 />
    <glyph glyph-name="uni200B" unicode="&#x200b;" horiz-adv-x="0" 
 />
    <glyph glyph-name="endash" unicode="&#x2013;" horiz-adv-x="669" 
d="M123 494q-38 0 -60 21.5t-22 59.5v111q0 38 22 60t60 22h424q38 0 60 -22t22 -60v-111q0 -38 -22 -59.5t-60 -21.5h-424z" />
    <glyph glyph-name="emdash" unicode="&#x2014;" 
d="M121 514q-38 0 -60 22t-22 60v90q0 38 22 60t60 22h758q38 0 60 -22t22 -60v-90q0 -38 -22 -60t-60 -22h-758z" />
    <glyph glyph-name="quoteleft" unicode="&#x2018;" horiz-adv-x="462" 
d="M393 1434q32 0 46 -19.5t5 -50.5l-41 -131v-293q0 -38 -21.5 -60t-59.5 -22h-209q-38 0 -60 22t-22 60v217q0 40 20 76l94 160q23 41 74 41h174z" />
    <glyph glyph-name="quoteright" unicode="&#x2019;" horiz-adv-x="462" 
d="M70 858q-32 0 -46.5 19.5t-5.5 50.5l41 131v293q0 38 22 60t60 22h209q38 0 60 -22t22 -60v-217q0 -40 -20 -76l-95 -160q-23 -41 -73 -41h-174z" />
    <glyph glyph-name="quotesinglbase" unicode="&#x201a;" horiz-adv-x="462" 
d="M70 -203q-32 0 -46.5 19.5t-5.5 50.5l41 131v293q0 38 22 60t60 22h209q38 0 60 -22t22 -60v-217q0 -40 -20 -76l-95 -160q-23 -41 -73 -41h-174z" />
    <glyph glyph-name="quotedblleft" unicode="&#x201c;" horiz-adv-x="897" 
d="M393 1434q32 0 46 -19.5t5 -50.5l-41 -131v-293q0 -38 -21.5 -60t-59.5 -22h-209q-38 0 -60 22t-22 60v217q0 40 20 76l94 160q23 41 74 41h174zM465 940v217q0 40 20 76l95 160q23 41 73 41h174q32 0 46.5 -19.5t5.5 -50.5l-41 -131v-293q0 -38 -22 -60t-60 -22h-209
q-38 0 -60 22t-22 60z" />
    <glyph glyph-name="quotedblright" unicode="&#x201d;" horiz-adv-x="897" 
d="M70 858q-32 0 -46.5 19.5t-5.5 50.5l41 131v293q0 38 22 60t60 22h209q38 0 60 -22t22 -60v-217q0 -40 -20 -76l-95 -160q-23 -41 -73 -41h-174zM453 928l41 131v293q0 38 21.5 60t59.5 22h209q38 0 60 -22t22 -60v-217q0 -40 -20 -76l-94 -160q-23 -41 -74 -41h-174
q-32 0 -46 19.5t-5 50.5z" />
    <glyph glyph-name="quotedblbase" unicode="&#x201e;" horiz-adv-x="897" 
d="M70 -203q-32 0 -46.5 19.5t-5.5 50.5l41 131v293q0 38 22 60t60 22h209q38 0 60 -22t22 -60v-217q0 -40 -20 -76l-95 -160q-23 -41 -73 -41h-174zM453 -133l41 131v293q0 38 21.5 60t59.5 22h209q38 0 60 -22t22 -60v-217q0 -40 -20 -76l-94 -160q-23 -41 -74 -41h-174
q-32 0 -46 19.5t-5 50.5z" />
    <glyph glyph-name="dagger" unicode="&#x2020;" horiz-adv-x="823" 
d="M313 199q-38 0 -60 22t-22 60v481h-120q-38 0 -60 22t-22 60v139q0 38 22 60t60 22h120v149q0 38 22 60t60 22h197q38 0 60 -22t22 -60v-149h121q38 0 60 -22t22 -60v-139q0 -38 -22 -60t-60 -22h-121v-481q0 -38 -22 -60t-60 -22h-197z" />
    <glyph glyph-name="daggerdbl" unicode="&#x2021;" horiz-adv-x="843" 
d="M324 199q-38 0 -60 22t-22 60v100h-121q-38 0 -60 22t-22 60v139q0 38 22 60t60 22h121v127h-121q-38 0 -60 22t-22 60v139q0 38 22 60t60 22h121v100q0 38 22 60t60 22h196q38 0 60 -22t22 -60v-100h121q38 0 60 -22t22 -60v-139q0 -38 -22 -60t-60 -22h-121v-127h121
q38 0 60 -22t22 -60v-139q0 -38 -22 -60t-60 -22h-121v-100q0 -38 -22 -60t-60 -22h-196z" />
    <glyph glyph-name="bullet" unicode="&#x2022;" horiz-adv-x="522" 
d="M158 391q-119 0 -119 119v207q0 119 119 119h207q118 0 118 -119v-207q0 -119 -118 -119h-207z" />
    <glyph glyph-name="ellipsis" unicode="&#x2026;" horiz-adv-x="1351" 
d="M123 0q-38 0 -60 22t-22 60v209q0 38 22 60t60 22h209q38 0 60 -22t22 -60v-209q0 -38 -22 -60t-60 -22h-209zM489 82v209q0 38 22 60t60 22h209q38 0 60 -22t22 -60v-209q0 -38 -22 -60t-60 -22h-209q-38 0 -60 22t-22 60zM938 82v209q0 38 22 60t60 22h209q38 0 60 -22
t22 -60v-209q0 -38 -22 -60t-60 -22h-209q-38 0 -60 22t-22 60z" />
    <glyph glyph-name="uni202F" unicode="&#x202f;" horiz-adv-x="65" 
 />
    <glyph glyph-name="perthousand" unicode="&#x2030;" horiz-adv-x="2197" 
d="M592 0q-25 0 -36.5 14t-6.5 39l270 1276h-223q45 -71 45 -184v-211q0 -301 -311 -301q-312 0 -312 301v211q0 301 312 301h581q25 0 36.5 -14t6.5 -39l-286 -1350q-8 -43 -54 -43h-22zM293 920q0 -41 37 -41t37 41v239q0 41 -37 41t-37 -41v-239zM862 291v211
q0 301 312 301q311 0 311 -301v-211q0 -301 -311 -301q-312 0 -312 301zM1137 276q0 -40 37 -40q36 0 36 40v240q0 41 -36 41q-37 0 -37 -41v-240zM1556 291v211q0 301 312 301q311 0 311 -301v-211q0 -301 -311 -301q-312 0 -312 301zM1831 276q0 -40 37 -40t37 40v240
q0 41 -37 41t-37 -41v-240z" />
    <glyph glyph-name="guilsinglleft" unicode="&#x2039;" horiz-adv-x="661" 
d="M373 78q-46 0 -72 45l-268 424q-13 23 -13 41t13 41l268 424q26 45 72 45h211q35 0 50.5 -20t-1.5 -52l-262 -438l262 -438q17 -32 1.5 -52t-50.5 -20h-211z" />
    <glyph glyph-name="guilsinglright" unicode="&#x203a;" horiz-adv-x="661" 
d="M289 1098q45 0 71 -45l269 -424q13 -23 13 -41t-13 -41l-269 -424q-26 -45 -71 -45h-211q-35 0 -50.5 20t1.5 52l262 438l-262 438q-17 32 -1.5 52t50.5 20h211z" />
    <glyph glyph-name="fraction" unicode="&#x2044;" horiz-adv-x="172" 
d="M-74 0q-25 0 -36.5 14t-6.5 39l287 1350q8 43 53 43h23q25 0 36.5 -14t6.5 -39l-287 -1350q-8 -43 -53 -43h-23z" />
    <glyph glyph-name="uni205F" unicode="&#x205f;" horiz-adv-x="454" 
 />
    <glyph glyph-name="Euro" unicode="&#x20ac;" horiz-adv-x="1105" 
d="M614 -25q-127 0 -218 34t-142.5 98.5t-74.5 146t-23 188.5v41h-64q-29 0 -45 16.5t-16 45.5v92q0 61 61 61h64v41h-64q-29 0 -45 16.5t-16 45.5v92q0 61 61 61h64v33q0 107 23 188.5t74.5 146t142.5 98.5t218 34t218 -34t142.5 -98.5t75 -146.5t23.5 -188v-24
q0 -38 -22 -60t-60 -22h-213q-38 0 -60 22t-22 60v49q0 54 -18.5 78t-63.5 24t-63.5 -24t-18.5 -78v-58h74q29 0 45.5 -16t16.5 -45v-92q0 -29 -16.5 -45.5t-45.5 -16.5h-74v-41h74q29 0 45.5 -16t16.5 -45v-92q0 -29 -16.5 -45.5t-45.5 -16.5h-74v-67q0 -52 18.5 -76.5
t63.5 -24.5t63.5 23.5t18.5 77.5v30q0 38 22 60t60 22h213q38 0 60 -22t22 -60v-4q0 -84 -14 -152.5t-47 -128t-85 -100t-131 -63.5t-182 -23z" />
    <glyph glyph-name="uni2116" unicode="&#x2116;" horiz-adv-x="2082" 
d="M688 1352q-6 37 17.5 59.5t62.5 22.5h209q38 0 60 -22t22 -60v-1270q0 -38 -22 -60t-60 -22h-291q-36 0 -55 20.5t-31 61.5l-248 942h-33l119 -934q6 -39 -12.5 -64.5t-56.5 -25.5h-226q-38 0 -60 22t-22 60v1270q0 38 22 60t60 22h287q36 0 54 -20.5t30 -61.5l268 -942
h37zM1157 977v63q0 90 25 161t67 117t101 76.5t122 43t134 12.5q90 0 166.5 -21.5t141.5 -67t102.5 -128t37.5 -193.5v-63q0 -90 -25 -161t-66.5 -117t-100 -76.5t-121.5 -43t-135 -12.5t-135 12.5t-121.5 43t-100.5 76.5t-67 117t-25 161zM1206 303v152q0 29 16.5 45
t45.5 16h669q29 0 45.5 -16t16.5 -45v-152q0 -29 -16.5 -45t-45.5 -16h-669q-29 0 -45.5 16t-16.5 45zM1524 961q0 -53 19 -77t63 -24t63 24t19 77v94q0 53 -19 77.5t-63 24.5t-63 -24.5t-19 -77.5v-94z" />
    <glyph glyph-name="trademark" unicode="&#x2122;" horiz-adv-x="788" 
d="M123 860q-25 0 -25 25v452h-47q-24 0 -24 25v47q0 25 24 25h203q25 0 25 -25v-47q0 -25 -25 -25h-49v-452q0 -25 -23 -25h-59zM301 887l14 522q0 12 8.5 18.5t18.5 6.5h109q24 0 26 -27l41 -379l37 379q0 6 4 14q7 13 23 13h108q11 0 19 -7t8 -18l18 -522q0 -27 -26 -27
h-58q-24 0 -24 27l8 444h-19l-36 -362q-3 -25 -27 -25h-70q-23 0 -26 25l-39 362h-19l11 -444q0 -27 -25 -27h-57q-27 0 -27 27z" />
    <glyph glyph-name="oneeighth" unicode="&#x215b;" horiz-adv-x="1245" 
d="M174 647q-29 0 -45 16.5t-16 45.5v448h-39q-29 0 -45.5 16.5t-16.5 45.5v28q0 30 16 47t46 17q65 0 103 19.5t38 58.5v14q0 61 61 61h46q61 0 61 -61v-694q0 -29 -16 -45.5t-45 -16.5h-148zM313 53l287 1350q8 43 53 43h23q25 0 36.5 -14t6.5 -39l-287 -1350
q-8 -43 -53 -43h-23q-25 0 -36.5 14t-6.5 39zM621 205v22q0 56 30.5 99.5t83.5 56.5q-106 34 -106 174v18q0 45 14 84.5t46 75t91.5 56t141.5 20.5t141.5 -20.5t91 -56t45.5 -75t14 -84.5v-18q0 -140 -106 -174q53 -13 84 -57t31 -99v-22q0 -99 -71 -163.5t-230 -64.5
t-230 64.5t-71 163.5zM895 209q0 -35 27 -35q26 0 26 35v113q0 34 -26 34q-27 0 -27 -34v-113zM895 514q0 -35 27 -35q26 0 26 35v78q0 35 -26 35q-27 0 -27 -35v-78z" />
    <glyph glyph-name="threeeighths" unicode="&#x215c;" horiz-adv-x="1439" 
d="M305 633q-55 0 -103.5 11.5t-90.5 35.5t-66.5 67t-24.5 101v39q0 29 16.5 45t45.5 16h135q29 0 45.5 -16t16.5 -45v-35q0 -35 26 -35q27 0 27 35v102q0 23 -13.5 38.5t-37.5 15.5h-74q-39 0 -50 22t13 53l127 154h-199q-61 0 -61 61v82q0 29 16 45.5t45 16.5h428
q29 0 45.5 -16.5t16.5 -45.5v-82q0 -23 -8 -52.5t-21 -45.5l-67 -78q108 -36 108 -174v-100q0 -57 -26 -100.5t-70 -67.5t-94 -35.5t-105 -11.5zM508 53l287 1350q8 43 53 43h22q25 0 36.5 -14t6.5 -39l-286 -1350q-8 -43 -54 -43h-22q-25 0 -36.5 14t-6.5 39zM815 205v22
q0 55 31 99t84 57q-107 34 -107 174v18q0 45 14 84.5t46 75t91.5 56t141.5 20.5t141.5 -20.5t91.5 -56t46 -75t14 -84.5v-18q0 -140 -106 -174q53 -13 83.5 -56.5t30.5 -99.5v-22q0 -99 -71 -163.5t-230 -64.5t-230 64.5t-71 163.5zM1090 209q0 -35 26 -35q27 0 27 35v113
q0 34 -27 34q-26 0 -26 -34v-113zM1090 514q0 -35 26 -35q27 0 27 35v78q0 35 -27 35q-26 0 -26 -35v-78z" />
    <glyph glyph-name="fiveeighths" unicode="&#x215d;" horiz-adv-x="1470" 
d="M328 625q-163 0 -230 55.5t-67 163.5v12q0 29 16 45.5t45 16.5h148q29 0 45 -16.5t16 -45.5v-33q0 -35 27 -35q26 0 26 35v131q0 43 -8 59.5t-29 16.5q-24 0 -38 -33q-21 -53 -68 -53h-125q-30 0 -46 16.5t-13 45.5l36 366q6 62 64 62h436q29 0 45.5 -16.5t16.5 -45.5
v-82q0 -29 -16.5 -45t-45.5 -16h-258l-16 -150h20q44 61 85 88t93 27q68 0 103 -43.5t35 -99.5v-207q0 -107 -68 -163t-229 -56zM539 53l286 1350q8 43 54 43h22q25 0 36.5 -14t6.5 -39l-287 -1350q-8 -43 -53 -43h-22q-25 0 -36.5 14t-6.5 39zM846 205v22q0 55 31 99t84 57
q-107 34 -107 174v18q0 45 14 84.5t46 75t91.5 56t141.5 20.5t141.5 -20.5t91.5 -56t46 -75t14 -84.5v-18q0 -140 -107 -174q53 -13 84 -57t31 -99v-22q0 -99 -71 -163.5t-230 -64.5t-230 64.5t-71 163.5zM1120 209q0 -35 27 -35t27 35v113q0 34 -27 34t-27 -34v-113z
M1120 514q0 -35 27 -35t27 35v78q0 35 -27 35t-27 -35v-78z" />
    <glyph glyph-name="seveneighths" unicode="&#x215e;" horiz-adv-x="1335" 
d="M125 647q-33 0 -50 19t-5 49l184 493h-176q-29 0 -45.5 16.5t-16.5 45.5v102q0 29 16.5 45.5t45.5 16.5h432q32 0 49 -27t6 -57l-229 -648q-19 -55 -68 -55h-143zM403 53l287 1350q8 43 53 43h23q25 0 36.5 -14t6.5 -39l-287 -1350q-8 -43 -53 -43h-23q-25 0 -36.5 14
t-6.5 39zM711 205v22q0 56 30.5 99.5t83.5 56.5q-106 34 -106 174v18q0 45 14 84.5t46 75t91.5 56t141.5 20.5t141.5 -20.5t91.5 -56t46 -75t14 -84.5v-18q0 -140 -107 -174q53 -13 84 -57t31 -99v-22q0 -99 -71 -163.5t-230 -64.5t-230 64.5t-71 163.5zM985 209
q0 -35 27 -35q26 0 26 35v113q0 34 -26 34q-27 0 -27 -34v-113zM985 514q0 -35 27 -35q26 0 26 35v78q0 35 -26 35q-27 0 -27 -35v-78z" />
    <glyph glyph-name="arrowleft" unicode="&#x2190;" horiz-adv-x="1394" 
d="M117 606q-35 28 -35 76v33q0 48 35 76l276 241q23 21 48 21t38 -25l58 -104q15 -26 3.5 -57.5t-44.5 -37.5l-220 -36v-29l975 78q29 3 45.5 -14.5t16.5 -47.5v-164q-7 -67 -62 -61l-975 78v-29l220 -37q33 -6 44.5 -37t-3.5 -57l-58 -104q-13 -25 -38 -25t-48 21z" />
    <glyph glyph-name="arrowup" unicode="&#x2191;" horiz-adv-x="872" 
d="M354 0q-30 0 -46 16t-15 45l78 1178h-29l-37 -219q-6 -33 -37 -44.5t-57 3.5l-105 57q-25 13 -25 38t21 48l242 277q28 35 76 35h33q47 0 75 -35l242 -277q21 -23 21 -48t-25 -38l-104 -57q-26 -15 -57.5 -3.5t-37.5 44.5l-37 219h-28l78 -1178q1 -29 -15.5 -45
t-46.5 -16h-164z" />
    <glyph glyph-name="arrowright" unicode="&#x2192;" horiz-adv-x="1394" 
d="M1001 365q-23 -21 -48 -21t-38 25l-57 104q-15 26 -3.5 57t44.5 37l219 37v29l-975 -78q-28 -3 -43 13.5t-18 47.5v164q0 30 16 47.5t45 14.5l975 -78v29l-219 36q-33 6 -44.5 37.5t3.5 57.5l57 104q13 25 38 25t48 -21l277 -241q35 -28 35 -76v-33q0 -48 -35 -76z" />
    <glyph glyph-name="arrowdown" unicode="&#x2193;" horiz-adv-x="872" 
d="M518 1434q30 0 46.5 -16.5t15.5 -45.5l-78 -1177h28l37 219q6 33 37.5 44.5t57.5 -3.5l104 -58q25 -13 25 -38t-21 -48l-242 -276q-28 -35 -75 -35h-33q-48 0 -76 35l-242 276q-21 23 -21 48t25 38l105 58q26 15 57 3.5t37 -44.5l37 -219h29l-78 1177q-1 29 15 45.5
t46 16.5h164z" />
    <glyph glyph-name="arrowboth" unicode="&#x2194;" horiz-adv-x="2048" 
d="M117 606q-35 28 -35 76v33q0 48 35 76l276 241q23 21 48 21t38 -25l58 -104q15 -26 3.5 -57.5t-44.5 -37.5l-220 -36v-29l461 37h574l461 -37v29l-220 36q-33 6 -44.5 37.5t3.5 57.5l58 104q13 25 38 25t48 -21l276 -241q35 -28 35 -76v-33q0 -48 -35 -76l-276 -241
q-23 -21 -48 -21t-38 25l-58 104q-15 26 -3.5 57t44.5 37l220 37v29l-463 -37h-570l-463 37v-29l220 -37q33 -6 44.5 -37t-3.5 -57l-58 -104q-13 -25 -38 -25t-48 21z" />
    <glyph glyph-name="arrowupdn" unicode="&#x2195;" horiz-adv-x="872" 
d="M528 35q-28 -35 -75 -35h-33q-48 0 -76 35l-242 276q-21 23 -21 48t25 38l105 58q26 15 57 3.5t37 -44.5l37 -219h29l-37 460v123l37 461h-29l-37 -219q-6 -33 -37 -44.5t-57 3.5l-105 57q-25 13 -25 38t21 48l242 277q28 35 76 35h33q47 0 75 -35l242 -277
q21 -23 21 -48t-25 -38l-104 -57q-26 -15 -57.5 -3.5t-37.5 44.5l-37 219h-28l37 -463v-119l-37 -462h28l37 219q6 33 37.5 44.5t57.5 -3.5l104 -58q25 -13 25 -38t-21 -48z" />
    <glyph glyph-name="uni2196" unicode="&#x2196;" horiz-adv-x="1298" 
d="M1079 121q-21 -21 -44 -21t-42 21l-778 889l-20 -21l129 -182q18 -30 5.5 -58t-42.5 -36l-115 -35q-28 -7 -45.5 10.5t-17.5 48.5l-25 367q-6 43 29 78l22 22q35 35 78 29l367 -25q31 -2 48.5 -19t8.5 -44l-33 -115q-8 -30 -36 -43.5t-58 6.5l-182 129l-21 -20l889 -778
q45 -41 0 -86z" />
    <glyph glyph-name="uni2197" unicode="&#x2197;" horiz-adv-x="1298" 
d="M102 238q-45 45 0 86l889 778l-20 20l-183 -129q-30 -20 -58 -6.5t-36 43.5l-32 115q-9 27 8.5 44t48.5 19l366 25q43 6 78 -29l23 -22q34 -34 28 -78l-24 -367q0 -31 -18 -48.5t-46 -10.5l-114 35q-30 8 -42.5 36t5.5 58l129 182l-21 21l-778 -889q-19 -21 -42 -21
t-44 21z" />
    <glyph glyph-name="uni2198" unicode="&#x2198;" horiz-adv-x="1298" 
d="M219 1300q21 21 44 21t42 -21l778 -888l21 20l-129 182q-19 30 -5.5 58.5t42.5 36.5l114 34q28 7 46 -11t18 -48l24 -367q6 -43 -28 -77l-23 -23q-35 -35 -78 -29l-366 25q-31 2 -48.5 19t-8.5 44l32 115q8 30 36 43.5t58 -6.5l183 -129l20 20l-889 779q-45 41 0 86z" />
    <glyph glyph-name="uni2199" unicode="&#x2199;" horiz-adv-x="1298" 
d="M1196 1196q45 -45 0 -86l-889 -778l21 -21l182 129q30 20 58 6.5t36 -43.5l33 -114q9 -27 -8.5 -44.5t-48.5 -19.5l-367 -24q-44 -6 -78 28l-22 23q-35 35 -29 78l25 366q0 31 17.5 49t45.5 11l115 -35q30 -8 42.5 -36t-5.5 -58l-129 -183l20 -20l778 889q19 21 42 21
t44 -21z" />
    <glyph glyph-name="partialdiff" unicode="&#x2202;" horiz-adv-x="935" 
d="M465 -25q-74 0 -135 8.5t-121.5 31.5t-101 61t-66 101t-25.5 147v75q0 176 102 266.5t269 90.5q74 0 129 -27l-242 442q-23 41 -6 70t64 29h235q66 0 99 -58l133 -235q54 -94 84 -239t30 -287v-25q0 -126 -37 -217t-102 -140.5t-141 -71.5t-168 -22zM383 334
q0 -67 18.5 -94t63.5 -27t63.5 27t18.5 94v47q0 76 -17.5 106.5t-62.5 30.5q-46 0 -65 -30.5t-19 -106.5v-47z" />
    <glyph glyph-name="uni2206" unicode="&#x2206;" horiz-adv-x="968" 
d="M88 0q-41 0 -61.5 23.5t-14.5 64.5l178 1270q4 37 26.5 56.5t59.5 19.5h424q37 0 59.5 -19.5t26.5 -56.5l170 -1270q6 -41 -14 -64.5t-61 -23.5h-793zM401 319h156l-51 771h-53z" />
    <glyph glyph-name="product" unicode="&#x220f;" horiz-adv-x="1257" 
d="M788 -205q-38 0 -59.5 22t-21.5 60v1446h-156v-1446q0 -38 -22 -60t-60 -22h-213q-38 0 -60 22t-22 60v1446h-82q-38 0 -60 17.5t-22 48.5v184q0 31 22 48t60 17h1073q38 0 60 -17t22 -48v-184q0 -31 -22 -48.5t-60 -17.5h-82v-1446q0 -38 -22 -60t-60 -22h-213z" />
    <glyph glyph-name="summation" unicode="&#x2211;" horiz-adv-x="870" 
d="M94 -205q-38 0 -60 22t-22 60v152q0 54 29 102l317 535l-292 653q-21 53 -21 102v135q0 38 22 60t60 22h625q38 0 60 -22t22 -60v-151q0 -38 -22 -60t-60 -22h-299l266 -571q33 -71 -6 -140l-293 -501h354q38 0 60 -22t22 -60v-152q0 -38 -22 -60t-60 -22h-680z" />
    <glyph glyph-name="minus" unicode="&#x2212;" horiz-adv-x="651" 
d="M100 547q-38 0 -60 22t-22 60v73q0 38 22 60t60 22h451q38 0 60 -22t22 -60v-73q0 -38 -22 -60t-60 -22h-451z" />
    <glyph glyph-name="radical" unicode="&#x221a;" horiz-adv-x="1400" 
d="M266 0q-72 0 -92 86l-164 723q-10 45 15 68.5t71 23.5h199q82 0 94 -90l72 -471h51l180 1223q12 75 86 75h529q38 0 60 -22t22 -60v-151q0 -38 -22 -60t-60 -22h-277l-237 -1249q-15 -74 -91 -74h-436z" />
    <glyph glyph-name="infinity" unicode="&#x221e;" horiz-adv-x="1079" 
d="M285 381q-116 0 -189 72t-73 211t75.5 212.5t206.5 73.5q81 0 144 -31t98 -85q105 116 250 116q115 0 187.5 -71.5t72.5 -210.5q0 -140 -75.5 -213.5t-207.5 -73.5q-78 0 -141 30.5t-98 86.5q-106 -117 -250 -117zM262 664q0 -30 17.5 -51t46.5 -21q28 0 51.5 19t52.5 57
q-22 37 -51 53t-53 16q-32 0 -48 -21t-16 -52zM649 662q22 -35 51 -52.5t54 -17.5q32 0 48.5 22.5t16.5 53.5q0 30 -18 49.5t-47 19.5q-50 0 -105 -75z" />
    <glyph glyph-name="integral" unicode="&#x222b;" horiz-adv-x="833" 
d="M92 -205q-82 0 -82 82v148q0 81 82 81q90 0 115.5 17.5t25.5 62.5v1074q0 378 508 378q82 0 82 -82v-147q0 -82 -82 -82q-90 0 -115.5 -17.5t-25.5 -62.5v-1073q0 -63 -14.5 -116.5t-50.5 -103t-92.5 -84t-145.5 -55t-205 -20.5z" />
    <glyph glyph-name="approxequal" unicode="&#x2248;" horiz-adv-x="651" 
d="M457 305q-43 0 -81.5 21.5t-71.5 43t-60 21.5q-19 0 -27 -8t-8 -27v-4q0 -51 -62 -51h-49q-61 0 -61 51v86q0 84 41.5 141.5t116.5 57.5q42 0 80.5 -21.5t71.5 -43t61 -21.5q19 0 26.5 8t7.5 27v4q0 51 62 51h49q61 0 61 -51v-86q0 -84 -41 -141.5t-116 -57.5zM37 741v86
q0 84 41.5 141.5t116.5 57.5q42 0 80.5 -21.5t71.5 -43t61 -21.5q19 0 26.5 8t7.5 27v4q0 51 62 51h49q61 0 61 -51v-86q0 -84 -41 -141.5t-116 -57.5q-43 0 -81.5 21.5t-71.5 43t-60 21.5q-19 0 -27 -8t-8 -27v-4q0 -51 -62 -51h-49q-61 0 -61 51z" />
    <glyph glyph-name="notequal" unicode="&#x2260;" horiz-adv-x="651" 
d="M100 725q-38 0 -60 22t-22 60v74q0 38 22 60t60 22h306l51 106q16 37 59 37h27q28 0 37.5 -16t-2.5 -41l-41 -86h14q38 0 60 -22t22 -60v-74q0 -38 -22 -60t-60 -22h-131l-58 -119h189q38 0 60 -22t22 -60v-73q0 -38 -22 -60t-60 -22h-303l-51 -107q-16 -37 -60 -37h-26
q-28 0 -37.5 16.5t2.5 41.5l41 86h-17q-38 0 -60 22t-22 60v73q0 38 22 60t60 22h133l58 119h-191z" />
    <glyph glyph-name="lessequal" unicode="&#x2264;" horiz-adv-x="651" 
d="M547 137h-451q-38 0 -60 22t-22 60v74q0 38 22 60t60 22h451q38 0 60 -22t22 -60v-74q0 -38 -22 -60t-60 -22zM33 674v106q0 74 61 97l426 161q44 17 70 0.5t26 -61.5v-94q0 -74 -63 -95l-191 -61l191 -61q63 -21 63 -95v-90q0 -46 -27.5 -62.5t-68.5 -0.5l-426 160
q-61 23 -61 96z" />
    <glyph glyph-name="greaterequal" unicode="&#x2265;" horiz-adv-x="651" 
d="M104 137q-38 0 -59.5 22t-21.5 60v74q0 38 21.5 60t59.5 22h451q38 0 60 -22t22 -60v-74q0 -38 -22 -60t-60 -22h-451zM35 481v90q0 74 63 95l191 61l-191 61q-63 21 -63 95v94q0 45 26 61.5t70 -0.5l426 -161q61 -23 61 -97v-106q0 -73 -61 -96l-426 -160
q-41 -16 -68.5 0.5t-27.5 62.5z" />
    <glyph glyph-name="lozenge" unicode="&#x25ca;" horiz-adv-x="1046" 
d="M301 0q-71 0 -92 68l-180 596q-17 53 0 106l180 596q21 68 92 68h442q72 0 93 -68l182 -596q17 -53 0 -106l-182 -596q-21 -68 -93 -68h-442zM414 717l102 -389h14l101 389l-101 389h-14z" />
    <glyph glyph-name="uniA78B" unicode="&#xa78b;" horiz-adv-x="311" 
d="M113 788q-59 0 -62 62l-33 522q-1 29 15.5 45.5t46.5 16.5h151q30 0 46.5 -16.5t15.5 -45.5l-33 -522q-1 -29 -20.5 -45.5t-49.5 -16.5h-77z" />
    <glyph glyph-name="uniA78C" unicode="&#xa78c;" horiz-adv-x="311" 
d="M113 748q-56 0 -62 61l-33 399q-3 29 14.5 45.5t47.5 16.5h151q30 0 47.5 -16.5t14.5 -45.5l-33 -399q-3 -29 -21.5 -45t-48.5 -16h-77z" />
    <glyph glyph-name="uniF8FF" unicode="&#xf8ff;" horiz-adv-x="2963" 
d="M180 -70q-20 13 -30 35l-64 160q-10 26 2 41l180 225l-39 33l-69 174q-9 25 0 43q103 188 269 288t345 58l76 84q9 9 23.5 10t23.5 -8l121 -112q15 -15 20 -27l74 -180l260 317q8 11 21.5 12t25.5 -10l127 -119q14 -12 19 -26l22 -54l92 107q10 13 26 14t28 -10l92 -80
l145 152q14 14 32 14.5t32 -14.5l104 -107q22 -22 27 -35l28 -63q88 113 205.5 199t218.5 86q129 0 181 -129l71 -172q33 -80 -20.5 -181.5t-177.5 -199.5l22 -21q12 -12 17 -24l71 -177q5 -13 -0.5 -25t-27.5 -34q-96 -93 -206.5 -146t-217.5 -53q-156 0 -222 105
q-128 -109 -258 -109q-85 0 -146.5 42.5t-88.5 115.5q-50 -64 -135 -109t-162 -45q-99 0 -157 45.5t-101 145.5q-57 -90 -141.5 -140.5t-186.5 -50.5q-42 0 -85.5 15t-70.5 41l-24 22l-154 -213q-11 -18 -25 -19.5t-32 9.5zM162 156l121 -76q56 82 127.5 180.5t78.5 108.5
q7 -65 54.5 -104.5t113.5 -39.5q134 0 223 100t103 238q72 -3 131 -12q-67 -54 -67 -141q0 -79 51.5 -132t144.5 -53q129 0 216 96t87 224q0 79 -38.5 150.5t-118.5 121.5l96 107l-84 77l-242 -296l68 -54l86 90q64 -32 95.5 -81t31.5 -105q0 -90 -56.5 -163t-130.5 -73
q-45 0 -72.5 29.5t-27.5 71.5q0 39 37.5 72.5t114.5 15.5l12 88q-141 49 -334 55q-9 127 -94 205l65 72l-75 73l-84 -90q-148 51 -310.5 -29.5t-255.5 -254.5l84 -64q62 125 172.5 198t231.5 60q-353 -413 -555 -665zM580 389q0 60 88.5 107t212.5 61q-18 -97 -79.5 -167.5
t-144.5 -70.5q-30 0 -53.5 19t-23.5 51zM645 586q23 24 77 86.5t95 107.5q58 -46 68 -133q-137 -9 -240 -61zM1587 395q0 -51 25.5 -93t72 -62.5t104 -19t130 43t141.5 119.5q11 -88 72.5 -129t144.5 -33t178.5 55.5t172.5 126.5l-70 72q-158 -143 -280 -143q-79 0 -105 59
q-18 42 2 98q146 46 276.5 127t208.5 172t78 166q0 51 -36 85t-87 34q-104 0 -243.5 -127.5t-247.5 -314.5q-31 -53 -85.5 -119t-129.5 -124t-131 -58q-57 0 -66 58q-13 78 64 194q27 40 63 80l113 -91l61 70l-100 94l170 176l-80 80q-55 -52 -174 -180l-115 104l-80 -86
l121 -98q-168 -185 -168 -336zM2202 580q123 178 239.5 289.5t171.5 109.5q25 0 25 -27q3 -55 -122 -167t-314 -205z" />
    <glyph glyph-name="u1F609" unicode="&#x1f609;" horiz-adv-x="1482" 
d="M741 0q-147 0 -260.5 33t-188 90.5t-122.5 143.5t-68 185t-20 220v110q0 121 20 220t68 185t122.5 143.5t188 90.5t260.5 33t260.5 -33t188 -90.5t122.5 -143t68.5 -185t20.5 -220.5v-110q0 -121 -20.5 -220.5t-68.5 -185t-122.5 -143t-188 -90.5t-260.5 -33zM176 682
q0 -143 25.5 -247t70.5 -170.5t117 -106t155.5 -55t196.5 -15.5t196.5 15.5t156 55t117.5 106t70.5 170.5t25.5 247v90q0 143 -25.5 247t-70.5 170.5t-117.5 106t-156 55t-196.5 15.5t-196.5 -15.5t-155.5 -55t-117 -106t-70.5 -170.5t-25.5 -247v-90zM299 1012
q-12 15 10 30l142 82q15 8 28 -8l6 -8q13 -16 -10 -31l-139 -80q-17 -11 -31 7zM336 608v277q0 33 20.5 51t55.5 18h170q73 0 73 -69v-19h179v19q0 33 20.5 51t54.5 18h170q74 0 74 -69v-277q-159 35 -319 0v221h-179v-221h-319zM371 645h247v223q0 54 -55 54h-135
q-57 0 -57 -54v-223zM438 764q0 26 17 42.5t43 16.5t42.5 -16.5t16.5 -42.5t-16.5 -42.5t-42.5 -16.5t-43 16.5t-17 42.5zM492 479q0 20 18 13q221 -86 442 0q8 3 13.5 -0.5t5.5 -12.5q-245 -193 -479 0zM868 645q56 20 130.5 19t117.5 -19v223q0 54 -55 54h-135
q-58 0 -58 -54v-223zM922 756v39q72 12 145 0v-39q-73 12 -145 0zM999 1110l7 8q13 16 28 8l142 -82q22 -15 10 -30l-6 -8q-14 -18 -31 -7l-139 80q-23 16 -11 31z" />
    <glyph glyph-name="uni004A0301" horiz-adv-x="978" 
d="M479 -25q-127 0 -218 34t-142.5 98.5t-75 146.5t-23.5 188v220q0 38 22 59.5t60 21.5h213q38 0 60 -21.5t22 -59.5v-246q0 -52 18.5 -76.5t63.5 -24.5t63.5 23.5t18.5 77.5v678h-233q-38 0 -60 22t-22 60v176q0 38 22 60t60 22h528q38 0 60 -22t22 -60v-910
q0 -84 -14 -152.5t-47 -128t-85 -100t-131 -63.5t-182 -23zM463 1587l110 185q28 45 72 45h186q36 0 49.5 -22.5t-6.5 -51.5l-124 -184q-30 -43 -74 -43h-168q-36 0 -49.5 20t4.5 51z" />
    <glyph glyph-name="A.ss01" 
d="M123 0q-38 0 -60 22t-22 60v905q0 106 23.5 188t75 146.5t142.5 98.5t218 34t218 -34t142.5 -98.5t74.5 -146t23 -188.5v-905q0 -38 -21.5 -60t-59.5 -22h-213q-38 0 -60 22t-22 60v301h-164v-301q0 -38 -22 -60t-60 -22h-213zM418 698h164v314q0 54 -18.5 78t-63.5 24
t-63.5 -24t-18.5 -78v-314z" />
    <glyph glyph-name="Aacute.ss01" 
d="M123 0q-38 0 -60 22t-22 60v905q0 106 23.5 188t75 146.5t142.5 98.5t218 34t218 -34t142.5 -98.5t74.5 -146t23 -188.5v-905q0 -38 -21.5 -60t-59.5 -22h-213q-38 0 -60 22t-22 60v301h-164v-301q0 -38 -22 -60t-60 -22h-213zM367 1587l110 185q28 45 72 45h186
q36 0 49.5 -22.5t-6.5 -51.5l-125 -184q-30 -43 -73 -43h-168q-36 0 -49.5 20t4.5 51zM418 698h164v314q0 54 -18.5 78t-63.5 24t-63.5 -24t-18.5 -78v-314z" />
    <glyph glyph-name="Abreve.ss01" 
d="M123 0q-38 0 -60 22t-22 60v905q0 106 23.5 188t75 146.5t142.5 98.5t218 34t218 -34t142.5 -98.5t74.5 -146t23 -188.5v-905q0 -38 -21.5 -60t-59.5 -22h-213q-38 0 -60 22t-22 60v301h-164v-301q0 -38 -22 -60t-60 -22h-213zM227 1712v19q0 57 72 57h59q74 0 74 -57
v-19q0 -51 68 -51q67 0 67 51v19q0 57 74 57h59q72 0 72 -57v-19q0 -112 -72 -157.5t-200 -45.5t-200.5 45.5t-72.5 157.5zM418 698h164v314q0 54 -18.5 78t-63.5 24t-63.5 -24t-18.5 -78v-314z" />
    <glyph glyph-name="Acircumflex.ss01" 
d="M123 0q-38 0 -60 22t-22 60v905q0 106 23.5 188t75 146.5t142.5 98.5t218 34t218 -34t142.5 -98.5t74.5 -146t23 -188.5v-905q0 -38 -21.5 -60t-59.5 -22h-213q-38 0 -60 22t-22 60v301h-164v-301q0 -38 -22 -60t-60 -22h-213zM193 1585l86 174q24 49 69 49h301
q46 0 70 -49l86 -174q14 -28 -0.5 -48.5t-48.5 -20.5h-150q-45 0 -65 55l-41 121l-43 -121q-9 -24 -33.5 -39.5t-52.5 -15.5h-129q-34 0 -48.5 20.5t-0.5 48.5zM418 698h164v314q0 54 -18.5 78t-63.5 24t-63.5 -24t-18.5 -78v-314z" />
    <glyph glyph-name="Adieresis.ss01" 
d="M123 0q-38 0 -60 22t-22 60v905q0 106 23.5 188t75 146.5t142.5 98.5t218 34t218 -34t142.5 -98.5t74.5 -146t23 -188.5v-905q0 -38 -21.5 -60t-59.5 -22h-213q-38 0 -60 22t-22 60v301h-164v-301q0 -38 -22 -60t-60 -22h-213zM160 1597v129q0 82 82 82h129q82 0 82 -82
v-129q0 -81 -82 -81h-129q-82 0 -82 81zM418 698h164v314q0 54 -18.5 78t-63.5 24t-63.5 -24t-18.5 -78v-314zM547 1597v129q0 82 82 82h129q82 0 82 -82v-129q0 -81 -82 -81h-129q-82 0 -82 81z" />
    <glyph glyph-name="Agrave.ss01" 
d="M123 0q-38 0 -60 22t-22 60v905q0 106 23.5 188t75 146.5t142.5 98.5t218 34t218 -34t142.5 -98.5t74.5 -146t23 -188.5v-905q0 -38 -21.5 -60t-59.5 -22h-213q-38 0 -60 22t-22 60v301h-164v-301q0 -38 -22 -60t-60 -22h-213zM188 1743q-20 29 -6.5 51.5t49.5 22.5h187
q43 0 71 -45l111 -185q18 -31 4.5 -51t-49.5 -20h-168q-44 0 -74 43zM418 698h164v314q0 54 -18.5 78t-63.5 24t-63.5 -24t-18.5 -78v-314z" />
    <glyph glyph-name="Amacron.ss01" 
d="M123 0q-38 0 -60 22t-22 60v905q0 106 23.5 188t75 146.5t142.5 98.5t218 34t218 -34t142.5 -98.5t74.5 -146t23 -188.5v-905q0 -38 -21.5 -60t-59.5 -22h-213q-38 0 -60 22t-22 60v301h-164v-301q0 -38 -22 -60t-60 -22h-213zM201 1577v113q0 61 61 61h473
q29 0 45.5 -16t16.5 -45v-113q0 -29 -16.5 -45t-45.5 -16h-473q-61 0 -61 61zM418 698h164v314q0 54 -18.5 78t-63.5 24t-63.5 -24t-18.5 -78v-314z" />
    <glyph glyph-name="Aogonek.ss01" 
d="M123 0q-38 0 -60 22t-22 60v905q0 106 23.5 188t75 146.5t142.5 98.5t218 34t218 -34t142.5 -98.5t74.5 -146t23 -188.5v-905q0 -38 -21.5 -60t-59.5 -22q-48 0 -48 -74v-18q0 -38 11.5 -53t36.5 -15h8q45 0 45 -47v-72q0 -55 -119 -55q-87 0 -137.5 43t-50.5 127
q0 67 28 107.5t97 56.5h-84q-38 0 -60 22t-22 60v301h-164v-301q0 -38 -22 -60t-60 -22h-213zM418 698h164v314q0 54 -18.5 78t-63.5 24t-63.5 -24t-18.5 -78v-314z" />
    <glyph glyph-name="Aring.ss01" 
d="M123 0q-38 0 -60 22t-22 60v905q0 106 23.5 188t75 146.5t142.5 98.5t218 34t218 -34t142.5 -98.5t74.5 -146t23 -188.5v-905q0 -38 -21.5 -60t-59.5 -22h-213q-38 0 -60 22t-22 60v301h-164v-301q0 -38 -22 -60t-60 -22h-213zM274 1704q0 93 61 152t165 59t164.5 -59
t60.5 -152t-60.5 -152t-164.5 -59t-165 59t-61 152zM418 698h164v314q0 54 -18.5 78t-63.5 24t-63.5 -24t-18.5 -78v-314zM436 1704q0 -28 17 -45t47 -17t46.5 17.5t16.5 44.5q0 28 -16.5 45.5t-46.5 17.5t-47 -16.5t-17 -46.5z" />
    <glyph glyph-name="Atilde.ss01" 
d="M123 0q-38 0 -60 22t-22 60v905q0 106 23.5 188t75 146.5t142.5 98.5t218 34t218 -34t142.5 -98.5t74.5 -146t23 -188.5v-905q0 -38 -21.5 -60t-59.5 -22h-213q-38 0 -60 22t-22 60v301h-164v-301q0 -38 -22 -60t-60 -22h-213zM170 1546v66q0 85 48.5 141.5t139.5 56.5
q50 0 106.5 -21t103.5 -42t73 -21q37 0 37 29v10q0 52 61 52h49q62 0 62 -52v-65q0 -85 -48.5 -142t-139.5 -57q-50 0 -106.5 21t-103.5 42t-73 21q-37 0 -37 -29v-10q0 -51 -61 -51h-50q-61 0 -61 51zM418 698h164v314q0 54 -18.5 78t-63.5 24t-63.5 -24t-18.5 -78v-314z
" />
    <glyph glyph-name="E.ss01" horiz-adv-x="937" 
d="M479 -25q-124 0 -215.5 29t-143 82t-76 118t-24.5 144v76q0 127 75.5 212t209.5 85v12q-129 0 -198.5 70.5t-69.5 208.5v57q0 60 12 113t43.5 104t80 87.5t127 58.5t179.5 22q119 0 206.5 -33.5t137 -93.5t72.5 -134t23 -165v-24q0 -38 -22 -60t-60 -22h-193
q-38 0 -60 22t-22 60v28q0 82 -74 82q-73 0 -73 -86v-49q0 -57 18.5 -86t79.5 -29h125q38 0 60 -22t22 -60v-116q0 -38 -22 -60t-60 -22h-141q-57 0 -78 -19.5t-21 -72.5v-76q0 -101 82 -101q43 0 62.5 22t19.5 58v31q0 38 22 60t60 22h193q38 0 60 -22t22 -60v-25
q0 -204 -102 -315t-337 -111z" />
    <glyph glyph-name="Eacute.ss01" horiz-adv-x="937" 
d="M479 -25q-124 0 -215.5 29t-143 82t-76 118t-24.5 144v76q0 127 75.5 212t209.5 85v12q-129 0 -198.5 70.5t-69.5 208.5v57q0 60 12 113t43.5 104t80 87.5t127 58.5t179.5 22q119 0 206.5 -33.5t137 -93.5t72.5 -134t23 -165v-24q0 -38 -22 -60t-60 -22h-193
q-38 0 -60 22t-22 60v28q0 82 -74 82q-73 0 -73 -86v-49q0 -57 18.5 -86t79.5 -29h125q38 0 60 -22t22 -60v-116q0 -38 -22 -60t-60 -22h-141q-57 0 -78 -19.5t-21 -72.5v-76q0 -101 82 -101q43 0 62.5 22t19.5 58v31q0 38 22 60t60 22h193q38 0 60 -22t22 -60v-25
q0 -204 -102 -315t-337 -111zM334 1587l110 185q28 45 72 45h186q36 0 49.5 -22.5t-6.5 -51.5l-124 -184q-30 -43 -74 -43h-168q-36 0 -49.5 20t4.5 51z" />
    <glyph glyph-name="Ecaron.ss01" horiz-adv-x="937" 
d="M479 -25q-124 0 -215.5 29t-143 82t-76 118t-24.5 144v76q0 127 75.5 212t209.5 85v12q-129 0 -198.5 70.5t-69.5 208.5v57q0 60 12 113t43.5 104t80 87.5t127 58.5t179.5 22q119 0 206.5 -33.5t137 -93.5t72.5 -134t23 -165v-24q0 -38 -22 -60t-60 -22h-193
q-38 0 -60 22t-22 60v28q0 82 -74 82q-73 0 -73 -86v-49q0 -57 18.5 -86t79.5 -29h125q38 0 60 -22t22 -60v-116q0 -38 -22 -60t-60 -22h-141q-57 0 -78 -19.5t-21 -72.5v-76q0 -101 82 -101q43 0 62.5 22t19.5 58v31q0 38 22 60t60 22h193q38 0 60 -22t22 -60v-25
q0 -204 -102 -315t-337 -111zM158 1757q-14 28 0.5 49t48.5 21h149q46 0 66 -55l43 -121l41 121q9 24 33.5 39.5t52.5 15.5h129q34 0 48.5 -21t0.5 -49l-86 -174q-24 -49 -70 -49h-301q-45 0 -69 49z" />
    <glyph glyph-name="Ecircumflex.ss01" horiz-adv-x="937" 
d="M479 -25q-124 0 -215.5 29t-143 82t-76 118t-24.5 144v76q0 127 75.5 212t209.5 85v12q-129 0 -198.5 70.5t-69.5 208.5v57q0 60 12 113t43.5 104t80 87.5t127 58.5t179.5 22q119 0 206.5 -33.5t137 -93.5t72.5 -134t23 -165v-24q0 -38 -22 -60t-60 -22h-193
q-38 0 -60 22t-22 60v28q0 82 -74 82q-73 0 -73 -86v-49q0 -57 18.5 -86t79.5 -29h125q38 0 60 -22t22 -60v-116q0 -38 -22 -60t-60 -22h-141q-57 0 -78 -19.5t-21 -72.5v-76q0 -101 82 -101q43 0 62.5 22t19.5 58v31q0 38 22 60t60 22h193q38 0 60 -22t22 -60v-25
q0 -204 -102 -315t-337 -111zM160 1585l86 174q24 49 69 49h301q46 0 70 -49l86 -174q14 -28 -0.5 -48.5t-48.5 -20.5h-150q-45 0 -65 55l-41 121l-43 -121q-9 -24 -33.5 -39.5t-52.5 -15.5h-129q-34 0 -48.5 20.5t-0.5 48.5z" />
    <glyph glyph-name="Edieresis.ss01" horiz-adv-x="937" 
d="M479 -25q-124 0 -215.5 29t-143 82t-76 118t-24.5 144v76q0 127 75.5 212t209.5 85v12q-129 0 -198.5 70.5t-69.5 208.5v57q0 60 12 113t43.5 104t80 87.5t127 58.5t179.5 22q119 0 206.5 -33.5t137 -93.5t72.5 -134t23 -165v-24q0 -38 -22 -60t-60 -22h-193
q-38 0 -60 22t-22 60v28q0 82 -74 82q-73 0 -73 -86v-49q0 -57 18.5 -86t79.5 -29h125q38 0 60 -22t22 -60v-116q0 -38 -22 -60t-60 -22h-141q-57 0 -78 -19.5t-21 -72.5v-76q0 -101 82 -101q43 0 62.5 22t19.5 58v31q0 38 22 60t60 22h193q38 0 60 -22t22 -60v-25
q0 -204 -102 -315t-337 -111zM127 1597v129q0 82 82 82h129q82 0 82 -82v-129q0 -81 -82 -81h-129q-82 0 -82 81zM514 1597v129q0 82 82 82h129q82 0 82 -82v-129q0 -81 -82 -81h-129q-82 0 -82 81z" />
    <glyph glyph-name="Edotaccent.ss01" horiz-adv-x="937" 
d="M479 -25q-124 0 -215.5 29t-143 82t-76 118t-24.5 144v76q0 127 75.5 212t209.5 85v12q-129 0 -198.5 70.5t-69.5 208.5v57q0 60 12 113t43.5 104t80 87.5t127 58.5t179.5 22q119 0 206.5 -33.5t137 -93.5t72.5 -134t23 -165v-24q0 -38 -22 -60t-60 -22h-193
q-38 0 -60 22t-22 60v28q0 82 -74 82q-73 0 -73 -86v-49q0 -57 18.5 -86t79.5 -29h125q38 0 60 -22t22 -60v-116q0 -38 -22 -60t-60 -22h-141q-57 0 -78 -19.5t-21 -72.5v-76q0 -101 82 -101q43 0 62.5 22t19.5 58v31q0 38 22 60t60 22h193q38 0 60 -22t22 -60v-25
q0 -204 -102 -315t-337 -111zM336 1577v100q0 29 16 45.5t45 16.5h148q29 0 45 -16.5t16 -45.5v-100q0 -61 -61 -61h-148q-61 0 -61 61z" />
    <glyph glyph-name="Egrave.ss01" horiz-adv-x="937" 
d="M479 -25q-124 0 -215.5 29t-143 82t-76 118t-24.5 144v76q0 127 75.5 212t209.5 85v12q-129 0 -198.5 70.5t-69.5 208.5v57q0 60 12 113t43.5 104t80 87.5t127 58.5t179.5 22q119 0 206.5 -33.5t137 -93.5t72.5 -134t23 -165v-24q0 -38 -22 -60t-60 -22h-193
q-38 0 -60 22t-22 60v28q0 82 -74 82q-73 0 -73 -86v-49q0 -57 18.5 -86t79.5 -29h125q38 0 60 -22t22 -60v-116q0 -38 -22 -60t-60 -22h-141q-57 0 -78 -19.5t-21 -72.5v-76q0 -101 82 -101q43 0 62.5 22t19.5 58v31q0 38 22 60t60 22h193q38 0 60 -22t22 -60v-25
q0 -204 -102 -315t-337 -111zM156 1743q-20 29 -6.5 51.5t49.5 22.5h186q44 0 72 -45l110 -185q18 -31 4.5 -51t-49.5 -20h-168q-43 0 -73 43z" />
    <glyph glyph-name="Emacron.ss01" horiz-adv-x="937" 
d="M479 -25q-124 0 -215.5 29t-143 82t-76 118t-24.5 144v76q0 127 75.5 212t209.5 85v12q-129 0 -198.5 70.5t-69.5 208.5v57q0 60 12 113t43.5 104t80 87.5t127 58.5t179.5 22q119 0 206.5 -33.5t137 -93.5t72.5 -134t23 -165v-24q0 -38 -22 -60t-60 -22h-193
q-38 0 -60 22t-22 60v28q0 82 -74 82q-73 0 -73 -86v-49q0 -57 18.5 -86t79.5 -29h125q38 0 60 -22t22 -60v-116q0 -38 -22 -60t-60 -22h-141q-57 0 -78 -19.5t-21 -72.5v-76q0 -101 82 -101q43 0 62.5 22t19.5 58v31q0 38 22 60t60 22h193q38 0 60 -22t22 -60v-25
q0 -204 -102 -315t-337 -111zM168 1577v113q0 61 61 61h473q29 0 45.5 -16t16.5 -45v-113q0 -29 -16.5 -45t-45.5 -16h-473q-61 0 -61 61z" />
    <glyph glyph-name="Eogonek.ss01" horiz-adv-x="937" 
d="M743 -258q0 -55 -118 -55q-88 0 -138.5 43t-50.5 127q0 79 39 118q-123 1 -213.5 30t-142 81.5t-75.5 117t-24 144.5v76q0 127 75.5 212t209.5 85v12q-129 0 -198.5 70.5t-69.5 208.5v57q0 60 12 113t43.5 104t80 87.5t127 58.5t179.5 22q119 0 206.5 -33.5t137 -93.5
t72.5 -134t23 -165v-24q0 -38 -22 -60t-60 -22h-193q-38 0 -60 22t-22 60v28q0 82 -74 82q-73 0 -73 -86v-49q0 -57 18.5 -86t79.5 -29h125q38 0 60 -22t22 -60v-116q0 -38 -22 -60t-60 -22h-141q-57 0 -78 -19.5t-21 -72.5v-76q0 -101 82 -101q43 0 62.5 22t19.5 58v31
q0 38 22 60t60 22h193q38 0 60 -22t22 -60v-25q0 -336 -267 -405q-8 -16 -8 -49v-19q0 -38 11 -52.5t36 -14.5h8q45 0 45 -47v-72z" />
    <glyph glyph-name="uni1EBC.ss01" horiz-adv-x="937" 
d="M479 -25q-124 0 -215.5 29t-143 82t-76 118t-24.5 144v76q0 127 75.5 212t209.5 85v12q-129 0 -198.5 70.5t-69.5 208.5v57q0 60 12 113t43.5 104t80 87.5t127 58.5t179.5 22q119 0 206.5 -33.5t137 -93.5t72.5 -134t23 -165v-24q0 -38 -22 -60t-60 -22h-193
q-38 0 -60 22t-22 60v28q0 82 -74 82q-73 0 -73 -86v-49q0 -57 18.5 -86t79.5 -29h125q38 0 60 -22t22 -60v-116q0 -38 -22 -60t-60 -22h-141q-57 0 -78 -19.5t-21 -72.5v-76q0 -101 82 -101q43 0 62.5 22t19.5 58v31q0 38 22 60t60 22h193q38 0 60 -22t22 -60v-25
q0 -204 -102 -315t-337 -111zM137 1546v66q0 85 49 141.5t140 56.5q50 0 106.5 -21t103 -42t72.5 -21q37 0 37 29v10q0 52 62 52h49q61 0 61 -52v-65q0 -85 -48.5 -142t-139.5 -57q-50 0 -106.5 21t-103.5 42t-73 21q-37 0 -37 -29v-10q0 -51 -61 -51h-49q-62 0 -62 51z" />
    <glyph glyph-name="Gbreve.ss01" horiz-adv-x="993" 
d="M303 -12q-129 0 -197.5 91t-68.5 257v704q0 414 457 414q458 0 458 -414v-53q0 -38 -22 -60t-60 -22h-213q-38 0 -60 22t-22 60v53q0 56 -18.5 79.5t-62.5 23.5q-43 0 -61.5 -24t-18.5 -79v-585q0 -65 18 -92t60 -27q47 0 66.5 30.5t19.5 104.5v291q0 38 21.5 60t59.5 22
h213q38 0 60 -22t22 -60v-680q0 -38 -22 -60t-60 -22h-213q-38 0 -59.5 22t-21.5 60v94h-25q-8 -33 -16.5 -56t-27 -50t-43.5 -43.5t-67 -27.5t-96 -11zM229 1712v19q0 57 72 57h59q74 0 74 -57v-19q0 -51 68 -51q67 0 67 51v19q0 57 74 57h59q72 0 72 -57v-19
q0 -112 -72 -157.5t-200 -45.5t-200.5 45.5t-72.5 157.5z" />
    <glyph glyph-name="Gcircumflex.ss01" horiz-adv-x="993" 
d="M303 -12q-129 0 -197.5 91t-68.5 257v704q0 414 457 414q458 0 458 -414v-53q0 -38 -22 -60t-60 -22h-213q-38 0 -60 22t-22 60v53q0 56 -18.5 79.5t-62.5 23.5q-43 0 -61.5 -24t-18.5 -79v-585q0 -65 18 -92t60 -27q47 0 66.5 30.5t19.5 104.5v291q0 38 21.5 60t59.5 22
h213q38 0 60 -22t22 -60v-680q0 -38 -22 -60t-60 -22h-213q-38 0 -59.5 22t-21.5 60v94h-25q-8 -33 -16.5 -56t-27 -50t-43.5 -43.5t-67 -27.5t-96 -11zM195 1585l86 174q24 49 69 49h301q46 0 70 -49l86 -174q14 -28 -0.5 -48.5t-48.5 -20.5h-150q-45 0 -65 55l-41 121
l-43 -121q-9 -24 -33.5 -39.5t-52.5 -15.5h-129q-34 0 -48.5 20.5t-0.5 48.5z" />
    <glyph glyph-name="uni0122.ss01" horiz-adv-x="993" 
d="M303 -12q-129 0 -197.5 91t-68.5 257v704q0 414 457 414q458 0 458 -414v-53q0 -38 -22 -60t-60 -22h-213q-38 0 -60 22t-22 60v53q0 56 -18.5 79.5t-62.5 23.5q-43 0 -61.5 -24t-18.5 -79v-585q0 -65 18 -92t60 -27q47 0 66.5 30.5t19.5 104.5v291q0 38 21.5 60t59.5 22
h213q38 0 60 -22t22 -60v-680q0 -38 -22 -60t-60 -22h-213q-38 0 -59.5 22t-21.5 60v94h-25q-8 -33 -16.5 -56t-27 -50t-43.5 -43.5t-67 -27.5t-96 -11zM291 -420l41 131v148q0 61 61 61h215q29 0 45.5 -16t16.5 -45v-72q0 -38 -21 -76l-94 -160q-22 -40 -74 -40h-139
q-32 0 -46 19t-5 50z" />
    <glyph glyph-name="Gdotaccent.ss01" horiz-adv-x="993" 
d="M303 -12q-129 0 -197.5 91t-68.5 257v704q0 414 457 414q458 0 458 -414v-53q0 -38 -22 -60t-60 -22h-213q-38 0 -60 22t-22 60v53q0 56 -18.5 79.5t-62.5 23.5q-43 0 -61.5 -24t-18.5 -79v-585q0 -65 18 -92t60 -27q47 0 66.5 30.5t19.5 104.5v291q0 38 21.5 60t59.5 22
h213q38 0 60 -22t22 -60v-680q0 -38 -22 -60t-60 -22h-213q-38 0 -59.5 22t-21.5 60v94h-25q-8 -33 -16.5 -56t-27 -50t-43.5 -43.5t-67 -27.5t-96 -11zM371 1577v100q0 29 16 45.5t45 16.5h148q29 0 45 -16.5t16 -45.5v-100q0 -61 -61 -61h-148q-61 0 -61 61z" />
    <glyph glyph-name="A.ss02" horiz-adv-x="940" 
d="M90 0q-41 0 -61 23t-15 63l144 1266q6 82 82 82h442q74 0 84 -82l160 -1266q4 -41 -16.5 -63.5t-61.5 -22.5h-225q-38 0 -59 21.5t-23 60.5l-11 192h-131l-10 -196q-1 -38 -24 -58t-62 -20h-213zM414 594h102l-24 496h-54z" />
    <glyph glyph-name="Aacute.ss02" horiz-adv-x="940" 
d="M90 0q-41 0 -61 23t-15 63l144 1266q6 82 82 82h442q74 0 84 -82l160 -1266q4 -41 -16.5 -63.5t-61.5 -22.5h-225q-38 0 -59 21.5t-23 60.5l-11 192h-131l-10 -196q-1 -38 -24 -58t-62 -20h-213zM338 1587l111 185q28 45 71 45h187q36 0 49.5 -22.5t-6.5 -51.5l-125 -184
q-30 -43 -74 -43h-168q-36 0 -49.5 20t4.5 51zM414 594h102l-24 496h-54z" />
    <glyph glyph-name="Abreve.ss02" horiz-adv-x="940" 
d="M90 0q-41 0 -61 23t-15 63l144 1266q6 82 82 82h442q74 0 84 -82l160 -1266q4 -41 -16.5 -63.5t-61.5 -22.5h-225q-38 0 -59 21.5t-23 60.5l-11 192h-131l-10 -196q-1 -38 -24 -58t-62 -20h-213zM199 1712v19q0 57 71 57h60q73 0 73 -57v-19q0 -51 68 -51t68 51v19
q0 57 73 57h60q71 0 71 -57v-19q0 -112 -72 -157.5t-200 -45.5t-200 45.5t-72 157.5zM414 594h102l-24 496h-54z" />
    <glyph glyph-name="Acircumflex.ss02" horiz-adv-x="940" 
d="M90 0q-41 0 -61 23t-15 63l144 1266q6 82 82 82h442q74 0 84 -82l160 -1266q4 -41 -16.5 -63.5t-61.5 -22.5h-225q-38 0 -59 21.5t-23 60.5l-11 192h-131l-10 -196q-1 -38 -24 -58t-62 -20h-213zM164 1585l86 174q24 49 69 49h302q45 0 69 -49l86 -174q14 -28 -0.5 -48.5
t-48.5 -20.5h-149q-46 0 -66 55l-41 121l-43 -121q-9 -24 -33.5 -39.5t-52.5 -15.5h-129q-34 0 -48.5 20.5t-0.5 48.5zM414 594h102l-24 496h-54z" />
    <glyph glyph-name="Adieresis.ss02" horiz-adv-x="940" 
d="M90 0q-41 0 -61 23t-15 63l144 1266q6 82 82 82h442q74 0 84 -82l160 -1266q4 -41 -16.5 -63.5t-61.5 -22.5h-225q-38 0 -59 21.5t-23 60.5l-11 192h-131l-10 -196q-1 -38 -24 -58t-62 -20h-213zM131 1597v129q0 82 82 82h129q82 0 82 -82v-129q0 -81 -82 -81h-129
q-82 0 -82 81zM414 594h102l-24 496h-54zM518 1597v129q0 82 82 82h129q82 0 82 -82v-129q0 -81 -82 -81h-129q-82 0 -82 81z" />
    <glyph glyph-name="Agrave.ss02" horiz-adv-x="940" 
d="M90 0q-41 0 -61 23t-15 63l144 1266q6 82 82 82h442q74 0 84 -82l160 -1266q4 -41 -16.5 -63.5t-61.5 -22.5h-225q-38 0 -59 21.5t-23 60.5l-11 192h-131l-10 -196q-1 -38 -24 -58t-62 -20h-213zM160 1743q-20 29 -6.5 51.5t49.5 22.5h186q44 0 72 -45l110 -185
q18 -31 4.5 -51t-49.5 -20h-168q-43 0 -73 43zM414 594h102l-24 496h-54z" />
    <glyph glyph-name="Amacron.ss02" horiz-adv-x="940" 
d="M90 0q-41 0 -61 23t-15 63l144 1266q6 82 82 82h442q74 0 84 -82l160 -1266q4 -41 -16.5 -63.5t-61.5 -22.5h-225q-38 0 -59 21.5t-23 60.5l-11 192h-131l-10 -196q-1 -38 -24 -58t-62 -20h-213zM172 1577v113q0 61 61 61h474q61 0 61 -61v-113q0 -61 -61 -61h-474
q-61 0 -61 61zM414 594h102l-24 496h-54z" />
    <glyph glyph-name="Aogonek.ss02" horiz-adv-x="940" 
d="M90 0q-41 0 -61 23t-15 63l144 1266q6 82 82 82h442q74 0 84 -82l160 -1266q4 -41 -16.5 -63.5t-61.5 -22.5h-10q-47 0 -47 -74v-18q0 -38 11.5 -53t35.5 -15h8q45 0 45 -47v-72q0 -55 -119 -55q-87 0 -137.5 43t-50.5 127q0 67 28 107.5t97 56.5h-86q-38 0 -59 21.5
t-23 60.5l-11 192h-131l-10 -196q-1 -38 -24 -58t-62 -20h-213zM414 594h102l-24 496h-54z" />
    <glyph glyph-name="Aring.ss02" horiz-adv-x="940" 
d="M90 0q-41 0 -61 23t-15 63l144 1266q6 82 82 82h442q74 0 84 -82l160 -1266q4 -41 -16.5 -63.5t-61.5 -22.5h-225q-38 0 -59 21.5t-23 60.5l-11 192h-131l-10 -196q-1 -38 -24 -58t-62 -20h-213zM246 1704q0 93 60.5 152t164.5 59t164.5 -59t60.5 -152t-60.5 -152
t-164.5 -59t-164.5 59t-60.5 152zM408 1704q0 -28 16.5 -45t46.5 -17t47 17.5t17 44.5q0 28 -17 45.5t-47 17.5t-46.5 -16.5t-16.5 -46.5zM414 594h102l-24 496h-54z" />
    <glyph glyph-name="Atilde.ss02" horiz-adv-x="940" 
d="M90 0q-41 0 -61 23t-15 63l144 1266q6 82 82 82h442q74 0 84 -82l160 -1266q4 -41 -16.5 -63.5t-61.5 -22.5h-225q-38 0 -59 21.5t-23 60.5l-11 192h-131l-10 -196q-1 -38 -24 -58t-62 -20h-213zM141 1546v66q0 85 49 141.5t140 56.5q50 0 106.5 -21t103 -42t72.5 -21
q37 0 37 29v10q0 52 62 52h49q61 0 61 -52v-65q0 -85 -48.5 -142t-139.5 -57q-50 0 -106.5 21t-103.5 42t-73 21q-37 0 -37 -29v-10q0 -51 -61 -51h-49q-62 0 -62 51zM414 594h102l-24 496h-54z" />
    <glyph glyph-name="G.ss02" horiz-adv-x="974" 
d="M291 442q-129 0 -197.5 91.5t-68.5 257.5v249q0 414 456 414q127 0 218.5 -32t143 -90t74.5 -130t23 -162v-12q0 -38 -22 -60t-60 -22h-213q-38 0 -60 22t-22 60v12q0 56 -19 79.5t-63 23.5q-43 0 -61.5 -24t-18.5 -79v-217q0 -65 18 -91.5t60 -26.5q47 0 66.5 26
t19.5 92q0 38 22 60t60 22h213q38 0 60 -22t22 -60v-446q0 -86 -23 -155.5t-74.5 -126.5t-143 -88.5t-218.5 -31.5q-90 0 -161 16.5t-118 45t-78 69t-44.5 85.5t-13.5 96v22q0 38 22 60t60 22h172q38 0 59.5 -22t21.5 -60v-2q0 -84 80 -84q82 0 82 84v318h-16
q-22 -86 -90 -134.5t-168 -48.5z" />
    <glyph glyph-name="Gbreve.ss02" horiz-adv-x="974" 
d="M291 442q-129 0 -197.5 91.5t-68.5 257.5v249q0 414 456 414q127 0 218.5 -32t143 -90t74.5 -130t23 -162v-12q0 -38 -22 -60t-60 -22h-213q-38 0 -60 22t-22 60v12q0 56 -19 79.5t-63 23.5q-43 0 -61.5 -24t-18.5 -79v-217q0 -65 18 -91.5t60 -26.5q47 0 66.5 26
t19.5 92q0 38 22 60t60 22h213q38 0 60 -22t22 -60v-446q0 -86 -23 -155.5t-74.5 -126.5t-143 -88.5t-218.5 -31.5q-90 0 -161 16.5t-118 45t-78 69t-44.5 85.5t-13.5 96v22q0 38 22 60t60 22h172q38 0 59.5 -22t21.5 -60v-2q0 -84 80 -84q82 0 82 84v318h-16
q-22 -86 -90 -134.5t-168 -48.5zM213 1712v19q0 57 72 57h59q74 0 74 -57v-19q0 -51 67 -51q68 0 68 51v19q0 57 74 57h59q72 0 72 -57v-19q0 -112 -72.5 -157.5t-200.5 -45.5t-200 45.5t-72 157.5z" />
    <glyph glyph-name="Gcircumflex.ss02" horiz-adv-x="974" 
d="M291 442q-129 0 -197.5 91.5t-68.5 257.5v249q0 414 456 414q127 0 218.5 -32t143 -90t74.5 -130t23 -162v-12q0 -38 -22 -60t-60 -22h-213q-38 0 -60 22t-22 60v12q0 56 -19 79.5t-63 23.5q-43 0 -61.5 -24t-18.5 -79v-217q0 -65 18 -91.5t60 -26.5q47 0 66.5 26
t19.5 92q0 38 22 60t60 22h213q38 0 60 -22t22 -60v-446q0 -86 -23 -155.5t-74.5 -126.5t-143 -88.5t-218.5 -31.5q-90 0 -161 16.5t-118 45t-78 69t-44.5 85.5t-13.5 96v22q0 38 22 60t60 22h172q38 0 59.5 -22t21.5 -60v-2q0 -84 80 -84q82 0 82 84v318h-16
q-22 -86 -90 -134.5t-168 -48.5zM178 1585l86 174q24 49 70 49h301q46 0 70 -49l86 -174q14 -28 -1 -48.5t-49 -20.5h-149q-46 0 -66 55l-41 121l-43 -121q-9 -24 -33.5 -39.5t-52.5 -15.5h-129q-34 0 -48.5 20.5t-0.5 48.5z" />
    <glyph glyph-name="uni0122.ss02" horiz-adv-x="974" 
d="M291 442q-129 0 -197.5 91.5t-68.5 257.5v249q0 414 456 414q127 0 218.5 -32t143 -90t74.5 -130t23 -162v-12q0 -38 -22 -60t-60 -22h-213q-38 0 -60 22t-22 60v12q0 56 -19 79.5t-63 23.5q-43 0 -61.5 -24t-18.5 -79v-217q0 -65 18 -91.5t60 -26.5q47 0 66.5 26
t19.5 92q0 38 22 60t60 22h213q38 0 60 -22t22 -60v-446q0 -86 -23 -155.5t-74.5 -126.5t-143 -88.5t-218.5 -31.5q-90 0 -161 16.5t-118 45t-78 69t-44.5 85.5t-13.5 96v22q0 38 22 60t60 22h172q38 0 59.5 -22t21.5 -60v-2q0 -84 80 -84q82 0 82 84v318h-16
q-22 -86 -90 -134.5t-168 -48.5zM272 -444l41 131v147q0 29 16.5 45.5t45.5 16.5h215q29 0 45 -16.5t16 -45.5v-72q0 -39 -20 -75l-94 -160q-23 -41 -74 -41h-139q-32 0 -46.5 19.5t-5.5 50.5z" />
    <glyph glyph-name="Gdotaccent.ss02" horiz-adv-x="974" 
d="M291 442q-129 0 -197.5 91.5t-68.5 257.5v249q0 414 456 414q127 0 218.5 -32t143 -90t74.5 -130t23 -162v-12q0 -38 -22 -60t-60 -22h-213q-38 0 -60 22t-22 60v12q0 56 -19 79.5t-63 23.5q-43 0 -61.5 -24t-18.5 -79v-217q0 -65 18 -91.5t60 -26.5q47 0 66.5 26
t19.5 92q0 38 22 60t60 22h213q38 0 60 -22t22 -60v-446q0 -86 -23 -155.5t-74.5 -126.5t-143 -88.5t-218.5 -31.5q-90 0 -161 16.5t-118 45t-78 69t-44.5 85.5t-13.5 96v22q0 38 22 60t60 22h172q38 0 59.5 -22t21.5 -60v-2q0 -84 80 -84q82 0 82 84v318h-16
q-22 -86 -90 -134.5t-168 -48.5zM354 1577v100q0 29 16.5 45.5t45.5 16.5h147q29 0 45.5 -16.5t16.5 -45.5v-100q0 -29 -16.5 -45t-45.5 -16h-147q-29 0 -45.5 16t-16.5 45z" />
    <glyph glyph-name="M.ss02" horiz-adv-x="1540" 
d="M123 0q-38 0 -60 22t-22 60v907q0 105 22.5 187.5t70.5 146.5t130 98.5t195 34.5q230 0 309 -168q82 170 313 170q112 0 194 -34t130.5 -98t71 -147t22.5 -188v-909q0 -38 -22 -60t-60 -22h-213q-38 0 -60 22t-22 60v936q0 52 -18.5 76t-63.5 24t-63.5 -23.5t-18.5 -76.5
v-936q0 -38 -21.5 -60t-59.5 -22h-213q-38 0 -60 22t-22 60v934q0 52 -18.5 76t-63.5 24t-63.5 -23.5t-18.5 -76.5v-934q0 -38 -22 -60t-60 -22h-213z" />
    <glyph glyph-name="N.ss02" horiz-adv-x="1019" 
d="M680 0q-38 0 -60 22t-22 60v971q0 82 -70 82q-45 0 -73.5 -35t-28.5 -103v-915q0 -38 -22 -60t-60 -22h-213q-38 0 -60 22t-22 60v1270q0 38 22 60t60 22h154q78 0 88 -91l4 -40q105 147 295 147q303 0 303 -305v-1063q0 -38 -22 -60t-60 -22h-213z" />
    <glyph glyph-name="Nacute.ss02" horiz-adv-x="1019" 
d="M680 0q-38 0 -60 22t-22 60v971q0 82 -70 82q-45 0 -73.5 -35t-28.5 -103v-915q0 -38 -22 -60t-60 -22h-213q-38 0 -60 22t-22 60v1270q0 38 22 60t60 22h154q78 0 88 -91l4 -40q105 147 295 147q303 0 303 -305v-1063q0 -38 -22 -60t-60 -22h-213zM377 1587l110 185
q28 45 72 45h186q36 0 49.5 -22.5t-6.5 -51.5l-124 -184q-30 -43 -74 -43h-168q-36 0 -49.5 20t4.5 51z" />
    </font>
</defs>
</svg>
