 <svg
                              xmlns="http://www.w3.org/2000/svg"
                              width="14"
                              height="15"
                              viewBox="0 0 14 15"
                              fill="none"
                            >
                              <g clipPath="url(#clip0_0_95)">
                                <path
                                  d="M6.63038 4.80319e-09C7.20202 -3.74237e-05 7.75201 0.218671 8.16752 0.61126C8.58299 1.00384 8.83255 1.54055 8.86493 2.11128L8.8684 2.23799H12.4835C12.6144 2.23802 12.7404 2.28773 12.836 2.37707C12.9316 2.46639 12.9897 2.58869 12.9987 2.71924C13.0076 2.84979 12.9666 2.97885 12.884 3.08035C12.8015 3.18186 12.6834 3.24824 12.5538 3.26608L12.4835 3.2709H11.9354L11.054 12.2366C11.0099 12.6836 10.8082 13.1003 10.4852 13.4123C10.1621 13.7244 9.73869 13.9116 9.29045 13.9402L9.16926 13.9443H4.09148C3.64213 13.9443 3.20744 13.7845 2.86507 13.4935C2.5227 13.2025 2.29497 12.7992 2.22259 12.3557L2.20676 12.2359L1.32464 3.2709H0.777199C0.652397 3.27089 0.531819 3.2257 0.437763 3.14367C0.343706 3.06164 0.282536 2.94832 0.265562 2.82468L0.260742 2.75444C0.260747 2.62963 0.305944 2.50906 0.387974 2.415C0.470005 2.32095 0.583319 2.25978 0.706961 2.2428L0.777199 2.23799H4.3924C4.3924 1.64443 4.62819 1.07519 5.04789 0.655489C5.46759 0.235787 6.03683 4.80319e-09 6.63038 4.80319e-09ZM10.8977 3.2709H2.36238L3.23485 12.1347C3.25417 12.3325 3.34132 12.5174 3.48152 12.6583C3.62173 12.7991 3.80633 12.8871 4.00402 12.9073L4.09148 12.9114H9.16926C9.58247 12.9114 9.93298 12.6188 10.0129 12.2215L10.0266 12.1347L10.8977 3.2709ZM7.83545 5.16457C7.96025 5.16458 8.08083 5.20977 8.17489 5.29181C8.26894 5.37384 8.33012 5.48715 8.34708 5.61079L8.35191 5.68103V10.5013C8.35187 10.6322 8.30216 10.7581 8.21283 10.8537C8.1235 10.9494 8.0012 11.0074 7.87066 11.0164C7.7401 11.0253 7.61104 10.9843 7.50953 10.9018C7.40802 10.8192 7.34165 10.7011 7.32381 10.5715L7.31899 10.5013V5.68103C7.31899 5.54406 7.37341 5.41269 7.47026 5.31584C7.56712 5.21899 7.69847 5.16457 7.83545 5.16457ZM5.42531 5.16457C5.55012 5.16458 5.67069 5.20977 5.76475 5.29181C5.85881 5.37384 5.91998 5.48715 5.93695 5.61079L5.94177 5.68103V10.5013C5.94173 10.6322 5.89203 10.7581 5.8027 10.8537C5.71336 10.9494 5.59107 11.0074 5.46051 11.0164C5.32997 11.0253 5.2009 10.9843 5.0994 10.9018C4.99789 10.8192 4.93151 10.7011 4.91368 10.5715L4.90886 10.5013V5.68103C4.90886 5.54406 4.96327 5.41269 5.06013 5.31584C5.15698 5.21899 5.28834 5.16457 5.42531 5.16457ZM6.63038 1.03291C6.32795 1.03292 6.03658 1.14665 5.81411 1.35152C5.59164 1.55639 5.45433 1.83742 5.42944 2.13882L5.42531 2.23799H7.83545C7.83545 1.91838 7.70849 1.61186 7.48249 1.38587C7.2565 1.15988 6.94999 1.03291 6.63038 1.03291Z"
                                  fill="black"
                                />
                              </g>
                              <defs>
                                <clipPath id="clip0_0_95">
                                  <rect
                                    width="13.2174"
                                    height="14.0435"
                                    fill="white"
                                    transform="translate(0.260742)"
                                  />
                                </clipPath>
                              </defs>
                            </svg>