<svg width="15" height="15" viewBox="0 0 242 242" fill="none" xmlns="http://www.w3.org/2000/svg">
<path d="M232.244 55.1305L186.869 9.75551C186.163 9.0546 185.325 8.50008 184.403 8.12374C183.482 7.74739 182.495 7.55663 181.5 7.56238H30.25C24.2329 7.56238 18.4622 9.95267 14.2075 14.2074C9.95278 18.4621 7.5625 24.2328 7.5625 30.2499V211.75C7.5625 217.767 9.95278 223.538 14.2075 227.792C18.4622 232.047 24.2329 234.437 30.25 234.437H211.75C217.767 234.437 223.538 232.047 227.793 227.792C232.047 223.538 234.438 217.767 234.438 211.75V60.4999C234.443 59.5046 234.253 58.518 233.876 57.5966C233.5 56.6752 232.945 55.8372 232.244 55.1305ZM151.25 22.6874V68.0624H90.75V22.6874H151.25ZM60.5 219.312V166.375C60.5 164.369 61.2968 162.446 62.715 161.027C64.1333 159.609 66.0568 158.812 68.0625 158.812H173.938C175.943 158.812 177.867 159.609 179.285 161.027C180.703 162.446 181.5 164.369 181.5 166.375V219.312H60.5ZM219.313 211.75C219.313 213.756 218.516 215.679 217.098 217.097C215.679 218.516 213.756 219.312 211.75 219.312H196.625V166.375C196.625 160.358 194.235 154.587 189.98 150.332C185.725 146.078 179.955 143.687 173.938 143.687H68.0625C62.0454 143.687 56.2748 146.078 52.02 150.332C47.7653 154.587 45.375 160.358 45.375 166.375V219.312H30.25C28.2443 219.312 26.3207 218.516 24.9025 217.097C23.4843 215.679 22.6875 213.756 22.6875 211.75V30.2499C22.6875 28.2442 23.4843 26.3206 24.9025 24.9024C26.3207 23.4841 28.2443 22.6874 30.25 22.6874H75.625V68.0624C75.625 72.0738 77.2185 75.9209 80.055 78.7574C82.8915 81.5939 86.7386 83.1874 90.75 83.1874H151.25C155.261 83.1874 159.109 81.5939 161.945 78.7574C164.781 75.9209 166.375 72.0738 166.375 68.0624V22.6874H178.399L219.313 63.6005V211.75Z" fill="black"/>
</svg>
